<?xml version="1.0" encoding="utf-8"?>
<!-- Generator: Adobe Illustrator 26.0.3, SVG Export Plug-In . SVG Version: 6.00 Build 0)  -->
<svg version="1.1" id="Calque_1" xmlns="http://www.w3.org/2000/svg" xmlns:xlink="http://www.w3.org/1999/xlink" x="0px" y="0px"
	 viewBox="0 0 686.6 916.5" style="enable-background:new 0 0 686.6 916.5;" xml:space="preserve">
<style type="text/css">
	.st0{fill-rule:evenodd;clip-rule:evenodd;fill:#333E21;}
</style>
<g id="Groupe_3917" transform="translate(670.788) rotate(89)">
	<g>
		<g id="Groupe_3916" transform="translate(0 0)">
			<path id="Tracé_44577" class="st0" d="M465.2,537.5c2,0.3,4,0.4,5.9,0.8c8,1.9,16,3.8,23.8,6c13.6,3.7,27.2,7.3,40.7,11.5
				c13.1,4.1,26,9,38.6,14.7c9.7,4.4,19.6,8.3,29.5,12.6c4.4,1.9,8.6,4.2,13.1,6c9.3,3.8,17.3,9.6,25.6,15c1.9,1.3,3.6,2.9,5.3,4.2
				c1.7-1.1,1.9-2.3,1.1-3.7c-0.1-0.3-0.3-0.6-0.6-0.7c-2.4-3-5.1-5.8-7.4-8.9c-1.9-2.2-4.1-4.2-6.6-5.7c-4.2-2.9-8.2-6.1-12.3-9.2
				c-8.3-6.3-17.4-11.2-26.3-16.5c-12.5-7.1-25.5-13.5-38.7-19.2c-7.2-3.2-14.6-6-21.9-9c-13.1-5.2-26.6-9.1-40.1-13.4
				c-4.1-1.3-8.4-2-12.5-3.2c-11.5-3.4-23.2-5.4-35-7.3c-8.2-1.3-16.5-2.7-24.7-4c-1.2-0.2-2.4-0.4-3.6-0.7
				c-0.3-1.1,0.4-1.2,0.9-1.2c3.9-0.2,7.7-0.8,11.6-0.7c4.4,0.1,8.7-0.5,13-0.5c5.3-0.1,10.5,0.2,15.8,0.2c6.5,0,13-0.3,19.5-0.1
				c13.3,0.3,26.6-0.4,39.8,1.9c9.3,1.7,18.6,3.1,27.9,4.9c12.4,2.3,24.7,4.6,36.7,8.4c5,1.6,10.2,2.7,15.2,4.2
				c6.4,1.9,12.7,4.1,19.1,6.1c2.8,0.9,5.6,1.8,8.5,2.4c6.5,1.6,12.8,3.7,19,5.9c2.9,1.1,5.9,2,8.9,2.7c9.2,1.7,17.8,5.1,26.8,7.4
				c1.2,0.3,2.3,0.9,3.5,1.3c1,0.4,2,0.6,3.1,0.7c3.4-0.1,5-2.7,3.6-5.7c-0.4-0.8-0.9-1.6-1.6-2.2c-2.2-1.9-4.6-3.6-7.1-5.2
				c-7.3-4-14.6-8.2-22.2-11.7c-12.5-5.8-25.1-11.5-37.8-16.7c-9.6-3.8-19.5-7-29.4-10.1c-7.1-2.2-14.4-3.7-21.6-5.4
				c-9.2-2.2-18.3-4.6-27.5-6.6c-5.8-1.1-11.6-1.9-17.5-2.4c-11-1-21.9-1.8-32.9-2c-10.1-0.1-20.1-0.8-30.2-1c-6-0.1-12,0-18.1,0
				c-5.4,0-10.8,0.1-16.2,0.1c-4,0-8,0.1-12.1,0.1c-0.6-0.1-1.1-0.2-1.7-0.4c3.8-3.1,8.5-5,13.3-5.6c4-0.4,8-0.5,12-0.6
				c4.8-0.1,9.6-0.1,14.4-0.1c1.4-0.1,2.8,0,4.2,0.2c3.4,0.8,6.8,0.5,10.2,0.2c4.5-0.4,8.9-0.6,13.4-1c5.7-0.6,11.3-1.4,17-2.1
				c1.4-0.3,2.8-0.4,4.2-0.3c5.5,0.4,10.9-0.2,16.2-0.5c2.6-0.2,5.3-0.2,7.9,0.1c3.7,0.3,7.4,0.2,11.1,0c5.7-0.4,11.4-0.5,17.2-0.8
				c2.6-0.1,5.2-0.3,7.8-0.4c4.9-0.1,9.9-0.2,14.9-0.1c16.1,0.4,32.2,0.9,48.3,1.5c14.7,0.6,29.4,1.7,44,3.2
				c5.7,0.6,11.4,0.8,17.1,1.3c1.7,0.1,3.4,0.3,5.1,0.7c13.5,2.2,27.1,3,40.7,4c9.1,0.6,18.2,1.2,27.2,3.2c3.6,0.7,7.3,1.3,11,1.6
				c8.2,1.1,16.1,3.3,24.1,5.2c1.4,0.3,2.7,0.7,4,1.1c1.6,0.6,3.3-0.9,2.6-3c-0.5-1.8-1.7-3.3-3.4-4.3c-1.4-0.9-2.9-1.9-4.3-2.6
				c-4.7-2.7-9.6-5-14.7-6.9c-10-3.5-19.7-7.5-29.5-11c-3.9-1.5-8-2.3-12-3.5c-8.7-2.7-17.7-4.4-26.6-6.4c-0.5,0-0.9-0.1-1.4-0.2
				c-3.8-2.4-8.2-2.5-12.4-3.4c-2.4-0.5-4.9-0.8-7.3-1.5c-6.3-1.6-12.7-2.7-19.2-3.1c-8.4-0.4-16.5-2.5-24.9-2.4
				c-7.2,0.1-14.5-0.8-21.7-1c-5.4-0.2-10.9-0.1-16.3,0.4c-9.1,1-18.2,1-27.3,1.5c-2.2,0.1-4.4,0.2-6.5,0.4
				c-11.5,1.4-23.1,1.6-34.8,1.6c-2.2,0-4.3,0.2-6.4,0.6c-5.8,1-11.8,1-17.6,1.4c-0.6,0-1.2-0.1-1.8-0.1c-0.3-1.3,0.6-1.3,1.2-1.5
				c10.3-3.4,20.6-6.9,31-10c23.1-7,46.1-14.5,68.3-24.2c7.9-3.5,15.7-7.3,23.6-10.9c8-3.7,16.1-7.3,24.1-10.9
				c7.6-3.5,15.2-6.8,22.8-10.4c7.8-3.7,15.5-7.6,23.2-11.6c3.1-1.6,6.2-3.5,9.2-5.3c8.3-5.1,17-9.7,25.9-13.7
				c2.6-1.3,5.2-2.7,7.8-4.2c9.9-5.7,19.8-11.5,29.1-18.2c5.7-4,11.2-8.3,16.7-12.5c2.7-2,4.3-4.9,6-7.6c2.7-4.5,4.4-9.6,4.9-14.8
				c0.4-3.5-2.8-5.8-6.1-4.4c-3.8,1.7-7.5,3.6-11.1,5.9c-4.4,2.6-9.1,4.7-13.6,7.1c-10.7,5.6-21.4,11.2-31.9,17.1
				c-8.1,4.5-16.1,9.4-24.1,14c-4.7,2.6-9.6,5-14.4,7.5c-1.6,0.9-3.4,1.6-5,2.5c-3.1,1.8-6.3,3.4-9.5,4.7c-3.7,1.5-7.2,3.6-10.8,5.4
				c-2.5,1.3-5,2.5-7.5,3.7c-0.6,0.3-1.2,0.4-1.7,0.7c-6.6,4.2-14.1,6.1-21.6,8.2c-4,1.3-7.9,2.8-11.6,4.6
				c-4.2,1.9-8.5,3.6-12.8,5.5c-2.5,1.1-5.1,2.3-7.5,3.6c-9,5.1-18,10.4-27,15.5c-2.6,1.4-5.2,2.7-8,3.8c-6.5,2.9-13,5.8-19.6,8.6
				c-3.2,1.4-6.6,2.5-9.9,3.8c-6.5,2.6-12.9,5.3-19.3,8c-0.7,0.3-1.5,0.3-2.2-0.1c0.5-0.5,1.1-1,1.7-1.4
				c13.8-8.4,27.6-16.6,41.3-25.1c8.9-5.5,17.7-11.4,26.6-17c8.2-5.2,15.9-11.2,23.8-16.9c8.1-5.8,16.7-10.7,24.9-16.2
				c9.8-6.5,19.7-12.9,29.6-19.2c7-4.5,14.1-8.8,21.2-13.3c7.1-4.4,14.3-8.7,21.4-13.2c5.8-3.6,11.4-7.4,17.1-11.2
				c1-0.7,1.9-1.5,2.8-2.4c-0.7,0-1.4,0-2.4,0c3.4-3,7.2-5.5,11.2-7.6c-0.6,0.8-1.3,1.6-2.1,2.2c-2.2,1.8-4.5,3.6-6.8,5.3
				c1.5-0.7,3-1.5,4.4-2.4c13.5-9.7,26.8-19.5,39.5-30.2c5.4-4.5,10.7-9.3,16.1-14c3.8-3.4,7.7-6.7,11.6-10.1
				c5.4-4.8,11-9.4,16.3-14.5c8.6-8.2,17-16.7,25.5-25.1c5.9-5.9,11.8-11.8,17.7-17.7c1.4-1.4,3.1-2.6,4.6-3.9
				c6.8-6.2,12.9-13,18.3-20.4c2.1-2.8,4.6-5.4,6.2-8.7c0.2-0.8,0.4-1.7,0.5-2.5c-1.6,0.5-2.8,0.8-3.9,1.2c-3.1,1.4-6.3,2.7-9.3,4.2
				c-1.3,0.6-2.5,1.2-3.7,1.9c-7.6,4.5-15.1,9-22.8,13.4c-7.8,4.5-15.4,9.2-22.9,14.1c-2.2,1.5-4.6,2.6-6.9,3.8
				c-0.7,0.3-1.4,0.7-2,1.2c-3.3,3.1-7.2,5.2-11.1,7.6c-2.2,1.4-4.3,3-6.4,4.5c-2.3,1.7-4.5,3.4-6.6,5.1c-4,3.1-7.9,6.4-11.9,9.6
				c-2.6,2.2-5.3,4.3-8.1,6.2c-7.3,4.7-13.7,10.5-20.4,16c-5.4,4.4-10.9,8.6-16.3,13c-5.2,4.2-10.4,8.4-15.5,12.5
				c-3.7,3.1-7.4,6.1-11.1,9.2c-4.6,3.9-9.1,7.8-13.8,11.7c-5.6,4.6-11.3,9.2-16.9,13.7c-0.8,0.7-1.7,1.3-2.6,2
				c-1.3,1.1-2.6,2.2-4,3.2c-6.5,4.7-13.1,9.3-19.7,14c-8.4,5.9-16.9,12-25.4,17.8c-5.6,3.9-11.4,7.5-17.1,11.2
				c-7.5,4.7-14.9,9.5-22.5,14c-8.4,4.9-17,9.5-25.5,14.2c-2.7,1.5-5.4,3.1-8.2,4.5c-5.1,2.7-10.2,5.1-15.3,7.8
				c-2.7,1.4-5.4,3-8.2,4.4c-1,0.5-2.1,0.9-3.2,1.3c1.2-2,2.7-3.9,4.3-5.7c5.5-6.3,11-12.6,16.6-18.9c2.5-2.7,5.1-5.3,7.6-8.1
				c12.5-13.1,24.8-26.4,37.4-39.4c8.2-8.4,16.1-17.1,23.7-26.1c4.2-5,8.1-10.2,11.8-15.6c6.3-9,12.5-18.1,18.7-27.1
				c4.5-6.5,9-13.1,13.4-19.5c1.4-2,2.9-4,4.5-5.9c2.8-3.3,5.2-6.9,7.7-10.5c6.7-9.3,12.3-19.3,17.9-29.2
				c6.2-11.1,13-21.8,18.1-33.5c1.2-2.8,2.3-5.8,3.4-8.7c1.2-3.1,2.5-6.3,3.7-9.5c1.6-4.1,2.2-8.4,1.8-12.8
				c-0.4-3.2-0.6-6.4-2.2-9.4c-0.5-0.6-1.1-1.2-1.6-1.8c-2,1.8-3.6,3.9-5,6.2c-1.2,2.1-2.3,4.4-3.5,6.6c-1.1,2.1-2.1,4.1-3.4,6.1
				c-4.5,7-9,14-13.6,21c-0.2,0.4-0.5,0.8-0.7,1.2c-6,6.9-9.8,15.3-15.3,22.6c-5.3,7-9.8,14.6-14.6,22c-0.7,1-1.5,2-2.2,3
				c-0.8,0.9-1.5,2-2,3.1c-0.9,3-3,5.4-4.7,8c-3.1,4.7-6.4,9.1-9.6,13.7c-6.2,8.7-12.4,17.4-18.7,26c-4.1,5.6-8.1,11.3-12.8,16.5
				c-4.1,4.6-7.5,9.9-11.5,14.5c-5,6.1-9.5,12.6-13.4,19.4c-6,10.5-13.2,20.2-21.4,29.1c-6.9,7.6-13.9,14.9-20.8,22.4
				c-4.8,5.3-9.6,10.5-14.1,16c-4.9,5.8-9.5,11.8-14.3,17.8c-1.8,2.3-3.6,4.7-5.5,6.8c-5.5,6.3-10.8,12.7-16.9,18.5
				c-4.1,3.9-8,8.1-12.2,12c-4,3.6-8,7.3-12.2,10.6c-6.3,5-13.3,9.1-19.8,13.7c-5.5,3.7-10.8,7.8-15.9,12.1
				c-0.3,0.3-0.7,0.5-1.1,0.8c-0.5-1.3,0.7-1.7,1.2-2.5c0.6-1.1,1.3-2.1,2.2-3c0.8-0.7,1.7-1.3,2.6-1.8c0.8-0.5,1.4-1.1,2-1.8
				c6.3-8.2,12.4-16.6,18.9-24.7c4.9-6.2,10.1-12.1,15.2-18.1c3.7-4.4,7.5-8.7,11.4-12.9c5.9-6.5,11.4-13.5,16.7-20.4
				c1.4-1.8,2.6-3.9,3.9-5.8c0.2-0.4,0.4-0.8,0.7-1.2c4.3-4.3,7-9.9,10.6-14.7c2.9-4,5.2-8.3,7.8-12.6c2.9-4.8,5.6-9.6,8.6-14.3
				c6-9.5,12.1-19,18.3-28.5c3.3-5.1,6.8-10,10.1-15c3.6-5.4,7.2-10.8,10.7-16.3c5-7.9,9.9-16,15.1-23.9c4.4-6.8,8-14,11.7-21.1
				c5.4-10.4,10.2-21.3,14.1-32.3c3.2-8.6,6.9-16.9,11.2-25c4.8-9.5,9.6-19,14.4-28.6c2.1-4.5,3.4-9.4,3.6-14.4
				c0.3-2.6-0.2-5.3-1.6-7.6c-0.8-1.6-2.2-2.7-3.9-3.2c-1.6-0.6-3.4-0.2-4.7,1c-0.9,0.9-1.8,1.7-2.6,2.7c-1.4,1.7-2.8,3.3-4.1,5
				c-5.5,7.1-10.9,14.3-16.3,21.5c-1.1,1.3-2,2.7-3,4c-8,11.1-14.6,23-21.3,34.8c-4,7-8.2,13.9-11.8,21.1
				c-6.2,12.1-13.3,23.8-19.5,35.8c-4.5,8.7-8.6,17.6-12.9,26.3c-3.3,6.6-6.6,13.2-10,19.9c-3.7,7.5-7.5,14.9-11.4,22.3
				c-3.6,6.9-7.4,13.6-11,20.4c-2.3,4.4-4.6,8.8-6.8,13.1c-0.8,1.5-1.6,3-2.5,4.5c-4.5,7.9-8.8,15.9-13.7,23.7
				c-6.9,10.7-13.6,21.5-21.1,31.7c-4.5,6.1-8.9,12.3-13.3,18.5c-1.7,2.1-3.5,4.1-5.5,5.9c-1.1-0.5-1.1-1.1-0.9-1.7
				c2.9-8.2,2.7-16.7,2.6-25.3c0-2.3-0.2-4.6-0.3-7c-0.2-5.2-1.5-10.4-2.3-15.5c-0.1-0.6-0.3-1.2-0.5-1.8c-1-3.6-0.3-7.5,2-10.6
				c1.5-2.1,2.9-4.4,4.1-6.7c2.6-5,4.9-10,7.4-15c3.6-7.5,7.4-15,11-22.5c3.5-7.3,6.9-14.5,10.3-21.8c4.3-9.1,7.6-18.6,11-28.1
				c2.5-7.3,5-14.6,7.3-22c1.2-3.8,2-7.8,2.9-11.7c1.7-7.6,3.4-15.1,4.9-22.7c1.4-6.5,2.3-13.1,2.7-19.7c0.2-2.2,0.6-4.3,1.1-6.4
				c0.8-4.4,1.6-8.8,2.3-13.2c0.6-3.1,1.1-6.4,1.7-9.5c1-6.6,1.4-13.2,1.2-19.9c0-5.4,0-10.9-0.2-16.3c-0.1-2.8-0.4-5.5-0.8-8.3
				c-0.6-3.6-1.5-7-1.8-10.5c-0.4-3.9-1.6-7.6-3.5-11c-1-2.1-2.2-4.1-3.4-6.1c-1.1-2.1-3.7-2.8-5.8-1.6c-0.4,0.2-0.7,0.4-1,0.7
				c-1.3,1.1-2.3,2.5-3,4c-0.9,2.3-1.6,4.6-2.2,7c-0.6,2.1-0.5,4.2-1.5,6.2c-1.1,0.2-1.1-0.7-1.1-1.2c-1.2-10.8-3.8-21.3-6.7-31.7
				c-2.1-7.7-4.7-15.4-7-23.1c-3-10.4-7.6-20.3-13.5-29.3c-1.2-1.8-2.4-3.6-4.7-4.2c-1.7,0.3-2.3,1.6-2.4,3
				c-0.1,1.1-0.1,2.2,0.1,3.2c0.2,4.2,0.3,8.4,0.6,12.5c0.6,9.7,1.1,19.5,2,29.2c0.9,10.1,1.6,20.1,1.8,30.1
				c0.3,14.3,0.7,28.5,1,42.7c0.2,12.4,0.3,24.8,0,37.1c-0.2,7.9-1.2,15.7-1.8,23.6c-0.2,2.9-0.4,5.8-0.6,8.8
				c-0.7,5.2-1.8,10.4-3.3,15.4c-1.9,7.7-4.4,15.2-7.3,22.5c-2.4,5.9-5.2,11.5-8,17.3c-3.9,8.1-7.9,16.1-12,24.1
				c-2,4-4.5,7.8-6.7,11.7c-0.9,1.5-1.6,3-2.5,4.4c-0.5,0.9-1.2,1.8-2,2.9c-1-0.5-1.9-1.2-2.7-1.8c-4.3-4.2-8.6-8.4-12.9-12.7
				c-3.1-3.3-6.6-6.1-10.4-8.5c-4.6-2.6-8.9-5.6-13.4-8.3c-2.1-1.2-4.4-2.1-6.7-3.1c-0.3-0.1-0.6-0.1-0.9-0.3
				c-6.1-3.6-13.1-4.4-19.8-5.9c-8.6-1.9-17.4-3.1-26.2-3.4c-0.8-0.1-1.5-0.1-2.3-0.1c-10.1,0.6-20.1,0.6-30,2.5
				c-1.4,0.3-2.8,0.5-4.1,0.4c-4.3-0.1-7.2,2.6-10.1,5.1c-0.9,0.9-0.9,2.5,0,3.4c0.3,0.3,0.7,0.6,1,0.9c4.6,3.6,9.5,6.9,14.6,9.9
				c13.4,7.4,27.7,13,41.5,19.6c8.7,4.1,17.6,7.7,25.9,12.6c10,5.8,19.7,12.4,28.8,19.6c1.1,1,2.5,1.8,3.3,3.7
				c-0.9,1.5-1.7,3.3-2.7,5c-4.9,7.6-9.9,15.1-14.8,22.5c-1.2,1.8-2.5,3.5-3.9,5.2c-6.8,8.7-13.5,17.4-20.4,25.9
				c-8.8,10.8-17.8,21.4-26.7,32.1c-3.3,3.9-6.2,8.1-9.8,11.7c-11.3,11.1-21.4,23.3-32.3,34.6c-8.1,8.7-16.7,17-25.7,24.8
				c-6.4,5.4-12.7,11-18.9,16.5c-4.4,4-9.3,7.2-14.7,9.5c-0.7,0.3-1.4,0.6-2.1,1c-5.8,4.1-12.4,7.1-18.5,10.5
				c-3.5,1.9-7.3,2.6-11.1,3.2c-7.3,1-14.7,2-22.1,2.9c-8,1-15.8,3.1-23.6,5c-9.9,2.4-19.6,5.9-29.3,8.9c-5.3,1.7-10.7,3-16.1,4.5
				c-11.1,3.2-22.3,6.5-33.4,9.8c-4.7,1.5-9.3,3.3-13.9,5.1c-4.1,1.6-8.1,3.3-12.1,4.9c-3,1.2-6.1,2.3-9.2,3.2
				c-6.4,1.7-12.6,4.2-19.3,5.1c-2,0.3-3.9,0.8-5.9,1.3c-1.3,0.4-2.7,0.8-4,1.1c-1.4,0.1-2.7,0.1-4.1,0c-2.5,2.1-4.3,4.9-5.2,8.1
				c-1.4,4.7-3.3,9.3-4.6,14c-1.3,4.2-1.7,8.5-1.2,12.9c0,0.6,0.1,1.3,0.2,1.9c0.3,1,1.2,1.5,2.2,1.3c0.1,0,0.2-0.1,0.4-0.1
				c0.4-0.1,0.8-0.4,1.2-0.7c3.5-4.2,8.5-5.6,13.2-7.6c5.4-2.4,11.1-4,16.5-6.1c6.5-2.6,12.8-5.5,19.2-8.3c8-3.6,16-7.3,24-10.9
				c2-0.9,4-1.8,5.9-2.7c9.3-4.6,18.8-9,28.9-11.2c3.3-0.7,6-2.5,9.1-3.6c6.6-2.2,13.1-4.7,19.8-6.6c6.5-1.8,13.2-3.3,19.9-4.4
				c10.4-1.8,20.8-3.3,31.2-5c4.7-0.8,9.5-1.2,14.3-1.2c3.4-0.1,6.8-0.3,10.2-0.6c9.4-0.7,18.8-1.6,28.2-2.2c3.6-0.2,7.1,0,10.7-0.1
				c5.6-0.1,11.1-0.3,16.7-0.3c7.9,0.1,15.8,0.4,23.7,0.7c3.6,0.1,7.1,0.3,10.7,0.5c1.9,0,3.7,0.1,5.4,1.1c0.8,0.5,1.7,0.7,2.7,0.5
				c6.1-0.8,12,0.6,18,1.4c9.2,1.4,18.3,2.8,27.5,4.3c9,1.6,18,3.3,27,5c4.3,0.8,8.5,1.6,12.8,2.4c15.7,3.1,31.1,7.1,46.3,12
				c7.6,2.6,15,5.9,22.6,8.5c15.6,5.4,30.2,12.9,44.4,21c9.6,5.5,18.9,11.4,28,17.5c5.9,4,11.7,8.2,17.5,12.2
				c1.2,0.8,2.7,1.5,3.9,2.4c1.7,1.1,3.3,2.3,4.9,3.5c4.1,3.2,8.1,6.7,12.3,9.8c2.7,2.1,5.7,3.7,8.4,5.8c4,2.9,8,5.9,12,8.8
				c3.7,2.8,7.2,5.9,11.7,7.5c0.9,0.4,1.6,0.9,2.3,1.5c1.3,1,2.9,1.6,4.6,1.7c0.3-0.4,0.6-0.6,0.6-0.9c-1.1-7.5-2.9-14.9-7.4-21.2
				c-4.2-6.1-8.7-12.1-13.1-18c-1.1-1.7-2.4-3.2-3.6-4.9c-4.1-5.7-8.8-10.8-14-15.4c-2.7-2.4-5.1-5-7.6-7.5
				c-1.7-1.6-3.4-3.2-5.2-4.7c-1.4-1.2-2.9-2.3-4.4-3.5c-5.8-5.2-12.3-9.4-18.6-13.9c-10.4-7.5-21.3-14.5-32.5-20.8
				c-12.5-7-25.3-13.8-39-18.4c-3.1-1-6-2.4-8.6-4.4c-0.2,0-0.5-0.1-0.8-0.2C464.7,537.2,465,537.3,465.2,537.5 M85.2,558.9
				c-0.1,0.1-0.3,0.2-0.4,0.2c-0.1,0-0.2-0.1-0.3-0.1c0.2,0,0.4,0,0.6,0.1c0.2-0.1,0.5-0.2,0.7-0.2
				C85.7,558.9,85.4,558.9,85.2,558.9 M606,522.8c-0.7-0.1-1.4-0.3-2-0.5c-0.2-0.1-0.4-0.2-0.7-0.3c0.2,0.2,0.5,0.3,0.7,0.4
				c0.6,0.2,1.3,0.4,2,0.6c0.2-0.1,0.5-0.2,0.7-0.3c0.1,0.1,0.1,0.2,0.2,0.2C606.6,522.9,606.3,522.9,606,522.8 M695.7,373.6
				c-0.1,0-0.3,0-0.4,0C695.4,373.7,695.5,373.7,695.7,373.6c0.2,0,0.3-0.1,0.5-0.2C696,373.5,695.8,373.6,695.7,373.6 M682.2,380.5
				c-0.1,0-0.2,0.1-0.4,0.1C681.9,380.6,682,380.5,682.2,380.5c0.1-0.1,0.2-0.3,0.3-0.4c-0.1,0-0.2,0-0.2,0.1
				C682.2,380.2,682.3,380.4,682.2,380.5 M669.4,386.3c-0.6,0.2-1.3,0.4-1.9,0.6c-0.7,0.2-1.3,0.4-2,0.7c-1.1,1.3-2.7,2-4.4,2
				c-0.7,0.3-1.3,0.7-2,1.1c-0.6,0.4-1.1,1-2,0.5c-0.1,0.1-0.2,0.2-0.3,0.3c-0.1,0-0.2,0.1-0.3,0.1c0.2-0.1,0.4-0.2,0.6-0.2
				c0.6-0.5,1.1-1.3,2-0.7c0.4-0.8,0.9-1.3,1.9-1c1.2-1.2,2.8-2,4.5-2.1c0.6-0.2,1.3-0.4,1.9-0.6
				C667.9,386.4,668.7,386.1,669.4,386.3c0.2-0.1,0.5-0.2,0.7-0.4C669.9,386.1,669.6,386.2,669.4,386.3 M673,380.8
				c-0.6,0.3-1.3,0.5-2,0.7c-1.8,1.5-4,2.5-6.3,2.8c-0.3,0.1-0.6,0.1-0.9,0.2c0.1-0.1,0.1-0.3,0.2-0.3c0.3,0,0.5,0.1,0.7,0.2
				c1.6-2,3.8-2.7,6.3-2.9c0.7-0.2,1.3-0.4,2-0.7c0.5-0.6,1-1.4,2-1.1c0.6-0.8,1.2-1.8,2.4-1.2c0.7-0.3,1.4-0.7,2-1.1
				c2.8-1.9,5.4-4,9-4.2c1.5-1.7,1.5-1.7,3.1-1.6c-0.7,1-1.9,1.5-3.1,1.5c-2.6,2.1-5.7,3.5-8.9,4.1c-0.7,0.4-1.4,0.7-2.1,1.1
				c-0.7,0.6-1.2,1.5-2.4,1.2C674.4,380.1,673.7,380.4,673,380.8 M563,493.8c-0.1,0.1-0.2,0.2-0.3,0.3c-0.1,0-0.2,0-0.2,0l0.6-0.1
				c0.2,0.1,0.5,0.2,0.6,0.3C563.4,494.1,563.2,493.9,563,493.8 M650.7,394.5c-0.6,0.1-1.3,0.3-1.9,0.4c-0.3,0.1-0.5,0.1-0.8,0.2
				c0.2,0,0.5,0,0.7-0.1C649.4,394.9,650,394.8,650.7,394.5c0.2-0.1,0.5-0.2,0.7-0.4C651.2,394.3,650.9,394.4,650.7,394.5
				 M644.3,397.2c-0.7,0.3-1.3,0.5-2,0.7c-0.7,0.6-1.2,1.7-2.4,1.3c-0.7,0.4-1.3,0.8-2,1.2c-0.7,0.2-1.3,0.4-2,0.6
				c-0.3,0.1-0.6,0.1-0.9,0.1c0.3,0,0.6,0,0.9,0c0.7-0.2,1.3-0.4,1.9-0.6c0.7-0.4,1.4-0.8,2-1.2c0.8-0.5,1.6-0.9,2.4-1.3
				c0.7-0.3,1.3-0.5,2-0.8c0.3,0,0.5-0.1,0.7-0.1C644.8,397.2,644.5,397.2,644.3,397.2 M479.6,575.1c-1,0.7-1.5,0-2-0.7
				c-0.3,0.1-0.5,0.2-0.8,0.2c0.2,0,0.5-0.1,0.7-0.1c0.7,0.2,1.4,0.4,2.1,0.6c0.1,0.1,0.3,0.2,0.4,0.3
				C480,575.4,479.8,575.2,479.6,575.1 M639.4,379c-0.6,0.3-1.3,0.6-1.9,1c-0.4,0.1-0.7,0.2-1.1,0.3c0-0.1,0.1-0.2,0.1-0.4
				c0.4,0,0.7,0.1,1,0.2c0.5-0.7,0.9-1.4,2-0.9c0.2-0.2,0.4-0.4,0.6-0.5c0.1,0.1,0.1,0.4,0.2,0.5C639.9,379,639.6,379,639.4,379
				 M476.9,547.3c-0.1,0.2-0.3,0.5-0.5,0.7c0,0.1-0.2-0.1-0.3-0.1C476.4,547.7,476.6,547.5,476.9,547.3c0.3,0.2,0.5,0.4,0.6,0.6
				C477.3,547.7,477.1,547.5,476.9,547.3 M472.1,545.7c-0.1,0.1-0.3,0.2-0.4,0.2c0.2-0.1,0.4-0.1,0.5-0.3c0,0.1,0,0.3,0.1,0.3
				c0,0.1,0.1,0.1,0.3,0.1C472.4,546,472.3,545.9,472.1,545.7 M582.3,420.4c-0.6,0.3-1.3,0.5-1.9,0.7c-0.7,0.3-1.4,0.6-2.1,0.9
				l-0.4-0.1c0,0.1,0.1,0.2,0.1,0.3c0.1-0.1,0.2-0.1,0.3-0.2c0.6-0.2,1.4-0.5,2-0.8C580.8,420.7,581.2,420,582.3,420.4
				c0.1-0.1,0.2-0.3,0.4-0.4c-0.1,0-0.2,0-0.3,0.1C582.3,420.2,582.3,420.3,582.3,420.4 M578.7,415.7c-0.2,0.1-0.5,0.2-0.5,0.3
				c0.2,0,0.3,0,0.5-0.1c0.7-0.3,1.3-0.7,2-1c1.2-1.3,2.9-1.8,4.5-2.3c2.9-1,6-1.7,8.6-3.2c3.9-2.3,8.2-3.7,12.4-5.3
				c2.8-1,5.8-2.2,8.6-3.5c2.3-1,4.5-2.1,6.6-3.5c2.1-1.3,4.6-1.3,6.8-2.1c3.3-1.1,6.4-3.1,9.5-4.8c2.4-1.3,4.7-3,7.3-4.1
				c11.9-5.2,23.4-11.2,34.4-18.1c6.8-4.2,13.9-8,21.2-11.4c5.9-2.7,11.6-5.6,17.2-8.9c2-1.1,4.1-2,6.2-2.9c2.5-1.5,5-3,7.5-4.4
				c0.6-0.3,1.4-0.2,2.1-0.2c0.5-0.4,0.5-1.3,1.8-1c-0.6,0.3-1.2,0.6-1.8,0.9c-0.8,0.8-1.6,1.7-2.5,2.5c1.4-0.6,2.9-1.1,4.2-1.9
				c4.4-2.6,8.7-5.2,13.1-7.9c10.4-6.4,20.8-12.8,31.3-19.1c5-2.8,9.8-6,14.3-9.6c0.9-0.6,1.9-1.2,2.9-1.6c-1.3,2.7-3,5.2-5,7.4
				c-11.2,13.3-25.6,22.3-41,29.9c-6.4,3.2-12.9,6-19.4,9c-5.6,2.6-11.2,5.3-16.8,7.9c-5.6,2.7-11.2,5.4-16.8,8
				c-6.4,3-13,5.8-19.5,8.7c-1.7,0.8-3.4,1.6-5.1,2.2c-2.9,1-5.7,2.3-8.3,4.1c-2,1.2-4,2.3-6.1,3.3c-3.7,1.7-7.4,3.3-10.9,5.2
				c-9.8,5.3-20.1,9.6-30.8,12.8c-0.7,0.2-1.4,0.6-2.1,1c-9.1,5.4-19,8.9-29.1,12.2c-1.6,0.5-3.5,1.5-5.3,0.5
				C580.2,415.5,579.6,416,578.7,415.7 M580.7,402.3c-0.4,0.7-1.2,1-2,0.9c-0.1,0.1-0.2,0.2-0.4,0.2c-0.1,0-0.2,0-0.3,0
				c0.2,0,0.5,0,0.7,0c0.6-0.3,1.3-0.6,1.9-0.9c0.3-0.1,0.7-0.2,1.1-0.3c-0.1,0.1-0.2,0.3-0.2,0.3
				C581.3,402.5,581,402.4,580.7,402.3 M539.7,424.3c-0.6,0.3-1.3,0.6-1.9,0.9c-0.7,0.4-1.3,0.8-2,1.1c-0.1-0.1-0.3-0.2-0.5-0.2
				c0,0.1,0,0.2,0,0.3l0.5-0.1c0.6-0.2,1.3-0.6,2-0.9s1.3-0.6,1.9-0.9c0.2-0.1,0.4-0.2,0.6-0.2C540,424.3,539.8,424.3,539.7,424.3
				 M520.3,443.4c-0.2,0-0.3,0.1-0.4,0.2c0.1,0,0.2-0.1,0.3-0.1c0.1-0.1,0.2-0.1,0.3-0.2c0.1-0.1,0.2-0.2,0.2-0.3
				C520.5,443.2,520.4,443.3,520.3,443.4 M515.1,444.5c-0.7,0.4-1.3,0.8-2,1.2c-1.8,0.7-3.7,1.4-5.6,2.1c-0.7,0.1-1.5,0-2.2-0.1
				c2.2-1.3,4.6-2.1,7.1-2.3c0.2,0,0.5,0.3,0.7,0.5c0.7-0.4,1.3-0.8,1.9-1.1c0.3-0.1,0.6-0.1,0.9-0.2c-0.1,0.1-0.1,0.2-0.2,0.3
				C515.5,444.7,515.3,444.6,515.1,444.5 M499.2,444.2c-0.7,0.3-1.3,0.6-1.9,0.9c-0.6,0.3-1.3,0.5-1.9,0.8c-0.3,0-0.6,0.1-0.9,0.1
				c0.1-0.1,0.1-0.3,0.2-0.3c0.2,0,0.5,0.2,0.7,0.2c0.7-0.3,1.3-0.5,2-0.8c0.6-0.3,1.3-0.6,1.9-0.8c0.3,0,0.5-0.1,0.7-0.2
				C499.7,444.2,499.5,444.2,499.2,444.2 M497,251.3c-0.1,0-0.3,0-0.4,0.1c-0.1,0,0,0.2,0,0.3c0.1-0.2,0.3-0.3,0.4-0.5
				c0-0.1-0.1-0.2-0.1-0.3C496.9,251.1,497,251.2,497,251.3 M491.5,147.6c0,0.3-0.1,0.5-0.2,0.8c-0.1,0-0.2,0.1-0.2,0.1
				c0.2-0.3,0.4-0.6,0.6-0.8c-0.5-0.9,0-1.5,0.6-2c-0.3-0.7-0.4-1.4-0.4-2.1c1-4.4,2-8.8,3.2-13.2c0.3-0.7,0.7-1.3,1.2-1.8
				c-0.5-1.1-0.4-2.3,0.3-3.3c0.3-0.7,0.6-1.4,1-2.1c-0.5-0.8-0.1-1.4,0.4-2c-0.1-0.3-0.1-0.5-0.2-0.7c0.2,0,0.4,0,0.6,0
				c-0.1,0.3-0.3,0.5-0.5,0.7c-0.1,0.7-0.3,1.4-0.4,2c0.2,1-0.3,1.5-0.9,2.1c1,1.2,0.3,2.2-0.3,3.3c-0.4,5.9-2.2,11.6-4,17.2
				C492,146.3,491.8,146.9,491.5,147.6 M633.1,140.4c0.2,1.2-0.6,1.9-1.4,2.7c0.5,1.3-0.3,2-1.3,2.7c-0.8,4.1-2.5,8.1-5,11.4
				c-0.1,0.5-0.3,1.1-0.4,1.7c-0.2-0.1-0.4-0.2-0.6-0.2c0.4-0.5,0.8-0.9,1.1-1.4c0.9-4.1,2.6-7.9,5-11.4c-0.3-1.2,0.4-2,1.2-2.7
				c-0.2-1.3,0.5-2.1,1.4-2.8c-0.4-1.2,0.3-1.9,1.1-2.7c0-0.5,0.1-0.9,0.1-1.4c0.2,0.1,0.4,0.1,0.6,0.2c-0.3,0.4-0.6,0.8-0.9,1.2
				C634.8,138.9,633.8,139.5,633.1,140.4 M607.3,166.7c-0.4,1.1-1.2,2-2.3,2.4c-0.6,0.9-1.2,1.8-1.8,2.7c-1.2,2.8-2.1,5.8-4.1,8.2
				c-0.3,0.4-0.3,1.1-0.5,2.5c2.6-3.4,4.2-6.3,6-9.2c1.9-2.9,3.5-5.8,5.6-8.6c2-2.6,3.4-5.8,6.8-8.8c-0.3,1.2-0.7,2.4-1.2,3.6
				c-4,8.7-8,17.4-12,26c-0.9,1.9-1.8,3.6-2.8,5.4c-1.4,2.6-2.9,5.1-4.2,7.7c-4.6,9.8-9.7,19.3-15.2,28.6
				c-5.2,8.6-10.5,17.1-15.7,25.7c-0.4,0.4-0.7,0.8-1.1,1.2l-0.1,0c0.4-0.4,0.8-0.8,1.2-1.2c-0.3-0.7-0.5-1.3-0.8-2.2
				c-1.9,2.9-3.7,6-5.3,9.2c-1.8,3.3-3.8,6.3-5.7,9.5c-1.7,3.1-3.3,6.3-5.2,9.3c-2,3-2.9,6.7-5.6,9.2c0.5-1.5,1.1-2.9,1.8-4.2
				c5.7-11.4,11.6-22.8,16.4-34.7c0.9-2.1,1.3-4.4,2.3-6.5c5-9.6,7.9-20.1,13.2-29.6c3.3-6.1,6.3-12.4,9.5-18.5
				c2.4-4.6,4.9-9.2,7.5-13.8c0.5-0.8,1-1.5,1.6-2.2l0.4,0.3c-0.7,0.7-1.4,1.3-2.1,1.9c0,0.9-0.1,1.8-0.3,2.6c-0.8,2-2,3.9-2.9,5.7
				c-2.7,5.7-5.5,11.3-8.1,17c-0.2,0.7-0.3,1.4-0.2,2.1l-0.1,0c0.8-1.3,1.7-2.5,2.4-3.9c4.4-8.5,8.6-17.1,13.1-25.5
				c2-3.6,3.6-7.6,6.7-10.5c0.1-0.2,0.1-0.5,0.2-0.7c-0.1,0.2-0.2,0.5-0.3,0.7c0.2,0.3,0.5,0.6,0.7,0.9
				C605.7,168.3,606.6,167.5,607.3,166.7c-0.1-0.3-0.2-0.5-0.3-0.8c0-0.1,0-0.3,0.1-0.4c0.1-0.1,0.2-0.2,0.3-0.2
				c0.1,0.2,0.1,0.4,0.1,0.6C607.4,166.1,607.4,166.4,607.3,166.7 M667.7,328.3c-0.2,0.2-0.5,0.3-0.7,0.5c-0.1,0.1-0.2,0.1-0.3,0.2
				c0.1-0.2,0.1-0.5,0.2-0.5C667.1,328.4,667.4,328.4,667.7,328.3c0.4-0.2,0.7-0.6,1.1-0.9c0,0.1,0.1,0.2,0.2,0.3
				C668.5,328,668.1,328.1,667.7,328.3 M435,300c0.5,0.5,0.9,0.9,1.4,1.3c-0.1,0.1-0.3,0.2-0.4,0.4C435.6,301.1,435.4,300.5,435,300
				c-0.1-0.2-0.3-0.5-0.5-0.7c-0.1-0.1-0.1-0.3-0.1-0.4c0.2,0.1,0.5,0.1,0.5,0.3C435,299.4,435,299.7,435,300 M554.5,492.8
				c0.7-0.7,1.5-0.6,2.9,0.6c-1-0.2-1.9-0.4-2.9-0.7c-0.8,0.2-1.6-0.1-2-0.9c-0.8,0.8-1.7,0.5-2.6,0.3c-0.9-0.2-1.8-0.4-2.7-0.6
				c-0.3-0.2-0.5-0.4-0.2-0.1c-0.3-0.3-0.1,0,0.2,0.2c1.8-1.5,3.5,0,5.2,0.4C553.2,491.8,554,492.1,554.5,492.8 M630.2,402.6
				c0.7-0.2,1.4-0.4,2.1-0.6C631.6,403.5,630.9,403.6,630.2,402.6c-0.6,1-1.2,2.1-2.6,2.2c-4.7,2.3-6.9,3-11,3.2
				c3.3-1.5,6.7-2.7,10.3-3.5c0.2,0,0.5,0.2,0.8,0.4C628.4,404.2,629.3,403.4,630.2,402.6 M504.1,497.2c-0.7,0.8-2,0.9-2.8,0.2
				l0.2,0c-2.7,0.9-5.5,0.1-8.3,0.1l0,0c-1.3-0.1-2.6-0.1-4.7-0.2c1.2-0.8,1.8-1.3,2.4-1.7c-2.8,0-5.6,0-8.3-0.1
				c-6.8-0.2-13.6-0.5-20.4-0.7c-7.1-0.3-14.2-0.5-21.3-0.8c-2.9-0.1-5.9-0.2-8.8-0.2c-4-0.1-8,0-12,0.4c-8.6,0.9-17.2,1.9-25.8,2.3
				c-6.5,0.3-12.9,1-19.4,1.5c-3.8,0.3-7.7,0.2-11.6,0.5c-4.3,0.4-8.5,1.1-12.9,0.6c-1.7-0.1-3.4,0-5,0.3c-3.1,0.4-6.1,1-9.1,1.4
				c-2,0.2-4,0.4-6,0.7c-3.4,0.6-6.7,1.4-10,1.9c-2.3,0.4-4.7,0.6-7,0.6c0.4-0.7,0.6-1.1,0.8-1.5c-0.5-0.3-0.9-0.6-1.8-1.2
				c1.1-0.4,2.2-0.7,3.3-0.9c1.1,0,0.4,0.8,0.2,1.3c1.7,0.6,3.1-0.3,4.5-0.7c10.7-3.1,21.6-5.7,32.5-7.8c3.5-0.8,7-1.3,10.5-1.4
				c3.7,0.1,7-0.8,10.5-1.7c2.2-0.6,4.5-1,6.8-1.2c4.8-0.3,9.6-0.2,14.3-1.1c2.3-0.3,4.6-0.4,6.9-0.4c12.2-0.8,24.5-1.7,36.6-2.3
				c15.5-0.9,30.9,0.6,46.4,1.2c10.6,0.5,21.2,1.8,31.9,2.9c13.7,1.4,27.3,4,40.8,6.2c4.3,0.7,8.5,1.4,12.8,2.3
				c10.8,2.2,21.4,5,31.9,8.3c9.3,3.1,18.7,5.7,27.8,9.1c8.8,3.3,17.4,7.3,26,11.3c7.1,3.4,13.8,7.7,20,12.6
				c1.5,0.9,2.8,2.2,3.7,3.7c-1,0.2-1.5,0.4-2,0.3c-1.8-0.5-3.5-1.1-5.2-1.9c-3.8-1.4-7.3-3.3-11.2-4.5c-14.3-4.4-28.5-9.4-43-13.4
				c-5.2-1.5-10.3-3.4-15.6-4.6c-3.6-0.8-7.2-1.9-10.6-3.2c-11.3-4.6-23.1-8.1-35.1-10.6c-12-2.2-24.1-4.1-36.3-5.4
				c-2.6-0.3-5.2-0.8-7.7-1.4l0.1,0c-1.8,0.4-3.6,0.7-5.1-0.7c-0.2,0-0.3,0-0.5,0c-1.2,0.8-2.7,0.7-3.8-0.2L504.1,497.2z
				 M506.4,442.3c-0.6,0-1.2,0.1-1.8,0.1c0-0.1,0-0.3,0-0.4C505.2,442.1,505.7,442.2,506.4,442.3c0.1-0.1,0.1-0.2,0.2-0.3
				c0-0.1,0.1-0.2,0.1-0.2C506.6,442,506.5,442.1,506.4,442.3 M396.4,555.4c-1.7,0.5-1.7,0.5-2.6-0.9
				C394.9,554.9,395.6,555.2,396.4,555.4c1.1-0.7,2.5-0.4,3.3,0.6c0.8-0.5,1.8-0.4,2.5,0.2c0.6,0.4,1.2,0.8,1.7,1.3
				c2.7-0.9,2.7-0.9,4.1,0.5c-1.5-0.2-2.8-0.4-4.2-0.5c-0.7-0.3-1.4-0.5-2.1-0.8c-0.7-0.3-1.4-0.6-2-0.9
				C398.6,556.4,397.3,556.2,396.4,555.4 M384.5,553.8c1-1,2.1-0.3,3.2-0.2c0.2,0.1,0.3,0.2,0.5,0.2c-0.2-0.1-0.4-0.2-0.6-0.3
				c-1,0-2.1,0-3.2,0c-0.1-0.2-0.8,0.3-0.6-0.5C384.1,553.3,384.3,553.5,384.5,553.8 M344.3,463.5c-0.5,0.5-1,0.8-1.6,1.3
				c-0.1-0.2-0.2-0.4-0.3-0.6c0.6-0.2,1.2-0.4,1.8-0.6c0.3-0.1,0.5-0.3,0.7-0.5C344.8,463.3,344.5,463.3,344.3,463.5 M260,521.9
				c0.3-0.3,0.7-0.5,1-0.6c0.4,0,0.7,0,1.1,0c-0.1,0.4-0.2,0.8-0.3,1.1c1.8-0.2,3.7-0.3,5.6-0.5c3.7-0.4,7.4-0.9,11.1-1.1
				c2.5-0.2,4.9-0.2,7.4,0.1c2.4,0.3,4.9-0.7,7.3-0.6c7.1,0,14.3,0.1,21.3,0.3c9.3,0.4,18.6,0.9,27.8,1.5c3.2,0.1,6.5,0.6,9.7,1
				c4.3,0.4,8.6,0.9,13,1.4c7.6,0.9,15.4,1.5,23,2.8c10.8,1.9,21.6,4.2,32.3,6.5c5,1,9.9,2.3,14.8,3.6c4.9,1.4,9.7,3.1,14.7,4.4
				c9,2.3,17.7,5.7,26.4,8.9c6.8,2.6,13.5,5.4,20.2,8.3c10.8,4.3,21.2,9.5,31.1,15.5c5.8,3.6,11.8,6.8,16.7,11.6
				c0.6,0.5,1.2,1,1.9,1.4c13.2,8.7,24,19.9,34.1,31.8c-1.9-1.5-3.8-3.1-5.5-4.7c-2.8-2.5-5.4-5.1-8.2-7.5
				c-5.1-4.3-10.2-8.5-15.5-12.6c-4.8-3.7-9.5-7.5-14.6-10.8c-8.1-5.2-16.4-9.9-24.6-14.9c-0.9-0.5-1.9-1-2.9-1.5
				c-5.5-2.3-11.1-4.6-16.7-6.7c-4.9-1.9-9.9-3.5-14.9-5.2c-7.2-2.4-14.4-4.8-21.6-7c-5.3-1.6-10.8-2.9-16.2-3.9
				c-2-0.4-4.1-1.6-6.3-0.7l0-0.1c0.9,0.6,1.8,1.1,2.8,1.5c5.3,1.6,10.6,3,15.9,4.5c5,1.5,10.1,2.6,14.8,5.1l0.3,0.3
				c0,0-0.2-0.2-0.4-0.5c-0.8,0.3-1.7,0.5-2.6,0.8l0-0.2c0.6,0.5,1.2,0.9,1.9,1.2c10.2,3.8,20.4,7.5,30.4,11.5
				c9.3,3.5,18.1,8,26.4,13.5c6.4,4.3,13,8.4,19.2,13c10.2,7.6,19.8,15.9,28.7,24.9c4.3,4.2,8.6,8.4,12.9,12.7c2.1,2,4,4.2,5.5,6.7
				c-2.5-1.4-4.9-3.1-7-5c-0.6-0.5-1-1.1-1.2-1.9c-0.1-2.2-1.6-2.8-3.1-3.6c-1.6-1-3.1-2-4.8-2.9c-1.1-0.6-2.2-1.1-3.4-1.5
				c-2.5-1.1-5.1-2.2-7.6-3.2c-0.2-0.1-0.3-0.5-0.5-0.7c0.7-0.2,1.4-0.4,2.3-0.6c-0.5-0.6-0.7-1.1-1-1.2c-3.3-2-6.7-3.9-10.1-5.7
				c-3.1-1.5-6.2-3-9.1-4.6c-0.7-0.3-1.6-1.2-1.5-1.5c0.6-1.8-0.6-2.2-1.7-2.7c-3-1.6-6-3.3-9.1-4.7c-6.2-2.8-12.5-5.3-18.8-8
				c-2.7-1.2-5.3-2.6-7.9-3.9c-0.3,0-0.5-0.1-0.8-0.1c0,0,0-0.2-0.1-0.3c0.3,0.2,0.6,0.4,0.9,0.5c0.4-0.5,0.8-0.9,1.3-1.5
				c-0.6-0.5-1.2-1-1.9-1.4c-2-0.9-4-1.7-6-2.4c-2.9-1-5.9-1.8-8.8-2.8c-1-0.3-1.9-0.8-2.7-1.6c-0.9-1.5-2.3-2-3.7-2.6
				c-3.4-1.2-6.7-2.4-10.1-3.5c-3.1-1-6.2-1.8-9.2-3c-1.6-0.6-3.2-1-4.9-1.3c-3.6-0.6-7.2-1.6-10.8-2.4c-0.5-0.2-1.3-0.1-1.5-1.2
				c0.9-0.1,1.8-0.1,2.6,0c5.1,0.7,10.1,1.4,15.1,2.1c0.6,0.1,1.3,0.1,1.1-1c-3.4-1.3-7.1-1.6-10.8-2.1c-7.6-1-15.3-1.7-23-2.6
				c-2.1-0.2-4.3-0.4-6.1-1.8c-0.3,0-0.8,0.5-0.6-0.3c0.2,0.2,0.5,0.3,0.7,0.5c0.8-1.1,1.9-0.7,2.9-0.7c4.9,0.2,9.7,0.6,14.5,0.9
				c1.2,0,2.4-0.2,3.6-0.2v0.1c-2.5-1.4-5.3-1.6-8-1.8c-3.3-0.3-6.8-0.4-10.1-0.7c-5.5-0.4-11-0.9-16.6-1.4
				c-1.1-0.2-2.3-0.4-3.4-0.7c0.8-0.6,1.9-1,2.9-1c4.4,0.1,8.6,0.3,13,0.3c0.7,0,1.4-0.2,2.1-0.3v0.1c-0.8-0.4-1.7-0.6-2.6-0.8
				c-7.7-0.5-15.4-1.2-23.1-1.5c-4.2-0.2-8.3-0.9-12.3-2c-0.5-0.2-1.3,0-1.1-1.3c2.1,0,4.3-0.2,6.4,0c6.7,0.4,13.3,0.9,19.9,1.4
				c1.8,0.1,3.7,0.7,5.4-0.3l0,0.1c-8.3-1.9-16.9-2.4-25.3-3c-2.5-0.2-5-0.2-7.4-0.2c-4.8,0.1-9.6,0.4-14.4,0.3
				c-5.7-0.2-11.4-0.7-17.1-1.1c-0.6,0-1.6,0.1-1.4-1.5c2.7-0.1,5.5-0.2,8.3-0.3s5.6-0.2,8.3-0.2c2.7-0.1,5.3,0,7.9,0.1
				c2.8,0,5.6,0.1,8.4,0c2.7-0.1,5.4,0.6,8.9-0.5c-1.8-0.3-2.6-0.6-3.5-0.6c-11.2-1.1-22.5-1-33.8-0.8c-5.2,0.1-10.5,0.6-15.7,1.1
				c-5.1,0.4-10.2,1.1-15.3,0.5c-2.8-0.3-5.6,0-8.4,0c-2.9,0-5.9-0.2-8.7-0.3c-0.5,0-1.4,0.2-1.3-1c5.2-0.6,10.4-1.2,15.6-1.6
				c5.2-0.4,10.5-0.4,15.7-0.6c5.1-0.2,10.4,0.7,15.6-0.3c-0.9-0.4-1.9-0.6-3-0.7c-14.5-0.9-29-0.5-43.5,1.1
				c-4.9,0.5-9.9,0.9-14.8,1c-4.6,0-9.2-0.4-13.8-0.8c-0.2,0-0.3-0.4-0.5-0.8c1.4-0.1,2.8-0.4,4.2-0.6c5.5-0.6,11.1-1.1,16.6-1.8
				c1.5-0.3,3-0.6,4.4-1.1l0,0.1c-1.8-0.2-3.7-0.3-5.5-0.3c-6.6,0.4-13.2,1.1-19.9,1.6c-1.7,0.3-3.3,0.4-5,0.5
				c-10.8,0.1-21.6,1.6-32.4,2.3c-7.7,0.4-15.4,0.9-23.1,1.3c-2.7,0.2-5.5-0.5-8,1.3c-0.7,0.5-1.8,0.4-2.8,0.5
				c-2.1,0.2-4.3,0.4-6.4,0.7c-5.8,0.7-11.7,1.5-17.5,2.3c-8,1-16,2-23.9,3.2c-13.3,1.8-25.9,6-38.4,10.5
				c-11.1,3.9-22,8.2-32.9,12.4c-1.6,0.6-3.2,1.3-4.7,2c-5,2.2-9.9,4.5-14.8,6.5c-3,1.2-6.1,2.2-9.3,3c-4.3,1.1-8.6,2.6-12.7,4.4
				c-5.4,2.5-10.9,5-16.4,7.4c-2.7,1.1-5.5,2-8.3,3c-3.5,1.3-6.9,1.4-11.4,0.3c0-5.6,2.4-10.7,3.4-16.2c1.2-0.4,2.1-0.9,3.2-1.2
				c4.5-1,9-2.1,13.6-3.1c11.1-2.4,22.1-4.9,32.9-8.1c20.5-6.1,40.5-13.5,60.4-21.3c8.3-3.2,16.6-5.9,25.5-6.9
				c2.7-0.3,5.5-0.8,8.3-1.3c-0.4-0.5-0.9-1.1-1.3-1.7c4.6-2.1,25.3-6.1,30.5-5.9c-0.1,0.6-0.1,1.2-0.2,1.8c3.5-0.4,7-0.9,10.4-1.4
				c17.3-2.6,34.6-5.3,52-8c1.6-0.4,3.3-0.8,4.8-1.4l0,0.1c-0.3-0.3-0.6-0.6-0.9-0.9c0.3-0.2,0.7-0.4,1.1-0.5
				c0.4-0.1,0.9-0.2,1.3-0.2c0.5,0.1,0.9,0.2,1.4,0.2C258.8,521.8,259.4,521.9,260,521.9 M453.6,324c-0.1-0.2-0.1-0.5-0.1-0.7
				c0,0,0.2-0.1,0.3-0.1c-0.1,0.3-0.3,0.6-0.3,0.9c-0.1,0.9-0.2,1.8-0.3,2.7c-0.2-0.1-0.4-0.1-0.6-0.2
				C452.8,325.7,453.2,324.9,453.6,324 M670.6,305.9c-0.8,0.6-1.5,1.2-2.7,2.1C668.7,306.4,669.2,305.6,670.6,305.9
				c0.5-0.5,1-1.1,1.8-1.9C672.3,305.5,671.3,305.6,670.6,305.9 M477,38.5c0.1-0.2-0.4-0.9,0.4-0.6c-0.2,0.2-0.3,0.4-0.5,0.6
				c1,1.2,0.4,2.4,0.1,3.6C476.3,41,476.3,39.6,477,38.5 M550.5,429c-1.6,0.8-1.6,0.8-4,0.1C548.3,429.2,549.3,428.1,550.5,429
				c0.2-0.1,0.4-0.4,0.6-0.5c0,0.2,0.1,0.4,0.2,0.5C551,429,550.8,429,550.5,429 M620.8,154.9c0.5-0.7,0.9-1.2,1.4-1.9l0.3,0.3
				L620.8,154.9c0.1,2.4,0.1,2.4-1.5,4C619.8,157.4,620.3,156.1,620.8,154.9 M586,626.6c0.7,0.7,1.4,1.3,2.2,1.9
				c-0.1,0.1-0.2,0.2-0.3,0.3C587.2,628.1,586.6,627.3,586,626.6c-0.9-1.1-2-2.2-3-3.3C584.4,624,586.1,624.5,586,626.6
				 M724.8,134.4c0-0.2,0-0.3,0-0.5c0.1-0.1,0.1-0.2,0.2-0.2c-0.1,0.3-0.2,0.5-0.4,0.8c-0.1,0.7-0.2,1.4-0.4,2.1
				c-0.3,0.6-0.6,1.2-1,1.8C723.1,136.5,724.1,135.5,724.8,134.4 M762.1,319.4c1.2-1,2.7-1.7,4.2-1.8
				C764.1,319,764.1,319,762.1,319.4c-0.3,0.2-0.6,0.5-0.8,0.8c-0.1,0.1-0.3,0.2-0.4,0.2c0-0.2,0-0.6,0.1-0.7
				C761.3,319.5,761.7,319.4,762.1,319.4 M642.4,114.8c0,0.4-0.1,0.8-0.3,1.2c0,0.1-0.2,0.2-0.3,0.3c0-0.2-0.2-0.5-0.2-0.6
				c0.3-0.3,0.6-0.6,0.9-0.9c-0.7-2.2,1-3.3,2.1-5.3C644.9,112.2,643.7,113.5,642.4,114.8 M584.4,409.6c-3.5,1.6-3.8,1.7-7.1,1
				c1.9-0.7,3.9-1.1,5.9-1.4c0.4,0,0.8,0.3,1.1,0.5c0.3-0.2,0.5-0.4,0.8-0.7c0,0.1,0,0.3,0,0.3C584.9,409.5,584.7,409.6,584.4,409.6
				 M290.8,511.4c-3.8,1.9-4.9,2.1-8.6,1.9c2.6-1.6,5.6-2.2,8.6-1.8c0.4-0.3,0.9-0.6,1.4-0.9c0.1,0,0.4,0.3,0.6,0.6
				c-0.1,0.1-0.2,0.3-0.3,0.3C291.9,511.5,291.3,511.5,290.8,511.4 M557.6,618c-3,0.2-5-1.9-7.4-3.1c-0.4-0.2-0.6-0.7-1.2-1.4
				c0.6,0,1.2,0.1,1.9,0.2c1.9,0.9,3.8,2,5.6,3c0.5,0.3,0.7,0.9,1.1,1.4c0.2,0.1,0.5,0.2,0.7,0.3C558,618.3,557.7,618.2,557.6,618
				 M478.2,31.8c0,0.7-0.1,1.4-0.2,2.3c-1-1.2-0.3-1.8,0.3-2.3c-0.9-2.9-0.8-6,0.4-8.7c1.2,1.1,1.1,2.5,0.8,3.8
				C479.2,28.5,478.7,30.1,478.2,31.8 M516.4,431.2c-3.6,1.1-6.9,3.4-10.8,3.8c3-2.3,6.6-3.8,10.4-4
				C516,431,516.2,431.2,516.4,431.2c0.2-0.1,0.4-0.3,0.6-0.5C516.8,430.8,516.6,431,516.4,431.2 M773.8,227.1
				c5-4.8,17.9-14.1,24.5-17.3c-0.7,0.8-1.5,1.5-2.3,2.2c-6.9,4.9-13.8,9.9-20.8,14.8c-0.3,0.2-0.9,0.1-1.3,0.1
				c-1.3,1.2-2.6,2.4-3.8,3.6c-2.9,2.2-5.8,4.4-8.7,6.8c-2.6,2.1-5.1,4.5-7.5,6.7c2.3-0.3,3.6-2.1,5.3-3.4
				c7.8-5.7,15.7-11.6,23.5-17.4c6.3-4.7,12.6-9.4,18.9-14.1c1.1-0.7,2.2-1.4,3.3-2c-0.5,1.1-1.3,2.1-2.4,2.9c-3,2.5-6,4.9-8.9,7.4
				c-4.3,3.8-8.5,7.7-12.8,11.4c-5.2,4.5-10.4,8.8-15.6,13.2c-1,0.7-2,1.5-2.9,2.4c-6.6,6.5-13.7,12.5-21.2,17.9
				c-4.9,3.5-9.8,7.1-14.7,10.6c-1.4,1-2.7,2.3-4.5,2.1c-2.4-0.2-4.1,0.8-5.9,2.2c-2.8,2.2-5.6,4.4-8.4,6.6
				c-3.8,2.9-7.3,6.2-11.6,8.4c-6.3,3.2-11.6,7.7-16.8,12.4c-6.6,5.9-13.1,11.8-20.7,16.2c-0.5,0.3-1,0.7-1.5,1.1
				c-5.5,4.2-11,8.3-16.6,12.5l0.1-0.1c1.6,0.5,2.6-0.5,3.8-1.2c1.9-1.3,3.8-2.7,5.7-3.9c11.6-7.4,22.8-15.5,33.7-23.8
				c4.2-3.2,8.3-6.5,12.5-9.7c1-0.8,2.2-1.4,3.3-2.2c0.1,0.7-0.2,1.3-0.7,1.8c-2.2,1.9-4.5,3.8-6.8,5.6l0-0.1c1.9,0.1,3.2-1,4.6-2
				c2.9-2.1,5.7-4.3,8.5-6.5c5.6-4.4,11-8.9,17.3-12.4c3.9-2.1,7.7-4.6,11.5-7c6.8-4.3,13.3-9.1,19.4-14.3c5-4.4,10.2-8.5,15.7-12.3
				c2.2-1.5,4.1-3.3,6.1-4.9c3.9-3.3,7.7-6.7,11.7-9.9c3.1-2.5,6.5-4.8,9.5-7.4c4.3-3.8,9-7.2,13.6-10.5c4.2-3,8.3-6.1,12.1-9.4
				c6.8-5.9,13.3-12,20.1-17.9c6.9-6,14-11.7,21-17.5c0.7-0.5,1.3-1.4,2.4-0.6c-3.9,4.8-7.6,9.8-12.2,14
				c-5.6,5.2-10.9,10.5-16.3,15.9c-4.9,4.9-9.8,9.9-14.7,14.9c-2.7,2.7-5.2,5.8-7.9,8.5c-5.9,5.7-11.3,11.9-18,16.7
				c-4.3,3.1-8.5,6.2-12.8,9.1c-5.2,3.5-10.6,6.5-15.7,9.9c-6.9,4.7-13.5,9.7-20.4,14.5c-6.5,4.5-13,8.9-19.6,13.3
				c-11,7.4-22.1,14.8-33,22.3c-8.8,6-18.4,10.7-27.2,17c-8.3,5.9-16.8,11.6-24.5,18.3c-3.5,3-7.3,5.8-11.2,8.3
				c-6.5,4.1-13.1,8.2-19.9,11.8c-5.9,3.3-12.2,6-18.3,9c-5.5,2.7-11.2,5.4-16.5,8.4c-6.6,3.9-13,8.4-19.6,12.4
				c-6.3,3.9-12.9,7.4-19.3,11.2c-8.9,5.4-17.7,10.8-26.3,16.5c-7.4,5.1-15.2,9.7-23.2,13.8c-7.3,3.6-14.9,6.9-22,10.9
				c-4,2.2-8.8,3-12.4,6.3c-6.2,3-12.4,6.1-18.7,9.2c-0.9,0.4-1.9,0.7-3.6,1.4c0.7-0.9,1.5-1.8,2.4-2.6c5.6-4.7,11.1-9.4,16.8-13.9
				c7.3-5.7,14.7-11.3,22.2-16.8c10.1-7.4,20.2-14.7,30.5-21.9c12-8.3,24.3-16.5,36.5-24.7c4.7-3.2,9.7-6.1,14.7-8.8
				c6.3-3.3,12.8-6.3,19.3-9.2c15.5-6.7,30.4-14.6,44.6-23.7c1-0.7,2.1-1.1,3.6-1.9c-0.7,1.2-1,2-1.6,3.1c3.5-2.1,6.8-4.6,9.8-7.5
				c3.4-2.9,7.1-5.5,11.1-7.6c4.3-2.2,8.4-4.6,12.4-7.3c8.3-5.6,16.6-11.4,24.6-17.4c7.3-5.4,14.4-11.2,21.7-16.8
				c13.7-10.3,27.5-20.6,41.1-31c4-3.1,7.9-6.5,11.8-9.7c-1.8-0.1-2.7,1.3-3.9,2.2c-7,5.2-13.8,10.4-20.8,15.6
				c-1.7,1.2-3.5,2.3-5.2,3.5c0.9-1.5,2.1-2.7,3.4-3.8c4.4-3.5,8.8-6.8,13.1-10.4c5.3-4.5,10.9-8.6,16.7-12.5
				c3.4-2.3,6.8-4.8,10.1-7.2c0.8-0.6,1.5-1.2,2.6-0.8C771,229.1,771.9,227.6,773.8,227.1 M460.8,541.8c-1.2,0.6-2.4,0.1-3.6-0.2
				c-2.8-0.8-5.6-1.7-8.4-2.6c-1.2-0.3-2.4-0.5-3.6-0.8c-6.7-1.9-13.4-3.8-20.1-5.7c-1.7-0.6-3.4-1.3-5-2.1c-0.2,0-0.5,0.1-0.8,0.1
				c0,0-0.1-0.2-0.1-0.3c0.3,0.1,0.6,0.2,1,0.3c0.7-0.1,1.4-0.2,2.1-0.1c10.1,2.7,20.2,5.5,30.3,8.3c2.8,0.9,5.5,2,8.2,3.2
				c1.1,0.5,2.6,0.3,3.8,1.5C463.2,543.7,461.7,543,460.8,541.8 M636.5,256.1c0.5-1,1.1-1.8,1.8-2.6c2.9-2.6,5.9-5,8.8-7.5
				c0.7-0.3,1.5-0.4,2.3-0.5c-3,3.3-5.4,6-7.8,8.6c-1.5,1.6-2.9,3.2-4.4,4.8c-0.9,0.8-1.8,1.5-2.9,2.1c-2.4,1.4-4.9,2.5-6.6,4.7
				c-0.6,0.6-1.3,1.2-2,1.6c2.3-3.1,4.8-6.1,7.4-8.8c1.1-0.9,2.2-1.7,3.4-2.4L636.5,256.1z M627.7,164.4c0-0.1,0-0.3,0-0.4
				c0.1-0.1,0.2-0.1,0.2-0.2c-0.1,0.2-0.2,0.4-0.3,0.6c0.1,0.4,0.4,0.9,0.3,1.2c-0.5,1.3-1.1,2.5-1.6,3.9
				c-3.4,9.1-6.6,18.3-11.2,26.9c-3.1,5.7-5.9,11.6-8.9,17.3c-1.4,2.7-2.8,5.5-4.5,8.1c-4.7,7.4-9.5,14.9-14.2,22.3
				c-0.9,1.5-2,2.9-3.3,4.1c1.2-2.4,2-3.9,2.8-5.3c3.9-6.7,7.8-13.4,11.8-20c6.8-11.1,13-22.5,17.6-34.7c0.3-0.9,0.8-1.7,1.2-2.5
				c2.5-5.5,5-11,7.6-16.4C625.8,167.6,626.8,166,627.7,164.4 M468.8,319.9c0,0.1-0.1,0.2-0.2,0.3c-0.1,0.1-0.2,0.1-0.3,0.1
				c0.2-0.1,0.4-0.3,0.6-0.5c-0.9-1-0.2-2,0.1-3c1.1-3.7,2.4-7.4,3.5-11.1c2.7-9.4,5.3-18.8,8-28.1c0.3-1.2,0.5-2.5,2.3-3.2
				c-0.4,4.6-1.8,8.9-2.8,13.1c-1,4.3-2.5,8.5-2.9,13c0.7-0.4,1.2-1,1.5-1.7c0.6-1.6,1.1-3.2,1.5-4.9c2-7.8,4-15.6,5.9-23.4
				c1.3-6,3.7-11.7,7.3-16.7c0,1.4-0.2,2.8-0.5,4.2c-3,9.4-6,18.9-8.9,28.3c-0.9,2.9-2.9,5.5-2.4,8.9c0.1,0.4-0.3,0.8-0.6,1.2
				c-1.2,2.4-1.9,4.8-3.7,6.9c-0.6,0.9-1,1.9-1.3,3c-0.3,1-0.7,2-1.1,3C472.9,313,470.9,316.4,468.8,319.9 M477.9,168
				c0,0.4-0.1,0.8,0,0.4c-0.2,0.4,0,0,0.1-0.4c-0.2-0.9-0.3-1.8-0.3-2.7c0.9-3.1,0.6-6.3,1.7-9.5c1.2-3.3,1-7,1.6-10.4
				c0.9-5.1,1.7-10.1,3-15c2.9-11.9,5.9-23.7,8-35.7c0.2-0.9,0.4-1.8,0.7-2.7c1.2-3.3,2.1-6.8,2.6-10.3c0-1,0.6-1.9,1.6-2.3
				c0.8,2.4,1.7,4.7,0,7c-0.2,0.6-0.4,1.2-0.4,1.8c-1.4,8.7-3.3,17.3-5.6,25.8c-1.1,3.7-1.9,7.5-2.8,11.3
				c-1.8,8.3-3.5,16.6-5.3,24.9c-0.5,2.3-1,4.5-1.5,6.8C480.7,160.8,479.5,164.5,477.9,168 M732.7,474.6c-0.9-0.1-1.8-0.2-2.8-0.3
				c-16.4-0.6-32.6-3.2-48.8-5.9c-4.8-0.8-9.5-1.5-14.3-1.8c-9.6-0.4-19.1-1.5-28.6-3.2c-5.7-1-11.5-1.1-17.2-0.3
				c-0.8,0.1-1.5,0.2-2.3,0.2c-7,0.2-14.2,0.3-21.3,0.6c-12.1,0.3-24.1,0.8-36.2,1c-10.8,0.1-21.7,0.1-32.5,0.1
				c-5.7,0-11.4,0.1-17.1,0.2c-5.8,0.2-11.7-0.4-17.5,0.8c-0.6,0.1-1.2,0.2-1.9,0.2c-11.8-0.1-23.6-0.2-35.3-0.3
				c-0.5,0-1.3,0.2-1.4-1c0.5-0.2,1-0.4,1.6-0.5c5.2-1.3,10.5-2.6,15.8-3.8c6.4-1.6,13-3,19.3-5c3.9-1.1,7.9-1.7,11.9-1.6
				c1.2,0,2.5,0,3.7,0.1c10.1,0.2,20.2-0.4,30.1-1.8c3.7-0.5,7.3-0.9,11.1-1.2c21.3-1.2,42.6-2.1,64.1-1.9
				c22.6,0.2,45.2,0.6,67.7,3.4c5.4,0.7,10.7,1.3,16.1,2.1c4,0.6,7.9,1.5,11.9,2.2c3.2,0.6,6.4,1.3,9.6,2c3.8,0.8,7.5,1.9,11.3,2.6
				c7.2,1.4,14.2,3.2,21.1,5.6c7,2.4,13.9,5.4,20.8,8.1c0.6,0.3,1.2,0.7,2,1.1c-0.7,0.7-1.2,1.1-1.8,1.8c6,1,12.1,0.8,16.8,4.9
				c-0.1,0.2-0.2,0.3-0.3,0.4c-0.8,0-1.5,0.1-2.2,0c-7.9-0.9-15.4-3.3-23.4-3.3c-0.5,0-0.9-0.1-1.4-0.3c-5.8-1.1-11.6-1.9-17.5-2.2
				c-3-0.3-6.1-0.8-9.1-1.4c-0.6,0-1.2,0-1.8-0.1C732.2,475.7,732.2,475.1,732.7,474.6 M342.6,266.1c-0.6,0.8-1.3,0.6-2.1,0.6
				c-1.1-0.1-2.2-0.1-3.2,0c-0.7,0.1-1.5,0.3-1.1,1.6c3.5-1.1,6.7,0.1,9.9,1.1c7,2.1,13.8,4.7,20.3,7.9c8.7,4.1,17.1,8.7,24.4,15
				c5.1,4.4,10.2,9,15,13.8c5.6,5.6,10.2,12,14.5,18.6c0.1,0.3-0.1,0.8-0.1,1.6c-2.1-1.8-4-3.3-5.8-5c-6.7-6.2-14.1-11.6-22.1-16.1
				c-4.5-2.7-9-5.5-13.4-8.2c-6-3.7-11.9-7.9-18.6-10.4c-1.5-0.6-3.1-0.7-4.3-2.1c-0.8-0.7-1.8-1.2-2.9-1.3
				c-6.3-1.6-12.1-4.6-18-7.2c-1.2-0.6-2.5-1.2-3.8-1.7c-5.1-1.4-9.6-4.2-14.3-6.6c-1-0.5-1.9-1-2.8-1.6c-1.1-0.6-2.1-1.3-3.2-1.9
				c-0.9-0.6-1.8-1.2-2.8-1.7c-1.3-0.6-1-2.2-1.8-2.8c-1.1-0.9-2.8-1.1-4.2-1.6c0.3,0.1,0.5,0.3,0.7,0.5c0.1,0.1,0.2,0.3,0.2,0.5
				c-0.1-0.1-0.2-0.2-0.3-0.4c-0.2-0.2-0.4-0.4-0.6-0.7c-1.4-0.6-2.8-1.2-4.1-2c-0.8-0.4-1.6-0.9-2.3-1.5c2.5-1.7,2.5-1.6,4.8-2
				c3-0.6,6.1-1,9.1-1.6c10.3-2.2,20.6-2.7,30.9-2.6c12.4,0.2,24.7,2.9,36,8c7.8,3.4,15.3,7.4,21.8,13.2c4,3.6,8.2,7,12.2,10.7
				c5.1,4.5,10.1,9.1,13.8,15c1,1.4,1.9,2.8,2.9,4.2c3.7,4.8,7,9.8,9.8,15.2c0.9,1.8,2.1,3.5,2.9,5.3c2.2,4.8,5.2,9.1,6.9,14.2
				c2.2,7.1,4.7,14,7,21.1c0.5,1.5,0.9,3,1.1,4.5c1,8.6,2,17.2,2.9,25.8c0.1,0.8,0,1.5,0,2.3c0,8.5-2.2,16.6-5.2,24.4
				c-1.1,2.7-2,5.5-3,8.3c-1.4,4.9-3.7,9.5-6.8,13.5c-1.2,1.5-2.2,3-3.2,4.6c-4.4,7.1-10.6,13-17.9,17.2c-0.3,0.2-0.8,0.2-1.6,0.3
				c2.4-2.8,4.6-5.3,6.6-7.9c2.3-2.8,4.5-5.6,6.5-8.5c3.1-4.4,6.3-8.8,9.2-13.4c1.9-3.2,3.2-6.7,3.8-10.4c0.5-2.6,1-5.2,1.5-7.8
				c0.9-4.3,0.8-8.7,0-12.9c-1.8-8.6-3.8-17.2-7.1-25.4c-0.3-0.7-0.5-1.5-0.6-2.3c-0.9-5.3-2.4-10.6-4.6-15.5c-2-5-4.5-9.9-6.9-14.7
				c-3.5-6.9-7-13.8-11.8-20c-6.4-8.4-13.6-16-21.6-22.9c-7-5.8-14.3-11.5-22.6-15.3c-1.1-0.6-2.2-1.2-3.2-2
				c-0.4-0.1-0.9-0.1-1.3-0.3c-0.1,0-0.2-0.2-0.2-0.4c0.2-0.1,0.5-0.3,0.6-0.2c0.3,0.3,0.6,0.6,0.9,1c0.6-0.1,1.2-0.1,1.7,0
				c9,2.9,17.4,7.3,25,12.9c2.9,2.1,5.6,4.4,8.3,6.8c4.3,3.9,9,7.8,12.5,12.3c6.2,7.9,12.1,16.1,16.2,25.3c1,2.2,1.8,4.7,4.1,6.1
				l-0.2,0c-0.3-1.2-0.7-2.3-1.2-3.4c-0.4-1-1.3-1.9-1-3.6c1.8,1.5,3.2,3.4,3.9,5.6c2.7,6.9,5.1,13.9,8.5,20.5
				c0.8,1.5,1.3,3.1,1.6,4.8c1.5,7.6,2.8,15.2,2.4,22.9c-0.1,1.2-0.1,2.5,0,3.7c0,0.6,0.1,1.3,1.1,1.2c0.2-0.3,0.5-0.6,0.6-1
				c0.4-5.5,1.4-11.1-0.3-16.5c-0.3-1.2-0.5-2.4-0.6-3.6c-0.5-5.9-2.1-11.6-4.6-16.9c-2.4-5.1-4.2-10.6-6.3-15.9
				c-0.4-1-0.9-2-1.4-2.9c-1.7-2.4-3.5-4.7-5.2-7.1c-5.2-6.9-10.5-13.8-15.1-21.1c-1.3-2.3-2.9-4.4-4.7-6.3
				c-6.8-7-14.4-13.2-22.8-18.2c-5.7-3.4-11.6-6.4-17.5-9.6c-0.6-0.3-1.1-0.5-1.7-0.8c-3.4-1.4-6.9-2.8-10.2-4.3
				c-9.7-4.2-19.7-7.4-30-9.6c-5-1.1-10-1.9-15-2.9c-0.8-0.2-1.6-0.1-2.3,0c-0.8,0.1-1.3,0.8-1.2,1.6c0,0.1,0,0.1,0,0.2
				c0.2,1.5,1.2,1.9,2.5,2.3C325.6,261.8,334.2,263.3,342.6,266.1L342.6,266.1 M418.6,337.5c3.8,3.4,4.3,4.4,6.8,10
				c0.7,1.4,0.7,3,0,4.4c-4.2,8.8-9.4,17.1-15.4,24.8c-4.2,5.4-8.6,10.5-12.9,15.8c-6.2,7.5-12.3,15.1-18.4,22.7
				c-1.9,2.4-3.8,4.9-5.8,7.2c-2.3,2.8-4.5,6-7.2,8.4c-5.1,4.6-9.6,9.7-14.2,14.7c-2.2,2.4-4.6,4.6-7.1,6.7
				c-5.6,4.4-10.8,9.1-15.8,14.2c-1.5,1.5-3.2,3-4.8,4.4c-4.5,4-9.1,7.9-13.7,11.9c-2.7,2.3-5.4,4.6-8.3,6.7
				c-9.2,6.6-18.5,13-27.6,19.6c-4.6,3.3-9.3,6-15.1,6.6c-1.1,0.2-2.1,0.4-3.2,0.7c-4.5,1.1-9.1,1.7-13.7,1.7
				c-1.2,0-2.5,0.1-3.7,0.4c-2.1,0.3-4.3,0.8-6.4,1.1c-0.6,0.1-1.4,0.6-1.9-0.5c2.8-1.7,5.5-3.5,8.3-5.2
				c10.1-6.1,19.4-13.4,27.5-21.9c5.1-5.3,10.4-10.3,15.8-15.1c7.1-6.3,14.1-12.6,20.4-19.7c2.6-2.9,5.2-5.6,7.9-8.6
				c4.4-4.9,8.8-9.9,13.3-14.8c6.6-7.3,13.3-14.6,19.8-22.1c5.2-5.9,10.2-12,15.1-18.2c3.3-4.1,6.1-8.5,9.4-12.7
				c8.1-10.5,16.5-20.8,23.8-32.1c4.6-7.1,9.5-14.1,14.3-21.1c0.7-1.1,1.7-2,2.8-3.4c3.1,3.1,6.1,6,8,9.7c-1,3.1-2.4,6.1-4.2,8.9
				c-2.2,3.7-4.6,7.3-6.8,11.1c-2.9,5.3-6.2,10.3-9.8,15.2c-2.3,3-5,5.9-7,9.2c-3.4,5.4-7.8,10-11.6,15c-3.5,4.7-7.4,9.1-11.1,13.7
				c-0.9,1.1-1.8,2.2-2.8,3.2c-4.1,3.7-7.5,8.1-11.5,12c-7.6,7.5-14.9,15.3-22.1,23.2c-5.3,5.8-11,11.3-16.9,16.5
				c-5.4,4.6-10.9,9.1-16.4,13.7c0.8,0,1.7-0.3,2.4-0.8c6.9-4.7,13.5-9.9,19.6-15.5c6.5-6.2,13.2-12.2,19.7-18.3
				c5.7-5.4,11.1-10.8,16.6-16.2c2.8-2.9,5.7-5.7,8.4-8.7c3.9-4.5,7.6-9,11.4-13.5c2.4-2.9,4.6-6.2,7.1-9.1
				c4.6-5.2,8.8-10.8,12.7-16.6c7.4-11.2,14.6-22.6,21.2-34.4C416.2,340.7,417.4,339.4,418.6,337.5 M434.2,386.2
				c0.9,0.6,1.4,1,1.9,1.4c2.4,2.3,3.1,5.3,3.2,8.5c0.3,6.6-0.3,13.3-1.5,19.8c-0.5,3.2-1.6,6.3-3,9.2c-3.2,6.2-6.8,12.1-10.3,18.1
				c-0.4,0.7-0.8,1.3-1.3,1.9c-5.8,7.3-12.6,13.8-20,19.4c-6.3,4.7-12.9,9-19.4,13.4c-1.3,0.8-2.7,1.6-4.1,2.2
				c-2.6,1.3-5.3,2.5-7.9,3.8c-2.5,1.2-5.3,1.8-8.1,1.8c-3.4,0-6.8,0.4-10.1,1c-9.5,2-19.1,3.4-28.4,6.3c-0.5,0.1-0.9,0.2-1.4,0.3
				c-0.6,0.1-1.2,0.3-1.5-0.7c0.3-0.3,0.7-0.5,1-0.8c4.8-3.1,9.4-6.6,13.7-10.3c2.7-2.6,5.7-4.8,9-6.5c1.2-0.7,2.4-1.5,3.4-2.4
				c3-2.2,6-4.4,8.9-6.5c3.4-2.5,6.9-4.8,10.1-7.6c4.9-4.2,9.6-8.7,14.3-13.1c2.3-2.1,4.7-4.1,6.8-6.3c4.7-4.9,9.4-10,14-15
				c2.9-3,5.7-6.1,8.3-9.4c5-6.6,9.8-13.5,14.8-20.3C428.7,391.5,431.3,388.6,434.2,386.2 M349.5,516.2c0.7-0.7,1-1.1,1.3-1.2
				c1.9-0.7,3.8-1.2,5.8-1.7c9.7-1.7,19.5-3.6,29.2-5c4-0.5,8.1-0.5,12.1-0.1c7.8,0.7,15.7,1.9,23.6,2.7c12.3,1.2,24.5,3.2,36.6,6.1
				c18.7,4.3,37.3,9,55.4,15.7c13.7,5,27.4,9.8,40.5,16.2c17.2,8.4,34,17.7,50.3,27.9c1.1,0.7,2,1.7,3,2.5c-2-0.4-3.9-1-5.7-1.9
				c-1.9-0.8-3.7-1.3-5.7-2c-11.7-4.6-23.3-9.3-34.9-13.8c-6.2-2.4-12.5-4.6-18.9-6.5c-14.7-4.5-29.4-8.7-44.1-12.9
				c-12.3-3.5-24.9-6.4-37.5-8.7c-5.8-1-11.6-1.7-17.4-2.7c-5-0.9-10-2-15-2.9c-2.1-0.4-4.3-0.5-6.4-0.9
				c-10.1-1.7-20.2-3.4-30.1-5.3c-6-1.2-12-1.5-17.9-2.2c-7-0.8-14.1-1.6-21.2-2.4C351.5,516.8,350.7,516.5,349.5,516.2 M518.4,84.5
				c0.4,0,0.7,0,1.1,0.1c0.3,2.4,0.8,4.9,0.9,7.3c0.3,5.8,0.4,11.8,0.4,17.6c0,5.9-0.1,11.7-0.3,17.6c-0.1,2.5-0.5,4.9-0.8,7.4
				c-0.2,1.6-0.5,3-0.7,4.6c-0.8,6.9-1.5,13.8-2.2,20.7c-1,9.4-2.8,18.6-5.4,27.7c-2.5,9-5,17.8-7.9,26.7
				c-2.6,7.9-5.7,15.7-9.2,23.3c-4.8,10.9-10.2,21.5-15.6,32.1c-3.5,6.8-7.4,13.6-11.2,20.3c-2.3,4-4.9,7.9-7.5,11.7
				c-3,4.2-6.8,8-9.3,12.6c-0.4,0.7-0.8,1.3-1.3,1.9c-0.5,0.4-1,0.8-1.6,1.2c-0.6-0.4-0.9-0.5-1-0.8c-0.6-1.2-1.1-2.5-1.7-3.8
				c-1.3-2.8-2.4-5.6-3.8-8.4c-1.5-2.8-1.5-3.2,0.6-5.7c4-4.9,8.3-9.6,12.1-14.7c4.1-5.4,8.2-10.9,11.8-16.6c5-8,9.1-16.5,12.4-25.4
				c2.4-6.5,5-13,7.5-19.5c1.1-3,2.4-6,2.6-9.3c0.1-1.1,0.3-2.1,0.7-3.1c2.9-8.7,5.7-17.4,8.6-26c2.6-7.6,5.2-15.2,7.1-23.1
				c1.3-5.4,2.8-10.8,4.1-16.2c1.7-7.3,3.5-14.5,4.7-21.8c1.3-8.2,2.3-16.4,3.6-24.7c0.2-1.2,0.2-2.4,0.3-3.7
				C517.6,91.1,518,87.9,518.4,84.5 M434.3,294.4c1.3-1.9,2.4-3.4,3.5-4.9c3.6-4.8,7.2-9.7,9.7-15.2c1.1-2.4,2.4-4.7,3.5-7
				c2.4-5,5-10,7.2-15.1c3.1-7.4,6.1-14.9,8.9-22.5c2-5.5,4.5-10.8,5.9-16.5c1-3.9,2.3-7.7,3.8-11.5c4.4-10.7,8.3-21.6,11.6-32.8
				c0.5-1.6,1.1-3.2,1.7-4.8c3.8-9.8,7-19.8,9.5-30.1c2.6-10.6,5.7-21.2,7.2-32.1c1-7.3,3.3-14.4,4.7-21.7c0.3-2,1.3-3.9,3-5.1
				c0.3,0.6,0.7,1,0.7,1.3c0.1,3.8,0.3,7.5,0,11.1c-0.5,6-1.1,12-1.9,18c-0.7,6.9-1.9,13.8-3.6,20.6c-1.6,6.2-2.9,12.4-4.4,18.5
				c-1,4.2-1.7,8.6-3.1,12.6c-2.3,6.2-4.2,12.6-6,19c-1.6,5.5-3,11.1-4.8,16.4c-4.4,13-8.8,26.1-13.5,38.9
				c-2.9,8.1-6,16.3-10.5,23.8c-3.3,5.6-6.7,11.1-10.2,16.5c-3.4,5.2-7,10.2-10.6,15.3c-0.5,0.8-1.3,1.5-1.4,2.4
				c-0.4,4.2-3.8,6.4-6.1,9.4C436.5,298.2,435.8,296.1,434.3,294.4 M564.9,272.8c-0.9,1.4-1.8,3.1-2.9,4.6
				c-4.1,6.2-8.3,12.2-12.4,18.4c-1.8,2.8-3.8,5.6-4.4,9.1c-0.3,1.3-0.9,2.6-1.7,3.7c-2.2,3.2-4.5,6.3-6.7,9.5
				c-0.8,1.1-1.6,2.2-1.3,3.8c0.1,0.7-0.1,1.5-0.6,2.1c-1.5,2.3-3.1,4.6-4.8,6.8c-5.1,7.3-10.3,14.7-15.5,22
				c-4,5.5-7.9,11.1-12.1,16.5c-3.1,4.2-6.6,8.2-10,12.2c-2.4,2.8-4.9,5.6-7.4,8.3c-2.1,2.3-4.4,4.4-7,6.1c1.1-1.6,2.4-3.2,3.6-4.8
				c2.7-3.8,5.4-7.6,8.1-11.3c3.1-4.3,6.3-8.5,9.2-12.8c4.2-6,8.2-12.1,12.2-18.1c1.5-2.2,2.9-4.4,4.4-6.5
				c5-7.2,10.1-14.4,15.1-21.7c4.5-6.7,9.1-13.3,13.5-20c2.1-3.1,4.1-6.2,5.9-9.4c2.4-4.2,4.4-8.6,6.7-12.7c3-5.3,6.1-10.4,9.2-15.5
				c1.6-2.8,3.9-5.1,6.7-6.7c-3,4.7-6,9.3-9,13.9C564.3,271.1,564.6,271.8,564.9,272.8 M481.5,130.7c-0.3,0-0.7,0-1,0
				c-0.3-3.2-0.3-6.4,0.2-9.6c1.2-8.1,2.5-16.1,5-23.9c1.6-4.7,2.7-9.5,3.4-14.4c0.8-6.3,1.7-12.5,2.7-18.8c0.1-0.7,0.1-1.6,1.2-1.8
				c0.1,0.1,0.3,0.1,0.3,0.3c0.2,0.4,0.3,0.8,0.5,1.3c1,5.2,1.4,10.4-0.2,15.6c-1.2,4.4-2.5,8.6-3.5,13c-1.6,7.3-2.9,14.8-4.5,22.2
				C484.4,119.9,482.9,125.3,481.5,130.7 M498.7,90.4c0.3,0.5,0.5,1,0.7,1.5c0.8,3.8,0.7,7.7-0.3,11.5c-2.2,9.2-4.5,18.3-6.7,27.4
				c-2.9,11.5-5.6,23.1-8.6,34.6c-0.9,3.8-2.1,7.4-3.2,11.1c-0.2,0.7-0.2,1.5-1.3,1.7c0-0.6,0-1.2,0.1-1.9c1.1-5.4,2-10.9,3.5-16.3
				c1.8-6.6,3.3-13.2,4.5-19.9c1.4-7.8,3.3-15.3,5.2-23c2-7.8,4-15.6,5.2-23.5C498,92.6,498.3,91.5,498.7,90.4 M445.7,448
				c-0.5,0.6-1,1.1-1.5,1.6c-5.1,4.4-10.1,8.6-15.2,12.9c-2.4,2.3-5.1,4-8.1,5.3c-1.5,0.7-3,1.5-4.4,2.5c-0.7,0.4-1.4,0.7-2.1,1
				c-3.7,1.8-7.5,3.5-11.3,5.3c-4.2,2.1-8.3,4.3-12.4,6.4c-1.6,0.8-1.6,0.8-4.5,0.2c7.1-3.9,13.9-7.5,20.6-11.3
				c6.5-3.8,13-7.7,19.5-11.6C432.7,456.3,438.7,451.5,445.7,448 M411.3,383.4c-0.1,1-0.3,2.1-0.5,3.1c-1.6,5.7-3.2,11.3-5,16.9
				c-2.2,7.2-5.4,14-11.7,19.2c-0.1-1.2,0.1-2.5,0.6-3.6c1.9-5.1,3.7-10.1,5.6-15.2c1.5-4.2,3.5-8.4,4.6-12.6
				C405.9,387.7,408.2,384.9,411.3,383.4 M632.5,247.7c-0.2-0.1-0.3-0.3-0.5-0.4c1.2-1.4,2.4-2.8,3.7-4.1c4.2-3.9,8.6-7.6,12.9-11.4
				c6.4-5.8,12.9-11.5,19.1-17.6c3.8-3.7,7.8-7.1,12-10.2c0.4-0.2,0.8-0.3,1.2-0.3c0.1,0.4,0.3,0.8,0.2,1c-2,3.1-3.4,6.7-6.9,8.4
				c-0.6,0.5-1.2,1-1.7,1.6c-4.9,4.1-9.6,8.2-14.5,12.3c-5.1,4.2-10.3,8.4-15.5,12.6C639.1,242.3,635.8,245.1,632.5,247.7
				 M722.4,129c0,0.6-0.1,1.2-0.1,1.8c-1,2.6-2.5,5-4.5,7c-4.9,5-9.7,10-14.6,14.9c-2.6,2.6-5.5,5-8.3,7.5c-0.8,0.5-1.6,1-2.4,1.3
				c0.1-0.6,0.3-1.2,0.5-1.8c2.1-3.4,4.3-6.8,6.5-10.1c0.7-0.8,1.4-1.6,2.3-2.3c5.7-5.3,11.4-10.4,17.2-15.6
				C720.1,130.7,721.2,129.8,722.4,129 M399.8,397.6l0.6,0.2c-0.1,0.9-0.2,1.7-0.5,2.5c-2.6,7.2-5.3,14.2-7.7,21.4
				c-1.8,5-4.8,9.4-8.7,13c-0.2,0.2-0.7,0.3-1.6,0.6c0.4-1.4,0.6-2.4,1-3.4c1.8-4.8,3.8-9.5,5.5-14.3c2-5.5,4.8-10.8,8.2-15.6
				C397.6,400.6,398.6,399.1,399.8,397.6 M682.9,177.5c0-0.6,0.1-1.1,0.2-1.7c2.4-4,4.9-7.8,8.5-10.9c7.9-6.7,15.7-13.5,22.5-21.4
				c0.8-0.8,1.6-1.6,2.5-2.3c0,0.8-0.1,1.6-0.3,2.4c-1.1,2.6-2.5,5-4.4,7.1C703.2,160.4,693.3,168.9,682.9,177.5 M488.9,47.8
				c2.4,4.6,2.6,7.2,1.7,10.3c-1.6,6-2.2,12.2-3,18.3c-1,7.2-2,14.4-4.4,21.3c-0.9,2.5-1.2,5.1-2,7.7c-0.2,0.7,0,1.6-1.3,1.8
				c0.1-1,0-1.9,0.1-2.8c1.6-9.9,3.2-19.8,4.9-29.7c0.8-4.9,1.6-9.8,2.3-14.7C487.8,56.3,488.3,52.5,488.9,47.8 M649.8,223.2
				c-0.2-0.2-0.4-0.5-0.7-0.7c4.5-4.4,9-8.9,13.6-13.3c2.5-2.4,5.1-4.9,7.9-7.1c7.1-5.8,14.2-11.4,21.4-17.1c0.5-0.4,1-0.8,1.6,0.2
				c-0.3,0.6-0.7,1.2-1.2,1.7c-2.9,2.8-5.7,5.7-8.7,8.3c-8.7,7.5-17.4,14.8-26.2,22.1C655,219.3,652.3,221.2,649.8,223.2
				 M662.5,206.8c-0.2-0.2-0.5-0.4-0.7-0.5c0.4-0.6,0.8-1.2,1.3-1.8c1.9-1.9,3.7-3.8,5.7-5.5c7.6-6.5,15.4-12.9,22.4-20.2
				c3.1-3.3,6.2-6.5,9.3-9.7c1.2-1.5,2.7-2.7,4.4-3.6c-0.2,1.1-0.6,2.2-1.1,3.2c-1.5,2.1-2.7,4.5-4.9,6c-1.6,3.5-4.4,6-7.2,8.3
				c-1.7,1.4-3.4,2.7-5.1,4c-5.7,4.6-11.3,9.1-17,13.7C667.1,202.8,664.8,204.9,662.5,206.8 M654.5,232.6
				c-5.4,6.9-11.6,13.3-18.3,19c-6.5,5.5-13,10.9-19.6,16.4c-0.2,0.2-0.6,0.1-1.4,0.3C626.5,253.9,640.3,243.1,654.5,232.6
				 M407.3,403.6c0.4-1.3,0.7-2.6,1.1-4c1.9-6.2,4.1-12.4,5.7-18.6c1.3-5.6,4.9-9.7,8.1-14.8c0.3,1.6,0.1,3.2-0.5,4.6
				c-2.2,7.6-4.6,15.1-6.6,22.8C413.9,398,411,401,407.3,403.6 M708.1,157.2c-0.8,3.3-0.8,3.3-3.3,5.2c-0.6,0.5-1,1.2-1.6,1.7
				c-4.7,4.9-9.3,10-14.2,14.7c-5.9,5.7-12.1,11.1-18.1,16.6c-0.5,0.5-1,0.6-1.7-0.2c2-2.7,3.8-5.6,6.2-8c4.4-4.5,9.3-8.7,13.9-13
				c4.7-4.3,9.5-8.4,14.3-12.6C705.2,160.2,706.6,158.7,708.1,157.2 M475.8,285.8c0.3,1.7,0.1,3.4-0.6,5c-2.2,7.6-4.3,15.1-6.6,22.7
				c-0.9,2.9-2,5.8-2.9,8.8c-0.2,0.9-0.3,1.7-0.2,2.6c0,1.4-0.5,2.8-1.3,3.8c-0.7,1.1-1.2,2.3-3.1,2.8c0.2-1.1,0.2-1.9,0.4-2.5
				c0.7-2.7,1.6-5.3,2.4-8c2.4-8.8,4.8-17.6,7.3-26.3C472,291.5,473.7,288.5,475.8,285.8 M429.1,358.6c0.2,0.4,0.2,0.9,0.3,1.4
				c0,1.8-0.2,3.7-0.5,5.5c-1.5,5.9-3,11.6-4.5,17.5c-0.9,3.5-2.8,6.6-5.5,9c-0.4,0.4-0.8,1-1.7,0.3c0.4-1.7,0.7-3.5,1.3-5.2
				c1.3-4,2.6-7.9,3.9-11.9c1.3-4.2,2.5-8.5,3.7-12.9C426.4,360.5,426.8,358.9,429.1,358.6 M478.5,75c-0.3-0.1-0.6-0.1-1-0.1
				c-0.2-2.6-0.2-5.2,0-7.7c0.8-7.2,1.7-14.4,1.9-21.6c0.2-4.5,0.7-8.9,1.4-13.3c0.1-0.7,0.2-1.6,1.4-1.6c1.4,2.2,2,4.8,1.6,7.4
				c-0.5,3.1-0.8,6.2-1.5,9.1c-1.5,6.3-2.5,12.7-3.1,19.2C479.1,69.3,478.8,72.1,478.5,75 M639.3,237.4c-0.1-0.2-0.2-0.4-0.3-0.5
				c1.7-2.1,3.3-4.1,4.9-6.2c1.9-2.5,4.6-4.1,7-6.1c9.2-7.6,18.6-14.9,27.3-22.9c2.2-2,4.4-3.9,6.6-5.8c0.7-0.5,1.5-1,2.3-1.4
				c-1,2.5-2,4.9-4.8,5.6c-0.8,0.4-1.6,1-2.2,1.7c-7.1,6.2-14.1,12.5-21.2,18.8c-5.7,5.1-11.5,10.3-17.3,15.4
				C640.9,236.5,640.1,237,639.3,237.4 M387.2,414.2c0.1,0.6,0.1,1.2,0,1.9c-2.7,7-5.3,14.1-8.1,21.1c-1.5,3.6-4.4,6.2-7.7,9
				c0.2-1,0.3-1.5,0.5-1.9c1.9-6,5.8-11.2,7.1-17.5c0-0.1,0.1-0.3,0.2-0.4C381.6,422.2,384.3,418.1,387.2,414.2 M479.8,90.2
				c-1.2-4.3-1.2-4.3-0.6-7.2c0.7-4.1,1.5-8.1,2.1-12.2c0.3-2.4,0.2-4.9,0.5-7.4c0.8-5.2,1.7-10.3,2.7-15.5c0.1-0.4,0.6-0.8,1.3-1.7
				c0.2,2.2,0.3,4.5,0.2,6.7c-0.5,4.6-1,9.2-1.8,13.8c-1.1,6.7-2.4,13.4-3.6,20C480.4,87.6,480.2,88.5,479.8,90.2 M627.2,261.7
				c-1,1.4-1.6,2.3-2.3,3c-4.7,4.9-9.5,9.7-14.2,14.6c-1.5,1.6-3.2,3.1-4.1,5c-1.9,3.9-5.3,6.4-8.4,9c-0.3,0.3-0.8,0.3-1.4,0.5
				C602.2,284.4,616.7,269.1,627.2,261.7 M456.4,339.7c-0.2-0.6-0.4-0.9-0.4-1.2c1-6.6,2.4-13.1,4.3-19.5c1.2-4.6,3.1-9,3.4-13.9
				c0.1-1.9,1.3-3.3,3.3-5c-3.2,13.1-6.1,25.3-9.1,37.6c-0.1,0.4-0.4,0.9-0.7,1.2C457.1,339.3,456.8,339.5,456.4,339.7 M707,139.6
				c0.6-2,1.7-3.9,3.2-5.5c4-4.1,8-8.2,11.9-12.3c0.9-1,2-1.8,3.1-2.9c0.3,0.5,0.5,1,0.6,1.5c0,1.2-0.6,2.4-1.5,3.3
				c-4.4,5.4-9.9,9.7-14.8,14.6C708.9,138.9,708,139.4,707,139.6 M650.6,240.7c0.1-0.4,0.3-0.8,0.5-1.2c4.4-5.2,8.8-10.3,13.2-15.5
				c1.9-2.3,4.4-3.8,7.1-6.2c-3.9,8.6-11.8,16.2-16.9,21.2C653.5,240.2,652.1,240.8,650.6,240.7 M604.2,397.9
				c-4.3,1.7-8.7,3.2-12.9,5.1c-5.5,2.5-11.2,4.5-17,6.1c-0.4,0.1-1.2,0.6-1.4-0.8C583.5,404.9,593.3,399.5,604.2,397.9 M428,380
				c-0.3-3.8,1.8-11.7,4.1-15.9c0.5,1.3,1.1,2.4,1.4,3.4c0.6,1.6,0.4,3.4-0.6,4.8C431.2,374.8,429.7,377.2,428,380 M459.9,309.5
				c0.2,0.3,0.5,0.6,0.5,0.8c-1.6,7.2-3.2,14.4-4.8,21.6c-0.2,0.7,0.1,1.8-1.2,2.3c-0.6-1.2-0.6-2.7-0.2-3.9
				c1.2-4.1,2.3-8.2,3.5-12.4c0.5-1.9,1.4-3.7,0.6-5.8C457.7,310.6,458.8,310.1,459.9,309.5 M444.5,413.7
				c-0.7-5.4-0.6-10.9,0.4-16.2c0.1-0.7,0.1-1.2,1-1C447.2,402.2,447,405.9,444.5,413.7 M624.9,137.2c-3.2,7.8-8.2,15.9-11.6,19.2
				C615.8,149.3,619.7,142.8,624.9,137.2 M584.3,422.6c6-3.7,12.2-5,17.8-7.5c1.8-0.7,3.7-1.2,5.6-1.6
				C603,416.6,589.8,421.7,584.3,422.6 M595.5,218.6c-3.6,8-9.1,16.7-12.8,20C586.5,231.6,590.7,224.9,595.5,218.6 M363.5,453.4
				c2-4.2,3-8.5,6.7-11.8c0.3,1.3-0.1,2.7-1.1,3.7c-1,1.3,0.6,2.6-0.1,3.9C366.5,452.3,366.5,452.3,363.5,453.4 M350.1,463.6
				c-0.2,0.6-0.4,1.2-0.7,1.7c-1.2,1.6-2.5,2.8-2.6,5.2c0,1.7-1.8,2.7-4.9,3.6C343.6,469.8,346.5,466.2,350.1,463.6 M648.5,254.4
				c-2.4,5.5-6.2,10.3-11,13.9C640.4,263.1,644.1,258.4,648.5,254.4 M319.7,510.9c2.9-1.8,5.6-1.5,8.1-1.4c1.5-0.2,3.1,0.3,4.3,1.2
				C328.1,512.1,324.3,511.9,319.7,510.9 M360.9,452.2c0.4,2.3-0.9,3.8-1.8,5.3c-1,1.6-1.8,2-4.5,2.9
				C355.8,457.2,358.2,454.8,360.9,452.2 M579,632.6c-2.4-0.3-3.9-1.4-5.4-2.3c-2.9-1.7-2.9-1.7-4.1-3.8
				C573.1,627.8,576.5,628.9,579,632.6 M497.6,247c0.3-2.3-0.2-4.2,0.8-5.8c1.2-2,1.5-4.6,3.7-6.5
				C501.6,239.1,500.1,243.3,497.6,247 M344,505.3c0-0.2-0.1-0.4-0.2-0.7c2.7-0.7,5.3-1.4,7.9-2c0.4-0.1,0.9-0.2,1.4,0
				c0.2,0,0.5,0.3,0.6,0.6c0.1,0.3,0.1,0.6-0.1,0.8c-1.2,1.4-2.9,1.5-4.6,1.6C347.4,505.6,345.7,505.5,344,505.3 M716.4,125.7
				c2-6,6.6-8.4,10.3-11.7C723.9,118.1,720.2,121.4,716.4,125.7 M327.8,504.1c1.8-0.2,3.6-0.5,5.4-0.8c1.9-0.3,3.9-0.4,5.9-0.3
				C333.4,505.4,332.4,505.5,327.8,504.1 M624.9,274.6c-2.9,4.5-6.5,8.4-10.6,11.8C617.9,282.3,621.3,278.5,624.9,274.6 M303.6,513
				c-1.5,0.4-2.9,0.8-4.4,1c-1.1,0.2-2.1,0.2-3.2,0.3c-0.5,0-1.2,0-1.2-1.1C297.7,512.4,300.5,511.2,303.6,513 M319.4,491.2
				c2.5-3.2,4.6-5.3,8-6.8C325.6,487.6,323.1,489.2,319.4,491.2 M319.7,513.9c-0.4,0.2-0.8,0.3-1.2,0.4c-2.5-0.1-4.9-0.2-7.3-0.4
				c0,0-0.1-0.5-0.2-0.9C313.9,512.3,316.9,512.6,319.7,513.9 M331.8,482c2-3.6,2-3.6,5.7-6.1C336.5,479.2,336.5,479.2,331.8,482
				 M365.9,441.9c-0.5,2.8-0.5,3-3.6,4.6C362.6,443.9,362.9,443.6,365.9,441.9 M370.3,438.7c0.4-2.7,2-5.1,4.2-6.6
				C374.2,434.8,372.6,437.3,370.3,438.7 M10.6,604.9c2.3-2.5,4-2.9,7.2-1.9C15.6,604.2,13.2,604.8,10.6,604.9 M350.7,468.2
				c1.4-3.8,1.4-3.8,5.9-6.2C355,464.3,353,466.4,350.7,468.2 M306.8,510.5c3.4-1.9,3.9-1.9,6.5-0.5
				C311.1,510.6,309.1,511.3,306.8,510.5 M817.4,196.7c-0.1-0.3-0.2-0.4-0.3-0.7c2-1.6,4-3.2,6-4.7c0,0.3,0.1,0.5,0.1,0.8
				C821.4,193.6,819.4,195.1,817.4,196.7 M680.8,539.4c1.4,1,2.9,2,4.4,3c0.1,0.1,0,0.3,0,0.5C683.7,542.6,683.7,542.6,680.8,539.4
				 M548.4,421.8c1.6-1.3,3.4-1.6,6.3-1.4C552.7,421.4,550.5,421.9,548.4,421.8 M319.1,507.3c0-0.3,0-0.5-0.1-0.8
				c0.7-0.3,1.4-0.4,2.1-0.5c0.7,0.1,1.7-0.1,2.1,1.2C321.7,507.3,320.5,507.3,319.1,507.3 M679.7,299.2c1.4-1.7,1.4-1.7,3.6-2.4
				C681.9,297.7,680.8,298.5,679.7,299.2 M298.5,508.9c0.8-0.2,1.5-0.3,2.2-0.5c0.8-0.2,1.6-0.7,2.7,0.2
				C301.5,509.5,300.1,510.2,298.5,508.9 M333.8,507.5c2.1-0.7,3.4-0.8,5,0.1C337.1,508.5,335.9,508,333.8,507.5 M355.3,452.5
				c0.2,0.2,0.4,0.4,0.6,0.6c-0.6,0.7-1.1,1.3-1.8,1.9c-0.2,0.2-0.7-0.1-1.1-0.1c0.1-0.3,0-0.7,0.2-0.8
				C353.9,453.5,354.6,453,355.3,452.5 M610.2,289.9c0,0.1,0.1,0.2,0.2,0.3c-0.5,0.5-1,1-1.6,1.5c-0.1,0,0-0.1-0.1-0.2
				C609.2,291,609.6,290.4,610.2,289.9 M377.5,552.3c0.1-0.2,0.1-0.4,0.1-0.6c0.5,0.1,1.1,0.1,1.6,0.2s1.1,0.1,0.9,1.2
				C379.2,552.9,378.3,552.6,377.5,552.3 M437.7,304c1.1,0.8,2.1,1.1,1.3,2.6C438.6,305.7,438.2,305.1,437.7,304 M454.7,316.1
				c0.3-0.1,0.5-0.2,0.8-0.2c0.1,0,0.2,0.3,0.2,0.3c-0.2,0.6-0.4,1-0.6,1.5c0,0.1-0.4,0.2-0.4,0.1c-0.2-0.2-0.4-0.4-0.4-0.7
				C454.5,316.8,454.6,316.4,454.7,316.1 M341.4,512.2c-0.8,0-1.6,0-2.3-0.1C339.8,511.3,340.6,511.3,341.4,512.2 M568.5,411.4
				c0.7-0.5,1.2-2,2.3-0.6C569.9,411,569.2,411.2,568.5,411.4 M476.3,47.1c0-0.7,0-1.2,0-2C477,45.9,477.3,46.5,476.3,47.1
				 M656.2,373.5c0-0.1,0-0.4,0-0.4c0.6-0.2,1.3-0.4,1.9-0.6l0.2,0.3c-0.4,0.3-0.9,0.6-1.4,0.9C656.8,373.7,656.5,373.5,656.2,373.5
				 M582.6,251c0,0,0.1,0.2,0.2,0.2c-0.4,0.4-0.9,1-1.3,1.4c-0.1-0.1-0.2-0.1-0.2-0.2C581.7,252,582.1,251.5,582.6,251 M631.4,131.6
				c0,0.6-0.2,1.1-0.3,1.7c-0.1,0.2-0.4,0.2-0.6,0.3c-0.1-0.2-0.2-0.5-0.1-0.7C630.6,132.4,631,132,631.4,131.6 M320.1,499.4
				c0-0.1-0.1-0.2-0.1-0.3c0.3-0.1,0.5-0.1,0.8,0c0.1-0.1,0.1,0.1,0.1,0.2C320.7,499.3,320.4,499.4,320.1,499.4 M400.4,266.7
				c-0.2-0.1-0.3-0.3-0.5-0.5c0.1,0,0.2,0,0.3,0.1c0.1,0.1,0.2,0.2,0.3,0.3L400.4,266.7 M578.4,256.8c0.2-0.2,0.4-0.4,0.7-0.5
				c0,0.2,0.1,0.5,0,0.6c-0.2,0.2-0.4,0.3-0.6,0.5C578.4,257.2,578.4,257,578.4,256.8 M337.3,545.7c-0.1-0.2-0.1-0.4-0.1-0.5
				c0.5-0.1,0.8,0,1.3-0.1c0,0.2,0,0.4,0,0.7C338.1,545.7,337.7,545.7,337.3,545.7 M628.2,271.5l-0.1-0.1c0.1-0.1,0.2-0.2,0.3-0.3
				c0,0.1,0,0.1,0.1,0.1L628.2,271.5 M675.5,302.3c0.1-0.3,0.2-0.5,0.3-0.7c0.1-0.1,0.3,0,0.5,0c-0.1,0.1-0.1,0.3-0.2,0.4
				C675.9,302.1,675.7,302.1,675.5,302.3 M844.6,173.2c0.1-0.3,0.1-0.5,0.1-0.6c0.3-0.1,0.5-0.2,0.8-0.3
				C845.3,172.6,845,172.9,844.6,173.2 M623,162.3l-0.2-0.2c0.2-0.3,0.4-0.5,0.5-0.7l0.2,0.2C623.3,161.9,623.2,162.1,623,162.3
				 M614.5,178.5l-0.1-0.1l0.2-0.2L614.5,178.5z M550,347.1c0.1-0.3,0.1-0.5,0.2-0.6l0.2,0.2L550,347.1 M580.3,242.4
				c0.1-0.1,0.2-0.1,0.3-0.2c0,0.1-0.1,0.3-0.1,0.4c-0.1,0.1-0.2,0.1-0.3,0.2C580.2,242.7,580.2,242.6,580.3,242.4 M406.3,270.7
				c-0.1,0-0.2,0-0.4-0.1c0.1-0.1,0.2-0.1,0.2-0.3L406.3,270.7 M687.5,293c0.1-0.1,0.2-0.2,0.3-0.3c0,0.2,0,0.3,0,0.5
				C687.7,293.1,687.6,293,687.5,293 M700.1,283.3c0.1-0.2,0.3-0.4,0.4-0.6c0-0.1,0.2,0,0.3,0c-0.1,0.2-0.2,0.4-0.3,0.6
				C700.4,283.3,700.2,283.3,700.1,283.3 M663.2,331.3c0-0.2-0.1-0.3,0-0.4c0-0.1,0.2-0.3,0.3-0.4c0.1,0.2,0.1,0.4,0.1,0.6
				C663.6,331.2,663.3,331.2,663.2,331.3 M801.5,207.3c-0.2,0.2-0.4,0.4-0.5,0.6l-0.2-0.2c0.2-0.2,0.3-0.4,0.5-0.6L801.5,207.3
				 M626.6,134.6c0-0.1-0.1-0.2,0-0.3c0-0.1,0.1-0.2,0.2-0.3c0.1,0.1,0.1,0.3,0.1,0.5C626.9,134.5,626.7,134.5,626.6,134.6
				 M734.2,284.7c-0.1,0.1-0.2,0.1-0.3,0.2c0-0.1,0-0.3,0-0.3c0.2-0.1,0.3-0.1,0.5-0.1C734.3,284.5,734.3,284.6,734.2,284.7
				 M737.3,282.5l-0.2,0.3c-0.1-0.1-0.1-0.3-0.1-0.4c0.1-0.1,0.2-0.1,0.3-0.2C737.3,282.3,737.3,282.4,737.3,282.5 M841.2,175.9
				c-0.1,0.1-0.3,0.1-0.4,0.2c0.2-0.2,0.3-0.4,0.4-0.6C841.2,175.6,841.2,175.8,841.2,175.9 M606.9,574.5l-0.3-0.2
				c0-0.1,0.1-0.1,0.2-0.1c0.1,0,0.2,0.1,0.3,0.2C607,574.4,606.9,574.4,606.9,574.5 M478.7,181.9c0-0.1-0.1-0.2-0.2-0.3
				c0-0.1,0.1-0.2,0.2-0.3c0.1,0.1,0.2,0.3,0.3,0.4C478.9,181.7,478.8,181.8,478.7,181.9 M605.7,164.4l0.3-0.1l-0.1,0.4L605.7,164.4
				z M310.2,504.3c0-0.1,0.1-0.2,0.2-0.3c0-0.1,0.2,0,0.3,0.1c-0.1,0.2-0.1,0.3-0.2,0.4C310.5,504.4,310.4,504.3,310.2,504.3
				 M392.5,433.8l0.2,0.2l-0.3,0.1L392.5,433.8z M541.7,290.7l0.3-0.1l-0.1,0.3L541.7,290.7z M529.1,310.7l-0.3,0.2l0.1-0.3
				L529.1,310.7z M519.8,431.7c0.1-0.1,0.1-0.2,0.2-0.3c0-0.1,0.2,0.1,0.2,0.1c0,0.1-0.1,0.2-0.2,0.3
				C520,431.9,519.9,431.8,519.8,431.7 M569.5,387.6l0.3-0.2l-0.1,0.3L569.5,387.6z M558.3,415.8c-0.1,0.1-0.2,0.1-0.4,0.1
				c0.1-0.2,0.3-0.3,0.4-0.5C558.3,415.6,558.3,415.7,558.3,415.8 M561.6,414.7c-0.1,0.1-0.1,0.2-0.2,0.3c0-0.1-0.1-0.3-0.1-0.4
				C561.3,414.7,561.5,414.7,561.6,414.7 M665.1,309.5c0.1-0.1,0.1-0.2,0.2-0.3c0.1,0,0.2,0.1,0.2,0.1c-0.1,0.1-0.1,0.2-0.1,0.3
				C665.3,309.7,665.2,309.6,665.1,309.5 M703,281.7c-0.1-0.1-0.2-0.2-0.2-0.3c0.1-0.1,0.1-0.2,0.2-0.3c0.1,0.1,0.2,0.2,0.3,0.3
				C703.2,281.6,703,281.6,703,281.7 M467.2,544.9l-0.2-0.3l0.4,0.1L467.2,544.9z M702.5,292l-0.2-0.2l0.3-0.2L702.5,292z
				 M630.3,382.9c0.1-0.2,0.3-0.4,0.4-0.6c0,0.1,0,0.3,0,0.4C630.7,382.8,630.5,382.8,630.3,382.9 M643.6,378l-0.1-0.2
				c0.1-0.1,0.2-0.1,0.3-0.2c0,0.1,0.1,0.2,0.1,0.2C643.8,377.9,643.7,377.9,643.6,378 M542.8,490.4c0-0.1,0-0.2-0.1-0.3
				c0.1,0,0.2-0.1,0.3,0c0.1,0.1,0.1,0.2,0.1,0.3C543,490.5,542.9,490.5,542.8,490.4 M20.1,602.3c0.1-0.1,0.1-0.2,0.2-0.3
				c0.1,0.1,0.1,0.3,0.2,0.4C20.3,602.4,20.3,602.3,20.1,602.3 M756.4,272.3l-0.1,0.4l-0.3-0.2L756.4,272.3z M484.6,576.9l0.1-0.2
				l0.2,0.2L484.6,576.9z M672.6,384.5c0.1-0.1,0.1-0.2,0.2-0.3c0,0.2,0.1,0.3,0.2,0.4L672.6,384.5 M728.9,333.5l-0.2-0.2l0.3-0.1
				L728.9,333.5z M534.1,602.7h0.3l-0.1,0.2L534.1,602.7z M504.2,92.6l-0.3,0.2l0.1-0.3L504.2,92.6z M346.2,267.8l0.3,0.1l-0.1,0.3
				L346.2,267.8z M591.9,642.1c-0.2-0.1-0.3-0.1-0.5-0.2l0.2-0.2C591.8,641.8,591.8,641.9,591.9,642.1"/>
			<path id="Tracé_44578" class="st0" d="M527,497.9c-0.8-0.3-1.7-0.6-2.6-0.8c-8.4-0.9-16.9-1.4-25.3-1.3c0.8,0.5,1.6,1,2.4,1.5
				l-0.2,0c1-0.1,1.9-0.1,2.8-0.2l-0.2,0c1.3,0,2.6,0.1,3.8,0.2c0.2-0.1,0.3-0.1,0.5,0c1.8,0,3.6-0.2,5.1,0.7l-0.1,0
				c3.1-0.7,6.3,0.1,9.4,0.1c1.5,0,3.1,0.8,4.4-0.3L527,497.9z"/>
			<path id="Tracé_44579" class="st0" d="M493.2,497.5c1.1-0.3,2.3-0.6,3.4-0.9c0.8-0.2,1.6-0.5,2.5-0.8c-2.8,0-5.6-0.1-8.4-0.1
				C491.5,496.2,492.4,496.9,493.2,497.5L493.2,497.5z"/>
			<path id="Tracé_44580" class="st0" d="M255.2,523.1c1.2,0.3,2.4,0,3.3-0.8c-0.2-0.1-0.2-0.3-0.3-0.5c-0.5,0-1-0.1-1.4-0.2
				c-0.6,0.6-1,1.2-1.5,1.7L255.2,523.1z"/>
			<path id="Tracé_44581" class="st0" d="M258.1,521.8c0.1,0.2,0.1,0.4,0.3,0.5c1.2,0.9,2.4,0.2,3.6,0.1c-0.6-0.2-1.3-0.4-2-0.5
				C259.4,521.9,258.7,521.8,258.1,521.8"/>
			<path id="Tracé_44582" class="st0" d="M433.8,552.8c2.9,1.2,6.1,1.6,9.1,1C440,552.8,436.9,552.5,433.8,552.8"/>
			<path id="Tracé_44583" class="st0" d="M446.5,558c2.1,1.5,4.6,1.2,6.7,2.1c0.8-0.8,0.7-1.5,0-1.6c-2.2-0.4-4.4-1.3-6.7-0.5V558z
				"/>
			<path id="Tracé_44584" class="st0" d="M305.1,534.5c2,0.4,4.1,0.3,6.1-0.4c-3.2-0.7-3.2-0.7-6.1,0.5L305.1,534.5z"/>
			<path id="Tracé_44585" class="st0" d="M426.6,541.4c2,1.4,4.3,2.2,6.7,2.3v0.1c-2-1.4-4.1-2.5-6.7-2.2V541.4z"/>
			<path id="Tracé_44586" class="st0" d="M164.2,538.7c-2-0.9-3.7-0.2-5.3,1C160.6,539.3,162.5,539,164.2,538.7"/>
			<path id="Tracé_44587" class="st0" d="M174.7,536.8c-1.8-0.9-3.4-0.1-5.1,0.6C171.3,537.2,173,537,174.7,536.8"/>
			<path id="Tracé_44588" class="st0" d="M183.6,534.6c-1.6,0.4-3.5-0.4-4.9,1.1C180.4,536,182.2,535.6,183.6,534.6"/>
			<path id="Tracé_44589" class="st0" d="M426.5,552.4c1.1,1,2.3,0.7,4,0.9c-2-1.1-2-1.1-4-0.8V552.4z"/>
			<path id="Tracé_44590" class="st0" d="M178.9,535.6c-1.3-0.3-2.7,0.1-3.6,1.1C176.5,536.3,177.7,536,178.9,535.6"/>
			<path id="Tracé_44591" class="st0" d="M188,533.8c-1.2,0.2-2.4,0.4-3.7,0.6C185.6,534.8,186.9,534.5,188,533.8"/>
			<path id="Tracé_44592" class="st0" d="M419.7,539.8c0.1,0,0.3,0,0.4-0.1c-0.1-0.1-0.2-0.3-0.3-0.3c-0.2,0-0.3,0.1-0.5,0.1
				L419.7,539.8"/>
			<path id="Tracé_44593" class="st0" d="M359.1,538.8c0.1-0.1,0.2-0.1,0.4-0.1c0-0.1-0.1-0.3-0.2-0.4c-0.1,0-0.3,0.1-0.5,0.2
				C358.9,538.6,359,538.7,359.1,538.8"/>
			<path id="Tracé_44594" class="st0" d="M397.4,542.2c0.1,0.2,0.3,0.5,0.5,0.6c0.2,0.1,0.4-0.1,0.7-0.2c-0.2-0.2-0.2-0.6-0.5-0.6
				C397.9,541.9,397.7,542.1,397.4,542.2"/>
			<path id="Tracé_44595" class="st0" d="M419,548c0.2,0.2,0.3,0.4,0.6,0.5c0.2,0.1,0.5,0.1,0.7,0.1c-0.1-0.2-0.3-0.4-0.4-0.5
				C419.6,548.1,419.3,548.1,419,548L419,548z"/>
			<path id="Tracé_44596" class="st0" d="M169.7,537.4c-0.9,0-1.8,0.1-2.7,0.1C167.8,538.3,169,538.2,169.7,537.4"/>
			<path id="Tracé_44597" class="st0" d="M167.1,537.5c-0.8,0.4-1.6,0.8-2.4,1.2C165.5,538.3,166.4,537.9,167.1,537.5"/>
			<path id="Tracé_44598" class="st0" d="M424.6,540.4c-0.3,0.1-0.6,0.2-0.9,0.3c0.1,0,0.3,0.2,0.4,0.1c0.2-0.2,0.3-0.3,0.5-0.5
				L424.6,540.4z"/>
			<path id="Tracé_44599" class="st0" d="M426.6,541.5c-0.7-0.4-1.4-0.7-2.1-1.1l0-0.1c0.6,0.6,1.1,1.3,2.1,1V541.5z"/>
			<path id="Tracé_44600" class="st0" d="M464.2,555.3c-0.2-0.1-0.5-0.3-0.7-0.3c0.3,0,0.5,0.1,0.8,0.2L464.2,555.3z"/>
			<path id="Tracé_44601" class="st0" d="M640.5,334.4c-0.4,0.3-0.7,0.6-1.1,1c0,0.1,0.1,0.2,0.2,0.2
				C639.9,335.1,640.2,334.7,640.5,334.4L640.5,334.4z"/>
			<path id="Tracé_44602" class="st0" d="M692,300.9c-0.5,0.3-0.9,0.6-1.5,1C691.7,302.1,691.7,301.3,692,300.9L692,300.9z"/>
			<path id="Tracé_44603" class="st0" d="M437.4,340.6c0,0.2-0.1,0.5-0.1,0.8c0-0.3,0-0.5-0.1-0.8L437.4,340.6z"/>
			<path id="Tracé_44604" class="st0" d="M761.7,476.8c1.5,0.3,3,0.9,4.5,0v0.1c-1.5-0.5-3.1-0.5-4.5,0L761.7,476.8z"/>
			<path id="Tracé_44605" class="st0" d="M744.6,475.5c-1.3-0.3-1.7-0.3-2.1-0.4c-0.1,0-0.2,0.1-0.4,0.2c0.2,0.1,0.3,0.4,0.5,0.4
				C743.2,475.7,743.9,475.6,744.6,475.5"/>
			<path id="Tracé_44606" class="st0" d="M752.2,476.3c0.5,0.1,1.1,0.2,1.6,0.2c0.2,0,0.3-0.3,0.5-0.5c0,0-0.2-0.2-0.3-0.3
				c-0.5-0.1-1.1-0.2-1.6-0.2C752.3,475.8,752.3,476,752.2,476.3"/>
			<path id="Tracé_44607" class="st0" d="M761.7,477c-0.9-1.1-1.9-0.8-3-0.2c1,0,2,0,3,0L761.7,477z"/>
			<path id="Tracé_44608" class="st0" d="M732.9,474.6c0.6,0.6,1.2,1,1.7,1.6c0.8-1.4,0.8-1.4-0.9-1.5
				C733.5,474.7,733.2,474.7,732.9,474.6"/>
			<path id="Tracé_44609" class="st0" d="M766.2,476.8c0.2,0.1,0.4,0.2,0.6,0.3c-0.1,0-0.3-0.1-0.6-0.2
				C766.2,476.9,766.2,476.9,766.2,476.8"/>
			<path id="Tracé_44610" class="st0" d="M549.6,500.7c-2.6-1-5.2-1.5-7.9-0.6V500c2.1,0.4,4.2,0.8,6.3,1.1c0.5,0.1,1-0.4,1.6-0.6
				L549.6,500.7z"/>
			<path id="Tracé_44611" class="st0" d="M594.1,509.6c-1.8-1.2-4-1.1-6-1.7C590.3,509.5,590.8,509.6,594.1,509.6L594.1,509.6z"/>
			<path id="Tracé_44612" class="st0" d="M568.8,504.2c-2.1-0.5-4.3-1.3-6.5-0.3l0-0.1c1.2,0.2,2.3,0.4,3.5,0.6
				c1,0.1,2.1,0.4,3-0.4L568.8,504.2z"/>
			<path id="Tracé_44613" class="st0" d="M549.5,500.5c1.6,1.3,3.3,1.9,5.3,0.9v0.2c-1.8-0.3-3.5-0.6-5.3-0.9L549.5,500.5z"/>
			<path id="Tracé_44614" class="st0" d="M535,498.9c-1.5-0.6-3-1.1-4.6-0.1l0-0.1c1.5,0.3,3,0.9,4.5,0.1L535,498.9z"/>
			<path id="Tracé_44615" class="st0" d="M626.9,519.3c1,1,2.5,1.5,4,1.3c-1.5-1.1-2.6-1.7-4-1.2V519.3z"/>
			<path id="Tracé_44616" class="st0" d="M554.9,501.4c0.5,1,1.8,1.5,2.8,1c-0.8-1-1.9-0.7-2.8-0.8L554.9,501.4z"/>
			<path id="Tracé_44617" class="st0" d="M530.4,498.7c-1-0.7-2.2-1-3.4-0.8v-0.1C528,498.8,529.2,498.7,530.4,498.7L530.4,498.7z"
				/>
			<path id="Tracé_44618" class="st0" d="M535,498.7c0.9,0.8,2.2,1,3.3,0.5l0,0.1c-1.1-0.2-2.2-0.3-3.3-0.5L535,498.7z"/>
			<path id="Tracé_44619" class="st0" d="M538.3,499.3c1,0.8,2.2,1,3.4,0.7v0.1C540.8,499.2,539.5,498.9,538.3,499.3L538.3,499.3z"
				/>
			<path id="Tracé_44620" class="st0" d="M572.9,505.8c1.1,0,2.1,0,3.2-0.1c0,0.1,0,0.2,0,0.2c-1.1-0.3-2.2-0.7-3.2,0L572.9,505.8z
				"/>
			<path id="Tracé_44621" class="st0" d="M578.2,507c1.1-0.1,2.2-0.2,3.2-0.2l0,0.1c-1-0.5-2.2-0.4-3.2,0.2L578.2,507z"/>
			<path id="Tracé_44622" class="st0" d="M636.3,522.7c0.4,0.2,0.8,0.5,0.2,0.2c0.7-0.1,0.2-0.1-0.2,0L636.3,522.7z"/>
			<path id="Tracé_44623" class="st0" d="M659.7,532.1c-0.4-0.1-0.8-0.1-1.1-0.2l0,0.1C658.9,532.1,659.3,532.1,659.7,532.1
				L659.7,532.1z"/>
			<path id="Tracé_44624" class="st0" d="M659.6,532.1c0.2,0.2,0.5,0.4,0.7,0.6c0.1,0.1,0.2,0.2,0.3,0.3l-0.3-0.2
				C660.1,532.5,659.9,532.3,659.6,532.1L659.6,532.1z"/>
			<path id="Tracé_44625" class="st0" d="M316,501.6c-0.7,0.2-1.4,0.5-2.1,0.8C314.7,502.1,315.4,501.8,316,501.6"/>
			<path id="Tracé_44626" class="st0" d="M562.3,503.9c-0.2-0.2-0.3-0.4-0.5-0.5l0.2,0.2l0.3,0.2L562.3,503.9z"/>
			<path id="Tracé_44627" class="st0" d="M570.8,504.8c-0.7-0.2-1.4-0.4-2-0.7l-0.1-0.1C569.4,504.5,569.8,505.3,570.8,504.8
				L570.8,504.8z"/>
			<path id="Tracé_44628" class="st0" d="M572.9,505.9c-0.4-0.7-1.2-1.1-2.1-1l0-0.1C571.5,505.1,572.2,505.4,572.9,505.9
				L572.9,505.9z"/>
			<path id="Tracé_44629" class="st0" d="M578.3,507.1c-0.5-0.7-1.1-1.4-2.1-1.2c0,0-0.1-0.1,0-0.2c0.7,0.4,1.4,0.8,2.1,1.2
				C578.2,507,578.3,507.1,578.3,507.1"/>
			<path id="Tracé_44630" class="st0" d="M581.4,506.8c0.6,0.1,1.3,0.2,2,0.3l0,0c-0.6-0.1-1.3-0.2-2-0.2L581.4,506.8z"/>
			<path id="Tracé_44631" class="st0" d="M583.4,507.1L583.4,507.1L583.4,507.1z"/>
			<path id="Tracé_44632" class="st0" d="M596.1,510.1c-0.6-0.2-1.3-0.3-2-0.5l0-0.1C594.7,510.1,595.3,510.6,596.1,510.1
				L596.1,510.1z"/>
			<path id="Tracé_44633" class="st0" d="M598.1,510.3c-0.7,0-1.3-0.1-2-0.2V510c0.6,0.1,1.2,0.2,1.9,0.3L598.1,510.3z"/>
			<path id="Tracé_44634" class="st0" d="M598,510.4l0.5,0.4c-0.1,0-0.2,0-0.3-0.1C598.1,510.6,598.1,510.4,598,510.4
				C598.1,510.3,598,510.4,598,510.4"/>
			<path id="Tracé_44635" class="st0" d="M604.1,512.2l-0.4,0C603.8,512.2,603.9,512.2,604.1,512.2L604.1,512.2z"/>
			<path id="Tracé_44636" class="st0" d="M604.1,512.1c0.6,0.2,1.2,0.3,1.9,0.4l0,0C605.4,512.5,604.7,512.4,604.1,512.1
				L604.1,512.1z"/>
			<path id="Tracé_44637" class="st0" d="M606,512.6c0.2,0.1,0.3,0.3,0.5,0.4c-0.1,0-0.2,0.1-0.3,0L606,512.6L606,512.6z"/>
			<path id="Tracé_44638" class="st0" d="M614.1,515.1l-0.4-0.1l0.3-0.1L614.1,515.1z"/>
			<path id="Tracé_44639" class="st0" d="M614.1,514.9c0.7,0.2,1.3,0.3,2,0.4l0,0.1c-0.7-0.1-1.3-0.2-2-0.4L614.1,514.9z"/>
			<path id="Tracé_44640" class="st0" d="M616.1,515.3c0.7,0.2,1.3,0.3,2,0.5l0.1,0c-0.7-0.1-1.4-0.2-2-0.3L616.1,515.3z"/>
			<path id="Tracé_44641" class="st0" d="M618,515.8L618,515.8C618.1,515.8,618,515.8,618,515.8"/>
			<path id="Tracé_44642" class="st0" d="M622.8,517.7l-0.3,0.1C622.5,517.8,622.6,517.7,622.8,517.7L622.8,517.7z"/>
			<path id="Tracé_44643" class="st0" d="M622.7,517.6c0.7,0.2,1.4,0.4,2.1,0.6c0,0.1,0,0.2,0,0.2
				C624.2,518.2,623.5,518,622.7,517.6L622.7,517.6z"/>
			<path id="Tracé_44644" class="st0" d="M626.9,519.4c-0.7-0.3-1.4-0.6-2.1-0.9c0,0-0.1-0.1,0-0.2c0.7,0.3,1.4,0.7,2.1,1
				C626.9,519.3,626.9,519.3,626.9,519.4"/>
			<path id="Tracé_44645" class="st0" d="M634.2,522.1c-0.2-0.1-0.4-0.1-0.6-0.2c0.1,0.1,0.2,0.1,0.2,0.1c0.1,0,0.3,0,0.4-0.1
				L634.2,522.1z"/>
			<path id="Tracé_44646" class="st0" d="M634.2,521.9c0.7,0.3,1.4,0.6,2.1,0.8l0,0.1c-0.6-0.6-1.2-1.1-2.1-0.8L634.2,521.9z"/>
			<path id="Tracé_44647" class="st0" d="M642.7,525.4l0.2-0.2l-0.4-0.1L642.7,525.4z"/>
			<path id="Tracé_44648" class="st0" d="M649,527.7c-0.2,0-0.5,0-0.7,0c0.1,0.1,0.2,0.2,0.3,0.1
				C648.7,527.8,648.9,527.7,649,527.7L649,527.7z"/>
			<path id="Tracé_44649" class="st0" d="M649,527.6c0.2,0.1,0.4,0.2,0.6,0.3C649.4,527.9,649.2,527.8,649,527.6L649,527.6z"/>
			<path id="Tracé_44650" class="st0" d="M729.2,343.4c-0.9,0.5-1.8,1-2.7,1.5C727.4,344.4,728.3,343.9,729.2,343.4"/>
			<path id="Tracé_44651" class="st0" d="M726.6,344.9c-0.6,0.3-1.3,0.6-1.9,0.8C725.3,345.4,726,345.1,726.6,344.9"/>
			<path id="Tracé_44652" class="st0" d="M731.1,342.7c-0.7,0.3-1.3,0.5-2,0.8C729.8,343.2,730.4,343,731.1,342.7"/>
			<path id="Tracé_44653" class="st0" d="M596.4,185.3c-0.1,0.1-0.1,0.3-0.1,0.4c0.2,0,0.4,0,0.6,0c0-0.2-0.1-0.4-0.1-0.6
				C596.6,185.2,596.5,185.2,596.4,185.3"/>
			<path id="Tracé_44654" class="st0" d="M582.2,208.1c-0.7,0.7-2,1.3-1,2.7l-0.1,0c0.3-0.9,0.6-1.8,0.9-2.7L582.2,208.1z"/>
			<path id="Tracé_44655" class="st0" d="M581.2,210.8c-0.4,0.4-0.7,0.7-1,1.1l0.1,0.1C580.6,211.6,580.9,211.2,581.2,210.8
				L581.2,210.8z"/>
			<path id="Tracé_44656" class="st0" d="M636.6,256c-0.3,0.3-0.6,0.6-0.9,1c0,0.1,0,0.3,0.1,0.4c0.3,0,0.5,0,0.7-0.1
				c0-0.4,0-0.8-0.1-1.2L636.6,256z"/>
		</g>
	</g>
</g>
</svg>
