<?xml version="1.0" encoding="utf-8"?>
<!-- Generator: Adobe Illustrator 26.0.3, SVG Export Plug-In . SVG Version: 6.00 Build 0)  -->
<svg version="1.1" id="Groupe_3867" xmlns="http://www.w3.org/2000/svg" xmlns:xlink="http://www.w3.org/1999/xlink" x="0px"
	 y="0px" viewBox="0 0 187.2 188.5" style="enable-background:new 0 0 187.2 188.5;" xml:space="preserve">
<style type="text/css">
	.st0{fill:#F0E8DF;}
</style>
<g>
	<path id="Tracé_35859" class="st0" d="M8.3,113.6c-1.1,0.2-2.3-0.2-3-1c-0.4-0.4-0.6-1-0.7-1.5c-0.2-1.1,0.2-2.3,1.1-3
		s2.1-1,3.1-0.6c1.7,0.6,2.5,2.4,2,4.1c-0.2,0.5-0.5,1-0.9,1.4C9.4,113.3,8.9,113.5,8.3,113.6"/>
	<path id="Tracé_35860" class="st0" d="M0,88.1l0.3-2.6l9.5,1.1l0.9-7.6l2.5,0.3L12,89.4L0,88.1z"/>
	<path id="Tracé_35861" class="st0" d="M18.7,61l-3.8,10.7L3.5,67.6l3.8-10.7l2.3,0.8l-3,8.2L9,66.8l2-5.6l2.2,0.8l-2,5.6l2.3,0.8
		l3-8.2L18.7,61z"/>
	<path id="Tracé_35862" class="st0" d="M33.7,38.4l-4.1,4.5l-8.9-8.1l4.1-4.5c2.2-2.5,6-2.6,8.5-0.4C35.8,32.1,36,35.9,33.7,38.4
		L33.7,38.4 M29.6,39.3l2.3-2.5c1.3-1.5,1.1-3.7-0.3-5c-1.4-1.2-3.6-1.1-4.9,0.2l-2.3,2.5L29.6,39.3z"/>
	<path id="Tracé_35863" class="st0" d="M39.7,24.4c-1.9-2.8-0.9-6.7,2.2-8.7c3-2,7-1.5,8.9,1.3s0.9,6.7-2.2,8.7
		C45.6,27.8,41.6,27.2,39.7,24.4 M48.6,18.4c-1.3-1.7-3.7-2-5.4-0.7c-1.8,1.1-2.4,3.4-1.4,5.2c1.3,1.7,3.7,2,5.4,0.7
		C49,22.6,49.6,20.3,48.6,18.4"/>
	<path id="Tracé_35864" class="st0" d="M61.3,18.5L57.2,6.7l11.6,4.2l-2.4-7L68.8,3l4.1,11.8l-11.5-4.2l2.4,6.9L61.3,18.5z"/>
	<path id="Tracé_35865" class="st0" d="M93.8,5.6C93.9,4,94.7,2.5,96,1.5c1.4-1.1,3.1-1.6,4.8-1.4c2.3,0.1,4.3,1.3,5.5,3.3
		l-2.2,1.4c-0.7-1.3-2-2.1-3.5-2.1c-2.1-0.3-4,1.2-4.3,3.3c0,2.1,1.7,3.8,3.8,3.8c1.5,0.1,2.9-0.5,3.7-1.7l2,1.6
		c-1.4,1.8-3.6,2.8-5.9,2.6c-1.7-0.1-3.3-0.8-4.6-2C94.3,8.9,93.7,7.3,93.8,5.6"/>
	<path id="Tracé_35866" class="st0" d="M114.6,14.3l-2.8-0.8l9.8-10.2l2.7,14l-2.8-0.8l-0.5-2.3l-4.9-1.5L114.6,14.3z M117.6,11
		l3.3,1l-0.6-3.9L117.6,11z"/>
	<path id="Tracé_35867" class="st0" d="M130.8,20l8-9.7l1.5,9.8l9.4-3l-5.2,11.4l-2.2-1.3l2.8-6.1l-6.8,2.1l-1.1-7l-4.3,5.2
		L130.8,20z"/>
	
		<rect id="Rectangle_165" x="149.7" y="29.5" transform="matrix(0.697 -0.717 0.717 0.697 25.0499 120.9608)" class="st0" width="12" height="2.6"/>
	<path id="Tracé_35868" class="st0" d="M168.4,35.8l1.5,2.1l-7.8,5.5l4.4,6.2l-2,1.4l-5.9-8.4L168.4,35.8z"/>
	<path id="Tracé_35869" class="st0" d="M179.4,53.3l1,2.4l-8.8,3.7l3,7.1l-2.3,1l-4-9.5L179.4,53.3z"/>
	<path id="Tracé_35870" class="st0" d="M180,72.3c3.4-0.6,6.5,2,7.1,5.5c0.6,3.6-1.5,7-4.9,7.6c-3.3,0.6-6.5-2-7.1-5.5
		C174.5,76.3,176.6,72.9,180,72.3 M181.8,82.9c2-0.5,3.3-2.6,2.8-4.6c-0.6-1.9-2.6-3-4.5-2.4s-3,2.6-2.4,4.5
		C178.3,82.1,180,83.2,181.8,82.9"/>
	<path id="Tracé_35871" class="st0" d="M181.2,107.8c0.5,0.1,1,0.3,1.5,0.7c0.4,0.4,0.8,0.8,0.9,1.4c0.6,1.7-0.3,3.5-2,4.1
		c-1.1,0.4-2.3,0.1-3.1-0.6c-0.4-0.4-0.8-0.8-0.9-1.4c-0.6-1.7,0.3-3.5,2-4.1l0,0C180.1,107.7,180.7,107.7,181.2,107.8"/>
	<path id="Tracé_35872" class="st0" d="M166,134.2l2.9-5.3l10.5,5.8l-2.9,5.3c-1.6,2.9-5.3,4-8.2,2.4
		C165.5,140.7,164.4,137.1,166,134.2 M169.9,132.4l-1.7,3c-0.9,1.7-0.2,3.9,1.5,4.8c1.7,0.9,3.8,0.3,4.7-1.4l1.7-3L169.9,132.4z"/>
	<path id="Tracé_35873" class="st0" d="M150.6,154.2l7.7-8.4l8.8,8.2l-7.7,8.4l-1.8-1.7l6-6.4l-1.8-1.6l-4,4.3l-1.7-1.6l4-4.3
		l-1.8-1.6l-6,6.4L150.6,154.2z"/>
	<path id="Tracé_35874" class="st0" d="M150.7,169.8l-6.8,4.5c-1.8,1.2-4.2,0.8-5.5-1s-0.8-4.2,1-5.5c0,0,0.1,0,0.1-0.1l4.6-3
		l-2.3-3.5l2.2-1.4L150.7,169.8z M141.2,169.5c-0.8,0.4-1.1,1.3-0.7,2.1c0.4,0.8,1.3,1.1,2.1,0.7c0.1-0.1,0.2-0.1,0.3-0.2l4.3-2.9
		l-1.7-2.6L141.2,169.5z"/>
	<path id="Tracé_35875" class="st0" d="M128.8,175.4l2,5.8l-2.5,0.9l-2-5.8c-0.6-1.8-2.5-2.8-4.3-2.2s-2.8,2.5-2.2,4.3
		c0,0.1,0,0.1,0.1,0.2l2,5.8l-2.5,0.8l-2-5.8c-1.1-3.2,0.6-6.6,3.7-7.7S127.7,172.3,128.8,175.4"/>
	
		<rect id="Rectangle_166" x="105.1" y="175.5" transform="matrix(0.9907 -0.1364 0.1364 0.9907 -23.7621 16.2081)" class="st0" width="2.6" height="12"/>
	<path id="Tracé_35876" class="st0" d="M95.8,179l-2.1,1.1c-1-1.1-2.3-1.7-3.8-1.7c-0.9-0.1-1.8,0-2.6,0.3
		c-0.5,0.1-0.8,0.6-0.7,1.1c0.1,0.3,0.3,0.5,0.6,0.7c0.8,0.3,1.7,0.5,2.5,0.6c1.2,0.1,2.4,0.4,3.5,0.8c1.2,0.4,2,1.7,1.9,3
		c-0.1,1.4-1,2.5-2.2,3c-1.2,0.4-2.5,0.6-3.8,0.5c-2.7-0.1-4.5-1.1-5-2.9l2.3-1.1c0.4,1,1.3,1.6,3.1,1.7c1.2,0.1,3.1-0.2,3.2-1.2
		c0.1-0.8-0.6-1.1-1.9-1.4c-0.3-0.1-0.7-0.1-1.2-0.2c-0.3,0-0.6-0.1-1-0.2c-0.9-0.1-1.7-0.3-2.5-0.7c-1.3-0.4-2-1.7-1.9-3v-0.2
		c0.2-2.6,3-3.5,6-3.3C92.4,176.1,95.2,177.3,95.8,179"/>
	<path id="Tracé_35877" class="st0" d="M58,178.3l2.4-0.7l0.7,2.1l-3.9,1.1l-2.6-1.1l4.8-11l2.4,1L58,178.3z"/>
	<path id="Tracé_35878" class="st0" d="M39.2,164.2c2.4-3.6,5.2-4.5,8.6-2.1c1.6,1,2.6,2.7,2.7,4.6l-2.2,0.3
		c-0.1-1.2-0.8-2.3-1.8-3c-1.4-1-2.8-1.2-4.4,0.6c1.2-0.1,2.3,0.2,3.2,0.9c2.3,1.6,3.4,4.1,2.1,6.1c-1.3,1.9-4.3,1.9-6.7,0.3
		C37.9,169.8,37.3,167,39.2,164.2 M45.3,170c0.5-0.8-0.2-2.1-1.3-2.9c-1.1-0.8-2.6-1-3.2-0.2c-0.5,0.8,0.2,2.1,1.3,2.9
		C43.3,170.6,44.7,170.8,45.3,170"/>
	<path id="Tracé_35879" class="st0" d="M24.9,150c3.2-3,6.1-3.2,8.9-0.1c1.3,1.3,1.9,3.2,1.6,5.1l-2.2-0.2c0.2-1.2-0.2-2.5-1.1-3.3
		c-1.1-1.2-2.5-1.8-4.5-0.4c1.2,0.2,2.2,0.8,2.9,1.7c1.9,2.1,2.4,4.8,0.7,6.4c-1.7,1.6-4.7,0.9-6.6-1.2
		C22.4,155.2,22.4,152.4,24.9,150 M29.5,157.1c0.7-0.7,0.3-2.1-0.6-3.1s-2.3-1.5-3-0.9s-0.3,2.1,0.6,3.1
		C27.4,157.2,28.8,157.7,29.5,157.1"/>
	<path id="Tracé_35880" class="st0" d="M15.6,132.8l1.9-1.1l0.9,1.5l2.6-1.5l1.3,2.2l-2.6,1.5l3.1,5.4l-2.2,1.3l-8.4-1.8l-1.5-2.7
		l5.9-3.4L15.6,132.8z M19.4,139.6l-1.7-3l-3.2,1.8l0,0L19.4,139.6z"/>
</g>
</svg>
