<?xml version="1.0" encoding="utf-8"?>
<!-- Generator: Adobe Illustrator 26.0.3, SVG Export Plug-In . SVG Version: 6.00 Build 0)  -->
<svg version="1.1" id="Calque_1" xmlns="http://www.w3.org/2000/svg" xmlns:xlink="http://www.w3.org/1999/xlink" x="0px" y="0px"
	 viewBox="0 0 187.2 190.2" style="enable-background:new 0 0 187.2 190.2;" xml:space="preserve">
<style type="text/css">
	.st0{fill:#455033;}
</style>
<g>
	<path id="Tracé_45490" class="st0" d="M3.6,94.9c-0.6,0-1.2-0.2-1.7-0.5c-1.6-1-2.1-3.1-1.1-4.7c0.7-1,1.8-1.7,3.1-1.6
		c0.6,0,1.2,0.2,1.7,0.5c1.6,1,2.1,3.2,1.1,4.8c-0.3,0.5-0.8,0.9-1.3,1.2C4.8,94.8,4.2,94.9,3.6,94.9"/>
	<path id="Tracé_45491" class="st0" d="M15.1,66.3l-2.2,6.1L0.7,67.9l2.2-6.1c1.2-3.4,5-5.1,8.3-3.9S16.3,62.9,15.1,66.3
		 M11.3,68.8l1.3-3.5c0.7-2-0.4-4.2-2.3-4.9s-4.1,0.3-4.8,2.2l-1.3,3.5L11.3,68.8z"/>
	<path id="Tracé_45492" class="st0" d="M27.8,43.5l-6.9,10.1l-10.7-7.3l6.9-10.1l2.2,1.5L14,45.5l2.1,1.5l3.6-5.3l2.1,1.4l-3.6,5.3
		l2.2,1.5l5.3-7.8L27.8,43.5z"/>
	<path id="Tracé_45493" class="st0" d="M31,35.8l0.8-2.5c1.6,0.1,3.1-0.5,4.2-1.6c0.7-0.6,1.3-1.4,1.8-2.2c0.4-1-0.3-1.7-1.2-1.4
		c-0.9,0.4-1.7,0.9-2.4,1.4c-1,0.8-2.1,1.5-3.3,2c-1.3,0.6-2.8,0.3-3.7-0.9c-1-1.1-1.2-2.7-0.5-4c0.6-1.3,1.5-2.4,2.5-3.3
		c2.2-1.9,4.3-2.5,6.1-1.6l-1,2.6c-1.1-0.5-2.2-0.2-3.6,1c-1,0.9-2.2,2.5-1.5,3.3c0.6,0.7,1.4,0.4,2.5-0.4c0.3-0.2,0.6-0.4,1.1-0.7
		c0.3-0.2,0.6-0.4,0.9-0.6c0.8-0.6,1.6-1,2.5-1.4c1.3-0.6,2.8-0.2,3.7,0.9l0.1,0.1c1.8,2.1,0.3,5-2.1,7.1
		C35.8,35.5,32.7,36.7,31,35.8"/>
	<path id="Tracé_45494" class="st0" d="M55.9,6.8l8-2.7c2.1-0.7,4.3,0.4,5,2.4l0,0c0.3,0.8,0.2,1.7-0.2,2.4c1.1,0.3,2,1.2,2.4,2.3
		c0.7,2.1-0.5,4.3-2.5,5L60,19.1L55.9,6.8z M65.5,9.2c0.7-0.3,1.1-1.1,0.8-1.8c-0.3-0.7-1-1-1.6-0.8l-5.2,1.7l0.9,2.6L65.5,9.2z
		 M67.7,13.9c0.7-0.3,1.1-1,0.9-1.7s-1-1.1-1.7-0.9l0,0L61,13.2l0.9,2.6L67.7,13.9z"/>
	<path id="Tracé_45495" class="st0" d="M78.9,7.1c-0.2-3.7,2.8-6.7,6.7-7c3.9-0.3,7.3,2.4,7.6,6.1c0.2,3.7-2.8,6.7-6.7,7
		C82.6,13.4,79.2,10.7,78.9,7.1 M90.4,6.3c-0.5-2.4-2.8-3.9-5.2-3.5c-2,0.4-3.4,2.1-3.5,4.1c0.5,2.4,2.8,3.9,5.2,3.5
		C88.9,10,90.3,8.3,90.4,6.3"/>
	<path id="Tracé_45496" class="st0" d="M101.2,13.2L103.8,0l8.5,10.2l1.5-7.8l2.7,0.5L114,16.1L105.5,6l-1.5,7.7L101.2,13.2z"/>
	<path id="Tracé_45497" class="st0" d="M122.6,15.7l2.6-0.3c0.5,1.5,1.6,2.7,3.1,3.3c0.9,0.4,1.8,0.7,2.7,0.8c1.1,0,1.5-1,0.8-1.7
		c-0.7-0.6-1.4-1.2-2.3-1.6c-1.2-0.6-2.2-1.4-3.2-2.3c-1.1-0.9-1.3-2.5-0.7-3.7c0.6-1.3,2-2.1,3.5-2.1c1.4,0.1,2.8,0.4,4,1.1
		c2.6,1.3,4,3,3.8,5l-2.7,0.1c0-1.2-0.7-2.1-2.4-2.9c-1.2-0.6-3.2-1-3.7-0.1c-0.4,0.8,0.2,1.4,1.3,2.2c0.3,0.2,0.7,0.4,1.1,0.7
		c0.3,0.2,0.6,0.3,0.9,0.6c0.8,0.5,1.6,1.1,2.3,1.7c1.1,1,1.3,2.5,0.6,3.8l-0.1,0.1c-1.3,2.5-4.5,2.2-7.4,0.8
		C124.8,19.9,122.5,17.7,122.6,15.7"/>
	<path id="Tracé_45498" class="st0" d="M159.1,27.3l5.8,6.5c1.6,1.7,1.5,4.4-0.2,6s-4.4,1.5-6-0.2c-0.1-0.1-0.1-0.1-0.2-0.2
		l-3.9-4.4l-3.4,3l-1.9-2.1L159.1,27.3z M160.2,37.5c0.5,0.8,1.6,0.9,2.3,0.4c0.8-0.5,0.9-1.6,0.4-2.3c-0.1-0.1-0.1-0.2-0.2-0.3
		l-3.7-4.2l-2.5,2.2L160.2,37.5z"/>
	<path id="Tracé_45499" class="st0" d="M168.8,54.9l-1.4-2.6l-4,2.1l-1.3-2.5l11.5-6l3.9,7.5c1.1,2.1,0.3,4.7-1.8,5.8
		c-1.8,1-4.1,0.4-5.3-1.3l-2.2,5.8l-1.6-3.1L168.8,54.9z M172.2,55.8c0.4,0.8,1.4,1.2,2.2,0.8s1.2-1.4,0.8-2.2c0,0,0-0.1-0.1-0.1
		l-2.4-4.7l-3,1.5L172.2,55.8z"/>
	<path id="Tracé_45500" class="st0" d="M176.7,68c3.6-0.8,7.1,1.7,8,5.5s-1.2,7.6-4.8,8.5c-3.6,0.8-7.1-1.7-8-5.5
		C171.1,72.6,173.2,68.8,176.7,68 M179.3,79.2c2.4-0.3,4.2-2.4,3.9-4.8s-2.4-4.2-4.8-3.9c-2.4,0.3-4.2,2.4-3.9,4.8
		c0,0.2,0,0.4,0.1,0.5C175,78.1,177.1,79.6,179.3,79.2"/>
	<path id="Tracé_45501" class="st0" d="M174.1,97.5l0.2-6.5l13,0.3l-0.2,6.5c-0.1,3.6-3,6.4-6.6,6.4
		C176.9,104.1,174,101.2,174.1,97.5C174.1,97.6,174.1,97.5,174.1,97.5 M176.9,93.9l-0.1,3.7c0,2.1,1.7,3.8,3.8,3.8
		c2,0,3.7-1.6,3.8-3.6l0.1-3.7L176.9,93.9z"/>
	<path id="Tracé_45502" class="st0" d="M178.9,113.1l6.3,1.8l-0.8,2.7l-6.3-1.8c-2-0.6-4,0.5-4.7,2.4c-0.6,2,0.5,4,2.4,4.7
		c0.1,0,0.1,0,0.2,0.1l6.3,1.8l-0.8,2.7l-6.3-1.8c-3.5-1-5.4-4.7-4.4-8.1C171.9,114.2,175.5,112.2,178.9,113.1"/>
	
		<rect id="Rectangle_239" x="169.4" y="129.3" transform="matrix(0.46 -0.8879 0.8879 0.46 -28.3701 224.9655)" class="st0" width="2.8" height="13"/>
	<path id="Tracé_45503" class="st0" d="M165.5,151.2l3.2-4l2.1,1.7l-8.1,10.2l-2.1-1.7l3.2-4l-8.1-6.4l1.7-2.2L165.5,151.2z"/>
	<path id="Tracé_45504" class="st0" d="M149.6,157.6l-0.9,2.4c-1.6-0.2-3.1,0.3-4.3,1.3c-0.8,0.6-1.4,1.3-1.9,2.1
		c-0.5,1,0.2,1.8,1.1,1.5c0.9-0.3,1.7-0.8,2.5-1.3c1.1-0.8,2.2-1.4,3.5-1.8c1.3-0.5,2.8-0.1,3.6,1.1c0.9,1.1,1,2.7,0.3,4
		c-0.7,1.2-1.6,2.3-2.7,3.1c-2.3,1.8-4.4,2.3-6.1,1.2l1.1-2.5c1.1,0.6,2.2,0.4,3.7-0.8c1-0.8,2.3-2.4,1.7-3.2
		c-0.5-0.7-1.3-0.5-2.5,0.2c-0.3,0.2-0.7,0.4-1.1,0.7c-0.3,0.2-0.6,0.4-0.9,0.6c-0.8,0.5-1.6,0.9-2.5,1.3c-1.3,0.5-2.9,0.1-3.7-1.1
		l-0.1-0.1c-1.6-2.2,0-5,2.5-7C144.8,157.7,147.9,156.6,149.6,157.6"/>
	<path id="Tracé_45505" class="st0" d="M107.8,175.9l11.8-3.3l3.5,12.5l-11.8,3.3l-0.7-2.5l9.1-2.5l-0.7-2.5l-6.1,1.7l-0.7-2.4
		l6.1-1.7l-0.7-2.5l-9.1,2.5L107.8,175.9z"/>
	<path id="Tracé_45506" class="st0" d="M96.1,187.4l5.1-0.1l0.1,2.7l-13,0.4l-0.1-2.7l5.1-0.1L93,177.1l2.8-0.1L96.1,187.4z"/>
	<path id="Tracé_45507" class="st0" d="M63.5,185.9l-7.9-3.1c-2-0.8-3.1-3-2.3-5.1l0,0c0.3-0.8,0.9-1.4,1.7-1.8
		c-0.7-1-0.8-2.2-0.4-3.3c0.8-2,3.1-3,5.1-2.2l8.5,3.3L63.5,185.9z M57.6,178c-0.7-0.3-1.5,0.1-1.7,0.8s0.1,1.4,0.8,1.7l5.1,2l1-2.6
		L57.6,178z M58.9,173c-0.7-0.3-1.5,0.1-1.8,0.8s0.1,1.5,0.8,1.8l0,0l5.7,2.2l1-2.6L58.9,173z"/>
	<path id="Tracé_45508" class="st0" d="M48.2,164.6l2.5,1.8l-13.5,7.1l1.9-15.2l2.6,1.8l-0.3,2.5l4.5,3.1L48.2,164.6z M44,167
		l-3-2.1l-0.7,4.2L44,167z"/>
	<path id="Tracé_45509" class="st0" d="M33,156.2l-2.5-0.8c0.1-1.6-0.5-3.1-1.6-4.2c-0.6-0.7-1.4-1.3-2.2-1.8
		c-1-0.4-1.7,0.3-1.4,1.2c0.4,0.9,0.9,1.7,1.4,2.4c0.8,1,1.5,2.1,2,3.3c0.6,1.3,0.3,2.8-0.8,3.7c-1.1,1-2.7,1.2-4,0.5
		c-1.3-0.6-2.4-1.5-3.3-2.5c-1.9-2.2-2.5-4.3-1.6-6.1l2.6,1c-0.5,1.1-0.2,2.2,1,3.6c0.9,1,2.5,2.2,3.3,1.5c0.7-0.6,0.4-1.4-0.4-2.5
		c-0.2-0.3-0.4-0.6-0.7-1c-0.2-0.3-0.4-0.5-0.6-0.9c-0.6-0.8-1-1.6-1.4-2.5c-0.6-1.3-0.3-2.8,0.9-3.7l0.1-0.1c2.1-1.8,5-0.3,7.2,2.1
		C32.6,151.4,33.9,154.4,33,156.2"/>
	<path id="Tracé_45510" class="st0" d="M11.4,140.1l2.4,4.5l-2.3,1.3l-6.2-11.5l2.3-1.3l2.4,4.5l9.1-4.9l1.3,2.5L11.4,140.1z"/>
	<path id="Tracé_45511" class="st0" d="M14.1,121.2l0.8,3l-14.9-3l11.1-10.6l0.9,3l-1.8,1.8l1.5,5.3L14.1,121.2z M9.3,120.4l-1-3.5
		l-3.2,2.8L9.3,120.4z"/>
</g>
</svg>
