<svg id="Groupe_3974" data-name="Groupe 3974" xmlns="http://www.w3.org/2000/svg" xmlns:xlink="http://www.w3.org/1999/xlink" width="23.416" height="26.642" viewBox="0 0 23.416 26.642">
  <defs>
    <clipPath id="clip-path">
      <rect id="Rectangle_327" data-name="Rectangle 327" width="23.415" height="26.642" fill="#e39077"/>
    </clipPath>
  </defs>
  <g id="Groupe_3973" data-name="Groupe 3973" clip-path="url(#clip-path)">
    <path id="Tracé_55102" data-name="Tracé 55102" d="M111.326,38.5h4.683a.781.781,0,1,1,0,1.561h-4.683a.781.781,0,1,1,0-1.561m0,3.122h4.683a2.342,2.342,0,1,0,0-4.683h-4.683a2.342,2.342,0,1,0,0,4.683" transform="translate(-99.618 -33.76)" fill="#e39077"/>
    <path id="Tracé_55103" data-name="Tracé 55103" d="M21.854,25.081H7.805V8.638a.782.782,0,0,0-.055-.288l-2.7-6.788h13.93l2.871,7.226ZM3.122,4.858V20.942L1.561,23.283V8.787ZM5.566,25.081H2.239l1.664-2.5Zm.678-1.8L4.683,20.942V4.858L6.244,8.787ZM23.36,8.349,20.238.492A.78.78,0,0,0,19.513,0H3.9c-.024,0-.048,0-.071,0A.78.78,0,0,0,3.18.486l0,.006L.055,8.349A.777.777,0,0,0,0,8.638V25.861H0a.782.782,0,0,0,.78.779H22.635a.781.781,0,0,0,.781-.781V8.638a.78.78,0,0,0-.055-.288" fill="#e39077"/>
  </g>
</svg>
