<svg xmlns="http://www.w3.org/2000/svg" viewBox="0 0 34.089 33.256">
  <g id="Groupe_3877" data-name="Groupe 3877" transform="translate(727.349 -160.911) rotate(45)">
    <path id="Tracé_9393" data-name="Tracé 9393" d="M159.623,602.842a.94.94,0,0,1-.664-1.6l7.772-7.772a.939.939,0,0,1,1.328,1.328l-7.772,7.772A.933.933,0,0,1,159.623,602.842Z" transform="translate(-547.458 37.011)" fill="#455033"/>
    <path id="Tracé_9394" data-name="Tracé 9394" d="M168.231,594.838a.94.94,0,0,1-.664-1.6L177.8,583a.939.939,0,1,1,1.328,1.328l-10.229,10.23A.933.933,0,0,1,168.231,594.838Z" transform="translate(-544.658 33.607)" fill="#455033"/>
    <path id="Tracé_16139" data-name="Tracé 16139" d="M181.7,605.8a.933.933,0,0,1-.664-.276L159.4,583.889a.939.939,0,0,1,1.328-1.328L182.368,604.2a.94.94,0,0,1-.664,1.6Z" transform="translate(-547.313 33.463)" fill="#455033"/>
  </g>
</svg>
