<?xml version="1.0" encoding="utf-8"?>
<!-- Generator: Adobe Illustrator 26.0.3, SVG Export Plug-In . SVG Version: 6.00 Build 0)  -->
<svg version="1.1" id="Calque_1" xmlns="http://www.w3.org/2000/svg" xmlns:xlink="http://www.w3.org/1999/xlink" x="0px" y="0px"
	 viewBox="0 0 538.9 700" style="enable-background:new 0 0 538.9 700;" xml:space="preserve">
<style type="text/css">
	.st0{fill:#CBBCAD;}
</style>
<g id="Groupe_3959" transform="translate(872.893 412.449) rotate(124)">
	<g>
		<g id="Groupe_3922" transform="translate(0 0)">
			<path id="Tracé_45797" class="st0" d="M304.3,325.6c-0.1,0.7-0.7-0.1,0,0.2c0.2,0.1,0.2-0.2-0.1-0.1c0.5-0.8,1-1.6,1.5-2.4
				c3-5.9,6.1-11.7,9-17.6c5.3-10.7,9.7-21.7,11.6-33.6c0.4-2.3,0.7-4.6,0-6.9c-1.5-4.4-5.7-6.1-9.9-4c-2.2,1.2-4.1,3-5.3,5.2
				c-5.2,8.7-10.5,17.3-14.2,26.8c-1.5,3.7-2.8,7.6-6.1,11.8c0.4-2.4,0.5-3.5,0.7-4.7c2.3-11,3.8-22.1,4.3-33.3
				c0.6-10-0.3-19.9-4.9-29.1c-1-2.3-2.7-4.2-4.8-5.5c-2.4-1.4-3.4-1.2-4.7,1.3c-1.9,3.2-3.2,6.8-3.6,10.5
				c-0.9,10.8-0.6,21.6-0.5,32.5c0,3.8-0.2,7.5-0.3,11.5c-1.1-1.3-2.2-2.6-3.5-3.8c-2.8-2.5-4-2.2-6.5,0.8
				c-3.8,4.7-7.4,9.6-8.3,16.1c-1.4-1.5-1.2-3-1.5-4.3c-0.3-1.6-0.7-3.1-1.3-4.6c-1.8-3.9-3.9-4.1-6.7-0.9
				c-2.7,3.1-3.4,6.9-3.8,10.9c-1.4,13.8-2.1,27.7-3.6,41.5c-1.2,11-2.2,22-4.3,32.8c-1.6,8.2-3.1,16.5-5.7,24.4
				c-1.4,4.2-3.2,8.3-4.9,12.4c-0.2,0.4-0.7,1.1-1.1,1.1c-1.1-0.1-0.4-1-0.5-1.6c-0.4-1.4-0.6-2.8-1.1-4.1c-1.5-3.8-1.9-4-6.3-3.2
				c-0.3,0.1-0.8,0.3-1,0.2c-0.5-0.5-0.1-0.9,0.2-1.4c3-4.8,6.1-9.6,9.1-14.4c3.2-5,6.2-10,8.2-15.5c1.5-4.2,2.4-8.6,1.5-13.1
				c-0.7-3.5-3.2-5.1-6.7-4.1c-1.7,0.5-3.3,1.3-4.8,2.2c-3.7,2.2-6.5,5.5-9.5,8.5c-4.1,4.2-7.4,9.1-10.8,13.9
				c-0.5,0.7-1,1.9-1.9,1.3c-0.8-0.4-0.2-1.6,0-2.4c1.4-5.2,2.5-10.4,4.3-15.4c4.5-13.2,2.9-26.7,2.1-40.2c-0.2-3.3-2.5-4.5-5.7-3.7
				c-3.2,0.8-5.8,2.9-7.3,5.8c-3.6,6.3-7.3,12.6-9.3,19.7c-2.8,10.1-4.7,20.4-5.7,30.9c-0.1,0.7,0.4,2-0.9,2.1c-0.7,0-0.9-1-1.1-1.6
				c-2-4.8-4.3-9.4-7.1-13.7c-2.4-4.2-5.9-7.6-10.2-10c-4.4-2.4-9-0.6-10.9,4c-1.8,4.6-1.3,9.2,0,13.6c4.6,15.9,9.5,31.7,14.2,47.5
				c0.9,3,2.2,6,1.8,9.3l0.2-0.1c-0.1,0.1-0.1,0.1-0.1,0.2c-1.4-2.9-2.8-5.7-4.1-8.7c-1.6-3.2-4-6-7-7.9c-4-2.9-10.6-0.8-11.7,4
				c-0.8,3.6-1,7,0.3,10.4c3.3,8.3,6.2,16.7,10.2,24.6c5.4,10.5,8.3,21.5,10,33c0.3,1.8,0.6,3.7-0.2,5.2c-2.3,4-4.3,8.2-5.8,12.6
				c-1.2-6.4-2.1-12-3.2-17.5c-0.6-3.5-2.4-6.8-5.1-9.2c-3.8-3.3-8.3-2.4-10.8,1.8c-0.8,1.3-0.3,3.9-2.2,3.7
				c-1.5-0.1-1.5-2.5-2.3-3.9c-0.8-1.4-1.2-2.9-1.9-4.4c-4.9-11.2-11-21.5-19.7-30.2c-2.3-2.3-4.6-4.2-7.9-3.3
				c-3.6,1-3.9,4.2-4.3,7.3c-0.9,5.9-0.4,11.7,0.2,17.5c1.5,14.8,4.8,29,11.6,42.4c0.7,1,1,2.3,0.8,3.5l0.1-0.1
				c-0.9-0.6-1.7-1.2-2.5-1.9c-3.4-3.4-7.7-5.8-12.5-6.8c-5.2-1.3-8.8,1.5-9,6.7c-0.1,2.5,0.3,4.9,1.2,7.2c3,7.7,7.4,14.6,12,21.4
				c7.9,11.9,15.1,24.1,19.7,37.7c1.2,3.9,2.2,7.8,2.8,11.8c-1.4-1.3-2.6-2.8-3.6-4.4c-7.1-11.8-16.3-22.1-27.2-30.5
				c-4.2-3.2-8.5-6.5-14.1-7c-3.2-0.4-6.5,0.6-8.9,2.8c-1.7,1.4-2.3,3.7-1.5,5.7c1.7,5.3,4.5,10.1,8.4,14c6.5,7.1,13.8,13.4,19.8,21
				c1.3,1.7,1.7,2.7-0.8,3.3c-3.5,0.7-5.3,3.3-6.9,6.1c-3.3,5.8-3.4,11.9-1.4,18.1c3.5,10.8,6,22,10.8,32.4c0.3,0.6,0.7,1.3,0.1,1.9
				c-0.7,0.6-1.3-0.1-1.9-0.4c-1.8-0.8-3.7-1.6-5.7-0.9c-2,0.6-3.4-0.2-4.9-1.3c-5.7-4-11.7-7.4-18-10.4c-9.9-4.5-19.4-1.8-28.9,1.4
				c-0.6,0.3-1.2,0.7-1.8,1.1c-4.4,2.2-2.9,6.1,0.6,7.5c1.1,0.5,2.3,0.8,3.6,0.9c7.3,0,13.8,3.2,20.5,5.5c3.7,1.3,7.1,3.5,9.7,6.4
				c2.5,2.6,2.4,2.8-0.8,4.1c-5.4,2.1-7.4,5.5-5.6,10.9c1.1,3.1,2.5,5.7-1.3,8.1c-0.9,0.6-1.1,2.6-1.3,3.9c-0.5,3.2-0.5,6.4,0,9.6
				c1.2,7.4,3.6,14.5,6.9,21.2c2.8,5.6,5.8,11,8.6,16.6c2.1,4.1,2.1,4.2-2.2,5c-9.2,1.7-11.8,7.4-7,15.5c1,1.7,2.1,3.3,3.3,4.9
				c4.3,5.2,8.4,10.6,13.2,15.4c11.5,11.6,20.9,24.7,29.2,38.7c4,6.6,6.8,13.8,8.3,21.3c2.6,13.4,4.5,27,7.1,40.4
				c3,15,6.3,29.9,11.5,44.4c3.2,8.8,11.7,11.9,18.8,12.5c1.7,0.2,2.6-0.8,2.7-2.5c0.1-1.5,0-3.1-1.1-4c-2.8-2.7-3.8-6.4-5.4-9.7
				c-9.8-20.7-17.3-42-20.7-64.8c-1.5-9.8-0.4-19,1.9-28.4c2-8.2,5.8-15.6,9.1-23.3c6.4-15,16.7-27.3,28-38.6
				c11.9-11.8,25.5-21.8,40.3-29.6c6.7-3.6,11.2-9.2,14.7-15.8c2.1-3.9,0.4-6.7-4.1-6.8c-1.2,0-2.5,0.2-3.7,0.5
				c-3.1,0.9-6,2.1-8.8,3.7c-4.7,2.5-8.7,6.1-13.6,8.2c0,0.5-0.5,0.9-1,0.9c-0.1,0-0.1,0-0.2,0l-0.2,0.2l0.3-0.1
				c0.1-0.7,0.4-1,1.1-0.9c2.5-4.3,6.1-7.7,9.5-11.3c7.2-7.4,13.5-15.5,19-24.3c1.4-2.1,1.5-4.8,0.2-6.9c-1.4-2.5-3.9-2.9-6.5-2.2
				c-0.8,0.2-1.6,0.9-2.8,0.3c1-1.2,2.1-2.3,3.3-3.4c6.8-5.7,12.3-12.8,18.2-19.3c2.9-3.1,4.8-7.1,5.3-11.4c0.8-6.1-3.5-9.5-9-7.3
				c-1.8,0.7-3.6,1.6-5.3,2.5c-9.9,5.1-18.3,12.1-26.1,19.9c-1.8,1.8-3.3,4.2-5.9,5.2l-0.1,0.2l0.2-0.1c0.3-2.1,2-3.3,3.1-4.9
				c1.8-2.6,3.7-5.2,5.7-7.7c1.6-2.1,2.5-4.5,1.7-7c-0.8-2.5,0.4-3.2,2.3-3.8c7.8-2.5,14.4-7,20.5-12.2c6.5-5.5,11.5-12.2,13.6-20.6
				c1.3-5.2-0.1-7.2-5.2-8.6c-1.6-0.4-3.2-0.5-4.8-0.4c-3.2,0.3-6.3,1-9.3,2.2c-2.3,0.9-4.6,1.8-7,2.6c-1.3,0.4-2.2,0.2-1.4-1.5
				c0.3-0.7,0.5-1.3,0.8-2c1.9-4.9,2.1-9.4-3.3-12.4c-1-0.6-1.1-1.3-0.3-2.1c0.6-0.6,1.3-1.2,2-1.8c9.4-6.8,16-16.1,22.6-25.3
				c3.4-4.8,7.1-9.5,7.6-15.6c0.1-1.5,1.3-2,2.4-2.5c3.5-1.7,7.1-3.3,10.6-5.1c5-2.6,10-5.3,14.3-9.2c5-4.5,5-11-3.3-13.7
				c-1-0.4-2-0.6-3.1-0.7c-7.8-0.5-15.3,0-22,4.7c-0.9,0.6-1.8,1.1-2.8,1.5c-0.9,0.4-2.1,1-2.9-0.2c-0.7-1.1-0.4-2.5,0.7-3.3
				c0,0,0,0,0.1,0c1.6-1.4,3.5-2.5,5.5-3.3c8.1-3.2,15.7-7.6,22.5-13.2c3.9-3.3,8.3-6.1,11.3-10.5c3.5-5.2,2.6-7.1-3.4-8.3
				c-7.1-1.4-13.8,0.2-20.4,2.4c-11.2,3.7-21.4,9.7-31.6,15.4c-2.5,1.4-2.6,1.3-2.5-1.5c0.1-2.3,0.7-5-2.6-5.4
				c-3.2-0.4-2.5-1.6-1.1-3.3c6.3-7.1,14.3-11.9,23-15.1c13.4-5,27.6-7,41.8-7.8c10.3-0.6,20.5-1.1,30.6-3.5
				c6.9-1.7,12.3-5.4,17-10.5c2.9-3.1,2.3-7.9-1.7-9.2c-6.1-1.9-11.9-4.9-18.5-4.7c-5.9,0.1-11.7,0.1-17.6,0.2
				c-0.7,0-1.6,0.2-1.7-0.6c-0.2-0.8,0.8-1.1,1.3-1.4c1.3-0.6,2.6-1.2,3.9-1.8c2.5-1.1,4.7-2.7,6.4-4.7c2.4-2.3,3.1-5.9,1.7-8.9
				c-1.3-3.1-3.6-4.8-7.1-4.5c-1,0.1-2.1-0.3-3.2-0.2c-5.1,0.1-10.4-1-15.4,0.4c-10.5,2.9-20.5,7.3-29.8,12.9
				c-3.2,2-6.2,3.9-10.1,4.6c-2.8,0.5-5.2,2.1-7.6,3.8c-4.6,3.4-8.9,7.2-12.8,11.3c-1.2,1.2-2.2,2.6-4,3.2c-0.4-1.6,0.6-2.3,1.2-3.1
				c3.8-5.4,7.7-10.6,11.5-16c3.3-4.6,7.3-8.7,11.9-12.2c2.4-1.9,4.8-3.7,7-5.8c1.7-1.6,3.7-2.8,5.9-3.5c23-8.7,46.6-11.2,70.8-5.9
				c4.5,0.9,9,2.3,13.3,4c13.3,5.5,25.6,13,37.9,20.6c4.3,2.5,8.8,4.7,13.4,6.6c4.7,2,10.8,1,13.4-2.4c3-3.9,1.9-8.1-0.3-12
				c-2.1-4.1-5.1-7.7-8.8-10.6c-3.4-2.6-6.5-5.5-9.8-8.2c-1.7-1.3-2.5-2.4-1.3-4.8c1.8-3.5,0.6-7.3-2.7-9.9c-2.3-2-5-3.5-7.9-4.4
				c-4.3-1.3-8.4-3-12.8-3.8c-7.3-1.5-14.5-3.7-22.1-3.6c-3.6,0.1-7.1-0.1-10.7-0.1c0,0,0.1,0,0.1,0c3.3-1.8,7-2.4,10.5-3.1
				c13.2-2.5,24.6-8.8,35.3-16.6c3-2.2,5.5-5.1,7.2-8.4c1.9-3.8,0.6-6.5-3.6-7.6c-2.9-0.7-6-0.9-9-0.5c-4.1,0.4-8.1,0.6-12.2,0.4
				c-0.1,0.1-0.2,0.3-0.4,0.4c-16.3,3.2-30.9,10.9-46,17.2c-0.9,0.5-2,0.7-3.1,0.4c-0.2,0.5-0.7,0.8-1.2,0.8l-0.1,0.3
				c0,0,0-0.2,0-0.2c0.5-0.3,0.9-0.5,1.4-0.8c7.7-6.2,16.6-9.8,25.9-12.8c6.2-2.1,12.5-3.8,18.9-5c1.5-0.3,3.1-1,4.6-0.1
				c3.9-2.7,8.4-2.6,12.8-2.9c11.7-0.6,23.4-0.5,35.1,0.5c6.2,0.4,12.2-0.4,16.5-5.6c1.4-1.7,2.6-1.3,4.2-0.7
				c4.8,1.8,9.3,4.4,13.3,7.7c2.1,1.9,4.6,3.4,7.3,4.3c5.8,1.8,9.9-1.4,9.5-7.5c-0.2-3.4-1.4-6.7-3.4-9.4c-2.5-3.5-2.5-3.5,1.5-4.1
				c4.4-0.5,7.9-4.1,8.2-8.5c0.1-1.1,0.1-2.1-0.1-3.2c-0.4-2.1,0.4-2.5,2.3-2.1c1.9,0.4,3.9,0.7,5.8,0.9c3.2,0.4,6.5-0.3,9.2-1.9
				c4.2-2.6,4.9-5.1,2.2-9.3c-2.9-4.5-6.9-8.2-11.7-10.6c-4.3-2.3-8.7-4.3-13.2-6c2-1.8,4.1-1.8,5.9-2.2
				c10.4-2.3,20.5-6.1,29.8-11.3c4.9-2.7,9.1-6.3,11.4-11.5c1.9-4.2,0.6-7.1-3.9-7.9c-4.3-0.8-8.7-1.4-13,0.1
				c-8.4,2.9-16.2,7.4-24.9,9.2c-0.8,0.2-1.7,1.2-2.4,0.5c-0.8-0.8,0.3-1.5,0.7-2.3c2.3-5.2,1-7.3-4.5-7.7c-2-0.2-3.9-0.1-5.8,0.5
				c-4.6,1.5-9.1,3-13.1,5.8c-1.8,1.3-3.6,3-6.1,2.9c0.1,0.4-0.1,0.6-0.4,0.5c0-0.1,0-0.2,0.1-0.3c0.3-0.6-0.2,0.3,0.5,0
				c0.1-1.7,1.2-2.9,2-4.3c3.6-6,7-12,8.7-18.8c1.7-6.5,3.2-13.1,4.6-19.7c1.1-4.9,0.7-10-1.1-14.7c-1.5-4.1-4.5-4.9-7.8-2.1
				c-1.3,1.2-2.3,2.7-2.9,4.4c-1.4,4.2-2.5,8.5-3.2,12.9c-3.4,19.7-13.4,37.6-28.5,50.7c-11.6,10.3-24.6,18.8-37.7,27
				c-3.5,2.2-7.1,4.5-11.1,5.9c-0.3-0.5-0.2-1.3,0.3-1.6c7.2-7.4,13-16,19.6-23.9c9.2-11.3,17.2-23.6,23.6-36.7
				c1.3-2.5,2.2-5.3,2.7-8.1c0.7-4.2-0.9-5.7-5-4.8c-1.9,0.4-3.7,1.2-5.3,2.5c-8.7,6.9-16.6,14.5-22.2,24.3
				c-0.6,1.1-1.1,2.5-2.8,2.8c0.2-0.8,0.2-1.3,0.4-1.8c2.9-10.1,5.2-20.3,7-30.7c0.8-3.7,0.4-7.5-1.1-11c-1.7-3.8-3.9-4.5-7.7-2.5
				c-6.3,3.2-9.9,8.8-12,15.1c-3.9,11.6-7.9,23.2-10.8,35.2c-1.6,6.6-3.1,13.2-5.3,19.6c-4.9,14.4-12.7,27.4-21.3,39.9
				c-2,3-3.5,6.6-7,8.4C305.6,324.2,304.6,324.7,304.3,325.6 M253.2,452.7c-1.8,0.3-2.9,2.5-5.1,2.1l0.1,0.2l-0.2-0.1
				c1.8-0.6,2.8-3,5.1-2.1l1.5-1.2c-0.2-0.7-0.1-1.2,0.8-1.2c0-0.5,0.4-0.9,0.9-1c0.1,0,0.2,0,0.3,0c0-0.8,0.5-1,1.2-1
				c0.2-0.3,0.2-0.7,0.5-0.8c0.5-0.3,1.1-1.1,1.6-0.4c0.4,0.6-0.6,1-1.2,1.2c-0.3,0-0.6,0-0.9-0.1c0,0.8-0.5,1-1.2,1
				c-0.1,0.6-0.6,1-1.1,0.9c0,0,0,0-0.1,0l-0.8,1.3C254,451.6,253.5,452.1,253.2,452.7 M248.8,391.7l-0.1-0.2
				c0.5-0.3,1.1-0.6,1.6-0.9c0.4-0.3,0.9-0.5,1.3-0.8c0-0.9-0.3-1.9,1-2.1c2.6-6.1,7-11.1,10.6-16.5c9.7-14.3,17.8-29.5,25.3-45
				c4.7-9.7,9.9-19.2,15.1-28.7c3.5-6.4,6.3-13.1,9.2-19.8c0.8-2,1.9-3.9,3.3-5.5c1,1.7,0.1,2.9-0.4,4.1c-0.3,0.8-1.1,2-0.1,2.3
				c1.4,0.5,1.5-1,1.8-1.9c0.6-1.7,1.2-3.3,1.8-5c0.7-2.1,0.9-6,3-5.5c2.6,0.7,1.9,4.3,1.6,7c-1.1,8.2-4.3,15.8-7.5,23.3
				c-5.3,12.2-11.6,24-18.8,35.2c-5.8,9.2-12,18-18.7,26.5c-1.2,1.5-2.1,3.3-4.1,3.9c0.1,0.9-0.4,1.8-1.3,2.2
				c-0.3,0.8-0.6,1.5-1,2.2l-0.2-0.2l0.3,0.1c-0.2-0.8,0.2-1.7,1-2.1c0.3-0.8,0.2-1.9,1.2-2.3c3.3-6.9,7.9-13,11.9-19.5
				c6.4-10.6,11.9-21.8,17.4-32.9c1.3-2.7,2.6-5.4,3.9-8.2c0.8-1.4,1-3,0.6-4.5c-3.4,3.5-4.5,7.9-6.4,11.8
				c-8.6,17.5-18,34.6-28.4,51.1c-5.5,8.7-11.9,16.8-17.9,25.1c-0.8,1.1-1.6,2.4-3.2,2.6l-1,2.2l-1.3,0.8l-1.4,0.9L248.8,391.7z
				 M100.9,517.3c-0.2-0.1-0.3-0.1-0.5-0.2c0.1-0.4,0.3-0.3,0.4,0.2c0.6,0,1,0.5,1,1c0,0,0,0.1,0,0.1c0.5,0,1,0.5,1,1
				c0,0.1,0,0.1,0,0.2c5,4.4,8.8,10,11.2,16.2c1.6,1.3,3.5,2.3,2.4,4.9l0.3-0.3l-0.2,0.2c-1.2-1.4-3-2.5-2.5-4.8
				c-5.1-4.3-8.9-10-11.1-16.3c-0.8,0-1.1-0.4-1-1.2C101,518.4,100.8,518,100.9,517.3 M128.7,533.6c-0.4-2.1-2.6-3.5-2.2-5.8
				c-3.7-3.4-4.7-8.3-6.6-12.5c-4.3-9.1-8.6-18.2-11.4-27.9c-0.4-1.5-1.1-3-0.6-4.6c-1-0.5-0.8-1.4-0.8-2.3
				c-0.6-1.1-0.8-2.5-0.3-3.7c-1.2-0.5-1.1-1.6-1.3-2.6l-0.1-0.4c0,0.2,0,0.3,0,0.5c1,0.6,0.9,1.7,1.3,2.5c0.1,1.3,0.2,2.5,0.2,3.8
				c1.2,0.4,0.9,1.4,0.9,2.3c1.3,1.9,2.3,4,2.9,6.2c3.5,10.8,8.3,21.1,13.4,31.3c1.2,2.4,2.6,4.7,2.6,7.5c2,1.5,3.1,3.4,2,5.9l1.8,1
				l-0.1,0.1l0-0.2C129.8,534.2,129.2,533.9,128.7,533.6 M225.9,543l0.3,0c0.1-0.6,0.6-1,1.1-1.1c0.8-1.7,2.5-2.4,3.9-3.4
				c11.5-8.1,23.4-15.3,37.3-18.5c0.5-0.1,1-0.3,1.5-0.4c1.9-0.5,4.2-1.2,5.3,0.9c1,2-1.4,3-2.6,4c-2.4,2.1-5.2,3.7-8.2,4.8
				c-4.9,1.7-9.5,3.8-14,6.4c-2.7,1.7-5.7,2.8-8.9,3.3c-4.7,0.6-8.2,3.9-12.6,5.2c-1.4,2-2.9,3.9-5.8,3.7c-1.2,1.6-2.6,2.7-4.7,2.4
				c-0.2,0.8-0.8,1-1.4,1c-0.3,0.6-0.3,0.7,0.1,0l1.4-0.9c1.5-0.9,2.7-2.4,4.7-2.5c1.2-2.4,3.5-3.1,5.8-3.7c0.2-0.4,0.5-0.8,0.7-1.2
				s0.7-1,0.6-1.2c-0.4-0.8-1.1-0.4-1.7-0.3c-0.5,0.1-1,0.2-1.5,0.3l-1.2,1.3L225.9,543z M121.9,529.3c-0.3-0.5-0.5-0.9-0.8-1.4
				c-0.3-0.7,0.6-0.2-0.1-0.3l0.1,0.4c-0.9,0.9-0.4,1.3,0.6,1.3l1.6,1.3l-0.2,0l0.1-0.2C122.8,530.2,122.3,529.7,121.9,529.3
				 M227.7,537.7c0.2-1.8,1.5-2.7,2.6-3.9c3-3.3,6.4-6.1,9.3-9.5c2.7-3.2,7.3-4.3,11-6.3c5.5-2.9,11.5-3.5,17.5-4.4
				c2.9-0.6,6,0.6,7.6,3.1c-16.6,1.7-30.3,9.6-43.6,18.4C230.7,536,229.5,537.5,227.7,537.7l-1.2,1.1c0,0.1-0.1,0.1-0.1,0.2l0.2,0
				C226.6,538.2,226.8,537.6,227.7,537.7 M117.1,526.7c-0.6-0.2-1-0.7-1-1.3c-1.3-0.9-2.3-2.1-3.1-3.5c-3.1-4.9-5.4-10.4-9.8-14.4
				c-0.3-0.3-0.8-0.8-0.2-1.2c0.3-0.1,0.7-0.1,1,0c3.3,1.5,5.6,4.3,8,6.8c-1,4.9,3.8,7.9,4,12.3l1,1.3L117.1,526.7 M341.8,307.5
				c-0.1,0-0.1-0.1-0.2-0.1l0.7,0c0,0,0.2-0.2,0.2-0.2l-0.3,0.1C342.1,307.4,341.9,307.4,341.8,307.5 M348.6,304.7l-0.1-0.2
				c0.6-0.2,1.3-0.4,1.9-0.6c0.1-0.5,0-0.4-0.1,0l-1.8,0.5L348.6,304.7z M317.6,319.3c0,0.3,0,0.7,0,1c-0.1,0.5-0.6,1.1-1,0.8
				c-0.5-0.4,0.3-0.6,0.5-1C317.3,319.9,317.5,319.6,317.6,319.3l1.6-0.8c0.5-0.2,1-0.4,1.6-0.6c0-0.5,0.1-0.9,0.3-1.3
				c0.2-0.4,0.6-0.3,0.4,0.1c-0.2,0.4-0.5,0.8-0.8,1.2l-1.5,0.5C318.8,318.9,318.3,319.2,317.6,319.3 M442.7,268.8
				c0,0,0.1,0.2,0.1,0.3l0.1-0.3c0.4-0.4,0.9-0.8,1.3-1.3c0.4,0.6-0.5,0.5,0.1,0.2c0,0,0-0.1-0.1-0.2l-0.1,0.2
				c-0.4,0.4-0.8,0.8-1.2,1.2C442.3,268.6,443.1,268.2,442.7,268.8 M277.5,382.8c-1.2,2-3.3,3.4-5.6,3.8c-1.7,3.5-4.9,4.6-8.3,5.5
				l0.1,0.2l-0.2-0.1c3.1-1.3,4.7-5.2,8.5-5.5C273.5,384.9,275.5,383.6,277.5,382.8l1.5-0.9c0,0,0.2-0.2,0.2-0.2l-0.2,0.1
				C278.7,382.3,278.2,382.7,277.5,382.8 M308.4,347.7l0.2,0.1c0.4-0.4,0.9-0.8,1.3-1.2c0-0.7,0.5-0.9,1-1.1c0.4-0.3,0.8-0.6,1.2-1
				c15.7-11.1,32.6-19.3,51.8-22.1c3-0.4,5.9-1.4,8.8-1.8c5.2-0.9,10.6-1.3,15.9-1.2l0.4,0.3c0.2-0.3,0-0.4-0.5-0.2
				c-7.1,2.2-14.6,2.8-21.8,4.8c-4.3,1.2-8.5,2.5-12.7,4c-13.9,4.9-27.8,9.5-41,16.1c-0.3,0.1-0.7,0-1,0c-0.2,0.6-0.5,1-1.2,1
				c-0.1,0.5-0.5,1-1,1.1l-1.4,1.4L308.4,347.7z M317.1,345.4c0.1,0.4,0.2,0.4,0.3,0c0.6-0.1,1.1-0.5,1.3-1.1c0.1,0,0.2,0,0.3,0
				c0-0.4-0.2-0.4-0.3-0.1c-0.9,0-1,0.7-1.2,1.3L317.1,345.4 M167.4,654.9l-0.2-0.1c0.6-0.3,1.2-0.6,1.8-0.9
				c0.3-1.3,1.1-2.4,2.1-3.2c4.4-5.9,9.6-10.9,14.9-15.9c9.2-8.9,19.3-16.7,30.2-23.4c5.9-3.6,12.8-5.4,19-8.3c1.5-0.6,3-1,4.6-1.1
				c1.5-0.1,3.7-0.7,4.2,1.2c0.6,2.4-2,2-3.2,2.4c-4.9,1.8-9.3,4.4-13.9,6.7c-13.5,6.9-25.9,15.4-38,24.5
				c-4.5,3.4-8.8,7.1-13.2,10.8c-1.4,1.2-2.4,3.2-4.8,2.9c0.3,1.7-1.2,2.3-2.1,3.2l-1.6,0.9L167.4,654.9z M197.7,644.1
				c-1.3,1.1-2.6,2.4-4.5,2.6l-1.1,1.3c-0.8,0.1-1.6,0.1-2.4,0.2l-1.2,1.4l-0.1,0l0.2-0.1c0.4-0.4,0.8-0.8,1.3-1.2
				c0.7-0.7,1.6-0.2,2.4-0.2c0.1-0.6,0.3-1.2,1.1-1.4c0.8-2.1,2.4-2.7,4.5-2.6l1.1-1.4c0.1-0.1,0.1-0.2,0.2-0.3l-0.3,0.1
				C198.7,643.4,198.3,643.9,197.7,644.1 M202.1,641.4l0.1-0.1c0,0,0.3,0,0.3,0l-0.2,0L202.1,641.4z M202.8,724.2
				C202.8,724.2,202.8,724.3,202.8,724.2l1.4-1.1c0.4-0.3,0.7-0.7,1.1-1c4.9-3.1,9.7-6.5,15-9c1.1-0.5,2.3-0.9,3.5-1.2
				c0.4-0.2,0.9,0,1.1,0.4c0,0.1,0,0.1,0.1,0.2c0,0.3-0.3,0.6-0.5,0.9c-0.1,0.1-0.3,0.2-0.4,0.3c-6.2,2.8-11.9,6.8-18.7,8.3
				c-0.7,0-0.9,0.5-1.1,1C203.4,723,203,723.6,202.8,724.2 M202.6,686.8c-0.3-0.1-0.2-0.2,0.3-0.3c0.1-0.6,0.4-1,1.1-1
				c0.6-2.6,3-3.9,4.7-5.6c7.3-7.2,14.7-14.3,22.2-21.3c0.9-0.9,1.8-2.4,3.5-1.6c-0.4-1.2,0.4-2,1-2.8l0.1,0.2l-0.2-0.1
				c0,0.9-0.3,1.8-0.9,2.6c-8.2,10.5-18.6,19-28.4,27.9c-0.5,0.5-1.2,0.8-1.9,0.7c-0.1,0.5-0.5,0.9-1,0.8c-0.1,0-0.1,0-0.2,0
				C202.7,686.5,202.6,686.7,202.6,686.8 M105.1,565.1c-0.1-0.1-0.1-0.1-0.2-0.2l0.1,0.3l1.2,1l1,1.4c0.5,0.1,0.8,0.5,0.8,1l1,1.3
				c0.6,0.1,1,0.6,1,1.2c6.8,7.7,12.5,16.3,16.9,25.6c2,4.4,2.1,9.3,2,14.1c-2.3-6.9-5-13.7-8-20.4c-2.7-5.8-6.8-10.8-9.7-16.5
				c-0.5-0.9-1.3-1.7-1.1-2.9c-0.7-0.1-1-0.5-1-1.2l-1-1.3c-0.5,0-0.8-0.4-0.8-0.8c0-0.1,0-0.1,0-0.2l-1.1-1.5
				C105.9,565.7,105.5,565.4,105.1,565.1 M198.1,569c0,0,0.2,0,0.3-0.1l-0.2-0.1c0.6,0.3-0.3,0.5,0.3,0.2c0.3-0.2,0.1-0.4-0.2-0.2
				C197.8,569.5,197.6,568.5,198.1,569 M197.3,565.7c0.3,0.2,0.4,0.2,0.2-0.2c0.6,0.4-0.4,0.5,0.3,0.2c0.3-0.2,0.2-0.4-0.2-0.2
				L197.3,565.7 M183,580.3l0.2-0.1c0,0.1,0,0.1,0,0.1L183,580.3z M187.1,576.2l0.1,0.2c-0.6,0.1-1.1,0.2-1.7,0.3l0.1,0.4l-0.1-0.2
				c0.5-0.1,1.1-0.2,1.6-0.4L187.1,576.2z M108.4,535.3c-0.4-0.8-0.5-1.7-0.2-2.5l-0.3,0.1l0.2-0.2
				C108.2,533.6,108.2,534.5,108.4,535.3c-0.3,0.8-0.1,1.3,0.7,1.4c0.5,0.3,1.1,0.5,1.3,1.2c3.1,1.4,4.1,4.7,6,7.1
				c4.2,5.3,7.2,11.4,8.7,17.9c-3.8-6.2-7.7-12.4-11.3-18.7c-1.2-2.1-3.5-3.7-3.3-6.5l-1.2-1.2C108.9,536.2,108.7,535.7,108.4,535.3
				 M203.4,559.9c0.3-0.2,0.2-0.2-0.1-0.1c0.6-0.3,1.2-0.6,1.8-1c0.4-0.3,0.8-0.7,1.1-1c0,0,0.2-0.2,0.2-0.2l-0.2,0.1l-1.1,1
				c-0.6,0.1-1.2,0.4-1.6,0.9C203.4,559.7,203.4,559.8,203.4,559.9 M151.6,919c0.1-0.4,0-0.5-0.4-0.3c0.7,0,0,0.6,0.3,0
				c0.1-0.2-0.2-0.2-0.2,0.1C151.4,918.9,151.5,918.9,151.6,919 M155.7,922.3c2.1,0.3,3.5,1.2,3.6,3.5l1.3,1.3c0,0,0.2,0.2,0.2,0.2
				l-0.1-0.3l-1.3-1.3c-1.8-0.6-3.3-1.4-3.6-3.5l-1-1.5c-0.7,0-0.1-0.6-0.3,0c-0.1,0.2,0.2,0.2,0.1-0.1
				C155,921.2,155.3,921.7,155.7,922.3 M210.1,557.4c0.2,0.1,0.2-0.2-0.1-0.1c0.5-0.3,1.1-0.7,1.6-1.1c0.3-0.4,0.6-0.7,1-1.1
				c0,0,0.3-0.2,0.3-0.2l-0.3,0c-0.2,0.5-0.2,1.1-1,1.2c-0.7-0.1-1.3,0.4-1.5,1C210.1,557.8,209.5,557.1,210.1,557.4 M228.7,627.1
				c-1.1,0.7-2,1.9-3.6,1.3l-1,1.4c-1,0.8-2.2,1.3-3.4,1.5l-1.1,1.4c-0.8,0.1-1.7,0.1-2.5,0.2c0,0.6-0.4,1.2-1,1.4
				c-0.7,0.7-1.5,0.4-2.3,0.3l-1.2,1.5c-0.7,0.4-1.6,0.5-2.4,0.4l0,0.3l-0.1-0.2c0.8-0.1,1.7-0.2,2.5-0.4l1.2-1.5
				c0.8-0.1,1.6-0.2,2.4-0.3c0.1-0.6,0.5-1.1,1-1.4c0.8-0.4,1.7-0.5,2.5-0.2c0-0.7,0.5-1.2,1.1-1.4c1-0.9,1.9-1.8,3.4-1.4
				c0.1-0.6,0.5-1.2,1-1.5c1-0.9,2.1-1.8,3.6-1.3c-0.1-0.6,0.3-1.1,0.9-1.2c0.1,0,0.1,0,0.2,0c0.2-0.5,0.7-0.9,1.2-0.9
				c0.3-0.4,0.6-0.9,0.9-1.3c0.5-0.2,1-0.4,1.5-0.6c0.3-0.4,0.6-0.8,0.9-1.2c0.5-0.2,1-0.4,1.4-0.6c0,0,0.1-0.3,0.1-0.3l-0.2,0.2
				l-1.4,0.6l-1,1.3c-0.6-0.3-1.2-0.4-1.5,0.5c-0.2,0.5-0.2,1.2-0.9,1.4c-0.2,0.5-0.7,0.9-1.2,0.9
				C229.7,626.5,229.2,627,228.7,627.1 M171,594.7l-0.1,0.2c0,0-0.3,0-0.3,0l0.2,0L171,594.7z M179.6,583.9l-0.3,0
				c-0.3,0.8-0.5,1.5-0.8,2.3L177,587c-0.3,1.3-1.3,2.1-2.2,3.1l-0.2,0l0.3,0c0-1.3,0.9-2.5,2.2-3c0.3-0.5,0.9-0.9,1.5-0.9
				c0.2-0.8,0-1.7,0.8-2.3L179.6,583.9z M162.9,597.4c0,0.1,0,0.2,0,0.2l0.1-0.2c0.4-0.7,0.5-1.8,1.4-2.2c0.2-0.8,0.3-1.7,1.2-2.1
				c0.4-0.6,0.9-1.2,1.3-1.7l0.1-0.2l-0.1,0.2c-0.5,0.5-1,1.1-1.5,1.7c0,0.9-0.5,1.6-1.2,2.1l-1.4,2.5L162.9,597.4 M201.2,526.2
				c0.1-1.4,1.1-2.4,1.9-3.4l0.2,0.1l-0.3-0.1C203.7,524.7,202,525.2,201.2,526.2l-1.8,0.7c0,0.9,0.1,1.8-0.9,2.3
				c-1.9,3.8-4.3,7.3-7.1,10.5c-6.4,7.4-11.5,15.7-17.7,23.2c-0.9,1.1-1.3,2.5-3,2.8c0.1,0.9-0.4,1.8-1.2,2.1
				c-0.2,1.6-1.2,3.1-2.6,3.9c-1,4.4-4.1,7.6-6.5,11.3c-1.3,4.2-3.5,8.2-6.3,11.6c1.2-4.3,2.8-8.4,6.4-11.5c0.8-4.4,3-8.4,6.4-11.3
				c0.1-1.8,0.5-3.4,2.6-3.9c0-1-0.1-1.9,1.2-2.1c0-1.4,0.5-2.8,1.5-3.8c7.7-9.8,14.3-20.5,22.7-29.8c1-1.1,1.9-2.6,3.5-2.9
				c0-0.9,0.3-1.7,0.9-2.4L201.2,526.2 M171.3,716.6c0.1-0.1,0.1-0.2,0.2-0.3c0.3-0.7-0.1,0.3-0.2-0.4c0.5-0.5,1.1-1,1.6-1.5
				c0.7-3.2,3.2-5.4,4.4-8.3c0.4-1,1.2-1.7,1.1-2.9l0.1,0.1c-0.8,0.2-1.6,0.4-2.4,0.6l-0.5,0.7c0-0.1,0-0.3,0.1-0.4
				c0.1-0.1,0.3-0.2,0.5-0.2c-0.1-1.5,0.8-2.7,1.4-3.9c10.3-18.4,23.8-34.8,39.8-48.5c4.9-4.2,10.9-6.9,17.1-8.8l-0.1-0.3l0,0.2
				c-0.2,1.2-1.6,1.7-1.4,3l0,0c2.8,0.5,4.4-2.2,7.4-2.6c-1,2.2-2.5,4.2-4.3,5.9c-10.3,10.1-20.5,20.2-30.8,30.2
				c-7.9,7.7-14.9,16.3-22.4,24.3c-3.4,3.6-6.2,7.6-10.1,10.7c-0.1,0.9-0.8,1.2-1.4,1.6C171,716.1,171,716.3,171.3,716.6
				 M137.6,876.6c2.5,0.7,2.1,3.3,3.3,4.9c0.1,0.3,0.1,0.6,0.2,0.9c-0.7-0.3-0.1-0.7-0.1-1C138.1,881,139.1,878,137.6,876.6
				l-0.1-2.9l-0.3,0l0.2-0.1C137.8,874.6,137.9,875.6,137.6,876.6 M157,672.1l0.4,0.2c-0.3-0.9-0.1-1.9,0.7-2.5l1.5-0.9
				c2.8-5.9,7.3-10.5,11.8-14.9c13.5-13.2,29-23.9,44.9-33.9c5.3-3.3,10.8-6.1,16.3-9c1.4-0.8,2.9-1.4,4.4-1.8
				c1.6-0.4,3.8-2.1,4.8-0.5c0.9,1.5-1.4,2.9-2.5,4.2c-5.5,7.1-13.2,11.2-20.8,15.5c-9.4,5.3-19.2,10.1-28.4,15.7
				c-10.3,6.3-20.1,13.4-28.3,22.5c-0.8,0.7-1.6,1.4-2.4,2l-1.5,0.9c0.1,0.9-0.2,1.8-0.7,2.6L157,672.1 M296.2,373.4
				c-2.8,1.9-5.6,3.7-9.1,4.1c-1.2,1.5-2.5,3.1-4.8,2.3l0.1,0.4l-0.1-0.2c1.7-0.7,2.9-2.5,4.9-2.3c2.2-2.7,5.6-4.1,9.1-4l1-1.6
				c0.9-0.4,1.9-0.4,2.8-0.1c0.5-2.2,2.4-3,4.1-3.9c10.8-6.2,22.1-11.5,33.8-15.9c5.4-2.1,10.5-5,16.5-5.7
				c-6.2,3.4-12.6,6.3-19.2,8.8c-6.6,2.6-13.1,5.4-18.9,9.5c2.9,0.5,5.1-1.5,7.4-2.6c11-5.4,22.7-9.1,33.7-14.4
				c3.7-1.8,7.6-3,11.7-3.5c1.4-0.2,2.8-0.3,4.2-0.1c2.9,0.5,3.3,1.9,1.6,4.3c-2.3,3.4-5.7,5.4-9.1,7.1
				c-11.4,5.8-23.3,10.6-35.8,13.4c-6.2,1.4-12.4,3.2-18.4,5.4c-8.7,3-17.8,5.1-26.3,8.6c-1.2,0.5-2.3,1-3.5,0.2l0.2,0.4
				c0-0.1-0.1-0.2-0.1-0.2c7.6-4,15.3-7.9,22.9-11.9c2.2-1.1,4.6-1.9,6-4.1c-4.2,0.3-6.9,3.8-10.7,4.7l-2.8,0L296.2,373.4
				 M328,307.6l-0.1,0.2c-0.1,0.1-0.2,0.3-0.3,0.4l0.2-0.4L328,307.6z M299.5,299.7c0-0.3,0-0.6,0-1c0.6-0.5,1.1-1,1.7-1.4
				c0.1-0.3,0.2-0.6,0.3-0.9c0.8,0.7-0.1,0.6-0.4,0.8c-0.1,0.9-1,1-1.6,1.4C299.6,299,299.5,299.4,299.5,299.7 M326.6,340.8
				l-0.2,0.1c-0.5,1-1.3,0.6-2.1,0.7l-1.2,1.4c-0.7,0.1,0.1-0.8-0.3-0.2c-0.3,0.3-0.2,0.5,0.1,0.7c0.6,0.3-0.4-0.1,0.2-0.3
				c0.4-0.5,0.8-0.9,1.2-1.4c0.5-0.5,1.3-0.8,2-0.7L326.6,340.8z M308.5,276.1c0.6-0.5,0.7-1.6,1.8-1.3c0-0.1,0.1-0.3,0.1-0.4
				l-0.2,0.3C309.9,275.4,309.5,276,308.5,276.1L308.5,276.1 M270.4,446.1c-0.1,0.7-0.6,0.1-0.9,0.3c-0.1,0.1-0.1,0.2-0.2,0.4
				l0.3-0.3L270.4,446.1 M245.2,445.9l-0.2,0.2c-0.4,0.7-0.3,1.7-1.3,2c0.1,1.4-0.3,2.9-1.2,4c-3.9,4.2-6.7,9.1-10.7,13.3
				c-4.7,4.9-9.1,10-13.2,15.3c-6.8,9.1-14.9,17.1-22.5,25.6c-1.8,2.1-3.1,4.9-7.3,6.2c3.5-4.8,6.2-9,9.4-12.7
				c12-13.6,24.1-27.1,36.2-40.6c3.2-3.6,5.5-7.9,9.2-11c0.4-0.7,0.8-1.4,1.2-2.1L245.2,445.9z M303.8,286.2c0,0.4,0,0.8,0,1.3
				c-0.2-0.3-0.4-0.3-0.6,0c0,0.1,0,0.3,0.1,0.4c0.4,0.2,0.5,0,0.5-0.4C303.8,287,303.8,286.6,303.8,286.2 M385.9,427.3
				c-0.1-0.2-0.3-0.5-0.4-0.7l-0.9-0.1l0.8,0C385.6,426.8,385.8,427,385.9,427.3 M306.3,281.5c-0.1,0.1-0.2,0.2-0.2,0.3
				c-0.2,0.7,0-0.3,0.4,0.3c-0.4-0.2-0.6-0.1-0.5,0.3c0,0.1,0.2,0.1,0.3,0.1c0.7,0.1-0.4,0.1,0.1-0.4
				C306.7,281.9,306.7,281.7,306.3,281.5 M346.8,333.4l0.2,0.1c-1.2,0.3-2.3,1.1-3.7,0.5c-0.1,0.3-0.2,0.7-0.4,0.7
				c-0.4,0.1-0.6-0.2-0.4-0.4c0.2-0.2,0.6-0.2,0.9-0.2c1-1.3,2.3-0.5,3.5-0.5L346.8,333.4z M381.5,327.5c-0.8,0.7-1.5,1.4-2.3,2.1
				c3.7,0.2,7.1-1.9,10.8-1.1c1.3-0.9,2.8-1.4,4.4-1.3c-1.1,1.3-2.9,1.8-4.5,1.2c-3.3,2.3-7.1,2.2-10.8,2.2c-3.1,1.8-6-2.7-9.1,0.1
				c3-2.4,6.8-3.2,11.6-3.1c1.2-1.2,2.6-0.4,3.9-0.2c0.2-0.1,0.5-0.3,0.7-0.4l-0.7,0.4L381.5,327.5 M400.4,328.1
				c-2.2,3.5-5.7,3.1-9.1,3.2C394,329.2,397.4,329.4,400.4,328.1l4.2,0.1c0.2-0.1,0.4-0.3,0.6-0.5l-0.7,0.4
				C403.2,328.7,401.7,328.7,400.4,328.1 M196.4,387.6c0.2-0.4,0.5-0.9,0.8-1.2c0.2-0.2,0.5,0.1,0.4,0.5c-0.1,0.6-0.7,0.6-1.1,0.6
				L196.4,387.6 M225.8,386l0.2,0c0.4-1.1,0.9-2.2,1.3-3.3l0.1-0.1l-0.2,0.2C226.8,383.9,226.3,385,225.8,386L225.8,386z M144,683.3
				c0.1-4.5,3.1-7.9,4.9-11.6c7-14.8,16.6-28.3,28.2-39.8c10.4-10.2,20.7-20.5,32.1-29.5c1.9-1.4,3.9-2.5,6-3.4
				c0.6-0.3,1.4-0.8,1.9-0.2c0.8,0.9,0,1.6-0.6,2.3c-1.5,1.7-3.1,3.5-4.6,5.2c-12.6,13.6-27,25.2-39.6,38.9
				c-9.5,10.4-17.9,21.7-25.1,33.7C146.4,680.3,146,682.4,144,683.3c-0.3,0.7-0.2,1.8-1.4,1.9c-0.1,0.6,0.2,1.3-0.6,1.7
				c0,0-0.2-0.3-0.2-0.4c0.3-0.4,0.6-0.8,0.9-1.2C142.9,684.6,143,683.6,144,683.3 M179.3,716.3c0.3-1.3,1.1-2.4,2.2-3.2
				c5-8,12.4-13.6,19.4-19.7c5.9-5.2,12.8-8.9,19.7-12.7c0.8-0.4,1.6-0.8,2.4-1.1c1-0.4,2.6-0.7,2.9,0.2c0.4,1.3-1.3,1.2-2.2,1.6
				c-7.8,3.4-14.2,8.8-20.8,13.8c-6.8,5.2-13.6,10.3-19.2,16.8c-0.5,0.8-1.4,1.1-2.3,0.9c0.1,1.6-1.2,2.3-2.2,3.2
				c-0.3,0.5-0.9,0.8-1.6,0.8c0.1,1.6-1,2.5-2.3,3.2c-0.5,1.3-1.1,2.5-2.8,2.3c-0.2,1.1-0.4,2.2-0.6,3.2c-0.9,0.8-1.8,1.6-2.7,2.4
				l-0.3,0.1l0.4,0c0.2-1.6,0.9-2.6,2.6-2.4c0.2-1.1,0.4-2.1,0.6-3.2c0.9-0.8,1.9-1.5,2.9-2.3c0.2-1.4,1.1-2.5,2.3-3.2L179.3,716.3
				 M367.8,317.9c0.1,0,0.3,0.3,0.2,0.3c-0.6,0.6-1.1,0.3-1.7,0c-1.3,1.7-2.8,1.4-4.4,0.5c-1.8,1.9-4.1,2-6.5,1.6
				c-1.8,1.7-4.2,1.7-6.4,2.3c-11.8,3.5-27.3,11.7-36.9,17.4c3.7-4.4,8.3-8,13.5-10.5c8.5-4.5,17.7-7.6,27.2-9.2
				c0.9-0.1,1.8,0,2.7,0.1c1.8-1.8,4.2-1.4,6.4-1.7c1.4-0.5,2.9-0.7,4.4-0.5C366.9,318.1,367.3,318,367.8,317.9 M358.6,328.8
				c-0.2,0.9-0.7,0.3-1,0.2c0,0.7-0.5,1.2-1.2,1.2c0,0,0,0-0.1,0c-0.4,0-0.7-0.4-0.5-0.5c0.6-0.3,1.2-0.5,1.8-0.6L358.6,328.8
				 M100.4,527.4l0.3,0C100.6,527.1,100.6,527.1,100.4,527.4c-0.4-1.2-0.9-2.4-1.4-3.6c-1.1-1.1-1.9-2.2-1.4-3.8
				c-3.3-1.8-3.3-5.1-3.8-8.2c1.8,2.5,3,5.3,3.7,8.3c0.6,1.2,1.7,2.2,1.4,3.8C100.7,524.4,100.9,525.7,100.4,527.4 M170.8,665.8v0.2
				c-0.5,0.7-1,1.3-1.6,2c-0.3,0.3-1.1,0.6-1.3,0.5c-0.9-0.7,0-1.2,0.4-1.5c0.6-0.6,1.5-0.9,2.3-0.9L170.8,665.8z M220.5,394.1
				c0.1-0.1,0.1-0.2,0.2-0.2c0.3-0.6-0.1,0.4-0.2-0.3c0.3-0.6,0.6-1.2,1-1.7c0.2-0.4,0.4-1,1.1-0.5c-0.2,0.3-0.4,0.5-0.6,0.8
				c-0.5,0.5-1,1-1.4,1.4C220.6,393.6,220.5,393.8,220.5,394.1 M126.3,541.5c0.3,0.4,0.6,0.8,0.9,1.3c0.1,0.3,0.2,0.6,0.2,0.9
				c-0.6,0.2-1-0.2-1.1-0.7c0-0.5,0-1,0.1-1.5c-1.7-0.8-2.8-2.5-2.8-4.4c-0.6,0-1.1-0.5-1.2-1c-1-1.5-2-3-3-4.5l0.2-0.1l-0.2,0.3
				c2.4,0.5,2.8,2.3,2.8,4.4c0.8-0.1,1.1,0.3,1.3,1C124.7,538.3,125.6,539.8,126.3,541.5 M260.4,483.3c0.3-0.2,0.6-0.3,0.9-0.4
				c0.3,0.7-0.3,0.9-0.7,1c-0.5,0.1-1,0.2-1.5,0.2c-2,1.3-4.1,2.6-6.6,2.5c-2.6,3-6.4,4.2-9.7,6.1c-6.2,3.3-12.2,7.1-17.8,11.3
				c-0.6,0.7-1.5,1-2.4,0.8c0.1,0.4-0.1,0.6-0.4,0.5c0-0.1,0-0.2,0.1-0.3c0.3-0.7-0.2,0.3,0.5-0.1c0.1-1.9,1.7-2.7,2.9-3.6
				c7.9-5.5,16-10.7,25-14.3c0.7-0.2,1.4-0.3,2.1-0.4c1.6-2,4.1-2.9,6.6-2.5C259.6,483.8,260,483.5,260.4,483.3 M100,722.6
				c-2.4-5.3-3.9-11-4.5-16.8c-3-3.7-3.8-8.3-4.7-12.7c-2.2-10.5-5.4-21-4.5-32c0.1-1.8,0.1-3.6,1-5.2c0.5-0.9,0.9-2.3,2.2-1.9
				c1.4,0.3,0.9,1.7,0.7,2.7c-1.4,5.5-1.7,11.3-0.8,16.9c1.2,7.9,2.2,15.8,4.5,23.5c0.8,2.8,2,5.7,1.6,8.8c1.9,3.8,2.8,8,4.1,12
				c0.6,1.8,1.3,3.7,1.9,5.5c-0.3,0.6-0.5-0.4-0.3,0.3c0,0.1,0.1,0.2,0.2,0.3c0.4-0.1,0.4-0.4,0.1-0.6
				C100.8,723,100.1,722.9,100,722.6 M471.4,261c0.3-0.1,0.3-0.1-0.1-0.2c5-3,10-6,15-8.9c0.6-0.4,1.2-0.8,1.8-1.1
				c0.4-0.2,1.2-0.3,1.5-0.1c0.8,0.8-0.1,1.2-0.6,1.7c-3.9,3.5-8.6,5.4-13,8c-1.4,0.8-2.9,1.3-4.5,0.4
				C471.4,260.7,471.4,260.9,471.4,261 M116.6,775.9c4.1,7.7,6.4,15.9,8.2,24.3l-1.1,0.4l-8.2-25.5c-0.5-0.8-0.6-1.8-0.3-2.7
				c-1.3-0.6-2.2-1.8-2.5-3.3c-1.1-4.3-3.7-7.7-5.8-11.3c-5.7-9.8-10.7-20-15.8-30.1c-5.8-11.6-12-22.9-17.2-34.8
				c-0.7-1.6-1.4-3.3-2-4.9c-0.2-0.6-0.6-1.6,0.2-1.9c0.4-0.2,1.2,0.4,1.8,0.7c2.6,1.6,4.7,3.9,6.2,6.5c5.8,8.9,11.2,18.1,15.2,28
				c6.9,16.9,14.7,33.5,19.9,51.1c0.7,0.7,0.9,1.8,0.4,2.7C115.8,775.4,116.4,775.5,116.6,775.9 M470.3,256.7l0.1,0.3
				c-4.1,2.4-8.1,5.1-11.8,8.1c-2.1,1.8-4.4,3.5-8.4,4c5.8-5.6,11.3-9.7,18.1-12c0.7-0.1,1.4-0.1,2.1,0.1L470.3,256.7z M135.4,862.6
				c-2.4-5.9-4.6-11.9-6.4-18.1c-0.2-0.7-0.2-1.7,0.4-1.9c0.7-0.2,1.2,0.5,1.6,1.1c0.6,1.1,1.6,2.1,1.8,3.3
				c0.9,5.4,3.2,10.5,3.3,16.1c0.9,1,1.4,2.3,1.3,3.7c0,0.3-0.5,0.4-0.7,0.1c-0.9-1.1-1.1-2.6-0.5-3.8
				C136,862.9,135.5,862.8,135.4,862.6 M148.5,912.1c-3.4-3-5.1-7.2-7.3-11c-0.2-0.4-0.4-1.1,0.2-1.4c0.5-0.2,0.9,0.2,1.2,0.7
				c2.5,3.9,5.5,7.4,8.9,10.6c1.6,1.5,2.5,3.5,2.6,5.7l0.2,0.3c-0.3,0.1-0.3,0-0.1-0.4C151.4,916.2,150.3,913.6,148.5,912.1
				 M496.5,254.1c0.3-1.3,0-2.8,1.2-3.8c0.1-0.1,0.7,0.2,0.8,0.4C499.2,252.5,497.1,252.8,496.5,254.1c0,0.1-0.1,0.3-0.1,0.4
				c-9.2,5-18.8,9-28.8,12.1c-0.8,0.2-1.7,0.4-2.7,0.6c0.2-0.5,0.3-1,0.5-1c8.2-2.1,15.3-7.2,23.6-9.2c2.5-0.6,4.5-3,7.4-2.4
				C496.5,254.5,496.5,254.3,496.5,254.1 M455.1,313.9l-0.3,0c0.2,0.7-0.2,1.5-1,1.7c-0.2,0-0.3,0.1-0.5,0c-2,0.2-3.9-0.2-5.6-1.2
				c-3.9-2.4-8.1-4.5-11.9-7c-2.7-1.7-5.7-2-8.6-2.3c-2.8-0.3-5.6-1-8.2-2.1c2.4-0.4,4.9-0.2,7.3,0.5c6.7,1.8,13.1,4.4,19.1,7.7
				c2.9,1.6,5.9,3.4,9.5,2.7L455.1,313.9z M105.1,513.9c5.3,8.6,11.5,16.6,15.9,25.8c0.4,0.8,0.6,1.6,0.9,2.5
				c3.1,3.7,5,8.1,7.5,12.1c0.4,0.6,0.6,1.4-0.3,1.7c-0.3,0.1-1-0.4-1.2-0.8c-2.3-4.2-4.9-8.2-6.3-12.8c-4.2-6.3-8.5-12.5-12.4-19
				c-3.1-5.2-7.9-9-10.7-14.4c-0.3-0.6-0.8-1.2-0.5-1.9l-0.3,0.2l0.2-0.1C101.2,508.4,103.4,511,105.1,513.9 M123.6,814.9
				c0.9,3.3,2.6,6.5,2.7,10.2c-2.4-0.3-2.2-2.2-2.7-3.4c-3.7-10.1-7.2-20.3-10.8-30.5c-0.1-0.5,0-1.1,0.1-1.6l-0.2-0.2l0.2,0.1
				C118.3,797.3,121.3,806,123.6,814.9 M136.4,714.6c0.1-0.4,0.5-0.3,0.6,0.1c0.1,0.5-0.2,1-0.7,1.2c-1.2,12.5-2.7,24.9-5.6,37.1
				c-1.8-12.4,1-24.3,4.6-36c0.1-0.4,0.7-0.7,1.1-1.1C136.3,715.5,136.3,715,136.4,714.6 M165.4,411.9c-3.2-13.6-8.5-26.7-12-40.3
				c-0.5-2.2-0.8-4.5-0.9-6.7c1.9,2.4,1.8,5.4,2.7,8.1c3.4,10.4,6.7,20.9,10,31.4c1,3,2,6.1,1.7,9.4l0.5,0.8c-1,0.1-0.4-0.5-0.4-0.9
				C166.2,413.6,165.5,412.8,165.4,411.9 M261,452.7c-0.4,0-0.5-0.3-0.1-0.5c0.2-0.1,0.6,0,0.9,0.1c3.4-2.9,7.8-3.5,11.8-4.1
				c13.9-1.9,27.9-2.9,41.9-3.4c0.6,0,1.5-0.4,1.5,0.7c0,0.2-0.8,0.5-1.3,0.6c-0.9,0.2-1.8,0.2-2.7,0.2c-9.3-0.4-18.3,1.9-27.6,2.4
				c-6.6,0.3-13.1,1.3-19.5,2.9c-1.3,0.5-2.8,0.7-4.2,0.6C261.5,452.3,261.3,452.7,261,452.7 M84.4,749.9c-2-2.2-4.4-4.1-7.1-5.6
				c-0.6-0.3-1.3-0.9-0.8-1.7c0.3-0.4,0.8-0.6,1.3-0.7c3.3-0.3,6.6-0.1,8.6,3c3,4.6,5.7,9.4,8,14.5c0.2,0.4-0.1,1-0.2,1.5l0.3,0
				l-0.2,0.1C91,757.3,87.7,753.6,84.4,749.9 M355,410.5c-8.1-4.4-16.6-8-25.4-10.7c7.8,1.5,15.4,3.3,22.4,7.1
				c6.2,3.4,12.5,6.8,18.7,10.2c2.7,1.5,5.1,3.1,6.4,6.1l0.8,0.1c-0.1-0.1-0.2-0.2-0.3-0.2c-0.1,0-0.3,0.1-0.4,0.1
				C369.8,418.9,362.5,414.5,355,410.5 M147.4,649.5c-1-0.7,0-1,0.3-1.4c1.2-8.3,5.1-15.6,7.9-23.4c-3.6,3.2-4.2,8.3-7.8,11.5
				c0.4,2.6-0.6,4.8-2.4,7.5c0.6-3,1-5.4,2.5-7.4c1.6-7.7,5.9-14,10.6-20c0.8-1,1.7-1.8,2.7-2.5c1.1-0.7,2.4-2.6,3.4-1.6
				c1.1,1.1-0.6,2.5-1.4,3.6c-5.4,8.4-9,17.7-12.7,26.9c-0.8,1.9-0.9,4.1-3,5.3C147.5,648.5,147.5,649,147.4,649.5 M355.2,261.8
				c5.7-15.8,8.2-32.3,10.1-48.9c0-0.7,0.1-1.4,0.2-2.1c0.1-0.5,0.2-1.1,1-1c0.5,0.1,1,0.5,1.1,1c0.7,2.2,0.9,4.6,0.4,6.8
				c-0.7,5.5-1.7,10.9-3,16.2c-2.1,7.7-3.8,15.5-6.8,23C357.5,258.7,357.1,260.7,355.2,261.8L355.2,261.8 M375.2,389.4
				c-6.5-4.2-13.9-6.1-21.4-7.7c-7.8-1.6-15.8-2.4-23.7-3.3c-2.8-0.3-5.7-0.2-8.5,0.3c-1.7,0.4-3.4,0.3-5-0.3
				c2.2-1.8,4.6-1.2,6.8-1.3c15.4-0.9,30.9,1.2,45.5,6.2c2.4,0.7,4.6,1.8,6.7,3.2c1.5,1.1,3.4,2,3.4,4.4c1.6,2.3,0.3,2.8-1.7,2.8
				c-1.9,1.8-4.1,0.8-6,0.3c-8.7-2.4-17.7-4.1-26.7-5.1c-7.2-0.9-14.3-2.8-21.6-3.6c-10.4-1-20.9-1.5-31.3-0.1
				c4.5-2.4,9.5-3.7,14.6-4c10.3-0.4,20.6-1.5,30.9,0c10,1.5,20,3.1,29.6,6.6c3.9,1.4,7,4.1,10.6,6c1.4-0.5,1.6-1.7,1.7-3
				C377.8,390.7,376.4,390.2,375.2,389.4 M163,621.3c1.3-2.3,2.8-4.5,4.5-6.5c0.6-0.7,1.6-0.9,2.4-0.4c0.7,0.4,0.6,1.2,0.4,1.9
				c-1,4.1-2,8.3-4.4,11.9c-7.6,11.3-15.2,22.6-20,35.5c-0.1,0.2-0.1,0.3-0.2,0.5c-0.3,0.6-0.5,1.4-1.4,1.1c-0.2-0.1-0.2-1-0.1-1.5
				c1.2-3.1,2.2-6.3,3.7-9.4c2.1-4.3,4.5-8.4,5.6-13.2c0.6-2.3,1.5-4.6,4.1-5.6c0.2-0.1,0-1,0-1.5l0.1-0.1
				C157.8,629.2,160.9,625.4,163,621.3 M386.1,230.9c0.3,0.3,0.2,0.4-0.4,0.3c-1.1,4.6-3.8,8.4-6.2,12.2
				c-10.3,16.6-22.4,31.9-34.4,47.3c2-5.9,6.1-10.5,9-15.9c2.8-5.1,6.5-9.7,8.8-15.1c1.2-2.8,3.5-5.3,5.7-7.6
				c5-5.3,8.7-11.6,13.4-17.2c1.1-1.3,1.8-3.1,3.8-3.5L386.1,230.9 M355.9,341.5c-0.1,0.1-0.1,0.2-0.2,0.3c-0.1,0.1-0.3,0.1-0.4,0.2
				c-6.5,2.8-13,5.6-19.6,8.2c-12.6,4.9-24.4,11.5-36.4,17.7c-7.3,3.7-14.7,7.2-21.5,11.7c-0.8,0.7-1.9,1-3,0.8
				c0,0.1-0.1,0.3-0.1,0.4c-0.3-0.2-0.3-0.3,0.2-0.3c0.7-2.9,3.2-4.2,5.4-5.6c11.4-7,22.9-13.9,35.4-19.2c7.1-3,14.2-6.3,21.3-9.4
				c5.8-2.6,11.9-4.7,18.4-4.3L355.9,341.5 M82.6,691.7c-2.2-3.4-4.9-6.5-8-9.2c-2.9-2.4-4.4-6-5.4-9.6c-0.6-2.3-0.3-4.6,2.2-5.9
				c2.6-1.4,4.4-1.1,6.7,1.1c1.4,1.3,2.5,3,3.3,4.8c2.5,5.3,4.3,10.9,5.3,16.7c0.6,2.8,1.3,5.5,2.2,8.2c0.5,1.9,1.6,3.6,1,5.6l0.3,0
				l-0.2,0C87.5,699.5,85.1,695.6,82.6,691.7 M362.8,302.1c-0.2,0-0.1-0.3,0.2-0.1c1.1-2.5,3.7-2.7,5.8-3.2
				c11.3-3.3,22.3-7.4,32.9-12.4c6.4-3.1,12.5-6.7,18.3-10.9c8.4-5.9,17.3-11.2,25.3-17.7c2.9-2.4,6.2-4.2,10.2-3.4l0-0.3l0.1,0.2
				c-2.4,3.3-5.5,6.1-9,8.2c-12,7.2-23.2,15.8-35.9,21.8c-15.1,7.2-30.5,13.5-46.7,17.7c-0.4,0-0.7,0-1-0.1
				C362.7,302.5,363.5,302.1,362.8,302.1 M169.7,587.8c-0.4,0.2-0.6-0.1-0.4-0.5c0.3-0.6,0.6-1.2,1.5-1c0.6-3.8,3.6-6.1,5.8-8.7
				c5.4-6.6,11.5-12.5,17.6-18.5c5.5-5.5,10.9-11.1,16.5-16.5c7.1-7.2,14.7-13.9,22.6-20.2c1-0.8,1.8-1.8,2.8-2.5
				c1.1-0.7,1.7-3.1,3-2.1c1,0.8-0.6,2.5-1,3.8c-0.5,2-1.9,3.3-3.3,4.8c-6.4,6.9-13.7,12.9-21,18.9c-14.3,11.7-28.7,23.3-39.9,38.2
				c-0.7,1.2-1.8,2.2-3.1,2.8C170.7,586.9,170.3,587.5,169.7,587.8 M239,543.2l0.1,0.2c-17.3,13.3-33.9,27.5-49.7,42.6
				c-5.6,5.3-10.4,11.2-15.3,17.1c-0.7,0.8-1.3,1.7-2,2.5c-0.5,0.5-1.1,1-1.7,0.3c-0.4-0.5-0.2-1,0.1-1.4c3-4.2,5.5-8.7,9.1-12.5
				c9.4-9.9,18.8-19.8,28.9-29.1c8.4-7.4,17.6-13.8,27.6-19c0.9-0.5,1.9-1,3-0.5L239,543.2z M122.6,466.8c-0.7,2,0.3,3.8,0.9,5.6
				c4,12,8.4,23.8,10.5,36.3c0.4,2.4,0.7,4.9,0.9,7.4c-1.3-1.5-2.1-3.4-2.2-5.4c-1.2-8.9-4.9-17-7.3-25.5c-1-3.4-2.2-6.8-3.1-10.2
				c-1.5-5.4-4.1-10.2-6.9-14.9c-2.9-4.9-4.5-10.4-7.6-15.2c-0.3-0.5-1.1-1.2-0.2-1.8c0.7-0.4,1.5-0.2,1.9,0.4
				c3.2,3.4,6.6,6.5,9.3,10.2c6.6,9.1,11.7,19.1,15.2,29.8c0.8,2,1.1,4.1,1.1,6.3c2.2,3,2.7,6.6,3.2,10.1c1.4,9.6,3.2,19.2,2.7,29.8
				c-1.7-3.8-1-7.3-1.3-10.6c-0.8-7.8-2.7-15.4-4.1-23c-0.4-2.1-1.1-4.1-0.3-6.3c-0.9,1.5-1.2-5.2-2.4-0.2c-0.1,0.5-0.2,1.1-0.8,1.1
				c-0.2,0-0.5-0.5-0.6-0.8c-1-2.8-2-5.6-2.9-8.5c-1.5-5.1-3.5-10-6-14.6L122.6,466.8z M317.3,315.1l-0.1-0.2
				c10.1-15.1,18-31.6,23.5-48.9c2.4-6.9,4.1-14,5.2-21.2c1-8.2,4.5-15.6,7.3-23.3c0.1-0.2,0.6-0.3,1.1-0.7
				c-0.6,7.6-2.3,14.8-3.8,22.1c-2.5,12.4-5.2,24.7-9.9,36.5c-5,12.4-12,23.9-20.7,34c-0.7,0.8-1.4,1.7-2.6,1.4L317.3,315.1z
				 M334,300.1l0.2-0.1c0.5-2.3,1.3-4.4,2.5-6.4c4.8-9.4,8.6-19.2,11.3-29.3c3.1-10.9,5-22.2,7.2-33.3c1-5.4,1.4-11,3.3-16.2
				c0.1-0.3,0.2-0.7,0.3-1c0.5-1.7,1.1-4.1,3-3.8c1.4,0.2,1.1,2.7,0.9,4.2c-0.7,6.4-1.3,12.7-2.4,19.1c-2.1,11.7-5.3,23.2-9.5,34.4
				c-2.8,7.7-5.3,15.5-9.6,22.5c-2,3.6-4.4,6.9-7.1,10L334,300.1z M105.3,790.7c-4.8-7.1-10.6-13.3-16.5-19.4
				c-5.7-5.8-10.9-12.2-15.4-19c-1.1-1.7-3.3-3.9-1.3-5.6c1.5-1.3,3.9,0.2,5.7,1.4c2.2,1.4,4.2,3.2,6,5.3c4.4,5.6,9.7,10.4,14.1,16
				c7.9,10.1,13.2,21.4,17.7,33.3c0.4,0.8,0.4,1.8-0.1,2.5l0.3-0.1l-0.2,0C112.1,800.3,108.6,795.6,105.3,790.7 M376.8,293.8
				l0.3,0.1c0.8-2.2,3-2.9,4.6-4.1c9-6.7,18.7-12.3,28.2-18.3c8.9-5.6,17.7-11.1,26.6-16.6c3.5-2.1,7.2-3.8,11.1-5.1
				c1.8-0.7,3.8-0.7,5.5,0.1c-11,7.6-21.9,15.1-32.7,22.8c-13.3,9.5-28,16.1-43.4,21.2L376.8,293.8z M96.6,756.5
				c-6.9-13-15.2-25.3-21.8-38.5c-3.8-7.3-6.3-15.1-7.5-23.2c-0.2-1-0.3-2.1-0.3-3.2c0.1-1.7-0.4-4.7,0.8-4.9
				c2.1-0.3,1.6,2.6,2.3,4.1C76,703,82.1,715,88,727.1c7.4,15.3,16.3,29.9,23.5,45.4c2.5,5.3,4.4,10.9,6.4,16.4
				c0.4,0.8,0.4,1.8,0,2.6l0.3-0.1l-0.2,0C112.3,778.9,103,768.5,96.6,756.5 M102.3,587.8c-6.2-7.8-13.8-14.4-20.6-21.7
				c-3.1-3.4-6.3-6.8-7.9-11.3c-0.2-0.5-0.4-1.2-0.2-1.5c0.5-0.7,1.3-0.3,1.9,0c1.2,0.7,2.3,1.6,3.5,2.4c0.6,0.4,1.4,0.4,1.8-0.2
				c0,0,0-0.1,0.1-0.1c0.4-0.6,0.2-1.5-0.4-1.9c-1-0.8-2.1-1.3-3.1-2c-0.4-0.3-1.1-0.6-0.7-1.2c0.4-0.4,0.9-0.5,1.4-0.5
				c2.8,0.5,5.5,1.5,8,2.9c8.4,5.1,14.8,12.2,20.5,20.1c7.4,10.3,13.2,21.6,17.4,33.6c0.2,0.3,0.3,0.7,0.4,1
				c0.2,1.2,1.2,2.7-0.2,3.4c-1.8,0.9-2.9-0.5-3.6-2.1c-1.8-3.9-3.1-8.1-5.5-11.5c-6-8.6-12.3-17-18.8-25.2
				c-2.3-2.9-3.9-6.3-6.7-8.9c-0.8-0.7-1.4-1.6-2.2-2.3c-0.4-0.3-1.1-0.7-1.4-0.5c-0.9,0.5-0.4,1.2,0,1.7c2.8,3.9,5.6,7.8,8.6,11.5
				c5.2,6.6,9.7,13.6,15.2,19.9c0.6,0.6,0.9,1.6,0.8,2.4c4.4,4.1,5.7,9.7,7.3,15.1c-2.6-5-5.5-9.8-7.2-15.2
				C107.1,593.9,104.7,590.8,102.3,587.8 M268.3,396.5c-0.3-0.9,0.4-0.4,0.7-0.5c3.9-2.4,8.2-4.2,12.7-5.2c9.8-2.5,19.8-4.3,30-3.2
				c9.4,1.1,18.7,2.2,28,3.6c8.1,1.2,14.4,5.8,21.4,9.3c2.7,1.3,5.2,3,7.9,4.5c9,5,16.4,11.8,23.5,19.1c0.4,0.4,0.7,0.8,1,1.3
				c0.4,0.6,1,1.2,0.3,1.8c-0.5,0.2-1,0.2-1.5,0c-4.1-2.1-8.7-3.6-12.2-6.5c-4.6-3.8-9.7-6.5-14.8-9.5
				c-11.5-6.7-23.9-11.8-36.8-15.1c-16.9-4.4-33.8-3.4-50.8-1.7c-3,0.3-5.6,2.5-8.8,1.7L268.3,396.5 M113.2,720
				c7.1,19.1,12.9,37.8,13.7,57.6c-4-20-11.6-38.6-19.5-57.6c-1.5,1.9,0.3,3,0.5,4.3c0.3,1.6,0.7,3.1,1.3,4.6
				c3.4,9.5,7,19,10.3,28.6c2.1,6.2,3.6,12.7,4.5,19.2c-1.3-0.4-1.5-1.3-1.8-2.1c-4.8-12.6-10-25.1-14.3-37.9
				c-5.2-15.8-9.8-31.9-13.4-48.2c-1.7-7.6-3.1-15.4-2.7-23.3c0-0.4-0.1-0.7,0-1.1c0.2-2.1,0-5.1,1.8-5.7c1.9-0.6,2.7,2.5,3.6,4
				c4.2,7.4,7.7,15.2,10.5,23.3c4.3,12.1,7.7,24.4,10.1,37c0.1,0.9,0.1,1.8,0.1,2.6c0.2,0.3,0.5,0.5,0.5,0.8c0,0.4-0.4,0.5-0.5,0.1
				c-0.1-0.2,0.1-0.6,0.1-0.9C115.6,724.7,116.5,721.2,113.2,720 M291,349.1l0.2,0c2.5-6,7.8-9.6,12.4-13.6
				c7.2-6.3,15.2-11.8,23.6-16.3c12.3-6.4,25.6-10.7,39.3-12.7c16.1-2.5,31.9-1.1,47.7,1.2c10.9,1.6,20.9,5.7,29.3,13
				c3.8,3.4,6.7,7.3,7.8,12.4c0.4,1.7,0.8,3.7-0.9,4.9c-1.9,1.3-3.7,0.4-5.3-1c-4.7-4.1-9.7-7.8-15.1-10.9
				c-20.6-11.4-42.5-14-65.6-10.9c-22.9,3.1-43.5,11.7-62.3,24.9C298.4,342.9,294.8,346.1,291,349.1L291,349.1z M128.7,833.9
				c0.5-4.9-0.3-9.9,0.7-14.9c1.1-5.9,1.2-12,2-18c2.1-16.2,6.1-32.1,10.8-47.7c1.8-6.1,3.7-12.2,5.5-18.4
				c5.2-18.6,13.6-35.8,21.4-53.4c2.2-5.4,5.1-10.6,8.5-15.3c0.6-0.8,1.2-2.2,2.4-1.7c1.1,0.4,0.8,1.7,0.8,2.8
				c0.1,9.9-2.7,19.3-5.5,28.7c-2.6,8.9-7.3,17-10.7,25.5c-5,12.4-11.3,24.1-16.5,36.4c-3.4,8-5.7,16.5-8.9,24.5
				c-5.5,13.8-7.5,28.1-8.7,42.7c-0.3,4-0.6,8,0.8,12.4C129.3,836.5,128.6,835.3,128.7,833.9 M154.7,600.9
				c5.5-11.3,11.8-22.3,18.7-32.9c5.4-8.1,11.5-15.8,17.4-23.5c4.8-6.2,9.4-12.5,14.5-18.5c2.1-2.7,4.6-4.9,7.5-6.6
				c5-2.7,9.4-6.4,15.2-7.6c1.9-0.6,3.9-0.7,5.8-0.3c2.9,0.8,3.7,2.8,2,5.2c-0.8,1-1.6,1.9-2.6,2.6c-12.1,9.9-23.6,20.5-34.5,31.7
				c-12.4,12.6-25.2,25-34.8,40.1c-4.3,6.7-9.3,13.1-10,21.5c-0.1,1.5-1.5,2.4-2.2,3.5c-0.5,0.7-1.2,1.6-2.1,1.2
				c-0.3-0.1-0.2-1.3-0.3-1.9C150.8,610.4,152.3,605.5,154.7,600.9 M152.1,759.4c2.2-5.8,5.3-11.3,9.2-16.2
				c9.1-12.1,18.4-24,29.4-34.4c8.6-8,17.9-15.1,27.8-21.5c1.7-1,3.5-1.8,5.3-2.5c0.6-0.4,1.4-0.3,2,0.2c0.7,0.7,0,1.3-0.4,1.9
				c-2.4,3.5-4.6,7.3-7.4,10.4c-12.2,13.6-24.3,27.4-37.6,40c-11.9,11.2-23.3,22.9-32.6,36.4c-0.5,0.5-1.1,0.9-1.7,1.3
				C147.2,769.2,150.3,764.5,152.1,759.4 M241.1,446.9c-6.3,8.4-13,16.4-20.1,24.1c-13.4,14.2-26.8,28.4-37.4,45
				c-0.3,0.5-0.6,0.9-1,1.2c-0.4,0.3-1,0.7-1.4,0.6c-0.9-0.3-0.5-1.2-0.3-1.7c2.1-6.6,4.7-13,7.6-19.3c6.9-13.4,15.1-26.1,24.6-37.8
				c6.5-8.1,13.7-15.8,22.5-21.6c1.8-1.2,3.6-2.2,5.6-3.1c3.3-1.4,5,0.1,4.5,4.1C244.5,441.4,243,444.3,241.1,446.9 M157.3,572.5
				c1.9-6.1,4.1-12.1,6.7-17.9c3.5-8.2,8.6-15.5,14.1-22.5c8.1-10.3,16.4-20.5,26.2-29.5c2.9-2.6,5.9-5.2,8.9-7.7
				c0.8-0.7,1.7-1.3,2.7-1.8c1.7-1,3.4-1,4.8,0.7c1.3,1.5,1,2.9,0,4.4c-2.9,4.3-6.1,8.3-9.7,12c-10.3,10.8-20.3,21.8-29.2,33.9
				c-9.8,13.3-19.4,26.7-27,41.5c-0.4,0.8-0.9,1.5-1.4,2.2C153.5,582.5,155.8,577.6,157.3,572.5 M241.1,553.7
				c-7.4,10.3-16.2,19.2-25.8,27.5c-11.2,9.6-23.1,18.3-33.3,28.9c-2.1,2.2-4.1,4.4-6.2,6.6c-0.3,0.4-0.8,0.6-1.3,0.7
				c-0.7,0-0.4-0.7-0.5-1.2c-1-5.2,0.6-9.3,4-13.5c10.5-13.1,22.7-24.4,35.4-35.2c8.2-7,16.2-14.3,25-20.8c1.3-0.9,2.6-1.8,4-2.7
				c0.7-0.5,1.5-1.1,2.4-0.6c0.9,0.5,0.6,1.6,0.6,2.6C244.6,548.8,242.8,551.3,241.1,553.7 M158.6,525.9c1.5-9.7,2.9-19.6,6-29
				c0.8-2.4,2.2-4.5,4-6.2c1.2-1.4,3.3-1.5,4.7-0.2c0.5,0.5,0.9,1.2,1,1.9c1,4.3,2,8.6,1.1,13.1c-1,4.9,0.1,9.9-1.3,14.8
				c-2.7,9.7-4.6,19.6-10.3,28.3c-3.4,5.3-5.5,11.5-7.3,17.7c-0.3,1.1-1,2.1-2.1,2.6C155.8,554.2,156.4,539.9,158.6,525.9
				 M134.7,809.7c0.9-7.1,4.5-13.2,8-19c8.6-14.3,18.3-27.8,30.2-39.8c14.7-14.7,32.1-25.1,50.7-33.7c0.7-0.3,1.5-1.4,2.2-0.2
				c0.4,0.6-0.3,1.3-0.7,1.8c-3.1,4-6.9,7.2-11.4,9.5c-18.7,9.2-33.6,23-47.6,38c-14.6,15.6-23.4,34.2-30,54.1
				c-0.9,2.9-1.3,5.9-2,8.8c-0.1,0.5-0.5,1-1.1,0.8c-0.2-0.1-0.3-0.6-0.3-0.9c0-1.4,0-2.8,0.1-4.9
				C135.2,820,134.1,814.7,134.7,809.7 M104.2,446.7c0.4-1.2,1.2-1.4,1.9-0.4c0.8,1.2,1.5,2.4,2.1,3.7c7.6,13.8,13.2,28.3,17.9,43.3
				c4.4,14.4,7.9,29.1,10.5,44c0.5,2.8,1.3,5.5,2,8.3c0.2,0.5-0.1,1-0.6,1.1c0,0-0.1,0-0.1,0c-0.2,0-0.5-0.4-0.8-0.6
				c-0.1-0.1-0.2-0.3-0.2-0.5c-3.6-16-12.4-29.8-18.5-44.7c-4.7-11.3-8.5-23-11.4-34.9c-0.9-3.8-1.9-7.6-2.9-11.4
				c-0.4-1.9-0.5-3.9-0.3-5.9C103.9,448.1,104,447.4,104.2,446.7 M104.3,650.5c-4.6-12.1-9.3-24.3-12.3-36.9
				c-0.9-3.6-1.1-7.4-0.7-11.1c0.1-1.6,0.7-3.1,1.6-4.5c1.1-1.5,2-1.7,3.4-0.3c2.6,2.7,4.7,5.8,6.2,9.2c2.7,5.8,5.3,11.7,7.9,17.5
				c0.4,0.8,0.7,1.6,0.7,2.5c-0.8,12.3,1,24.5,2.2,36.7c-0.1,0.5-0.2,0.9-0.4,1.4C109.2,660.8,106.3,655.9,104.3,650.5 M125.2,707.2
				c-1.7-10.9-5.1-21.4-6.9-32.3c-2.6-15.1-5-30.2-4.2-45.6c0.1-2.5,0.4-5,0.8-7.4c0.3-1.4,0.9-2.7,1.7-3.9c0.6-1,1.5-2.5,2.8-2
				c1.5,0.5,0.6,2.1,0.6,3.3c0.1,7.1,1.9,14.1,2.4,21.2c1.1,17.4,4.6,34.6,5.6,52c0.5,7.6-0.8,15.2-1.2,22.9
				C126.3,712.6,125.7,709.9,125.2,707.2 M188.4,459.4c3.2-10.9,7.5-21.4,12.8-31.5c3.4-6.3,7.4-12.1,13.2-16.5
				c0.6-0.4,1.2-1,1.8-0.5c0.6,0.5,0.1,1.3-0.2,2c-3.4,7.6-6.7,15.3-10.3,22.8c-8.3,17.7-15.1,36-21.4,54.5
				c-1.5,4.3-2.8,8.8-3.8,13.3c-0.2,0.8-0.4,2.3-1.2,2.1c-1.5-0.3-0.6-1.7-0.5-2.6c0.1-2.3,0.5-4.6,0.7-6.9
				C181.1,483.6,184.7,471.5,188.4,459.4 M288.3,361.8c-7.4,9.5-17.3,16.3-25.6,24.9c-6.3,6.3-11.9,13.2-16.7,20.7
				c-2.3,3.7-5.9,6.1-8.8,9.3c-7.3,7.9-12.9,17-19.4,25.4c-0.5,0.7-0.8,1.6-1.9,1.8c1.5-7.2,5.7-13.2,9.1-19.5
				c0.9-1.5,1.8-3.1,2.6-4.7c2.5-6,7.2-10.4,10.6-15.8c0.2-0.3,0.4-0.6,0.7-0.8c8.9-3.7,14.6-11.1,20.8-17.8
				c7.5-8.2,15.5-16,22.8-24.4c6.2-7.2,13.9-13,22.1-18.3C299.2,349,293.4,355.2,288.3,361.8 M244.9,376.7c-1.6,5.4-3.1,11-4.6,16.4
				c-0.3,1.2-0.8,2.4-1.2,3.5c-0.1,0.3-0.4,0.6-0.7,0.7c-0.9,0.1-0.7-0.7-0.6-1.1c0.4-2.8,0.6-5.6,1.2-8.4
				c3.9-19.5,6.6-39.3,7.9-59.1c0.5-7.6,1-15.2,1.6-22.9c0.2-3.4,0.9-6.7,2.2-9.9c0.3-0.8,0.6-1.9,1.7-1.7c0.9,0.1,1.3,1.1,1.5,2
				c1.2,4.8,1.7,9.8,1.3,14.8c-0.7,9.9-0.2,19.9-2.3,28.5C251.3,352.2,248.6,364.6,244.9,376.7 M234.2,500
				c9.4-5.4,18.6-11.3,29-14.5c4.4-1.5,8.9-2.4,13.5-2.7c2-0.1,2.6,0.9,1.5,2.6c-2.2,3.7-5.4,6.7-9.2,8.7c-3.6,1.9-7.2,3.9-10.8,5.8
				c-5.2,2.7-10.2,5.8-14.9,9.3c-1.4,1.1-2.5,2-4.5,0.3c-2.5-2.2-6-1.9-9.2-1.3c-3.3,0.6-6.4,1.9-9.7,2.9
				C224.1,506.7,228.9,503,234.2,500 M154,653.1c5.7-9.6,11.1-19.4,18.5-27.9c8.5-9.8,17.7-19,27.5-27.5c3.6-2.9,7.6-5.3,11.9-7.1
				c1.9-0.8,3.8-1.2,5.6,0.1c1.9,1.3,1.9,3.3-0.3,4.3c-9.4,4.6-17,11.6-24.2,18.9c-6.4,6.4-13.3,12.2-19.6,18.8
				c-9.2,9.6-17,20.5-23.2,32.4c-0.9,1.7-1.8,3.4-2.8,5.1C148.5,664.1,150.7,658.3,154,653.1 M422.2,249.3
				c-14.7,16.6-31,31.3-50.3,42.5c-2.3,1.3-4.4,3-6.7,4.4c-1.5,0.9-3,2-4.8,2.1c-0.7,0-1.5,0-1.7-0.7c-0.1-0.3,0.5-0.9,0.9-1.2
				c1.7-1,3.5-1.8,5.1-2.8c15.5-9.5,30.7-19.5,43.3-32.6c13.6-14.1,22.5-31,25.3-50.7c0.5-3.5,1.5-7,3-10.2c0.5-1,1.1-2,2.3-2
				c1.6,0.1,1.9,1.4,2.1,2.6c0.5,3.3,0.6,6.7,0.1,10.1C438,224.5,432.3,238,422.2,249.3 M253.2,356.1c2.2-9.6,3.2-19.3,4.3-29
				c0.3-3.7,1-7.4,2-11c2.5-7.8,3.2-16.1,7-23.7c4.2,21.2-8,78.3-20.3,94C248.7,375.4,251,365.8,253.2,356.1 M180.9,463.7
				c2.9-18.8,7.9-37.2,14.8-54.9c1.4-3.6,3.4-7,5.1-10.5c0.4-0.9,0.9-2.2,2.1-2c1.1,0.3,1.1,1.7,1.4,2.7c0.9,3.4,0.2,6.8-0.6,10
				c-1.8,7-3.5,14-6.7,20.7c-7.3,15.4-12.9,31.6-16.5,48.3c-0.3,1.2-0.5,2.4-0.9,3.6c-0.1,0.5-0.5,1-1.2,0.7
				c-0.2-0.1-0.4-0.6-0.4-0.9c0.1-2.1,0.2-4.3,0.4-6.4C178.6,471.1,180.3,467.5,180.9,463.7 M173.3,431.5
				c-2.2-15.7-6.1-31.1-11.5-45.9c-2.7-7.3-4.7-14.9-6-22.7c-0.1-0.9-0.4-2,0.4-2.4c0.9-0.4,1.6,0.5,2.1,1.3
				c2.1,3.5,4.5,6.9,6.2,10.6c5.8,12.8,10.1,26.2,12.8,40c0.9,4.9,1.6,9.7,0.5,14.7c-1,4.5-1.1,9.2-1.6,13.7h-1.4
				C173.8,437.8,173.8,434.6,173.3,431.5 M133.7,632.2c-0.7-9.9-1.1-19.7-1.8-29.6c-1-13.9-2-28.1,1.9-41.8c0.8-2.7,0.7-6,3.7-7.7
				c1.6,2.5,1.3,5.5,1.4,8.2c0.8,13.5-0.1,27-1,40.4c-0.7,10.6-0.9,21.3-1.1,31.9c-0.1,5.7-0.7,11.3-1,17l-1,0
				C134.4,644.5,134.1,638.4,133.7,632.2 M188.9,483.6c6.7-17.9,13.6-35.8,21.7-53.2c2.9-6.3,5.6-12.6,8.6-18.9
				c0.3-0.6,0.8-1.5,1.3-1.6c1-0.1,1.2,1,1.6,1.8c0.9,1.7,0.3,3.5,0,5.2c-1.1,7.7-4.6,14.5-7.2,21.7c-5.8,15.6-15.1,29.3-22.8,43.8
				c-2,3.7-3.8,7.5-6.2,12C185.7,489.9,187.7,486.8,188.9,483.6 M122.6,735.7c-2.1-9.3-3.8-18.8-6.2-28
				c-4.8-17.8-10.4-35.3-20.1-51.3c-0.5-0.9-1.5-1.8-0.5-2.8c1.1-1.2,2.3-0.6,3.3,0.2c2.4,1.8,4.5,4,6.1,6.6
				c8,12.7,13.3,26.8,15.5,41.6c1.9,12.1,3.1,24.3,4.6,36.4c0.4,1.8,0.3,3.7-0.4,5.4C124,740.7,123.2,738.2,122.6,735.7
				 M304.4,421.8c0.1,0.9-0.4,1.8-1.3,2.2c-2.1,1.2-4.4,2.4-6.6,3.3c-6.3,2.5-12.6,4.7-18.9,7.2c-10.8,4.5-20.7,10.7-30.2,17.6
				c-0.6,0.4-1.2,1.7-2.1,0.7c-0.3-0.3,0-1.4,0.3-2c1.8-3.2,3.7-6.4,4.5-10.1c0.3-1.5,1.7-2.3,2.9-2.9c11.1-5.9,22.1-12.2,34.4-15.4
				c4.9-1.1,9.9-1.7,14.9-1.8C303.2,420.7,304.2,420.6,304.4,421.8 M167.2,483c-0.9-5.4-1.6-11-3.2-16.1
				c-3.1-9.4-6.1-18.9-10.8-27.7c-2.6-4.8-4.2-10.1-6.2-15.2c-0.4-1-0.6-2-0.8-3.1c-0.2-0.7,0.1-1.5,0.8-1.7c0.5-0.1,1,0,1.4,0.4
				c1.3,1.2,2.5,2.5,3.7,3.8c4.9,6.5,8.8,13.8,11.6,21.4c4.9,12.8,8.3,26,10.2,39.6c0.2,1.6,0.6,3.5-2.7,2.4
				C168.8,487.1,167.6,485.6,167.2,483 M199,370.9c-2.2,8.1-5.8,15.7-7.3,24c0,0.5-0.2,1.1-0.5,1.5c-1.6,1.8-3.2,5.5-5,4.8
				c-1.8-0.6,0.1-4,0.6-6.1c2.6-11.5,4.9-23,7.9-34.3c2.9-11,4-22.4,7.4-33.3c0.2-0.6,0.1-1.5,0.9-1.7c0.9-0.2,1,0.7,1.3,1.3
				c2.3,4.5,1.9,9.3,1.1,16.2C203.9,351.2,201.7,361.1,199,370.9 M278.6,308.5c1.6-14.3,2.3-28.7,2.2-43.1
				c-0.1-7.6-0.8-15.3,0.6-22.9c0.3-1.5,0.2-4,1.8-4c1.6,0,1.5,2.7,1.6,4.1c0.5,7.4,0.8,14.9,1.3,22.4c1,15.4-1.7,30.5-4.4,45.5
				c-0.9,4.9-1.8,9.8-2.9,14.7c-0.6,2.8-1.4,5.5-2.3,8.2c-1.2,3.3-2.7,6.5-4.1,9.8C275.1,331.7,277.2,320.2,278.6,308.5
				 M139.1,621.3c0.4-15.6,2.1-31.2,2.1-46.8c0-7.1-0.4-14.2-0.6-21.3c0-0.7-0.4-1.6,0.4-1.9c0.9-0.3,1.8,0,2.4,0.7
				c1,1.2,1.8,2.7,2.1,4.3c1.3,4.6,2,9.4,2.2,14.2c0.4,7.3-0.8,14.5-1.8,21.7c-0.9,6.4-1,12.8-1.4,19.1c-0.6,8.4-2.1,16.7-4.5,24.7
				C139.1,631.2,138.8,626.2,139.1,621.3 M359.3,275.9c6.8-9.6,13.7-19,20.3-28.8c3.5-5.2,6.2-10.8,9.3-16.2
				c0.5-1.1,1.1-2.2,1.8-3.2c0.8-1,1.1-3.1,3-2.2c1.5,0.7,1,2.5,0.8,3.9c-0.6,3.2-1.8,6.2-3.7,8.8c-8,13-16.8,25.5-26,37.8
				c-6.1,8.1-12.9,15.6-19.8,23.1c-1.2,1.7-2.8,3-4.7,3.9C345.8,292.4,353.2,284.6,359.3,275.9 M412,287.6
				c8.1-1.1,16.2-2.4,24.4-1.4c13,1.6,24.6,6.8,35.6,13.5c1.4,0.9,3.7,2.2,2.9,3.9c-0.8,2-3.3,0.7-4.8,0.3c-4.1-1.1-7.7-3.5-11.7-5
				c-7.2-2.5-14.6-4.4-21.9-6.7c-2.2-0.6-4.5-0.9-6.9-0.8c-9.5,0.1-19.1-0.4-28.7,1.1C404.2,289.9,408,288.2,412,287.6 M143.6,548.4
				c-1.5-1-1-3-0.9-4.5c1.7-17.8,0.3-35.4-2.3-52.9c-0.3-1.9-0.4-3.9-0.2-5.8c0.3-1.9-0.7-5.1,1.9-5.3c2-0.2,2,3,2.3,4.8
				c0.6,3.1,1.1,6.3,1.5,9.5c2.2,17.6,3,35.3,3.9,53c0.2,3.7-0.1,7.4-0.1,11.9C147.8,554.8,147.3,550.7,143.6,548.4 M168.4,675.8
				c-6.9,17.8-15.1,35-21.1,53.1c-6,18.2-10.6,36.7-16.1,56.2C134.5,744.7,147.9,709,168.4,675.8 M410.1,294.6
				c6-0.4,12.1-0.4,18.1-0.3c8,0.2,15.9,2.6,22.7,6.8c2.4,1.3,4.2,3.3,5.3,5.8c1.2,3.1,0.2,4.4-3.1,3.9c-1.7-0.4-3.4-1.1-4.9-2
				c-6.2-3.1-12.3-6.1-19.2-7.6c-8.2-1.7-16.5-2.7-24.8-2.9c-3.6,0-7.2-0.3-10.7-0.8C398.9,295.8,404.5,294.9,410.1,294.6
				 M177.5,456.1c0.2-6,1.2-12,2.8-17.9c0.8-3.1,1.3-6.2,1.4-9.4c0.2-4.2,0.9-8.5,1.4-12.7c1-8.8,6.7-14.6,13.2-19.8
				c0.7-0.6,1.7-1.7,2.7-0.6c0.6,0.7-0.1,1.6-0.5,2.4c-5.7,12.6-10.5,25.6-14.3,38.9c-2.5,8.7-3.6,17.8-5.4,26.6
				c-0.2,1-0.1,2.1-0.9,2.9C176.4,463.1,177.3,459.6,177.5,456.1 M150.5,523.8c-0.1-4.8-0.6-9.6-1.1-14.3c-1-10.2-1.3-20.6-3.8-30.6
				c-0.1-0.5-0.3-1.1,0.3-1.4c0.7-0.3,1.4-0.1,1.9,0.4c2.2,2.1,3.8,4.8,4.6,7.7c1.9,6.7,3,13.6,3.1,20.5c0.2,16-0.8,32-2.9,47.9
				c-0.1,0.7-0.3,1.4-0.4,2C152.6,545.2,150.7,534.6,150.5,523.8 M376.6,398.3c0.5,0.1,1,0.3,1.5,0.6c7.5,6.2,15.9,11.4,21.6,19.6
				c1.5,2.2,2.8,4.5,2.6,7.4c-0.1,0.9-0.1,2-0.9,2.4c-1,0.5-2.2,0.1-2.8-0.8c-2.7-4.1-6.6-6.9-9.9-10.4c-5.3-5.7-11.8-9.7-18.3-13.7
				c-3.7-2.4-7.6-4.6-11.6-6.5c-0.7-0.3-1.9-0.7-1.6-1.6c0.3-0.9,1.5-0.6,2.4-0.7c0.4,0,0.7,0.1,1,0.1c0,0.1,0,0.1,0,0.2
				C365.9,395.9,371.2,397.1,376.6,398.3 M286.5,237.9c2.1,0.5,2.5,1.9,3,3c3.9,8.5,4.5,17.6,3.9,26.6c-1,16-3.5,31.8-7.5,47.3
				c-0.6,2-1.4,4-2.2,6c-0.4,1.1-1.3,2-2.4,2.4C287.9,294.9,290.7,266.9,286.5,237.9 M125.3,646.5c-0.3-7.2-1.6-14.5-2.4-21.7
				c-0.3-2.5-0.9-4.9-0.1-7.4c0.2-0.7,0.4-1.5,1.2-1.4c0.4,0,0.9,0.5,1.2,1c0.9,1.3,1.6,2.8,1.8,4.4c2.3,13.8,5.6,27.5,5.6,41.6
				c0,6.7-2.3,12.9-3,19.4C128.2,670.4,125.8,658.6,125.3,646.5 M302,415.9c0.3,0.2,0.5,0.4,0.6,0.8c0.2,0.7-0.3,0.9-0.8,1.1
				c-0.7,0.2-1.4,0.4-2.1,0.5c-10.7,0.3-20.3,4.6-29.9,8.6c-5.6,2.3-10.8,5.4-16.2,8c-1.3,0.6-2.8,2-4.1-0.2
				c-1.1-1.9-0.4-3.2,1.2-4.6c4.1-3.5,9.1-5.4,13.9-7.7c3.4-1.6,6.8-3,10.2-4.4c7.7-3.3,15.9-3.1,25.1-2.6
				C299.9,415.3,301,415.5,302,415.9 M193.4,356.1c-2.6,11.1-5.4,22.1-7.6,33.3c-0.2,1.3,0,3.6-1.6,3.5c-1.4-0.1-0.9-2.3-0.9-3.6
				c0.1-17.6,1.9-34.8,9.9-50.8c1-2.1,2.2-4,3.4-6c0.2-0.4,0.8-0.6,1.9-1.4C196.8,339.8,195.3,348,193.4,356.1 M212.3,388.8
				c4.6-8.4,9.3-16.8,16.7-23.2c0.7-0.6,1.3-1.2,2-1.8c0.4-0.3,0.9-0.7,1.4-0.3c0.4,0.3,0.6,0.8,0.6,1.3c-0.4,1.5-0.9,3-1.5,4.5
				c-2.4,6-5.8,11.4-9.2,16.7c-4.7,7.3-8.2,15.3-13.9,22c-0.4,0.5-0.9,1-1.9,2C207.2,402.3,208.8,395.3,212.3,388.8 M183.6,671.4
				c-0.1-2,1.5-3.5,3-4.8c1.2-1.1,2.3-2.2,3.3-3.5c0.4-0.4,0.3-1-0.1-1.4c0,0,0,0,0,0c-0.3-0.1-0.7-0.1-1,0.1
				c-1.1,0.7-2.1,1.4-3.1,2.1c-0.5,0.3-1.1,1.1-1.7,0.2c-0.4-0.6-0.4-1.4,0.1-2c1-1,2-2,3.1-2.9c5-4,9.6-8.6,15.3-11.5
				c1.5-0.8,3.5-2.2,4.9-0.7c1.4,1.6-0.6,3.4-1.6,4.5c-8.5,9.9-15.1,21.1-22.7,31.6c-0.2,0.2-0.6,0.2-1.3,0.5
				C182.5,679.4,183.7,675.5,183.6,671.4 M267.7,327.9c1.6-6.5,1.5-13,1.7-19.5c0.1-4.6,0.1-9.2,0.2-13.8c0-1.4,0-3.3,1.6-3.6
				c2.1-0.3,3,1.5,3.4,3.4c0.7,3.1,1.4,6.3,1,9.5c-1.7,13.9-3.7,27.8-8.5,41c-1.4,3.5-3.2,6.8-5.4,9.9
				C263.7,345.8,265.6,336.8,267.7,327.9 M468.8,289.6c3.2,1.9,6,4.5,8.1,7.6c0.5,0.7,1.5,1.4,0.6,2.2c-0.8,0.7-1.6-0.3-2.3-0.8
				c-12.9-8.1-26.7-13.8-42.1-15c-4.8-0.4-9.5,0.5-14.3,1.2c-0.5,0.1-1.3,0-1.5-0.3c-0.5-0.9,0.4-1.1,1-1.4
				c5.6-2.8,11.9-3.9,18.1-3.2c1.4,0.2,2.8,0.3,5.5,0.6C451,280.6,460.1,284.6,468.8,289.6 M142.6,711c0.7-1.9,4.6-4.1-0.1-6.1
				c-0.6-0.2,0.2-1.3,0.4-1.9c3.9-11.3,9.5-21.8,18-30.3c0.6-0.6,1.3-1.2,2.1-1.7c1-0.7,2.2-1,2.7,0.2c0.8,1.8-0.7,1.4-1.7,1.4
				c-1.2,0.1-1.6,0.8-1,1.8c0.6,0.9,1.1,1.5-0.6,1.2c-1.3-0.3-2.5,0.8-1.7,1.6c2.5,2.3,0.6,3.5-0.6,5.2c-2.7,4-4.5,8.5-6.5,12.8
				c-0.7,1.6-0.9,3.5-3.1,4c-0.4,0.1-1.1,0.8-1.1,1c0.5,2.7,0.3,4.8-3.1,5.3c-0.4,0.2-0.7,0.6-0.5,1.1c0,0.1,0.1,0.2,0.1,0.2
				c2.1,2.2,0.2,4-0.5,5.8c-2.6,6.2-5,12.4-7.6,18.8C138.1,724.3,140.3,717.6,142.6,711 M178.1,404.5c-2.3-11.8-7-22.7-11.6-33.6
				c-1.7-4.1-4.5-7.6-6.9-11.3c-0.4-0.6-1.1-1.1-0.4-1.7c0.3-0.2,1,0,1.4,0.1c2.8,1.2,5.2,3.2,6.8,5.8c9,13.7,14.4,28.4,12.6,45.6
				C179,408,178.3,406.3,178.1,404.5 M211,386.6c-1,1.9-2.1,3.7-2.9,5.7c-0.9,2-1.5,2.8-3.6,0.7c-2.9-3.1-3.1-2.8-1-6.1
				c5.1-7.9,10.1-15.8,17.4-21.9c3-2.6,6.5-4.4,10.3-5.4C223.1,367.4,216.3,376.5,211,386.6 M324.4,449.7
				c-5.5,0.7-10.9,1.6-16.4,1.8c-18.8,0.4-37.5,2.8-55.8,7.1c-0.7,0.2-1.7,1-2.1-0.3c-0.1-0.3,0.9-1,1.4-1.4c0.3-0.2,0.6-0.4,1-0.4
				c8.6-1.2,16.8-5,25.4-5.5c11.9-0.6,23.5-3.3,35.5-3.1c3.9,0.1,7.8-0.3,11.7-0.4c0.6,0,1.5,0,1.5,1
				C326.2,449.5,325.2,449.6,324.4,449.7 M49.3,644.8c-0.8-0.1-2,0.2-2.1-1c-0.1-0.9,0.7-1.5,1.5-2c3.3-2.2,6.8-3.6,11-3.1
				c6.7,0.7,13.2,3,18.9,6.6c0.7,0.4,1.6,1.1,1.2,2.1c-0.3,0.8-1.2,0.6-1.9,0.5c-4.8-0.5-9.5-1-14.3-1.6c0,0,0,0.1,0,0.1
				C58.9,645.8,54.1,645.3,49.3,644.8 M488.8,264.6c-8.3,4.6-17.2,7.8-26.4,9.7c-4.9,1-9.8,1.8-14.6,2.9c-2,0.4-4.1,0.3-6-0.6
				c19.2-5.6,37.9-10,54.9-19.5C495,260.7,492,262.8,488.8,264.6 M238.8,468c6.1-5,13.5-7.1,20.9-8.4c15.2-2.8,30.4-5.5,46-5.3
				c3.7,0,7.3-0.6,11-0.9l0.2,1.2C290.6,457.5,264.1,459.1,238.8,468 M167.9,449.2c-2.7-8.3-6.4-16.2-11-23.5
				c-1.8-3.3-4.2-6.1-7.1-8.5c-0.5-0.4-1.2-1-0.7-1.7c0.5-0.5,1.1-0.8,1.8-0.8c2,0.2,3.8,1,5.2,2.4c2.8,2.4,4.4,5.5,5.9,8.7
				c5.5,11.9,8.9,24.5,10.2,37.5C170.8,458.6,169.4,453.9,167.9,449.2 M106.1,608.5c-2.2-4-4.1-8.2-7-11.9c-0.4-0.5-0.9-1.3-0.7-1.8
				c0.3-1,1.3-1,2.2-1c1.4,0.1,2.8,0.6,3.8,1.5c5.7,4.6,8.2,11,10.3,17.6c0.9,2.9-2,4.6-2.8,7.4
				C109.1,616.5,108.1,612.2,106.1,608.5 M135.6,679.4c-2.1-10.8,5.9-43.7,12.4-51.2C141.4,645,138.2,661.5,135.6,679.4
				 M274.1,445.6c13.6-5.2,27.5-5.2,41.6-3.4C301.9,443.2,288,444.5,274.1,445.6 M279.2,441.3c1.9-2.2,3.7-2.3,5.3-2.6
				c10-1.7,20.2-2.1,30.3-1.4c3.3,0.2,6.6,0.4,9.3,3.1C309.2,438.3,294,438.6,279.2,441.3 M82.6,660.7c0.3,0.6,0.5,1.3,0.6,2
				c0.1,0.7,0.2,1.5-0.5,1.9c-0.8,0.5-1.3-0.3-1.6-0.9c-2.6-4.2-6.2-7.3-10.1-10.2c-2-1.5-4.2-2.4-6.3-3.8
				C73.4,648.9,78.6,654,82.6,660.7 M147.2,903.4c-0.3-0.2-0.6-0.4-0.8-0.7c-3.4-5.8-7.6-11.1-9.7-17.6c-0.3-1-0.5-2-0.7-3.1
				c-0.1-0.5-0.3-1.1,0.3-1.4c0.6-0.3,0.9,0.3,1.1,0.8c0.9,1.7,1.8,3.4,2.6,5.2c2.3,5,5.8,9.3,7.7,14.5c0.2,0.7,0.5,1.3,0.7,1.9
				C148.1,903.6,147.7,903.7,147.2,903.4 M184.3,658.4c-0.4,0.4-1,0.4-1.4,0c-0.7-0.6-0.4-1.4,0.2-1.7c3.6-2.4,6.8-5.3,11.1-6.7
				C191.6,653.7,187.3,655.3,184.3,658.4 M84.4,655.2c-0.7,1.3-1.4,1.4-2.3,0.3c-0.6-0.8-1.2-1.7-1.8-2.6c-0.4-0.6-1.1-1.2-0.7-1.8
				c0.4-0.6,1.2-0.4,1.9-0.2C85,651.4,85.8,652.5,84.4,655.2 M152,923.2c0.3,0.3,0.7,0.9,0.3,1.3c-0.4,0.4-1,0.2-1.5-0.1
				c-2.1-1.3-3.6-3.3-4.3-5.6C149.3,920,150.6,921.7,152,923.2 M44.8,641.3c-1.2,0.9-2,2.6-3.9,2.1c-0.5-0.2-0.8-0.7-0.6-1.2
				c0,0,0,0,0-0.1c0.9-1.8,2.7-2.2,4.4-2.5c0.6-0.1,1,0.2,0.7,1C45.3,640.8,45,641.1,44.8,641.3 M130.9,696.5
				c0.1-0.6,0.4-1.5,1.3-1.2c0.8,0.3,0.6,1.1,0.5,1.7c-0.2,1.2-0.4,2.4-0.7,4C130.8,699.8,130.4,698.1,130.9,696.5 M325.1,398.1
				c0,0.1,0,0.3-0.1,0.4l-7.2-0.8l0.2-0.7L325.1,398.1 M204.2,362.1c0-0.3,0-0.6,0.1-0.9c0.1-0.3,0.2-0.6,0.3-0.8
				c0,0.3-0.1,0.6-0.1,1.1L204.2,362.1 M141.9,660.4c0,0.5-0.3,0.6-0.5,0.3c-0.1-0.3,0-0.7,0.1-1c0.1-0.3,0.3-0.7,0.4-1
				C141.9,659.4,141.9,659.9,141.9,660.4 M409.8,331.4c-0.5,0.1-1.1,0.1-1.3-0.4c-0.1-0.2,0.3-0.7,0.5-0.8c0.4-0.3,0.9-0.2,1.2,0.2
				c0.1,0.1,0.1,0.2,0.1,0.2c0.1,0.3,0,0.6-0.3,0.7C410,331.3,409.9,331.4,409.8,331.4 M299.4,356.1c-0.3,0.2-0.6,0.4-0.9,0.6
				c0-0.3-0.2-0.7,0-0.9c0.2-0.2,0.6-0.3,0.9-0.4C299.7,355.5,299.8,355.8,299.4,356.1 M136.8,685.6l-0.1-0.3l0.2,0L136.8,685.6z
				 M137.4,681.2c-0.2,0.3-0.4,0.2-0.4-0.3c0-0.1,0.1-0.2,0.2-0.4l0.2,0.2C137.5,680.9,137.5,681.1,137.4,681.2 M308.9,395.6
				c0-0.1,0-0.2,0-0.3c0.1,0,0.3,0,0.4,0c0,0,0,0.2,0,0.2C309.1,395.6,309,395.6,308.9,395.6 M388.6,428.8l0.5-0.1l-0.1,0.3
				L388.6,428.8z M364,331.8l-0.4-0.2l0.4-0.1L364,331.8z M230.5,378l0.2-0.7l0.1,0.4L230.5,378 M139.4,669.5l0.3,0.1l-0.3,0.3
				L139.4,669.5z"/>
			<path id="Tracé_45798" class="st0" d="M183.4,696.2c-0.7,3.1-3.1,4.9-5,7l0.1,0.1C179,700.2,180.2,697.5,183.4,696.2
				L183.4,696.2z"/>
			<path id="Tracé_45799" class="st0" d="M194.4,682.1c1.2-2.3,2.5-4.6,5.3-5.3l0.1-0.1C197.8,678.3,197.4,681.6,194.4,682.1
				L194.4,682.1z"/>
			<path id="Tracé_45800" class="st0" d="M233,645.8c-0.5,1.9-1.8,2.6-3.6,2.8l0.1,0.1C230.4,647.3,231.2,646,233,645.8L233,645.8z
				"/>
			<path id="Tracé_45801" class="st0" d="M188.7,690.9c-1.2,0.5-1.3,2.4-2.9,2.3l0.1,0.1C186.3,691.8,186.6,690.4,188.7,690.9
				L188.7,690.9z"/>
			<path id="Tracé_45802" class="st0" d="M185.9,693.2c0,1.5-1,2.7-2.5,3l0.1,0.1C183.8,694.9,184.4,693.7,185.9,693.2L185.9,693.2
				z"/>
			<path id="Tracé_45803" class="st0" d="M188.7,690.9C188.7,690.9,188.7,690.9,188.7,690.9C188.7,690.9,188.7,690.9,188.7,690.9"
				/>
			<path id="Tracé_45804" class="st0" d="M194.3,682.1l0.3,0.3c0,0-0.1-0.2-0.1-0.2C194.4,682.1,194.3,682.1,194.3,682.1"/>
			<path id="Tracé_45805" class="st0" d="M199.7,676.8l0.1-0.3c0,0,0,0.2,0,0.2S199.7,676.8,199.7,676.8"/>
			<path id="Tracé_45806" class="st0" d="M225.8,651.5l-0.1,0.2l0.2-0.1L225.8,651.5z"/>
			<path id="Tracé_45807" class="st0" d="M229.5,648.5c0,0.5-0.5,0.9-1,0.9c0,0-0.1,0-0.1,0l0.1,0.1c0-0.5,0.4-0.9,0.8-0.9
				C229.4,648.6,229.5,648.6,229.5,648.5L229.5,648.5z"/>
			<path id="Tracé_45808" class="st0" d="M228.4,649.4c-0.4,0.3-0.8,0.5-1.3,0.8c-0.6,0.4,0.1,0.1,0.1,0.1L228.4,649.4L228.4,649.4
				z"/>
			<path id="Tracé_45809" class="st0" d="M225.9,651.6c0.4-0.4,0.9-0.8,1.3-1.2c0.6-0.6-0.1-0.1-0.1-0.1c-0.4,0.4-0.9,0.8-1.3,1.2
				L225.9,651.6"/>
			<path id="Tracé_45810" class="st0" d="M312.9,366.4c0.7-1.3,2.1-2.1,3.6-1.9C315.8,365.8,314.3,366.5,312.9,366.4"/>
			<path id="Tracé_45811" class="st0" d="M310.6,367.2c0.6-1,1.5-0.9,2.4-0.9C312.4,367,311.5,367.3,310.6,367.2"/>
			<path id="Tracé_45812" class="st0" d="M122.6,466.8l-0.2,0c0,0,0.1-0.1,0.1-0.2C122.5,466.7,122.6,466.8,122.6,466.8"/>
			<path id="Tracé_45813" class="st0" d="M155.3,686.8c-1.3,2.2-2.5,4.7-4.6,6.6c-0.6,0.6-1.3-0.2-1.4-0.9c-0.2-2,2.2-6.3,4-7
				C154.2,685.1,155,685.4,155.3,686.8"/>
			<path id="Tracé_45814" class="st0" d="M158.2,681.3c-0.1,0.8-0.1,1.3-0.2,1.8c0,0.7-0.6,1.2-1.3,1.1c0,0-0.1,0-0.1,0
				c-0.8-0.1-1.3-0.8-1.2-1.6c0-0.1,0.1-0.3,0.1-0.4c0.5-0.9,1.1-1.7,1.8-2.4c0.3-0.4,0.5-1.1,1.1-0.8c1,0.4,0.3,1.1,0,1.6
				C158.3,680.9,158.2,681.2,158.2,681.3"/>
			<path id="Tracé_45815" class="st0" d="M148.3,697.8c-0.7-0.1-1.3-0.4-1.2-1.3c0.1-0.7,0.8-1.2,1.5-1.1c0.5,0,0.9,0.4,0.9,1
				c0,0,0,0,0,0.1C149.5,697.1,149,697.7,148.3,697.8C148.3,697.8,148.3,697.8,148.3,697.8"/>
			<path id="Tracé_45816" class="st0" d="M146.1,701.5c-0.4,0-0.8-0.3-0.8-0.7c0-0.1,0-0.2,0.1-0.3c0.1-0.3,0.3-0.6,0.6-0.7
				c0.5-0.1,1,0.2,1.1,0.6c0,0,0,0.1,0,0.1C147.1,701.2,146.6,701.4,146.1,701.5"/>
			<path id="Tracé_45817" class="st0" d="M157.8,634.1l0.2,0l-0.3,0.1L157.8,634.1"/>
			<path id="Tracé_45818" class="st0" d="M379.4,329.4l-0.1,1.2C378.4,330.1,378.3,329.7,379.4,329.4"/>
		</g>
	</g>
</g>
</svg>
