<?xml version="1.0" encoding="utf-8"?>
<!-- Generator: Adobe Illustrator 26.0.3, SVG Export Plug-In . SVG Version: 6.00 Build 0)  -->
<svg version="1.1" id="Calque_1" xmlns="http://www.w3.org/2000/svg" xmlns:xlink="http://www.w3.org/1999/xlink" x="0px" y="0px"
	 viewBox="0 0 544 700" style="enable-background:new 0 0 544 700;" xml:space="preserve">
<style type="text/css">
	.st0{fill:#CBBCAD;}
</style>
<g id="Groupe_3923" transform="matrix(-0.559, -0.829, 0.829, -0.559, 261.412, 800.008)">
	<g>
		<g id="Groupe_3922" transform="translate(0 0)">
			<path id="Tracé_45797" class="st0" d="M382.2,473c-0.1-0.7-0.7,0.1,0-0.2c0.2-0.1,0.2,0.2-0.1,0.1c0.5,0.8,1,1.6,1.5,2.4
				c3,5.9,6.1,11.7,9,17.6c5.3,10.7,9.7,21.7,11.6,33.6c0.4,2.3,0.7,4.6,0,6.9c-1.5,4.4-5.7,6.1-9.9,4c-2.2-1.2-4.1-3-5.3-5.2
				c-5.2-8.7-10.5-17.3-14.2-26.8c-1.5-3.7-2.8-7.6-6.1-11.8c0.4,2.4,0.5,3.5,0.7,4.7c2.3,11,3.8,22.1,4.3,33.3
				c0.6,10-0.3,19.9-4.9,29.1c-1,2.3-2.7,4.2-4.8,5.5c-2.4,1.4-3.4,1.2-4.7-1.3c-1.9-3.2-3.2-6.8-3.6-10.5
				c-0.9-10.8-0.6-21.6-0.5-32.5c0-3.8-0.2-7.5-0.3-11.5c-1.1,1.3-2.2,2.6-3.5,3.8c-2.8,2.5-4,2.2-6.5-0.8
				c-3.8-4.7-7.4-9.6-8.3-16.1c-1.4,1.5-1.2,3-1.5,4.3c-0.3,1.6-0.7,3.1-1.3,4.6c-1.8,3.9-3.9,4.1-6.7,0.9
				c-2.7-3.1-3.5-6.9-3.8-10.9c-1.4-13.8-2.1-27.7-3.6-41.5c-1.2-11-2.2-22-4.3-32.8c-1.6-8.2-3.1-16.5-5.7-24.4
				c-1.4-4.2-3.2-8.3-4.9-12.4c-0.2-0.4-0.7-1.1-1.1-1.1c-1.1,0.1-0.4,1-0.5,1.6c-0.4,1.4-0.6,2.8-1.1,4.1c-1.5,3.8-1.9,4-6.3,3.2
				c-0.3-0.1-0.8-0.3-1-0.2c-0.5,0.5-0.1,0.9,0.2,1.4c3,4.8,6.1,9.6,9.1,14.4c3.2,5,6.2,10,8.2,15.5c1.5,4.2,2.4,8.6,1.5,13.1
				c-0.7,3.5-3.2,5.1-6.7,4.1c-1.7-0.5-3.3-1.3-4.8-2.2c-3.7-2.2-6.5-5.5-9.5-8.5c-4.1-4.2-7.4-9.1-10.8-13.9
				c-0.5-0.7-1-1.9-1.9-1.3c-0.8,0.4-0.2,1.6,0,2.4c1.4,5.2,2.5,10.4,4.3,15.4c4.5,13.2,2.9,26.7,2.1,40.2c-0.2,3.3-2.5,4.5-5.7,3.7
				c-3.2-0.8-5.8-2.9-7.3-5.8c-3.6-6.3-7.3-12.6-9.3-19.7c-2.8-10.1-4.7-20.4-5.7-30.9c-0.1-0.7,0.4-2-0.9-2.1c-0.7,0-0.9,1-1.1,1.6
				c-2,4.8-4.3,9.4-7.1,13.7c-2.4,4.2-5.9,7.6-10.2,10c-4.4,2.4-9,0.6-10.9-4c-1.8-4.6-1.3-9.2,0-13.6c4.6-15.9,9.5-31.7,14.2-47.5
				c0.9-3,2.2-6,1.8-9.3l0.2,0.1c-0.1-0.1-0.1-0.1-0.1-0.2c-1.4,2.9-2.8,5.7-4.1,8.7c-1.6,3.2-4,6-7,7.9c-4,2.9-10.6,0.8-11.7-4
				c-0.8-3.6-1-7,0.3-10.4c3.3-8.3,6.2-16.7,10.2-24.6c5.4-10.5,8.3-21.5,10-33c0.3-1.8,0.6-3.7-0.2-5.2c-2.3-4-4.3-8.2-5.8-12.6
				c-1.1,6.4-2.1,12-3.2,17.5c-0.6,3.6-2.4,6.8-5.1,9.2c-3.8,3.3-8.3,2.4-10.8-1.8c-0.8-1.3-0.3-3.9-2.2-3.7
				c-1.5,0.1-1.5,2.5-2.3,3.9c-0.8,1.4-1.2,2.9-1.9,4.4c-4.9,11.2-11,21.5-19.7,30.2c-2.3,2.3-4.6,4.2-7.9,3.3
				c-3.6-1-3.9-4.2-4.3-7.3c-0.9-5.9-0.4-11.7,0.2-17.5c1.5-14.8,4.8-29,11.6-42.4c0.7-1,1-2.3,0.8-3.5l0.1,0.1
				c-0.9,0.6-1.7,1.2-2.5,1.9c-3.4,3.4-7.7,5.8-12.5,6.8c-5.2,1.3-8.8-1.5-9-6.7c-0.1-2.5,0.3-4.9,1.2-7.2c3-7.7,7.4-14.6,12-21.4
				c7.9-11.9,15.1-24.1,19.7-37.7c1.2-3.9,2.2-7.8,2.8-11.8c-1.4,1.3-2.6,2.8-3.6,4.4c-7.1,11.8-16.3,22.1-27.2,30.5
				c-4.2,3.2-8.5,6.5-14.1,7c-3.2,0.4-6.5-0.6-8.9-2.8c-1.7-1.4-2.3-3.7-1.5-5.7c1.7-5.3,4.5-10.1,8.4-14c6.5-7.1,13.8-13.4,19.8-21
				c1.3-1.7,1.7-2.7-0.8-3.3c-3.5-0.7-5.3-3.3-6.9-6.1c-3.3-5.8-3.4-11.9-1.4-18.1c3.5-10.8,6-22,10.8-32.4c0.3-0.6,0.7-1.3,0.1-1.9
				c-0.7-0.6-1.3,0.1-1.9,0.4c-1.8,0.8-3.7,1.6-5.7,0.9c-2-0.6-3.4,0.2-4.9,1.3c-5.7,4-11.7,7.4-18,10.4c-9.9,4.5-19.4,1.8-28.9-1.4
				c-0.6-0.3-1.2-0.7-1.8-1.1c-4.4-2.2-2.9-6.1,0.6-7.5c1.1-0.5,2.3-0.8,3.6-0.9c7.3,0,13.8-3.2,20.5-5.5c3.7-1.3,7.1-3.5,9.8-6.4
				c2.5-2.6,2.4-2.8-0.8-4.1c-5.4-2.1-7.4-5.5-5.6-10.9c1.1-3.1,2.5-5.7-1.3-8.1c-0.9-0.6-1.1-2.6-1.3-3.9c-0.5-3.2-0.5-6.4,0-9.6
				c1.2-7.4,3.6-14.5,6.9-21.2c2.8-5.6,5.8-11,8.6-16.6c2.1-4.1,2.1-4.2-2.2-5c-9.2-1.7-11.8-7.4-7-15.5c1-1.7,2.1-3.3,3.3-4.9
				c4.3-5.2,8.4-10.6,13.2-15.4c11.5-11.6,20.9-24.7,29.2-38.7c4-6.6,6.8-13.8,8.3-21.3c2.6-13.4,4.5-27,7.1-40.4
				c3-15,6.3-29.9,11.5-44.4c3.2-8.8,11.7-11.9,18.8-12.5c1.7-0.2,2.6,0.8,2.7,2.5c0.1,1.5,0,3.1-1.1,4c-2.8,2.7-3.8,6.4-5.4,9.7
				c-9.8,20.7-17.3,42-20.7,64.8c-1.5,9.8-0.4,19,1.9,28.4c2,8.2,5.8,15.6,9.1,23.3c6.4,15,16.7,27.3,28,38.6
				C266.1,50,279.7,60,294.6,67.8c6.7,3.6,11.2,9.2,14.7,15.8c2.1,3.9,0.4,6.7-4.1,6.8c-1.2,0-2.5-0.2-3.7-0.5
				c-3.1-0.9-6-2.1-8.8-3.7c-4.7-2.5-8.7-6.1-13.6-8.2c0-0.5-0.5-0.9-1-0.9c-0.1,0-0.1,0-0.2,0l-0.2-0.2l0.3,0.1
				c0.1,0.7,0.4,1,1.1,0.9c2.5,4.3,6.1,7.7,9.5,11.3c7.2,7.4,13.5,15.5,19,24.3c1.4,2.1,1.5,4.8,0.2,6.9c-1.4,2.5-3.9,2.9-6.5,2.2
				c-0.8-0.2-1.6-0.9-2.8-0.3c1,1.2,2.1,2.3,3.3,3.4c6.8,5.7,12.3,12.8,18.2,19.3c2.9,3.1,4.8,7.1,5.3,11.4c0.8,6.1-3.5,9.5-9,7.3
				c-1.8-0.7-3.6-1.6-5.3-2.5c-9.9-5.1-18.3-12.1-26.1-19.9c-1.8-1.8-3.3-4.2-5.9-5.2l-0.1-0.2l0.2,0.1c0.3,2.1,2,3.3,3.1,4.9
				c1.8,2.6,3.7,5.2,5.7,7.7c1.6,2.1,2.5,4.5,1.7,7c-0.8,2.5,0.4,3.2,2.3,3.8c7.8,2.5,14.4,7,20.5,12.2c6.5,5.5,11.5,12.2,13.6,20.6
				c1.3,5.2-0.1,7.2-5.2,8.6c-1.6,0.4-3.2,0.5-4.8,0.4c-3.2-0.3-6.3-1-9.3-2.2c-2.3-0.9-4.6-1.8-7-2.6c-1.3-0.4-2.2-0.2-1.4,1.5
				c0.3,0.7,0.5,1.3,0.8,2c1.9,4.9,2.1,9.4-3.3,12.4c-1,0.6-1.1,1.3-0.3,2.1c0.6,0.6,1.3,1.2,2,1.8c9.4,6.8,16,16.1,22.6,25.3
				c3.4,4.8,7.1,9.5,7.6,15.6c0.1,1.5,1.3,2,2.4,2.5c3.5,1.7,7.1,3.3,10.6,5.1c5,2.6,10,5.3,14.3,9.2c5,4.5,5,11-3.3,13.7
				c-1,0.4-2,0.6-3.1,0.7c-7.8,0.5-15.3,0-22-4.7c-0.9-0.6-1.8-1.1-2.8-1.5c-0.9-0.4-2.1-1-2.9,0.2c-0.7,1.1-0.4,2.5,0.7,3.3
				c0,0,0,0,0.1,0c1.6,1.4,3.5,2.5,5.5,3.3c8.1,3.2,15.7,7.6,22.5,13.2c3.9,3.3,8.3,6.1,11.3,10.5c3.5,5.2,2.6,7.1-3.4,8.3
				c-7.1,1.4-13.8-0.2-20.4-2.4c-11.2-3.7-21.4-9.7-31.6-15.4c-2.5-1.4-2.6-1.3-2.5,1.5c0.1,2.3,0.7,5-2.6,5.4
				c-3.2,0.4-2.5,1.6-1.1,3.3c6.3,7.1,14.3,11.9,23,15.1c13.4,5,27.6,7,41.8,7.8c10.3,0.6,20.5,1.1,30.6,3.5
				c6.9,1.7,12.3,5.4,17,10.5c2.9,3.1,2.3,7.9-1.7,9.2c-6.1,1.9-11.9,4.9-18.5,4.7c-5.9-0.1-11.7-0.1-17.6-0.2
				c-0.7,0-1.6-0.2-1.7,0.6c-0.2,0.8,0.8,1.1,1.3,1.4c1.3,0.6,2.6,1.2,3.9,1.8c2.5,1.1,4.7,2.7,6.4,4.7c2.4,2.3,3.1,5.9,1.7,8.9
				c-1.3,3.1-3.6,4.8-7.1,4.5c-1-0.1-2.1,0.3-3.2,0.2c-5.1-0.2-10.4,1-15.4-0.4c-10.5-2.9-20.5-7.3-29.8-12.9
				c-3.2-2-6.2-3.9-10.1-4.6c-2.8-0.5-5.2-2.1-7.6-3.8c-4.6-3.4-8.9-7.2-12.8-11.3c-1.2-1.2-2.2-2.6-4-3.2c-0.4,1.6,0.6,2.3,1.2,3.1
				c3.8,5.4,7.7,10.6,11.5,16c3.3,4.6,7.3,8.7,11.9,12.2c2.4,1.9,4.8,3.7,7,5.8c1.7,1.6,3.7,2.8,5.9,3.5c23,8.7,46.6,11.2,70.8,5.9
				c4.5-0.9,9-2.3,13.3-4c13.3-5.5,25.6-13,37.9-20.6c4.3-2.5,8.8-4.7,13.4-6.6c4.7-2,10.8-1,13.4,2.4c3,3.9,1.9,8.1-0.3,12
				c-2.1,4.1-5.1,7.7-8.8,10.6c-3.4,2.6-6.5,5.5-9.8,8.2c-1.7,1.3-2.5,2.4-1.3,4.8c1.8,3.5,0.6,7.3-2.7,9.9c-2.3,2-5,3.5-7.9,4.4
				c-4.3,1.3-8.4,3-12.8,3.8c-7.3,1.5-14.5,3.7-22.1,3.6c-3.6-0.1-7.1,0.1-10.7,0.1c0,0,0.1,0,0.1,0c3.3,1.8,7,2.4,10.5,3.1
				c13.2,2.5,24.6,8.8,35.3,16.6c3,2.2,5.5,5.1,7.2,8.4c1.9,3.8,0.6,6.5-3.6,7.6c-2.9,0.7-6,0.9-9,0.5c-4.1-0.4-8.1-0.6-12.2-0.4
				c-0.1-0.1-0.2-0.3-0.4-0.4c-16.3-3.2-30.9-10.9-46-17.2c-0.9-0.5-2-0.7-3.1-0.4c-0.2-0.5-0.7-0.8-1.2-0.8l-0.1-0.3
				c0,0,0,0.2,0,0.2c0.5,0.3,0.9,0.5,1.4,0.8c7.7,6.2,16.6,9.8,25.9,12.8c6.2,2.1,12.5,3.8,18.9,5c1.5,0.3,3.1,1,4.6,0.2
				c3.9,2.7,8.4,2.6,12.8,2.9c11.7,0.6,23.4,0.5,35.1-0.5c6.2-0.4,12.2,0.4,16.5,5.6c1.4,1.7,2.6,1.3,4.2,0.7
				c4.8-1.8,9.3-4.4,13.3-7.7c2.1-1.9,4.6-3.4,7.3-4.3c5.8-1.8,9.9,1.4,9.5,7.5c-0.2,3.4-1.4,6.7-3.4,9.4c-2.5,3.5-2.5,3.5,1.5,4.1
				c4.4,0.5,7.9,4.1,8.2,8.5c0.1,1.1,0.1,2.1-0.1,3.2c-0.4,2.1,0.4,2.5,2.3,2.1c1.9-0.4,3.9-0.7,5.8-0.9c3.2-0.4,6.5,0.3,9.2,1.9
				c4.2,2.6,4.9,5.1,2.2,9.3c-2.9,4.5-6.9,8.2-11.7,10.6c-4.3,2.3-8.7,4.3-13.2,6c2,1.8,4.1,1.8,5.9,2.2
				c10.4,2.3,20.5,6.1,29.8,11.3c4.9,2.7,9.1,6.3,11.4,11.5c1.9,4.2,0.6,7.1-3.9,7.9c-4.3,0.8-8.7,1.4-13-0.1
				c-8.4-2.9-16.2-7.4-24.9-9.2c-0.8-0.2-1.7-1.2-2.4-0.5c-0.8,0.8,0.3,1.5,0.7,2.3c2.3,5.2,1,7.3-4.5,7.7c-2,0.2-3.9,0.1-5.8-0.5
				c-4.6-1.5-9.1-3-13.1-5.8c-1.8-1.3-3.6-3-6.1-2.9c0.1-0.4-0.1-0.6-0.4-0.5c0,0.1,0,0.2,0.1,0.3c0.3,0.6-0.2-0.3,0.5,0
				c0.1,1.7,1.2,2.9,2,4.3c3.6,6,7,12,8.7,18.8c1.7,6.5,3.2,13.1,4.6,19.7c1.1,4.9,0.7,10-1.1,14.7c-1.5,4.1-4.5,4.9-7.8,2.1
				c-1.3-1.2-2.3-2.7-2.9-4.4c-1.4-4.2-2.5-8.5-3.2-12.9c-3.4-19.7-13.4-37.6-28.5-50.6c-11.6-10.3-24.6-18.8-37.7-27
				c-3.5-2.2-7.1-4.5-11.1-5.9c-0.3,0.5-0.2,1.3,0.3,1.6c7.2,7.4,13,16,19.6,23.9c9.2,11.3,17.2,23.6,23.6,36.7
				c1.3,2.5,2.2,5.3,2.7,8.1c0.7,4.2-0.9,5.7-5,4.8c-1.9-0.4-3.7-1.2-5.3-2.5c-8.7-6.9-16.6-14.5-22.2-24.3
				c-0.6-1.1-1.1-2.5-2.8-2.8c0.2,0.8,0.2,1.3,0.4,1.8c2.9,10.1,5.2,20.3,7,30.7c0.8,3.7,0.4,7.5-1.1,11c-1.7,3.8-3.9,4.5-7.7,2.5
				c-6.3-3.2-9.9-8.8-12-15.1c-3.9-11.6-7.9-23.2-10.8-35.2c-1.6-6.6-3.1-13.2-5.3-19.6c-4.9-14.5-12.7-27.4-21.3-39.9
				c-2-3-3.5-6.6-7-8.4C383.6,474.3,382.6,473.9,382.2,473 M331.2,345.9c-1.8-0.3-2.9-2.5-5.1-2.1l0.1-0.2l-0.2,0.1
				c1.8,0.6,2.8,3,5.1,2.1l1.5,1.2c-0.2,0.7-0.1,1.2,0.8,1.2c0,0.5,0.4,0.9,0.9,1c0.1,0,0.2,0,0.3,0c0,0.8,0.5,1,1.2,1
				c0.2,0.3,0.2,0.7,0.5,0.8c0.5,0.3,1.1,1.1,1.6,0.4c0.4-0.6-0.6-1-1.2-1.2c-0.3,0-0.6,0-0.9,0.1c0-0.8-0.5-1-1.2-1
				c-0.1-0.6-0.6-1-1.1-0.9c0,0,0,0-0.1,0l-0.8-1.3C332,346.9,331.4,346.5,331.2,345.9 M326.8,406.9l-0.1,0.2
				c0.5,0.3,1.1,0.6,1.6,0.9c0.4,0.3,0.9,0.5,1.3,0.8c0,0.9-0.3,1.9,1,2.1c2.6,6.1,7,11.1,10.6,16.5c9.7,14.3,17.8,29.5,25.3,45
				c4.7,9.7,9.9,19.2,15.1,28.7c3.5,6.4,6.3,13.1,9.2,19.8c0.8,2,1.9,3.9,3.3,5.5c1-1.7,0.1-2.9-0.4-4.1c-0.3-0.8-1.1-2-0.1-2.3
				c1.4-0.5,1.5,1,1.8,1.9c0.6,1.7,1.2,3.3,1.8,5c0.7,2.1,0.9,6,3,5.5c2.6-0.7,1.9-4.3,1.6-7c-1.1-8.2-4.3-15.8-7.5-23.3
				c-5.3-12.2-11.6-24-18.8-35.2c-5.8-9.2-12-18-18.7-26.5c-1.2-1.5-2.1-3.3-4.1-3.9c0.1-0.9-0.4-1.8-1.3-2.2
				c-0.3-0.8-0.6-1.5-1-2.2l-0.2,0.2l0.3-0.1c-0.2,0.8,0.2,1.7,1,2.1c0.3,0.8,0.2,1.9,1.2,2.3c3.3,6.9,7.9,13,11.9,19.5
				c6.4,10.6,11.9,21.8,17.4,32.9c1.3,2.7,2.6,5.4,3.9,8.2c0.8,1.4,1,3,0.6,4.5c-3.4-3.5-4.5-7.9-6.4-11.8
				c-8.6-17.5-18-34.6-28.4-51.1c-5.5-8.7-11.9-16.8-17.9-25.1c-0.8-1.1-1.6-2.4-3.2-2.6l-1-2.2l-1.3-0.8l-1.4-0.9L326.8,406.9z
				 M178.9,281.3c-0.2,0.1-0.3,0.1-0.5,0.2c0.1,0.4,0.3,0.3,0.4-0.2c0.6,0,1-0.5,1-1c0,0,0-0.1,0-0.1c0.5,0,1-0.5,1-1
				c0-0.1,0-0.1,0-0.2c5-4.4,8.8-10,11.2-16.2c1.6-1.3,3.5-2.3,2.4-4.9l0.3,0.3l-0.2-0.2c-1.2,1.4-3,2.5-2.5,4.8
				c-5.1,4.3-8.9,10-11.1,16.3c-0.8,0-1.1,0.4-1,1.2C179,280.1,178.8,280.6,178.9,281.3 M206.7,265c-0.4,2.1-2.6,3.5-2.2,5.8
				c-3.7,3.4-4.7,8.3-6.6,12.5c-4.3,9.1-8.6,18.2-11.4,27.9c-0.4,1.5-1.1,3-0.6,4.6c-1,0.5-0.8,1.4-0.8,2.3
				c-0.6,1.1-0.8,2.5-0.3,3.7c-1.2,0.5-1.1,1.6-1.3,2.6l-0.1,0.4c0-0.2,0-0.3,0-0.5c1-0.6,0.9-1.7,1.3-2.5c0.1-1.3,0.2-2.5,0.2-3.8
				c1.2-0.4,0.9-1.4,0.9-2.3c1.3-1.9,2.3-4,2.9-6.2c3.5-10.8,8.3-21.1,13.4-31.3c1.2-2.4,2.6-4.7,2.6-7.5c2-1.5,3.1-3.4,2-5.9l1.8-1
				l-0.1-0.1l0,0.2C207.8,264.4,207.2,264.7,206.7,265 M303.9,255.6l0.3,0c0.1,0.6,0.6,1,1.1,1.1c0.8,1.7,2.5,2.4,3.9,3.4
				c11.5,8.1,23.4,15.3,37.3,18.5c0.5,0.1,1,0.3,1.5,0.4c1.9,0.5,4.2,1.2,5.3-0.9c1-2-1.4-3-2.6-4c-2.4-2.1-5.2-3.7-8.2-4.8
				c-4.9-1.7-9.5-3.8-14-6.4c-2.7-1.7-5.7-2.8-8.9-3.4c-4.7-0.6-8.2-3.9-12.6-5.2c-1.4-2-2.9-3.9-5.8-3.7c-1.2-1.6-2.6-2.7-4.7-2.4
				c-0.2-0.8-0.8-1-1.4-1c-0.3-0.6-0.3-0.7,0.1,0l1.4,0.9c1.5,0.9,2.7,2.4,4.7,2.5c1.2,2.4,3.5,3.1,5.8,3.7c0.2,0.4,0.5,0.8,0.7,1.2
				s0.7,1,0.6,1.2c-0.4,0.8-1.1,0.4-1.7,0.3c-0.5-0.1-1-0.2-1.5-0.3l-1.2-1.3L303.9,255.6z M199.8,269.3c-0.3,0.5-0.5,0.9-0.8,1.4
				c-0.3,0.7,0.6,0.2-0.1,0.3l0.1-0.4c-0.9-0.9-0.4-1.3,0.6-1.3l1.6-1.3l-0.2,0l0.1,0.2C200.8,268.4,200.3,268.8,199.8,269.3
				 M305.7,260.9c0.2,1.8,1.5,2.7,2.6,3.9c3,3.3,6.4,6.1,9.3,9.5c2.7,3.2,7.3,4.3,11,6.3c5.5,2.9,11.5,3.5,17.5,4.4
				c2.9,0.6,6-0.6,7.6-3.1c-16.6-1.7-30.3-9.6-43.6-18.4c-1.5-1-2.6-2.5-4.6-2.5l-1.1-1.2c0-0.1-0.1-0.1-0.1-0.2l0.2,0
				C304.6,260.4,304.8,260.9,305.7,260.9 M195.1,271.9c-0.6,0.2-1,0.7-1,1.3c-1.3,0.9-2.3,2.1-3.1,3.5c-3.1,4.9-5.4,10.4-9.8,14.4
				c-0.3,0.3-0.8,0.8-0.2,1.2c0.3,0.1,0.7,0.1,1,0c3.3-1.5,5.6-4.3,8-6.8c-1-4.9,3.8-7.9,4-12.3l1-1.3L195.1,271.9 M419.8,491.1
				c-0.1,0-0.1,0.1-0.2,0.1l0.7,0c0,0,0.2,0.2,0.2,0.2l-0.3-0.1C420.1,491.2,419.9,491.2,419.8,491.1 M426.5,493.9l-0.1,0.2
				c0.6,0.2,1.3,0.4,1.9,0.6c0.1,0.5,0,0.4-0.1,0l-1.8-0.5L426.5,493.9z M395.6,479.3c0-0.3,0-0.7,0-1c-0.1-0.5-0.6-1.1-1-0.8
				c-0.5,0.4,0.3,0.6,0.5,1C395.3,478.7,395.5,479,395.6,479.3l1.6,0.8c0.5,0.2,1,0.4,1.6,0.6c0,0.5,0.1,0.9,0.3,1.3
				c0.2,0.4,0.6,0.3,0.4-0.1c-0.2-0.4-0.5-0.8-0.8-1.2l-1.5-0.5C396.8,479.7,396.2,479.3,395.6,479.3 M520.6,529.8
				c0,0,0.1-0.2,0.1-0.3l0.1,0.3c0.4,0.4,0.9,0.8,1.3,1.3c0.4-0.6-0.5-0.5,0.1-0.2c0,0,0,0.1-0.1,0.2l-0.1-0.2
				c-0.4-0.4-0.8-0.8-1.2-1.2C520.2,530,521.1,530.4,520.6,529.8 M355.5,415.8c-1.2-2-3.3-3.4-5.6-3.8c-1.7-3.5-4.9-4.6-8.3-5.5
				l0.1-0.2l-0.2,0.1c3.1,1.3,4.7,5.2,8.5,5.5C351.5,413.7,353.4,415,355.5,415.8l1.5,0.9c0,0,0.2,0.2,0.2,0.2l-0.2-0.1
				C356.7,416.3,356.2,415.9,355.5,415.8 M386.4,450.9l0.2-0.1c0.4,0.4,0.9,0.8,1.3,1.2c0,0.7,0.5,0.9,1,1.1c0.4,0.3,0.8,0.6,1.2,1
				c15.7,11.1,32.6,19.3,51.8,22.1c3,0.4,5.9,1.4,8.8,1.8c5.2,0.9,10.6,1.3,15.9,1.2l0.4-0.3c0.2,0.3,0,0.4-0.5,0.2
				c-7.1-2.2-14.6-2.8-21.8-4.8c-4.3-1.2-8.5-2.5-12.7-4c-13.9-4.9-27.8-9.5-41-16.1c-0.3-0.1-0.7,0-1,0c-0.2-0.6-0.5-1-1.2-1
				c-0.1-0.5-0.5-1-1-1.1l-1.4-1.4L386.4,450.9z M395.1,453.2c0.1-0.4,0.2-0.4,0.3,0c0.6,0.1,1.1,0.5,1.3,1.1c0.1,0,0.2,0,0.3,0
				c0,0.4-0.2,0.4-0.3,0.1c-0.9,0-1-0.7-1.2-1.3L395.1,453.2 M245.4,143.7l-0.2,0.1c0.6,0.3,1.2,0.6,1.8,0.9
				c0.3,1.3,1.1,2.4,2.1,3.2c4.4,5.9,9.6,10.9,14.9,15.9c9.2,8.9,19.3,16.7,30.2,23.4c6,3.6,12.8,5.4,19,8.3c1.5,0.6,3,1,4.6,1.1
				c1.5,0.1,3.7,0.7,4.2-1.2c0.6-2.4-2-2-3.2-2.4c-4.9-1.8-9.3-4.4-13.9-6.7c-13.5-6.9-25.9-15.4-38-24.5
				c-4.5-3.4-8.8-7.1-13.2-10.8c-1.4-1.2-2.4-3.2-4.8-2.9c0.3-1.7-1.2-2.3-2.1-3.2l-1.6-0.9L245.4,143.7z M275.7,154.4
				c-1.3-1.1-2.6-2.4-4.5-2.6l-1.1-1.3c-0.8-0.1-1.6-0.1-2.4-0.2l-1.2-1.4l-0.1,0l0.2,0.1c0.4,0.4,0.8,0.8,1.3,1.2
				c0.7,0.7,1.6,0.2,2.4,0.2c0.1,0.6,0.3,1.2,1.1,1.4c0.8,2.1,2.4,2.7,4.5,2.6l1.1,1.4c0.1,0.1,0.1,0.2,0.2,0.3l-0.3-0.1
				C276.7,155.2,276.3,154.7,275.7,154.4 M280.1,157.2l0.1,0.1c0,0,0.3,0,0.3,0l-0.2,0L280.1,157.2z M280.7,74.4
				C280.8,74.4,280.8,74.3,280.7,74.4l1.4,1.1c0.4,0.3,0.7,0.7,1.1,1c4.9,3.1,9.7,6.5,15,9c1.1,0.5,2.3,0.9,3.5,1.2
				c0.4,0.2,0.9,0,1.1-0.4c0-0.1,0-0.1,0.1-0.2c0-0.3-0.3-0.6-0.5-0.9c-0.1-0.1-0.3-0.2-0.4-0.3c-6.2-2.8-11.9-6.8-18.7-8.3
				c-0.7,0-0.9-0.5-1.1-1C281.3,75.6,281,75,280.7,74.4 M280.6,111.8c-0.3,0.1-0.2,0.2,0.3,0.3c0.1,0.6,0.4,1,1.1,1
				c0.6,2.6,3,3.9,4.7,5.6c7.3,7.2,14.7,14.3,22.2,21.3c0.9,0.9,1.8,2.4,3.5,1.6c-0.4,1.2,0.4,2,1,2.8l0.1-0.2l-0.2,0.1
				c0-0.9-0.3-1.8-0.9-2.6c-8.2-10.5-18.6-19-28.4-27.9c-0.5-0.5-1.2-0.8-1.9-0.7c-0.1-0.5-0.5-0.9-1-0.8c-0.1,0-0.1,0-0.2,0
				C280.7,112,280.6,111.9,280.6,111.8 M183.1,233.5c-0.1,0.1-0.1,0.1-0.2,0.2l0.1-0.3l1.2-1l1-1.4c0.5-0.1,0.8-0.5,0.8-1l1-1.3
				c0.6-0.1,1-0.6,1-1.2c6.8-7.7,12.5-16.3,16.9-25.6c2-4.4,2.1-9.3,2-14.1c-2.3,6.9-5,13.7-8,20.4c-2.7,5.8-6.8,10.8-9.7,16.5
				c-0.5,0.9-1.3,1.7-1.1,2.9c-0.7,0.1-1,0.5-1,1.2l-1,1.3c-0.5,0-0.8,0.4-0.8,0.8c0,0.1,0,0.1,0,0.2l-1.1,1.5
				C183.9,232.9,183.5,233.2,183.1,233.5 M276,229.5c0,0,0.2,0,0.3,0.1l-0.2,0.1c0.6-0.3-0.3-0.5,0.3-0.2c0.3,0.2,0.1,0.4-0.2,0.2
				C275.8,229.1,275.6,230.1,276,229.5 M275.3,232.9c0.3-0.2,0.4-0.2,0.2,0.2c0.6-0.4-0.4-0.5,0.3-0.2c0.3,0.2,0.2,0.4-0.2,0.2
				L275.3,232.9 M260.9,218.3l0.2,0.1c0-0.1,0-0.1,0-0.1L260.9,218.3z M265,222.4l0.1-0.2c-0.6-0.1-1.1-0.2-1.7-0.3l0.1-0.4
				l-0.1,0.2c0.5,0.1,1.1,0.2,1.6,0.4L265,222.4z M186.4,263.3c-0.4,0.8-0.5,1.7-0.2,2.5l-0.3-0.1l0.2,0.2
				C186.2,265,186.2,264.1,186.4,263.3c-0.3-0.8-0.1-1.3,0.7-1.4c0.5-0.3,1.1-0.5,1.3-1.2c3.1-1.4,4.1-4.7,6-7.1
				c4.2-5.3,7.2-11.4,8.7-17.9c-3.8,6.2-7.7,12.4-11.3,18.7c-1.2,2.1-3.5,3.7-3.3,6.5l-1.2,1.2C186.9,262.4,186.6,262.8,186.4,263.3
				 M281.4,238.7c0.3,0.2,0.2,0.2-0.1,0.1c0.6,0.3,1.2,0.6,1.8,1c0.4,0.3,0.8,0.7,1.1,1c0,0,0.2,0.2,0.2,0.2l-0.2-0.1l-1.1-1
				c-0.6-0.1-1.2-0.4-1.6-0.9C281.4,238.8,281.4,238.8,281.4,238.7 M229.6-120.4c0.1,0.4,0,0.5-0.4,0.3c0.7,0,0-0.6,0.3,0
				c0.1,0.2-0.2,0.2-0.2-0.1C229.4-120.3,229.5-120.3,229.6-120.4 M233.6-123.7c2.1-0.3,3.5-1.2,3.6-3.5l1.3-1.3
				c0,0,0.2-0.2,0.2-0.2l-0.1,0.3l-1.3,1.3c-1.8,0.6-3.3,1.4-3.6,3.5l-1,1.5c-0.7,0-0.1,0.6-0.3,0c-0.1-0.2,0.2-0.2,0.1,0.1
				C232.9-122.6,233.3-123.1,233.6-123.7 M288.1,241.2c0.2-0.1,0.2,0.2-0.1,0.1c0.5,0.3,1.1,0.7,1.6,1.1c0.3,0.4,0.6,0.7,1,1.1
				c0,0,0.3,0.2,0.3,0.2l-0.3,0c-0.2-0.5-0.2-1.1-1-1.2c-0.7,0.1-1.3-0.4-1.5-1C288.1,240.7,287.5,241.5,288.1,241.2 M306.6,171.5
				c-1.1-0.7-2-1.9-3.6-1.3l-1-1.4c-1-0.8-2.2-1.3-3.4-1.5l-1.1-1.4c-0.8-0.1-1.7-0.1-2.5-0.2c0-0.6-0.4-1.2-1-1.4
				c-0.7-0.7-1.5-0.4-2.3-0.3l-1.2-1.5c-0.7-0.4-1.6-0.5-2.4-0.4l0-0.3L288,162c0.8,0.1,1.7,0.2,2.5,0.4l1.2,1.5
				c0.8,0.1,1.6,0.2,2.4,0.3c0.1,0.6,0.5,1.1,1,1.4c0.8,0.4,1.7,0.5,2.5,0.2c0,0.7,0.5,1.2,1.1,1.4c1,0.9,1.9,1.8,3.4,1.4
				c0.1,0.6,0.5,1.2,1,1.5c1,0.9,2.1,1.8,3.6,1.3c-0.1,0.6,0.3,1.1,0.9,1.2c0.1,0,0.1,0,0.2,0c0.2,0.5,0.7,0.9,1.2,0.9
				c0.3,0.4,0.6,0.9,0.9,1.3c0.5,0.2,1,0.4,1.5,0.6c0.3,0.4,0.6,0.8,0.9,1.2c0.5,0.2,1,0.4,1.4,0.6c0,0,0.1,0.3,0.1,0.3l-0.2-0.2
				l-1.4-0.6l-1-1.3c-0.6,0.3-1.2,0.4-1.5-0.5c-0.2-0.5-0.2-1.2-0.9-1.4c-0.2-0.5-0.7-0.9-1.2-0.9
				C307.6,172.1,307.2,171.6,306.6,171.5 M249,203.9l-0.1-0.2c0,0-0.3,0-0.3,0l0.2,0L249,203.9z M257.5,214.7l-0.3,0
				c-0.3-0.8-0.5-1.5-0.8-2.3l-1.5-0.8c-0.3-1.3-1.3-2.1-2.2-3.1l-0.2,0l0.3,0c0,1.3,0.9,2.5,2.2,3c0.3,0.5,0.9,0.9,1.5,0.9
				c0.2,0.8,0,1.7,0.8,2.3L257.5,214.7z M240.8,201.2c0-0.1,0-0.2,0-0.2l0.1,0.2c0.4,0.7,0.5,1.8,1.4,2.2c0.2,0.8,0.3,1.7,1.2,2.1
				c0.4,0.6,0.9,1.2,1.3,1.7l0.1,0.2l-0.1-0.2c-0.5-0.5-1-1.1-1.5-1.7c0-0.9-0.5-1.6-1.2-2.1l-1.4-2.5L240.8,201.2 M279.2,272.4
				c0.1,1.4,1.1,2.4,1.9,3.4l0.2-0.1l-0.3,0.1C281.7,273.8,279.9,273.4,279.2,272.4l-1.8-0.7c0-0.9,0.1-1.8-0.9-2.3
				c-1.9-3.8-4.3-7.3-7.1-10.5c-6.4-7.4-11.5-15.7-17.7-23.2c-0.9-1.1-1.3-2.5-3-2.8c0.1-0.9-0.4-1.8-1.2-2.1
				c-0.2-1.6-1.2-3.1-2.6-3.9c-1-4.4-4.1-7.6-6.5-11.3c-1.3-4.2-3.5-8.2-6.3-11.6c1.2,4.3,2.8,8.4,6.4,11.5c0.8,4.4,3,8.4,6.4,11.3
				c0.1,1.8,0.5,3.4,2.6,3.9c0,1-0.1,1.9,1.2,2.1c0,1.4,0.5,2.8,1.5,3.8c7.7,9.8,14.3,20.5,22.7,29.8c1,1.1,1.9,2.6,3.5,2.9
				c0,0.9,0.3,1.7,0.9,2.4L279.2,272.4 M249.3,82c0.1,0.1,0.1,0.2,0.2,0.3c0.3,0.6-0.1-0.3-0.2,0.4c0.5,0.5,1.1,1,1.6,1.5
				c0.7,3.2,3.2,5.4,4.4,8.3c0.4,1,1.2,1.7,1.1,2.9l0.1-0.1c-0.8-0.2-1.6-0.4-2.4-0.6l-0.5-0.7c0,0.1,0,0.3,0.1,0.4
				c0.1,0.1,0.3,0.2,0.5,0.2c-0.1,1.5,0.8,2.7,1.4,3.9c10.3,18.4,23.8,34.8,39.8,48.5c4.9,4.2,10.9,6.9,17.1,8.8l-0.1,0.3l0-0.2
				c-0.2-1.2-1.6-1.7-1.4-3l0,0c2.8-0.5,4.4,2.2,7.4,2.6c-1-2.2-2.5-4.2-4.3-5.9c-10.3-10.1-20.5-20.2-30.8-30.2
				c-7.9-7.7-14.9-16.3-22.4-24.3c-3.4-3.6-6.2-7.6-10.1-10.7c-0.1-0.9-0.8-1.2-1.4-1.6C249,82.5,249,82.2,249.3,82 M215.6-78
				c2.5-0.7,2.1-3.3,3.3-4.9c0.1-0.3,0.1-0.6,0.2-0.9c-0.7,0.3-0.1,0.7-0.1,1C216.1-82.4,217-79.4,215.6-78l-0.1,2.9l-0.3,0l0.2,0.1
				C215.8-76,215.8-77,215.6-78 M235,126.4l0.4-0.2c-0.3,0.9-0.1,1.9,0.7,2.5l1.5,0.9c2.8,5.9,7.3,10.5,11.8,14.9
				c13.5,13.2,29,23.9,44.9,33.9c5.3,3.3,10.8,6.1,16.3,9c1.4,0.8,2.9,1.4,4.4,1.8c1.6,0.4,3.8,2.1,4.8,0.5c0.9-1.5-1.4-2.9-2.5-4.2
				c-5.5-7.1-13.2-11.2-20.8-15.5c-9.4-5.3-19.2-10.1-28.4-15.7c-10.3-6.3-20.1-13.4-28.3-22.5c-0.8-0.7-1.6-1.4-2.4-2l-1.5-0.9
				c0.1-0.9-0.2-1.8-0.7-2.6L235,126.4 M374.1,425.2c-2.8-1.9-5.6-3.7-9.1-4.1c-1.2-1.5-2.5-3.1-4.8-2.3l0.1-0.4l-0.1,0.2
				c1.7,0.7,2.9,2.5,4.9,2.3c2.2,2.7,5.6,4.1,9.1,4l1,1.6c0.9,0.4,1.9,0.4,2.8,0.1c0.5,2.2,2.4,3,4.1,3.9
				c10.8,6.2,22.1,11.5,33.8,15.9c5.4,2.1,10.5,5,16.5,5.7c-6.2-3.4-12.6-6.3-19.2-8.8c-6.6-2.6-13.1-5.4-18.9-9.5
				c2.9-0.5,5.1,1.5,7.4,2.6c11,5.4,22.7,9.1,33.7,14.4c3.7,1.8,7.6,3,11.7,3.5c1.4,0.2,2.8,0.3,4.2,0.1c2.9-0.5,3.3-1.9,1.6-4.3
				c-2.3-3.4-5.7-5.4-9.1-7.1c-11.4-5.8-23.3-10.6-35.8-13.4c-6.2-1.4-12.4-3.2-18.4-5.4c-8.7-3-17.8-5.1-26.3-8.6
				c-1.2-0.5-2.3-1-3.5-0.2l0.2-0.4c0,0.1-0.1,0.2-0.1,0.2c7.6,4,15.3,7.9,22.9,11.9c2.2,1.1,4.6,1.9,6,4.1
				c-4.2-0.3-6.9-3.8-10.7-4.7l-2.8,0L374.1,425.2 M406,491l-0.1-0.2c-0.1-0.1-0.2-0.3-0.3-0.4l0.2,0.4L406,491z M377.5,498.9
				c0,0.3,0,0.6,0,1c0.6,0.5,1.1,1,1.7,1.4c0.1,0.3,0.2,0.6,0.3,0.9c0.8-0.7-0.1-0.6-0.4-0.8c-0.1-0.9-1-1-1.6-1.4
				C377.5,499.6,377.5,499.2,377.5,498.9 M404.6,457.8l-0.2-0.1c-0.5-1-1.3-0.6-2.1-0.7l-1.2-1.4c-0.7-0.1,0.1,0.8-0.3,0.2
				c-0.3-0.3-0.2-0.5,0.1-0.7c0.6-0.3-0.4,0.1,0.2,0.3c0.4,0.5,0.8,0.9,1.2,1.4c0.5,0.5,1.3,0.8,2,0.7L404.6,457.8z M386.5,522.5
				c0.6,0.5,0.7,1.6,1.8,1.3c0,0.1,0.1,0.3,0.1,0.4l-0.2-0.3C387.8,523.2,387.4,522.6,386.5,522.5L386.5,522.5 M348.3,352.5
				c-0.1-0.7-0.6-0.1-0.9-0.3c-0.1-0.1-0.1-0.2-0.2-0.4l0.3,0.3L348.3,352.5 M323.2,352.7l-0.2-0.2c-0.4-0.7-0.3-1.7-1.3-2
				c0.1-1.4-0.3-2.9-1.2-4c-3.9-4.2-6.7-9.1-10.7-13.3c-4.7-4.9-9.1-10-13.2-15.3c-6.8-9.1-14.9-17.1-22.5-25.6
				c-1.8-2.1-3.1-4.9-7.3-6.2c3.5,4.8,6.2,9,9.4,12.7c12,13.6,24.1,27.1,36.2,40.6c3.2,3.6,5.5,7.9,9.2,11c0.4,0.7,0.8,1.4,1.2,2.1
				L323.2,352.7z M381.8,512.4c0-0.4,0-0.8,0-1.3c-0.2,0.3-0.4,0.3-0.6,0c0-0.1,0-0.3,0.1-0.4c0.4-0.2,0.5,0,0.5,0.4
				C381.8,511.6,381.8,512,381.8,512.4 M463.9,371.3c-0.1,0.2-0.3,0.5-0.4,0.7l-0.9,0.1l0.8,0C463.6,371.8,463.7,371.6,463.9,371.3
				 M384.2,517.1c-0.1-0.1-0.2-0.2-0.2-0.3c-0.2-0.7,0,0.3,0.4-0.3c-0.4,0.2-0.6,0.1-0.5-0.3c0-0.1,0.2-0.1,0.3-0.1
				c0.7-0.1-0.4-0.2,0.1,0.4C384.7,516.7,384.7,516.9,384.2,517.1 M424.8,465.2l0.2-0.1c-1.2-0.3-2.3-1.1-3.7-0.5
				c-0.1-0.3-0.2-0.7-0.4-0.7c-0.4-0.1-0.6,0.2-0.4,0.4c0.2,0.2,0.6,0.2,0.9,0.2c1,1.3,2.3,0.5,3.5,0.5L424.8,465.2z M459.5,471.1
				c-0.8-0.7-1.5-1.4-2.3-2.1c3.7-0.2,7.1,1.9,10.8,1.1c1.3,0.9,2.8,1.4,4.4,1.3c-1.1-1.3-2.9-1.8-4.5-1.2
				c-3.3-2.3-7.1-2.2-10.8-2.2c-3.1-1.8-6,2.7-9.1-0.1c3,2.4,6.8,3.2,11.6,3.1c1.2,1.2,2.6,0.4,3.9,0.2c0.2,0.1,0.5,0.3,0.7,0.4
				l-0.7-0.4L459.5,471.1 M478.3,470.5c-2.2-3.5-5.7-3.1-9.1-3.2C471.9,469.4,475.4,469.2,478.3,470.5l4.2-0.1
				c0.2,0.1,0.4,0.3,0.6,0.5l-0.7-0.4C481.2,469.9,479.7,469.9,478.3,470.5 M274.3,411c0.2,0.4,0.5,0.9,0.8,1.2
				c0.2,0.2,0.5-0.1,0.4-0.5c-0.1-0.6-0.7-0.6-1.1-0.7L274.3,411 M303.7,412.6l0.2,0c0.4,1.1,0.9,2.2,1.3,3.3l0.1,0.1l-0.2-0.2
				C304.8,414.7,304.3,413.6,303.7,412.6L303.7,412.6z M222,115.2c0.1,4.5,3.1,7.9,4.9,11.6c7,14.8,16.6,28.3,28.2,39.8
				c10.4,10.2,20.7,20.5,32.1,29.5c1.9,1.4,3.9,2.5,6,3.4c0.6,0.3,1.4,0.8,1.9,0.2c0.8-0.9,0-1.6-0.6-2.3c-1.5-1.7-3.1-3.5-4.6-5.2
				c-12.6-13.6-27-25.2-39.6-38.9c-9.5-10.4-17.9-21.7-25.1-33.7C224.4,118.3,224,116.2,222,115.2c-0.3-0.7-0.2-1.8-1.4-1.9
				c-0.1-0.6,0.2-1.3-0.6-1.7c0,0-0.2,0.3-0.2,0.4c0.3,0.4,0.6,0.8,0.9,1.2C220.9,114,220.9,115,222,115.2 M257.3,82.3
				c0.3,1.3,1.1,2.4,2.2,3.2c5,8,12.4,13.6,19.4,19.7c5.9,5.2,12.8,8.9,19.7,12.7c0.8,0.4,1.6,0.8,2.4,1.1c1,0.4,2.6,0.7,2.9-0.2
				c0.4-1.3-1.3-1.2-2.2-1.6c-7.8-3.4-14.2-8.8-20.8-13.8c-6.8-5.2-13.6-10.3-19.2-16.8c-0.5-0.8-1.4-1.1-2.3-0.9
				c0.1-1.6-1.2-2.3-2.2-3.2c-0.3-0.5-0.9-0.8-1.6-0.8c0.1-1.6-1-2.5-2.3-3.2c-0.5-1.3-1.1-2.5-2.8-2.3c-0.2-1.1-0.4-2.2-0.6-3.2
				c-0.9-0.8-1.8-1.6-2.7-2.4l-0.3-0.1l0.4,0c0.2,1.6,0.9,2.6,2.6,2.4c0.2,1.1,0.4,2.1,0.6,3.2c0.9,0.8,1.9,1.5,2.9,2.3
				c0.2,1.4,1.1,2.5,2.3,3.2L257.3,82.3 M445.8,480.7c0.1,0,0.3-0.3,0.2-0.3c-0.6-0.6-1.1-0.3-1.7,0c-1.3-1.7-2.8-1.4-4.4-0.5
				c-1.8-1.9-4.1-2-6.5-1.6c-1.8-1.7-4.2-1.7-6.4-2.3c-11.8-3.5-27.3-11.7-36.9-17.4c3.7,4.4,8.3,8,13.5,10.5
				c8.5,4.5,17.7,7.6,27.2,9.2c0.9,0.1,1.8,0,2.7-0.1c1.8,1.8,4.2,1.4,6.4,1.7c1.4,0.5,2.9,0.7,4.4,0.5
				C444.8,480.5,445.3,480.6,445.8,480.7 M436.6,469.8c-0.2-0.9-0.7-0.3-1-0.2c0-0.7-0.5-1.2-1.2-1.2c0,0,0,0-0.1,0
				c-0.4,0-0.7,0.4-0.5,0.5c0.6,0.3,1.2,0.5,1.8,0.6L436.6,469.8 M178.4,271.2l0.3,0C178.6,271.5,178.5,271.5,178.4,271.2
				c-0.4,1.2-0.9,2.4-1.4,3.6c-1.1,1.1-1.9,2.2-1.4,3.8c-3.3,1.8-3.3,5.1-3.8,8.2c1.8-2.5,3-5.3,3.7-8.3c0.6-1.2,1.7-2.2,1.4-3.8
				C178.7,274.2,178.9,272.9,178.4,271.2 M248.8,132.8v-0.2c-0.5-0.7-1-1.3-1.6-2c-0.3-0.3-1.1-0.6-1.3-0.5c-0.9,0.7,0,1.2,0.4,1.5
				c0.6,0.6,1.5,0.9,2.3,0.9L248.8,132.8z M298.5,404.5c0.1,0.1,0.1,0.2,0.2,0.2c0.3,0.6-0.1-0.4-0.2,0.3c0.3,0.6,0.6,1.2,1,1.7
				c0.2,0.4,0.4,1,1.1,0.5c-0.2-0.3-0.4-0.5-0.6-0.8c-0.5-0.5-1-1-1.4-1.4C298.5,405,298.5,404.7,298.5,404.5 M204.2,257.1
				c0.3-0.4,0.6-0.8,0.9-1.3c0.1-0.3,0.2-0.6,0.2-0.9c-0.6-0.2-1,0.2-1.1,0.7c0,0.5,0,1,0.1,1.5c-1.7,0.8-2.8,2.5-2.8,4.4
				c-0.6,0-1.1,0.5-1.2,1c-1,1.5-2,3-3,4.5l0.2,0.1l-0.2-0.3c2.4-0.5,2.8-2.3,2.8-4.4c0.8,0.1,1.1-0.3,1.3-1
				C202.6,260.3,203.6,258.8,204.2,257.1 M338.4,315.3c0.3,0.2,0.6,0.3,0.9,0.4c0.3-0.7-0.3-0.9-0.7-1c-0.5-0.1-1-0.2-1.5-0.2
				c-2-1.3-4.1-2.6-6.6-2.5c-2.6-3-6.4-4.2-9.7-6.1c-6.2-3.3-12.2-7.1-17.8-11.3c-0.6-0.7-1.5-1-2.4-0.8c0.1-0.4-0.1-0.6-0.4-0.5
				c0,0.1,0,0.2,0.1,0.3c0.3,0.7-0.2-0.3,0.5,0.1c0.1,1.9,1.7,2.7,2.9,3.6c7.9,5.5,16,10.7,25,14.3c0.7,0.2,1.4,0.3,2.1,0.4
				c1.6,2,4.1,2.9,6.6,2.5C337.5,314.7,338,315.1,338.4,315.3 M177.9,76c-2.4,5.3-3.9,11-4.5,16.8c-3,3.7-3.8,8.3-4.7,12.7
				c-2.2,10.5-5.4,21-4.5,32c0.1,1.8,0.1,3.6,1,5.2c0.5,0.9,0.9,2.3,2.2,1.9c1.4-0.3,0.9-1.7,0.7-2.7c-1.4-5.5-1.7-11.3-0.8-16.9
				c1.2-7.9,2.2-15.8,4.5-23.5c0.8-2.8,2-5.7,1.6-8.8c1.9-3.8,2.8-8,4.1-12c0.6-1.8,1.3-3.7,1.9-5.5c-0.3-0.6-0.5,0.4-0.3-0.3
				c0-0.1,0.1-0.2,0.2-0.3c0.4,0.1,0.4,0.4,0.1,0.6C178.8,75.5,178.1,75.7,177.9,76 M549.4,537.6c0.3,0.1,0.3,0.1-0.1,0.2
				c5,3,10,5.9,15,8.9c0.6,0.4,1.2,0.8,1.8,1.1c0.4,0.2,1.2,0.3,1.5,0.1c0.8-0.8-0.1-1.2-0.6-1.7c-3.9-3.5-8.6-5.4-13-8
				c-1.4-0.8-2.9-1.3-4.5-0.4C549.4,537.8,549.4,537.7,549.4,537.6 M194.6,22.7c4.1-7.7,6.4-15.9,8.2-24.3L201.6-2l-8.2,25.5
				c-0.5,0.8-0.6,1.8-0.3,2.7c-1.3,0.6-2.2,1.8-2.5,3.3c-1.1,4.3-3.7,7.7-5.8,11.3c-5.7,9.8-10.7,20-15.8,30.1
				c-5.8,11.6-12,22.9-17.2,34.8c-0.7,1.6-1.4,3.3-2,4.9c-0.2,0.6-0.6,1.6,0.2,1.9c0.4,0.2,1.2-0.4,1.8-0.7c2.6-1.6,4.7-3.9,6.2-6.5
				c5.8-8.9,11.2-18.1,15.2-28c6.9-16.9,14.7-33.5,19.9-51.1c0.7-0.7,0.9-1.8,0.4-2.7C193.8,23.2,194.4,23,194.6,22.7 M548.2,541.8
				l0.1-0.3c-4.1-2.4-8.1-5.1-11.8-8.1c-2.1-1.8-4.4-3.5-8.4-4c5.8,5.6,11.3,9.7,18.1,12c0.7,0.1,1.4,0.1,2.1-0.1L548.2,541.8z
				 M213.4-64c-2.4,5.9-4.6,11.9-6.4,18.1c-0.2,0.7-0.2,1.7,0.4,1.9c0.7,0.2,1.2-0.5,1.6-1.1c0.6-1.1,1.6-2.1,1.8-3.3
				c0.9-5.4,3.2-10.5,3.3-16.1c0.9-1,1.4-2.3,1.3-3.7c0-0.3-0.5-0.4-0.7-0.1c-0.9,1.1-1.1,2.6-0.5,3.8C214-64.3,213.5-64.2,213.4-64
				 M226.5-113.5c-3.4,3-5.1,7.2-7.3,11c-0.2,0.4-0.4,1.1,0.2,1.4c0.5,0.2,0.9-0.2,1.2-0.7c2.5-3.9,5.5-7.4,8.9-10.6
				c1.6-1.5,2.5-3.5,2.6-5.7l0.2-0.3c-0.3-0.1-0.3,0-0.1,0.4C229.3-117.6,228.2-115.1,226.5-113.5 M574.5,544.5
				c0.3,1.3,0,2.8,1.2,3.8c0.1,0.1,0.7-0.2,0.8-0.4C577.2,546.1,575.1,545.7,574.5,544.5c0-0.1-0.1-0.3-0.1-0.4
				c-9.2-5-18.8-9-28.8-12.1c-0.8-0.2-1.7-0.4-2.7-0.6c0.2,0.5,0.3,1,0.5,1c8.2,2.1,15.3,7.2,23.6,9.2c2.5,0.6,4.5,3,7.4,2.4
				C574.4,544.1,574.5,544.3,574.5,544.5 M533.1,484.7l-0.3,0c0.2-0.7-0.2-1.5-1-1.7c-0.2,0-0.3-0.1-0.5,0c-2-0.2-3.9,0.2-5.6,1.2
				c-3.9,2.4-8.1,4.5-11.9,7c-2.7,1.7-5.7,2-8.6,2.3c-2.8,0.3-5.6,1-8.2,2.1c2.4,0.4,4.9,0.2,7.3-0.5c6.7-1.8,13.1-4.4,19.1-7.7
				c2.9-1.6,5.9-3.4,9.5-2.7L533.1,484.7z M183.1,284.7c5.3-8.6,11.5-16.6,15.9-25.8c0.4-0.8,0.6-1.6,0.9-2.5
				c3.1-3.7,5-8.1,7.5-12.1c0.4-0.6,0.6-1.4-0.3-1.7c-0.3-0.1-1,0.4-1.2,0.8c-2.3,4.2-4.9,8.2-6.3,12.8c-4.2,6.3-8.5,12.5-12.4,19
				c-3.1,5.2-7.9,9-10.7,14.4c-0.3,0.6-0.8,1.2-0.5,1.9l-0.3-0.2l0.2,0.1C179.2,290.2,181.3,287.6,183.1,284.7 M201.6-16.3
				c0.9-3.3,2.6-6.5,2.7-10.2c-2.4,0.3-2.2,2.2-2.7,3.4c-3.7,10.1-7.2,20.3-10.8,30.5c-0.1,0.5,0,1.1,0.1,1.6l-0.2,0.2l0.2-0.1
				C196.3,1.3,199.2-7.4,201.6-16.3 M214.4,84c0.1,0.4,0.5,0.3,0.6-0.1c0.1-0.5-0.2-1-0.7-1.2c-1.2-12.5-2.7-24.9-5.6-37.1
				c-1.8,12.4,1,24.3,4.6,36c0.1,0.4,0.7,0.7,1.1,1.1C214.3,83.1,214.3,83.6,214.4,84 M243.4,386.7c-3.2,13.6-8.5,26.7-12,40.3
				c-0.5,2.2-0.8,4.5-0.9,6.7c1.9-2.4,1.8-5.4,2.7-8.1c3.4-10.4,6.7-20.9,10-31.4c1-3,2-6.1,1.7-9.4l0.5-0.8c-1-0.1-0.4,0.5-0.4,0.9
				C244.2,385,243.5,385.7,243.4,386.7 M339,345.9c-0.4,0-0.5,0.3-0.1,0.5c0.2,0.1,0.6,0,0.9-0.1c3.4,2.9,7.8,3.5,11.8,4.1
				c13.9,1.9,27.9,2.9,41.9,3.4c0.6,0,1.5,0.4,1.5-0.7c0-0.2-0.8-0.5-1.3-0.6c-0.9-0.2-1.8-0.2-2.7-0.2c-9.3,0.4-18.3-1.9-27.6-2.4
				c-6.6-0.3-13.1-1.3-19.5-2.9c-1.3-0.5-2.8-0.7-4.2-0.6C339.5,346.3,339.2,345.9,339,345.9 M162.4,48.7c-2,2.2-4.4,4.1-7.1,5.6
				c-0.6,0.3-1.3,0.9-0.8,1.7c0.3,0.4,0.8,0.6,1.3,0.7c3.3,0.3,6.6,0.1,8.6-3c3-4.6,5.7-9.4,8-14.5c0.2-0.4-0.1-1-0.2-1.5l0.3,0
				l-0.2-0.1C169,41.3,165.7,45,162.4,48.7 M433,388.1c-8.1,4.4-16.6,8-25.4,10.7c7.8-1.5,15.4-3.3,22.4-7.1
				c6.2-3.4,12.5-6.8,18.7-10.2c2.7-1.5,5.1-3.1,6.4-6.1l0.8-0.1c-0.1,0.1-0.2,0.2-0.3,0.2c-0.1,0-0.3-0.1-0.4-0.1
				C447.8,379.7,440.5,384.1,433,388.1 M225.4,149.1c-1,0.7,0,1,0.3,1.4c1.2,8.3,5.1,15.6,7.9,23.4c-3.6-3.2-4.2-8.3-7.8-11.5
				c0.4-2.6-0.6-4.8-2.4-7.5c0.6,3,1,5.4,2.5,7.4c1.6,7.7,5.9,14,10.6,20c0.8,1,1.7,1.8,2.7,2.5c1.1,0.7,2.4,2.6,3.4,1.6
				c1.1-1.1-0.6-2.5-1.4-3.6c-5.4-8.4-9-17.7-12.7-26.9c-0.8-1.9-0.9-4.1-3-5.3C225.5,150.1,225.5,149.6,225.4,149.1 M433.2,536.7
				c5.7,15.8,8.2,32.3,10.1,48.9c0,0.7,0.1,1.4,0.2,2.1c0.1,0.5,0.2,1.1,1,1c0.5-0.1,1-0.5,1.1-1c0.7-2.2,0.9-4.6,0.4-6.8
				c-0.7-5.5-1.7-10.9-3-16.2c-2.1-7.7-3.8-15.5-6.8-23C435.5,539.9,435.1,537.9,433.2,536.7L433.2,536.7 M453.2,409.2
				c-6.5,4.2-13.9,6.1-21.4,7.7c-7.8,1.6-15.8,2.4-23.7,3.3c-2.8,0.3-5.7,0.2-8.5-0.3c-1.7-0.4-3.4-0.3-5,0.3
				c2.2,1.8,4.6,1.2,6.8,1.3c15.4,0.9,30.9-1.2,45.5-6.2c2.4-0.7,4.6-1.8,6.7-3.2c1.5-1.1,3.4-2,3.4-4.4c1.6-2.3,0.3-2.8-1.7-2.8
				c-1.9-1.8-4.1-0.8-6-0.3c-8.7,2.4-17.7,4.1-26.7,5.1c-7.2,0.9-14.3,2.8-21.6,3.6c-10.4,1-20.9,1.5-31.3,0.1
				c4.5,2.4,9.5,3.7,14.6,4c10.3,0.4,20.6,1.5,30.9,0c10-1.5,20-3.1,29.6-6.6c3.9-1.4,7-4.1,10.6-6c1.4,0.5,1.6,1.7,1.7,3
				C455.7,407.9,454.3,408.4,453.2,409.2 M241,177.3c1.3,2.3,2.8,4.5,4.5,6.5c0.6,0.7,1.6,0.9,2.4,0.4c0.7-0.4,0.6-1.2,0.4-1.9
				c-1-4.1-2-8.3-4.4-11.9c-7.6-11.3-15.2-22.6-20-35.5c-0.1-0.2-0.1-0.3-0.2-0.5c-0.3-0.6-0.5-1.4-1.4-1.1c-0.2,0.1-0.2,1-0.1,1.5
				c1.2,3.1,2.2,6.3,3.7,9.4c2.1,4.3,4.5,8.4,5.6,13.2c0.6,2.3,1.5,4.6,4.1,5.6c0.2,0.1,0,1,0,1.5l0.1,0.1
				C235.7,169.4,238.9,173.2,241,177.3 M464,567.7c0.3-0.3,0.2-0.4-0.4-0.3c-1.1-4.6-3.8-8.4-6.2-12.2
				c-10.3-16.6-22.4-31.9-34.4-47.3c2,5.9,6.1,10.5,9,15.9c2.8,5.1,6.5,9.7,8.8,15.1c1.2,2.8,3.5,5.3,5.7,7.6
				c5,5.3,8.7,11.7,13.4,17.2c1.1,1.3,1.8,3.1,3.8,3.5L464,567.7 M433.9,457.1c-0.1-0.1-0.1-0.2-0.2-0.3c-0.1-0.1-0.3-0.1-0.4-0.2
				c-6.5-2.8-13-5.6-19.6-8.2c-12.6-4.9-24.4-11.5-36.4-17.7c-7.3-3.7-14.7-7.2-21.5-11.7c-0.8-0.7-1.9-1-3-0.8
				c0-0.1-0.1-0.3-0.1-0.4c-0.3,0.2-0.3,0.3,0.2,0.3c0.7,2.9,3.2,4.2,5.4,5.6c11.4,7,22.9,13.9,35.4,19.2c7.1,3,14.2,6.3,21.3,9.4
				c5.8,2.5,11.9,4.7,18.4,4.3L433.9,457.1 M160.5,106.9c-2.2,3.4-4.9,6.5-8,9.2c-2.9,2.4-4.4,6-5.4,9.6c-0.6,2.3-0.3,4.6,2.2,5.9
				c2.6,1.4,4.4,1.1,6.7-1.1c1.4-1.3,2.5-3,3.3-4.8c2.5-5.3,4.3-10.9,5.3-16.7c0.6-2.8,1.3-5.5,2.2-8.2c0.5-1.9,1.6-3.6,1-5.6l0.3,0
				l-0.2,0C165.5,99.1,163,103,160.5,106.9 M440.8,496.5c-0.2,0-0.1,0.3,0.2,0.1c1.1,2.5,3.7,2.7,5.8,3.2
				c11.3,3.3,22.3,7.4,32.9,12.4c6.4,3.1,12.5,6.7,18.3,10.9c8.4,5.9,17.3,11.2,25.3,17.7c2.9,2.4,6.2,4.2,10.2,3.4l0,0.3l0.1-0.2
				c-2.4-3.3-5.5-6.1-9-8.2c-12-7.2-23.2-15.8-35.9-21.8c-15.1-7.2-30.5-13.5-46.7-17.7c-0.4,0-0.7,0-1,0.1
				C440.6,496.1,441.5,496.5,440.8,496.5 M247.7,210.8c-0.4-0.2-0.6,0.1-0.4,0.5c0.3,0.6,0.6,1.2,1.5,1c0.6,3.8,3.6,6.1,5.8,8.7
				c5.4,6.6,11.5,12.5,17.6,18.5c5.5,5.5,10.9,11.1,16.5,16.5c7.1,7.2,14.7,13.9,22.6,20.2c1,0.8,1.8,1.8,2.8,2.5
				c1.1,0.7,1.7,3.1,3,2.1c1-0.8-0.6-2.5-1-3.8c-0.5-2-1.9-3.3-3.3-4.8c-6.4-6.9-13.7-12.9-21-18.9c-14.3-11.7-28.7-23.3-39.9-38.2
				c-0.7-1.2-1.8-2.2-3.1-2.8C248.7,211.7,248.3,211.1,247.7,210.8 M317,255.4l0.1-0.2c-17.3-13.3-33.9-27.5-49.7-42.6
				c-5.6-5.3-10.4-11.2-15.3-17.1c-0.7-0.8-1.3-1.7-2-2.5c-0.5-0.5-1.1-1-1.7-0.3c-0.4,0.5-0.2,1,0.1,1.4c3,4.2,5.5,8.7,9.1,12.5
				c9.4,9.9,18.8,19.8,28.9,29.1c8.4,7.4,17.6,13.8,27.6,19c0.9,0.5,1.9,1,3,0.5L317,255.4z M200.6,331.8c-0.7-2,0.3-3.8,0.9-5.6
				c4-12,8.4-23.8,10.5-36.3c0.4-2.4,0.7-4.9,0.9-7.4c-1.3,1.5-2.1,3.4-2.2,5.4c-1.2,8.9-4.9,17-7.3,25.5c-1,3.4-2.2,6.8-3.1,10.2
				c-1.5,5.4-4.1,10.2-6.9,14.9c-2.9,4.9-4.5,10.4-7.6,15.2c-0.3,0.5-1.1,1.2-0.2,1.8c0.7,0.4,1.5,0.2,1.9-0.4
				c3.2-3.4,6.6-6.5,9.3-10.2c6.6-9.1,11.7-19.1,15.2-29.8c0.8-2,1.1-4.1,1.1-6.3c2.2-3,2.7-6.6,3.2-10.1c1.4-9.6,3.2-19.2,2.7-29.8
				c-1.7,3.8-1,7.3-1.3,10.6c-0.8,7.8-2.7,15.4-4.1,23c-0.4,2.1-1.1,4.1-0.3,6.3c-0.9-1.5-1.2,5.2-2.4,0.2c-0.1-0.5-0.2-1.1-0.8-1.1
				c-0.2,0-0.5,0.5-0.6,0.8c-1,2.8-2,5.6-2.9,8.5c-1.5,5.1-3.5,10-6,14.6L200.6,331.8z M395.2,483.5l-0.1,0.2
				c10.1,15.1,18,31.6,23.5,48.9c2.4,6.9,4.1,14,5.2,21.2c1,8.2,4.5,15.6,7.3,23.3c0.1,0.2,0.6,0.3,1.1,0.7
				c-0.6-7.6-2.3-14.8-3.8-22.1c-2.5-12.4-5.2-24.7-9.9-36.5c-5-12.4-12-23.9-20.7-34c-0.7-0.8-1.4-1.7-2.6-1.4L395.2,483.5z
				 M412,498.5l0.2,0.1c0.5,2.3,1.3,4.4,2.5,6.4c4.8,9.3,8.6,19.2,11.3,29.3c3.1,10.9,5,22.2,7.2,33.3c1,5.4,1.4,11,3.3,16.2
				c0.1,0.3,0.2,0.7,0.3,1c0.5,1.7,1.1,4.1,3,3.8c1.4-0.2,1.1-2.7,0.9-4.2c-0.7-6.4-1.3-12.7-2.4-19.1c-2.1-11.7-5.3-23.2-9.5-34.4
				c-2.8-7.7-5.3-15.5-9.6-22.5c-2-3.6-4.4-6.9-7.1-10L412,498.5z M183.3,7.9c-4.8,7.1-10.6,13.3-16.5,19.4
				c-5.7,5.8-10.9,12.2-15.4,19c-1.1,1.7-3.3,3.9-1.3,5.6c1.5,1.4,3.9-0.2,5.7-1.4c2.2-1.4,4.2-3.2,6-5.3c4.4-5.6,9.7-10.4,14.1-16
				c7.9-10.1,13.2-21.4,17.7-33.3c0.4-0.8,0.4-1.8-0.1-2.5l0.3,0.1l-0.2,0C190.1-1.7,186.6,3,183.3,7.9 M454.8,504.8l0.3-0.1
				c0.8,2.2,3,2.9,4.6,4.1c9,6.7,18.7,12.3,28.2,18.3c8.9,5.6,17.7,11.1,26.6,16.6c3.5,2.1,7.2,3.8,11.1,5.1
				c1.8,0.7,3.8,0.7,5.5-0.1c-11-7.6-21.9-15.1-32.7-22.8c-13.3-9.5-28-16.1-43.4-21.2L454.8,504.8z M174.6,42.1
				c-6.9,13-15.2,25.3-21.8,38.5c-3.8,7.3-6.3,15.1-7.6,23.2c-0.2,1-0.3,2.1-0.3,3.2c0.1,1.7-0.4,4.7,0.8,4.9
				c2.1,0.3,1.6-2.6,2.3-4.1c5.8-12.2,12-24.2,17.9-36.3c7.4-15.3,16.3-29.9,23.5-45.4c2.5-5.3,4.4-10.9,6.4-16.4
				c0.4-0.8,0.4-1.8,0-2.6l0.3,0.1l-0.2,0C190.3,19.7,181,30.1,174.6,42.1 M180.3,210.8c-6.2,7.8-13.8,14.4-20.6,21.7
				c-3.1,3.4-6.3,6.8-7.9,11.3c-0.2,0.5-0.4,1.2-0.2,1.5c0.5,0.7,1.3,0.3,1.9,0c1.2-0.7,2.3-1.6,3.5-2.4c0.6-0.4,1.4-0.4,1.8,0.2
				c0,0,0,0.1,0.1,0.1c0.4,0.6,0.2,1.5-0.4,1.9c-1,0.8-2.1,1.3-3.1,2c-0.4,0.3-1.1,0.6-0.7,1.2c0.4,0.4,0.9,0.5,1.4,0.5
				c2.8-0.5,5.5-1.5,8-2.9c8.4-5.1,14.8-12.2,20.5-20.1c7.4-10.3,13.2-21.6,17.4-33.6c0.2-0.3,0.3-0.7,0.4-1
				c0.2-1.2,1.2-2.7-0.2-3.4c-1.8-0.9-2.9,0.5-3.6,2.1c-1.8,3.9-3.1,8.1-5.5,11.5c-6,8.6-12.3,17-18.8,25.2
				c-2.3,2.9-3.9,6.3-6.7,8.9c-0.8,0.7-1.4,1.6-2.2,2.3c-0.4,0.3-1.1,0.7-1.4,0.5c-0.9-0.5-0.4-1.2,0-1.7c2.8-3.9,5.6-7.8,8.6-11.5
				c5.2-6.6,9.7-13.6,15.2-19.9c0.6-0.6,0.9-1.6,0.8-2.4c4.4-4.1,5.7-9.7,7.3-15.1c-2.6,5-5.5,9.8-7.2,15.2
				C185,204.7,182.6,207.8,180.3,210.8 M346.2,402.1c-0.3,0.9,0.4,0.4,0.7,0.5c3.9,2.4,8.2,4.2,12.7,5.2c9.8,2.5,19.8,4.3,30,3.2
				c9.4-1.1,18.7-2.2,28-3.6c8.1-1.2,14.4-5.8,21.4-9.3c2.7-1.3,5.2-3,7.9-4.5c9-5,16.4-11.8,23.5-19.1c0.4-0.4,0.7-0.8,1-1.3
				c0.4-0.6,1-1.2,0.3-1.8c-0.5-0.2-1-0.2-1.5,0c-4.1,2.1-8.7,3.6-12.2,6.5c-4.6,3.8-9.7,6.5-14.8,9.5
				c-11.5,6.7-23.9,11.8-36.8,15.1c-16.9,4.4-33.8,3.4-50.8,1.7c-3-0.3-5.6-2.5-8.8-1.7L346.2,402.1 M191.1,78.6
				c7.1-19.1,12.9-37.8,13.7-57.6c-4,20-11.6,38.7-19.5,57.6c-1.5-1.9,0.3-3,0.5-4.3c0.3-1.6,0.7-3.1,1.3-4.6
				c3.4-9.5,7-19,10.3-28.6c2.1-6.2,3.6-12.7,4.5-19.2c-1.3,0.4-1.5,1.3-1.8,2.1c-4.8,12.6-10,25.1-14.3,37.9
				c-5.2,15.8-9.8,31.9-13.4,48.2c-1.7,7.6-3.1,15.4-2.7,23.3c0,0.4-0.1,0.7,0,1.1c0.2,2.1,0,5.1,1.8,5.7c1.9,0.6,2.7-2.5,3.6-4
				c4.2-7.4,7.7-15.2,10.5-23.3c4.3-12.1,7.7-24.4,10.1-37c0.1-0.9,0.1-1.8,0.1-2.6c0.2-0.3,0.5-0.5,0.5-0.8c0-0.4-0.4-0.5-0.5-0.1
				c-0.1,0.2,0.1,0.6,0.1,0.9C193.6,73.9,194.5,77.3,191.1,78.6 M369,449.5l0.2,0c2.5,6,7.8,9.6,12.4,13.6
				c7.2,6.3,15.2,11.7,23.6,16.3c12.3,6.4,25.6,10.7,39.3,12.7c16.1,2.5,31.9,1.1,47.7-1.2c10.9-1.6,20.9-5.7,29.3-13
				c3.8-3.3,6.7-7.3,7.8-12.4c0.4-1.7,0.8-3.7-0.9-4.9c-1.9-1.3-3.7-0.4-5.3,1c-4.7,4.1-9.7,7.8-15.1,10.9
				c-20.6,11.4-42.5,14-65.6,10.9c-22.9-3.1-43.5-11.7-62.3-24.9C376.3,455.7,372.8,452.4,369,449.5L369,449.5z M206.7-35.3
				c0.5,4.9-0.3,9.9,0.7,14.9c1.1,5.9,1.2,12,2,18c2.1,16.2,6.1,32.1,10.8,47.7c1.8,6.1,3.7,12.2,5.5,18.4
				c5.2,18.6,13.6,35.8,21.4,53.4c2.2,5.4,5.1,10.6,8.5,15.3c0.6,0.8,1.2,2.2,2.4,1.7c1.1-0.4,0.8-1.7,0.8-2.8
				c0.1-9.9-2.7-19.3-5.5-28.7c-2.6-8.9-7.3-17-10.7-25.5c-5-12.4-11.3-24.1-16.5-36.4c-3.4-8-5.7-16.5-8.9-24.5
				c-5.5-13.8-7.5-28.1-8.7-42.7c-0.3-4-0.6-8,0.8-12.4C207.3-37.9,206.6-36.7,206.7-35.3 M232.6,197.7
				c5.5,11.3,11.8,22.3,18.7,32.9c5.4,8.1,11.5,15.8,17.4,23.5c4.8,6.2,9.4,12.5,14.5,18.5c2.1,2.7,4.6,4.9,7.5,6.6
				c5,2.7,9.4,6.4,15.2,7.6c1.9,0.6,3.9,0.7,5.8,0.3c2.9-0.8,3.7-2.8,2-5.2c-0.8-1-1.6-1.9-2.6-2.6c-12.1-9.9-23.6-20.5-34.5-31.7
				c-12.4-12.6-25.2-25-34.8-40.1c-4.3-6.7-9.3-13.1-10-21.5c-0.1-1.5-1.5-2.4-2.2-3.5c-0.5-0.7-1.2-1.6-2.1-1.2
				c-0.3,0.1-0.2,1.3-0.3,1.9C228.8,188.2,230.3,193.1,232.6,197.7 M230.1,39.2c2.2,5.8,5.3,11.3,9.2,16.2
				c9.1,12.1,18.4,24,29.4,34.4c8.6,8,17.9,15.1,27.8,21.5c1.7,1,3.5,1.8,5.3,2.5c0.6,0.4,1.4,0.3,2-0.2c0.7-0.7,0-1.3-0.4-1.9
				c-2.4-3.5-4.6-7.3-7.4-10.4c-12.2-13.6-24.3-27.4-37.6-40c-11.9-11.2-23.3-22.9-32.6-36.4c-0.5-0.5-1.1-0.9-1.6-1.3
				C225.2,29.4,228.3,34.1,230.1,39.2 M319,351.7c-6.3-8.4-13-16.4-20.1-24.1c-13.4-14.2-26.8-28.4-37.4-45c-0.3-0.5-0.6-0.9-1-1.2
				c-0.4-0.3-1-0.7-1.4-0.6c-0.9,0.3-0.5,1.2-0.3,1.7c2.1,6.6,4.7,13,7.6,19.3c6.9,13.4,15.1,26.1,24.6,37.8
				c6.5,8.1,13.7,15.8,22.5,21.6c1.8,1.2,3.6,2.2,5.6,3.1c3.3,1.4,5-0.1,4.5-4.1C322.5,357.2,320.9,354.3,319,351.7 M235.3,226.1
				c1.9,6.1,4.1,12.1,6.7,17.9c3.5,8.2,8.6,15.5,14.1,22.5c8.1,10.3,16.4,20.5,26.2,29.5c2.9,2.6,5.9,5.2,8.9,7.7
				c0.8,0.7,1.7,1.3,2.7,1.8c1.7,1,3.4,1,4.8-0.7c1.3-1.5,1-2.9,0-4.4c-2.9-4.3-6.1-8.3-9.7-12c-10.3-10.8-20.3-21.8-29.2-33.9
				c-9.8-13.3-19.4-26.7-27-41.5c-0.4-0.8-0.9-1.5-1.4-2.2C231.5,216.1,233.7,221,235.3,226.1 M319.1,244.9
				c-7.4-10.3-16.2-19.2-25.8-27.5c-11.2-9.6-23.1-18.3-33.3-28.9c-2.1-2.2-4.1-4.4-6.2-6.6c-0.3-0.4-0.8-0.6-1.3-0.7
				c-0.7,0-0.4,0.7-0.5,1.2c-1,5.2,0.6,9.3,4,13.5c10.5,13.1,22.7,24.4,35.4,35.2c8.2,7,16.2,14.3,25,20.8c1.3,0.9,2.6,1.8,4,2.7
				c0.7,0.5,1.5,1.1,2.4,0.6s0.6-1.6,0.6-2.6C322.5,249.8,320.8,247.3,319.1,244.9 M236.5,272.6c1.5,9.7,2.9,19.6,6,29
				c0.8,2.4,2.2,4.5,4,6.2c1.2,1.4,3.3,1.5,4.7,0.2c0.5-0.5,0.9-1.2,1-1.9c1-4.3,2-8.6,1.1-13.1c-1-4.9,0.1-9.9-1.3-14.8
				c-2.7-9.7-4.6-19.6-10.3-28.3c-3.4-5.3-5.5-11.5-7.3-17.7c-0.3-1.1-1-2.1-2.1-2.6C233.8,244.4,234.4,258.6,236.5,272.6
				 M212.7-11.1c0.9,7.1,4.5,13.2,8,19c8.6,14.3,18.3,27.8,30.2,39.8c14.7,14.7,32.1,25.1,50.7,33.7c0.7,0.3,1.5,1.4,2.2,0.2
				c0.4-0.6-0.3-1.3-0.7-1.8c-3.1-3.9-6.9-7.2-11.4-9.5c-18.7-9.2-33.6-23-47.6-38c-14.6-15.6-23.4-34.2-30-54.1
				c-0.9-2.9-1.3-5.9-2-8.8c-0.1-0.5-0.5-1-1.1-0.8c-0.2,0.1-0.3,0.6-0.3,0.9c0,1.4,0,2.8,0.1,4.9C213.2-21.4,212.1-16.1,212.7-11.1
				 M182.1,351.9c0.4,1.2,1.2,1.4,1.9,0.4c0.8-1.2,1.5-2.4,2.1-3.7c7.6-13.8,13.2-28.3,17.9-43.3c4.4-14.4,7.9-29.1,10.5-44
				c0.5-2.8,1.3-5.5,2-8.3c0.2-0.5-0.1-1-0.6-1.1c0,0-0.1,0-0.1,0c-0.2,0-0.5,0.4-0.8,0.6c-0.1,0.1-0.2,0.3-0.2,0.5
				c-3.6,16-12.4,29.8-18.5,44.7c-4.7,11.3-8.5,23-11.4,34.9c-0.9,3.8-1.9,7.6-2.9,11.4c-0.4,1.9-0.5,3.9-0.3,5.9
				C181.8,350.5,181.9,351.2,182.1,351.9 M182.3,148.1c-4.6,12.1-9.2,24.3-12.3,36.9c-0.9,3.6-1.1,7.4-0.7,11.1
				c0.1,1.6,0.7,3.1,1.6,4.5c1.1,1.5,2,1.7,3.4,0.3c2.6-2.7,4.7-5.8,6.2-9.2c2.7-5.8,5.3-11.7,7.9-17.5c0.4-0.8,0.7-1.6,0.7-2.5
				c-0.8-12.3,1-24.5,2.2-36.7c-0.1-0.5-0.2-0.9-0.4-1.4C187.2,137.7,184.2,142.7,182.3,148.1 M203.2,91.4
				c-1.7,10.9-5.1,21.4-6.9,32.3c-2.6,15.1-5,30.2-4.2,45.6c0.1,2.5,0.4,5,0.8,7.4c0.3,1.4,0.9,2.7,1.7,3.9c0.6,1,1.5,2.5,2.8,2
				c1.5-0.5,0.6-2.1,0.6-3.3c0.1-7.1,1.9-14.1,2.4-21.2c1.1-17.4,4.6-34.6,5.6-52c0.5-7.6-0.8-15.2-1.2-22.9
				C204.3,86,203.6,88.7,203.2,91.4 M266.3,339.1c3.2,10.9,7.5,21.4,12.8,31.5c3.4,6.3,7.4,12.1,13.2,16.5c0.5,0.4,1.2,1,1.8,0.5
				c0.6-0.5,0.1-1.3-0.2-2c-3.4-7.6-6.7-15.3-10.3-22.9c-8.3-17.7-15.1-36-21.5-54.5c-1.5-4.3-2.8-8.8-3.8-13.3
				c-0.2-0.8-0.4-2.3-1.2-2.1c-1.5,0.3-0.6,1.7-0.5,2.6c0.1,2.3,0.5,4.6,0.7,6.9C259,315,262.7,327.1,266.3,339.1 M366.3,436.7
				c-7.4-9.5-17.3-16.3-25.6-24.9c-6.3-6.3-11.9-13.2-16.7-20.7c-2.3-3.7-5.9-6.1-8.8-9.3c-7.3-7.9-12.9-17-19.4-25.4
				c-0.5-0.7-0.8-1.6-1.9-1.8c1.5,7.2,5.7,13.2,9.1,19.5c0.9,1.5,1.8,3.1,2.6,4.7c2.5,6,7.2,10.4,10.6,15.8c0.2,0.3,0.4,0.6,0.7,0.8
				c8.9,3.7,14.6,11.1,20.8,17.8c7.5,8.2,15.5,16,22.8,24.4c6.2,7.2,13.9,13,22.1,18.3C377.2,449.6,371.4,443.4,366.3,436.7
				 M322.8,421.9c-1.6-5.4-3.1-11-4.6-16.4c-0.3-1.2-0.8-2.4-1.2-3.5c-0.1-0.3-0.4-0.6-0.7-0.7c-0.9-0.1-0.7,0.7-0.6,1
				c0.4,2.8,0.6,5.6,1.2,8.4c3.9,19.5,6.6,39.3,7.9,59.1c0.5,7.6,1,15.2,1.6,22.9c0.2,3.4,0.9,6.7,2.2,9.9c0.3,0.8,0.6,1.9,1.7,1.7
				c0.9-0.1,1.3-1.1,1.5-2c1.2-4.8,1.7-9.8,1.3-14.8c-0.7-9.9-0.2-19.9-2.3-28.5C329.2,446.4,326.5,434,322.8,421.9 M312.1,298.6
				c9.4,5.4,18.6,11.3,29,14.5c4.4,1.5,8.9,2.4,13.5,2.7c2,0.1,2.6-0.9,1.5-2.6c-2.2-3.7-5.4-6.7-9.2-8.7c-3.6-1.9-7.2-3.9-10.8-5.8
				c-5.2-2.7-10.2-5.8-14.9-9.3c-1.4-1.1-2.5-2-4.5-0.3c-2.5,2.2-6,1.9-9.2,1.3c-3.3-0.6-6.4-1.9-9.7-2.9
				C302.1,291.8,306.9,295.6,312.1,298.6 M231.9,145.5c5.7,9.6,11.1,19.4,18.5,27.9c8.5,9.8,17.7,19,27.5,27.5
				c3.6,2.9,7.6,5.3,11.9,7.1c1.9,0.8,3.8,1.2,5.6-0.1c1.9-1.3,1.9-3.3-0.3-4.3c-9.4-4.6-17-11.6-24.2-18.9
				c-6.4-6.4-13.3-12.2-19.6-18.8c-9.2-9.6-17-20.5-23.2-32.4c-0.9-1.7-1.8-3.4-2.8-5.1C226.5,134.5,228.7,140.3,231.9,145.5
				 M500.2,549.3c-14.7-16.6-31-31.3-50.3-42.5c-2.3-1.3-4.4-3-6.7-4.4c-1.5-0.9-3-2-4.8-2.1c-0.7,0-1.5,0-1.7,0.7
				c-0.1,0.3,0.5,0.9,0.9,1.2c1.7,1,3.5,1.8,5.1,2.8c15.5,9.5,30.7,19.5,43.3,32.6c13.6,14.1,22.5,31,25.3,50.7
				c0.5,3.5,1.5,7,3,10.2c0.5,1,1.1,2,2.3,2c1.6-0.1,1.9-1.4,2.1-2.6c0.5-3.3,0.6-6.7,0.1-10.1C516,574.1,510.2,560.6,500.2,549.3
				 M331.2,442.5c2.2,9.6,3.2,19.3,4.3,29c0.3,3.7,1,7.4,2,11c2.5,7.8,3.2,16.1,7,23.7c4.2-21.2-8-78.3-20.3-94
				C326.7,423.1,328.9,432.8,331.2,442.5 M258.9,334.9c2.9,18.8,7.9,37.2,14.8,54.9c1.4,3.6,3.4,7,5.1,10.5c0.4,0.9,0.9,2.2,2.1,2
				c1.1-0.3,1.1-1.7,1.4-2.7c0.9-3.4,0.2-6.8-0.6-10c-1.8-7-3.5-14-6.7-20.7c-7.3-15.4-12.9-31.6-16.5-48.3
				c-0.3-1.2-0.5-2.4-0.9-3.6c-0.1-0.5-0.5-1-1.2-0.7c-0.2,0.1-0.4,0.6-0.4,0.9c0.1,2.1,0.2,4.3,0.4,6.4
				C256.6,327.4,258.3,331.1,258.9,334.9 M251.3,367.1c-2.2,15.7-6.1,31.1-11.5,45.9c-2.7,7.3-4.7,14.9-6,22.7
				c-0.1,0.9-0.4,2,0.4,2.4c0.9,0.4,1.6-0.5,2.1-1.3c2.1-3.5,4.5-6.9,6.2-10.6c5.8-12.8,10.1-26.2,12.8-40c0.9-4.9,1.6-9.7,0.5-14.7
				c-1-4.5-1.1-9.2-1.6-13.7h-1.4C251.8,360.8,251.8,364,251.3,367.1 M211.6,166.4c-0.7,9.9-1.1,19.7-1.8,29.6
				c-1,13.9-2,28.1,1.9,41.8c0.8,2.7,0.7,6,3.7,7.7c1.6-2.5,1.3-5.5,1.4-8.2c0.8-13.5-0.1-27-1-40.4c-0.7-10.6-0.9-21.3-1.1-31.9
				c-0.1-5.7-0.7-11.3-1-17l-1,0C212.4,154.1,212.1,160.2,211.6,166.4 M266.9,315c6.7,17.9,13.6,35.8,21.7,53.2
				c2.9,6.3,5.6,12.6,8.6,18.9c0.3,0.6,0.8,1.5,1.3,1.6c1,0.1,1.2-1,1.6-1.8c0.9-1.7,0.3-3.5,0-5.2c-1.1-7.7-4.6-14.5-7.2-21.7
				c-5.8-15.6-15.1-29.3-22.8-43.8c-2-3.7-3.8-7.5-6.2-12C263.7,308.7,265.7,311.8,266.9,315 M200.6,62.9c-2.1,9.3-3.8,18.8-6.2,28
				c-4.8,17.8-10.4,35.3-20.1,51.3c-0.5,0.9-1.5,1.8-0.5,2.8c1.1,1.2,2.3,0.6,3.3-0.2c2.4-1.8,4.5-4,6.1-6.6
				c8-12.7,13.3-26.8,15.5-41.6c1.9-12.1,3.1-24.3,4.6-36.4c0.4-1.8,0.3-3.7-0.4-5.4C202,57.9,201.2,60.3,200.6,62.9 M382.4,376.8
				c0.1-0.9-0.4-1.8-1.3-2.2c-2.1-1.2-4.4-2.4-6.6-3.3c-6.3-2.5-12.6-4.7-18.9-7.2c-10.8-4.5-20.7-10.7-30.2-17.6
				c-0.6-0.4-1.2-1.7-2.1-0.7c-0.3,0.3,0,1.4,0.3,2c1.8,3.2,3.7,6.4,4.5,10.1c0.3,1.5,1.7,2.3,2.9,2.9c11.1,5.9,22.1,12.2,34.4,15.4
				c4.9,1.1,9.9,1.7,14.9,1.8C381.2,377.9,382.2,378,382.4,376.8 M245.1,315.6c-0.9,5.4-1.6,11-3.2,16.1
				c-3.1,9.4-6.1,18.9-10.8,27.7c-2.6,4.8-4.2,10.1-6.2,15.2c-0.4,1-0.6,2-0.8,3.1c-0.2,0.7,0.1,1.5,0.8,1.7c0.5,0.1,1,0,1.4-0.4
				c1.3-1.2,2.5-2.5,3.7-3.8c4.9-6.5,8.8-13.8,11.6-21.4c4.9-12.8,8.3-26,10.2-39.6c0.2-1.6,0.6-3.5-2.7-2.4
				C246.8,311.5,245.6,312.9,245.1,315.6 M277,427.7c-2.2-8.1-5.8-15.7-7.3-24c0-0.5-0.2-1.1-0.5-1.5c-1.6-1.8-3.2-5.5-5-4.8
				c-1.8,0.6,0.1,4,0.6,6.1c2.6,11.5,4.9,23,7.9,34.3c2.9,11,4,22.4,7.4,33.3c0.2,0.6,0.1,1.5,0.9,1.7c0.9,0.2,1-0.7,1.3-1.3
				c2.3-4.5,1.9-9.3,1.1-16.2C281.8,447.3,279.7,437.5,277,427.7 M356.6,490.1c1.6,14.3,2.3,28.7,2.2,43.1
				c-0.1,7.6-0.8,15.3,0.6,22.9c0.3,1.5,0.2,4,1.8,4c1.6,0,1.5-2.7,1.6-4.1c0.5-7.4,0.8-14.9,1.3-22.4c1-15.4-1.7-30.5-4.4-45.5
				c-0.9-4.9-1.8-9.8-2.9-14.7c-0.6-2.8-1.4-5.5-2.3-8.2c-1.2-3.3-2.7-6.5-4.1-9.8C353.1,466.9,355.2,478.4,356.6,490.1
				 M217.1,177.3c0.4,15.6,2.1,31.2,2.1,46.8c0,7.1-0.4,14.2-0.6,21.3c0,0.7-0.4,1.6,0.4,1.9c0.9,0.3,1.8,0,2.4-0.7
				c1-1.2,1.8-2.7,2.1-4.3c1.3-4.6,2-9.4,2.2-14.2c0.4-7.3-0.8-14.5-1.8-21.7c-0.9-6.4-1-12.8-1.4-19.1c-0.6-8.4-2.1-16.7-4.5-24.7
				C217.1,167.4,216.8,172.3,217.1,177.3 M437.3,522.7c6.8,9.6,13.7,19,20.3,28.8c3.5,5.2,6.2,10.8,9.3,16.2
				c0.5,1.1,1.1,2.2,1.8,3.2c0.8,1,1.1,3.1,3,2.2c1.5-0.7,1-2.5,0.8-3.9c-0.6-3.2-1.8-6.2-3.7-8.8c-8-13-16.8-25.5-26-37.8
				c-6.1-8.1-12.9-15.6-19.8-23.1c-1.2-1.7-2.8-3-4.7-3.9C423.7,506.2,431.1,514,437.3,522.7 M489.9,511c8.1,1.1,16.2,2.4,24.4,1.4
				c13-1.6,24.6-6.8,35.6-13.5c1.4-0.9,3.7-2.2,2.9-3.9c-0.8-2-3.3-0.7-4.8-0.3c-4.1,1.1-7.7,3.5-11.7,5c-7.2,2.5-14.6,4.4-21.9,6.7
				c-2.2,0.6-4.5,0.9-6.9,0.8c-9.5-0.1-19.1,0.4-28.7-1.1C482.2,508.7,485.9,510.3,489.9,511 M221.6,250.2c-1.5,1-1,3-0.9,4.5
				c1.7,17.8,0.3,35.4-2.3,52.9c-0.3,1.9-0.4,3.9-0.2,5.8c0.3,1.9-0.7,5.1,1.9,5.3c2,0.2,2-3,2.3-4.8c0.6-3.1,1.1-6.3,1.5-9.5
				c2.2-17.6,3-35.3,3.9-53c0.2-3.7-0.1-7.4-0.1-11.9C225.8,243.8,225.2,247.9,221.6,250.2 M246.3,122.8
				c-6.9-17.8-15.1-35-21.1-53.1c-6-18.2-10.6-36.7-16.1-56.2C212.5,53.9,225.9,89.6,246.3,122.8 M488.1,504
				c6,0.4,12.1,0.4,18.1,0.3c8-0.2,15.9-2.6,22.7-6.8c2.4-1.3,4.2-3.3,5.3-5.8c1.2-3.1,0.2-4.4-3.1-3.9c-1.7,0.4-3.4,1.1-4.9,2
				c-6.2,3.1-12.3,6.1-19.2,7.6c-8.2,1.7-16.5,2.7-24.8,2.9c-3.6,0-7.2,0.3-10.7,0.8C476.9,502.7,482.5,503.7,488.1,504
				 M255.5,342.5c0.2,6,1.2,12,2.8,17.9c0.8,3.1,1.3,6.2,1.4,9.4c0.2,4.2,0.9,8.5,1.4,12.7c1,8.8,6.7,14.6,13.2,19.8
				c0.7,0.6,1.7,1.7,2.7,0.6c0.6-0.7-0.1-1.6-0.5-2.4c-5.7-12.6-10.5-25.6-14.3-38.9c-2.5-8.7-3.6-17.8-5.4-26.6
				c-0.2-1-0.1-2.1-0.9-2.9C254.4,335.5,255.3,339,255.5,342.5 M228.5,274.8c-0.1,4.8-0.6,9.6-1.1,14.3c-1,10.2-1.3,20.6-3.8,30.6
				c-0.1,0.5-0.3,1.1,0.3,1.4c0.7,0.3,1.4,0.1,1.9-0.4c2.2-2.1,3.8-4.8,4.6-7.7c1.9-6.7,3-13.6,3.1-20.5c0.2-16-0.8-32-2.9-47.9
				c-0.1-0.7-0.3-1.4-0.4-2C230.6,253.3,228.6,264,228.5,274.8 M454.6,400.3c0.5-0.1,1-0.3,1.5-0.6c7.5-6.2,15.9-11.4,21.6-19.6
				c1.5-2.2,2.8-4.5,2.6-7.4c-0.1-0.9-0.1-2-0.9-2.4c-1-0.5-2.2-0.1-2.8,0.8c-2.7,4.1-6.6,6.9-9.9,10.4c-5.3,5.7-11.8,9.7-18.3,13.7
				c-3.7,2.4-7.6,4.6-11.6,6.5c-0.7,0.3-1.9,0.7-1.6,1.6c0.3,0.9,1.5,0.7,2.4,0.7c0.4,0,0.7-0.1,1-0.1c0-0.1,0-0.1,0-0.2
				C443.9,402.6,449.2,401.5,454.6,400.3 M364.5,560.7c2.1-0.5,2.5-1.9,3-3c3.9-8.5,4.5-17.6,3.9-26.6c-1-16-3.5-31.8-7.5-47.3
				c-0.6-2-1.4-4-2.2-6c-0.4-1.1-1.3-2-2.4-2.4C365.9,503.7,368.6,531.7,364.5,560.7 M203.3,152.1c-0.3,7.2-1.6,14.5-2.4,21.7
				c-0.3,2.5-0.9,4.9-0.1,7.4c0.2,0.7,0.4,1.5,1.2,1.4c0.4,0,0.9-0.5,1.2-1c0.9-1.3,1.6-2.8,1.8-4.4c2.3-13.8,5.6-27.5,5.6-41.6
				c0-6.7-2.3-12.9-3-19.4C206.2,128.2,203.8,140,203.3,152.1 M379.9,382.7c0.3-0.2,0.5-0.4,0.6-0.8c0.2-0.7-0.3-0.9-0.8-1.1
				c-0.7-0.2-1.4-0.4-2.1-0.5c-10.7-0.3-20.3-4.6-29.9-8.6c-5.6-2.3-10.8-5.4-16.2-8c-1.3-0.6-2.8-2-4.1,0.2
				c-1.1,1.9-0.4,3.2,1.2,4.6c4.1,3.5,9.1,5.4,13.9,7.7c3.4,1.6,6.8,3,10.2,4.4c7.7,3.3,15.9,3.1,25.1,2.6
				C377.9,383.3,379,383.1,379.9,382.7 M271.4,442.5c-2.6-11.1-5.4-22.1-7.6-33.3c-0.2-1.3,0-3.6-1.6-3.5c-1.4,0.1-0.9,2.3-0.9,3.6
				c0.1,17.6,1.9,34.8,9.9,50.8c1,2.1,2.2,4,3.4,6c0.2,0.4,0.8,0.6,1.9,1.4C274.7,458.7,273.3,450.6,271.4,442.5 M290.3,409.7
				c4.6,8.4,9.3,16.8,16.7,23.2c0.7,0.6,1.3,1.2,2,1.8c0.4,0.3,0.9,0.7,1.4,0.3c0.4-0.3,0.6-0.8,0.6-1.3c-0.4-1.5-0.9-3-1.5-4.5
				c-2.4-6-5.8-11.4-9.2-16.7c-4.7-7.3-8.2-15.3-13.9-22c-0.4-0.5-0.9-1-1.9-2C285.2,396.3,286.8,403.3,290.3,409.7 M261.5,127.2
				c-0.1,2,1.5,3.5,3,4.8c1.2,1.1,2.3,2.2,3.3,3.5c0.4,0.4,0.3,1-0.1,1.4c0,0,0,0,0,0c-0.3,0.1-0.7,0.1-1-0.1
				c-1.1-0.7-2.1-1.4-3.1-2.1c-0.5-0.3-1.1-1.1-1.7-0.2c-0.4,0.6-0.4,1.4,0.1,2c1,1,2,2,3.1,2.9c5,4,9.6,8.6,15.3,11.5
				c1.5,0.8,3.5,2.2,4.9,0.7c1.4-1.6-0.6-3.4-1.6-4.5c-8.5-9.9-15.1-21.1-22.7-31.6c-0.2-0.2-0.6-0.2-1.3-0.5
				C260.4,119.2,261.7,123.1,261.5,127.2 M345.7,470.7c1.6,6.5,1.5,13,1.7,19.5c0.1,4.6,0.1,9.2,0.2,13.8c0,1.4,0,3.3,1.6,3.6
				c2.1,0.3,3-1.5,3.4-3.4c0.7-3.1,1.4-6.3,1-9.5c-1.7-13.9-3.7-27.8-8.5-41c-1.4-3.5-3.2-6.8-5.4-9.9
				C341.7,452.8,343.5,461.8,345.7,470.7 M546.8,509c3.2-1.9,6-4.5,8.1-7.6c0.5-0.7,1.5-1.4,0.6-2.2c-0.8-0.7-1.6,0.3-2.3,0.8
				c-12.9,8.1-26.7,13.8-42.1,15c-4.8,0.4-9.5-0.5-14.3-1.2c-0.5-0.1-1.3,0-1.5,0.3c-0.5,0.9,0.4,1.1,1,1.4
				c5.6,2.8,11.9,3.9,18.1,3.2c1.4-0.2,2.8-0.3,5.5-0.6C529,518,538,514,546.8,509 M220.6,87.6c0.7,1.9,4.6,4.1-0.2,6.1
				c-0.6,0.2,0.2,1.3,0.4,1.9c3.9,11.3,9.5,21.8,18,30.3c0.6,0.6,1.3,1.2,2.1,1.7c1,0.7,2.2,1,2.7-0.2c0.8-1.8-0.7-1.4-1.7-1.4
				c-1.2-0.1-1.6-0.8-1-1.8c0.6-0.9,1.1-1.5-0.6-1.2c-1.3,0.3-2.5-0.8-1.7-1.6c2.5-2.3,0.6-3.5-0.6-5.2c-2.7-4-4.5-8.5-6.5-12.8
				c-0.7-1.6-0.9-3.5-3.1-4c-0.4-0.1-1.1-0.8-1.1-1c0.5-2.7,0.3-4.8-3.1-5.3c-0.4-0.2-0.7-0.6-0.5-1.1c0-0.1,0.1-0.2,0.1-0.2
				c2.1-2.2,0.2-4-0.5-5.8c-2.6-6.2-5-12.4-7.6-18.8C216.1,74.3,218.3,80.9,220.6,87.6 M256.1,394.1c-2.3,11.8-7,22.7-11.6,33.6
				c-1.7,4.1-4.5,7.6-6.9,11.3c-0.4,0.6-1.1,1.1-0.4,1.7c0.3,0.2,1,0,1.4-0.1c2.8-1.2,5.2-3.2,6.8-5.8c9-13.7,14.4-28.4,12.6-45.6
				C256.9,390.6,256.3,392.3,256.1,394.1 M289,412c-1-1.9-2.1-3.7-2.9-5.7c-0.9-2-1.5-2.8-3.6-0.7c-2.9,3.1-3.1,2.8-1,6.1
				c5.1,7.9,10.1,15.8,17.4,21.9c3,2.6,6.5,4.4,10.3,5.4C301.1,431.2,294.3,422.1,289,412 M402.4,348.9c-5.5-0.7-10.9-1.6-16.4-1.8
				c-18.8-0.4-37.5-2.8-55.8-7.1c-0.7-0.2-1.7-1-2.1,0.3c-0.1,0.3,0.9,1,1.4,1.4c0.3,0.2,0.6,0.4,1,0.4c8.6,1.2,16.8,5,25.4,5.5
				c11.9,0.6,23.5,3.3,35.5,3.1c3.9-0.1,7.8,0.3,11.7,0.4c0.6,0,1.5,0,1.5-1C404.2,349.1,403.2,349,402.4,348.9 M127.3,153.8
				c-0.8,0.1-2-0.2-2.1,1c-0.1,0.9,0.7,1.5,1.5,2c3.3,2.2,6.8,3.6,11,3.1c6.7-0.7,13.2-3,18.9-6.6c0.7-0.4,1.6-1.1,1.2-2.1
				c-0.3-0.8-1.2-0.6-1.9-0.5c-4.8,0.5-9.5,1-14.3,1.6c0,0,0-0.1,0-0.1C136.8,152.8,132.1,153.3,127.3,153.8 M566.8,534
				c-8.3-4.6-17.2-7.9-26.4-9.7c-4.9-1-9.8-1.8-14.6-2.9c-2-0.4-4.1-0.3-6,0.6c19.2,5.6,37.9,10,54.9,19.5
				C572.9,537.9,570,535.7,566.8,534 M316.8,330.6c6.1,5,13.5,7.1,20.9,8.4c15.2,2.8,30.4,5.5,46,5.3c3.7,0,7.3,0.6,11,0.9l0.2-1.2
				C368.6,341.1,342.1,339.5,316.8,330.6 M245.9,349.4c-2.7,8.3-6.4,16.2-11,23.5c-1.8,3.3-4.2,6.1-7.1,8.5c-0.5,0.4-1.2,1-0.7,1.7
				c0.5,0.5,1.1,0.8,1.8,0.8c2-0.2,3.8-1,5.2-2.4c2.8-2.4,4.4-5.5,5.9-8.7c5.5-11.9,8.9-24.5,10.2-37.5
				C248.8,340,247.3,344.7,245.9,349.4 M184,190.1c-2.2,4-4.1,8.2-7,11.9c-0.4,0.5-0.9,1.3-0.7,1.8c0.3,1,1.3,1,2.2,1
				c1.4-0.1,2.8-0.6,3.8-1.5c5.7-4.6,8.2-11,10.3-17.6c0.9-2.9-2-4.6-2.8-7.4C187,182.1,186.1,186.4,184,190.1 M213.6,119.2
				c-2.1,10.8,5.9,43.7,12.4,51.2C219.3,153.5,216.1,137,213.6,119.2 M352.1,353c13.6,5.2,27.5,5.2,41.6,3.5
				C379.8,355.4,366,354.1,352.1,353 M357.2,357.3c1.9,2.2,3.7,2.3,5.3,2.6c10,1.7,20.2,2.1,30.3,1.4c3.3-0.2,6.6-0.4,9.3-3.1
				C387.2,360.2,372,359.9,357.2,357.3 M160.6,137.9c0.3-0.6,0.5-1.3,0.6-2c0.1-0.7,0.2-1.5-0.5-1.9c-0.8-0.5-1.3,0.3-1.6,0.9
				c-2.6,4.2-6.2,7.3-10.1,10.2c-2,1.5-4.2,2.4-6.3,3.8C151.4,149.7,156.5,144.6,160.6,137.9 M225.2-104.8c-0.3,0.2-0.6,0.4-0.8,0.7
				c-3.4,5.8-7.6,11.1-9.7,17.6c-0.3,1-0.5,2-0.7,3.1c-0.1,0.5-0.3,1.1,0.3,1.4c0.6,0.3,0.9-0.3,1.1-0.8c0.9-1.7,1.8-3.4,2.6-5.2
				c2.3-5,5.8-9.3,7.7-14.5c0.2-0.7,0.5-1.3,0.7-1.9C226.1-105,225.7-105.1,225.2-104.8 M262.3,140.2c-0.4-0.4-1-0.4-1.4,0
				c-0.7,0.6-0.4,1.4,0.2,1.7c3.6,2.4,6.8,5.3,11.1,6.7C269.6,144.9,265.3,143.3,262.3,140.2 M162.4,143.4c-0.7-1.3-1.4-1.4-2.3-0.3
				c-0.6,0.8-1.2,1.7-1.8,2.6c-0.4,0.6-1.1,1.2-0.7,1.8c0.4,0.6,1.2,0.4,1.9,0.2C163,147.2,163.7,146,162.4,143.4 M230-124.6
				c0.3-0.3,0.7-0.9,0.3-1.3c-0.4-0.4-1-0.2-1.5,0.1c-2.1,1.3-3.6,3.3-4.3,5.6C227.3-121.4,228.6-123.1,230-124.6 M122.8,157.3
				c-1.2-0.9-2-2.6-3.9-2.1c-0.5,0.2-0.8,0.7-0.6,1.2c0,0,0,0,0,0.1c0.9,1.8,2.7,2.2,4.4,2.5c0.6,0.1,1-0.2,0.7-1
				C123.2,157.8,123,157.5,122.8,157.3 M208.9,102.1c0.1,0.6,0.4,1.5,1.3,1.2c0.8-0.3,0.6-1.1,0.5-1.7c-0.2-1.2-0.4-2.4-0.7-4
				C208.8,98.8,208.4,100.5,208.9,102.1 M403,400.5c0-0.1,0-0.3-0.1-0.4l-7.2,0.8l0.2,0.7L403,400.5 M282.2,436.5
				c0,0.3,0,0.6,0.1,0.9c0.1,0.3,0.2,0.6,0.3,0.8c0-0.3-0.1-0.6-0.1-1.1L282.2,436.5 M219.8,138.2c0-0.5-0.3-0.6-0.5-0.3
				c-0.1,0.3,0,0.7,0.1,1c0.1,0.3,0.3,0.7,0.4,1C219.9,139.1,219.9,138.6,219.8,138.2 M487.8,467.2c-0.5-0.1-1.1-0.1-1.3,0.4
				c-0.1,0.2,0.3,0.7,0.5,0.8c0.4,0.3,0.9,0.2,1.2-0.2c0.1-0.1,0.1-0.2,0.1-0.2c0.1-0.3,0-0.6-0.3-0.7
				C487.9,467.2,487.9,467.2,487.8,467.2 M377.3,442.5c-0.3-0.2-0.6-0.4-0.9-0.6c0,0.3-0.2,0.7,0,0.9c0.2,0.2,0.6,0.3,0.9,0.4
				C377.7,443.1,377.7,442.8,377.3,442.5 M214.7,113l-0.1,0.3l0.2,0L214.7,113z M215.4,117.4c-0.2-0.3-0.4-0.2-0.4,0.3
				c0,0.1,0.1,0.2,0.2,0.4l0.2-0.2C215.4,117.7,215.5,117.5,215.4,117.4 M386.8,403c0,0.1,0,0.2,0,0.3c0.1,0,0.3,0,0.4,0
				c0,0,0-0.2,0-0.2C387.1,402.9,387,403,386.8,403 M466.6,369.8l0.5,0.1l-0.1-0.3L466.6,369.8z M442,466.8l-0.4,0.2l0.4,0.1
				L442,466.8z M308.5,420.5l0.2,0.7l0.1-0.4L308.5,420.5 M217.4,129l0.3-0.1l-0.3-0.3L217.4,129z"/>
			<path id="Tracé_45798" class="st0" d="M261.4,102.4c-0.7-3.1-3.1-4.9-5-7l0.1-0.1C257,98.4,258.2,101,261.4,102.4L261.4,102.4z"
				/>
			<path id="Tracé_45799" class="st0" d="M272.3,116.4c1.2,2.3,2.5,4.6,5.3,5.3l0.1,0.1C275.7,120.3,275.4,116.9,272.3,116.4
				L272.3,116.4z"/>
			<path id="Tracé_45800" class="st0" d="M311,152.8c-0.5-1.9-1.8-2.6-3.6-2.8l0.1-0.1C308.3,151.3,309.2,152.6,311,152.8
				L311,152.8z"/>
			<path id="Tracé_45801" class="st0" d="M266.7,107.7c-1.2-0.5-1.3-2.4-2.9-2.3l0.1-0.1C264.2,106.7,264.6,108.2,266.7,107.7
				L266.7,107.7z"/>
			<path id="Tracé_45802" class="st0" d="M263.8,105.4c0-1.5-1-2.7-2.5-3l0.1-0.1C261.8,103.7,262.3,104.9,263.8,105.4L263.8,105.4
				z"/>
			<path id="Tracé_45803" class="st0" d="M266.6,107.7C266.7,107.7,266.7,107.7,266.6,107.7C266.7,107.7,266.7,107.7,266.6,107.7"
				/>
			<path id="Tracé_45804" class="st0" d="M272.2,116.5l0.3-0.3c0,0-0.1,0.2-0.1,0.2S272.2,116.5,272.2,116.5"/>
			<path id="Tracé_45805" class="st0" d="M277.7,121.8l0.1,0.3c0,0,0-0.2,0-0.2C277.8,121.9,277.7,121.8,277.7,121.8"/>
			<path id="Tracé_45806" class="st0" d="M303.8,147.1l-0.1-0.2l0.2,0.1L303.8,147.1z"/>
			<path id="Tracé_45807" class="st0" d="M307.4,150.1c0-0.5-0.5-0.9-1-0.9c0,0-0.1,0-0.1,0l0.1-0.1c0,0.5,0.4,0.9,0.8,0.9
				c0.1,0,0.2,0,0.3,0L307.4,150.1z"/>
			<path id="Tracé_45808" class="st0" d="M306.3,149.2c-0.4-0.3-0.8-0.5-1.3-0.8c-0.6-0.4,0.1-0.1,0.1-0.1l1.3,0.8L306.3,149.2z"/>
			<path id="Tracé_45809" class="st0" d="M303.9,147c0.4,0.4,0.9,0.8,1.3,1.2c0.6,0.6-0.1,0.1-0.1,0.1c-0.4-0.4-0.9-0.8-1.3-1.2
				L303.9,147"/>
			<path id="Tracé_45810" class="st0" d="M390.9,432.2c0.7,1.3,2.1,2.1,3.6,1.9C393.7,432.8,392.3,432.1,390.9,432.2"/>
			<path id="Tracé_45811" class="st0" d="M388.6,431.4c0.6,1,1.5,0.9,2.4,0.9C390.4,431.6,389.5,431.3,388.6,431.4"/>
			<path id="Tracé_45812" class="st0" d="M200.6,331.8l-0.2,0c0,0,0.1,0.1,0.1,0.2C200.4,331.9,200.6,331.8,200.6,331.8"/>
			<path id="Tracé_45813" class="st0" d="M233.3,111.8c-1.3-2.2-2.5-4.7-4.6-6.6c-0.6-0.6-1.3,0.2-1.4,0.9c-0.2,2,2.2,6.3,4,7
				C232.2,113.5,233,113.2,233.3,111.8"/>
			<path id="Tracé_45814" class="st0" d="M236.2,117.3c-0.1-0.8-0.1-1.3-0.2-1.8c0-0.7-0.6-1.2-1.3-1.1c0,0-0.1,0-0.1,0
				c-0.8,0.1-1.3,0.8-1.2,1.6c0,0.1,0.1,0.3,0.1,0.4c0.5,0.9,1.2,1.7,1.8,2.4c0.3,0.4,0.5,1.1,1.1,0.8c1-0.4,0.3-1.1,0-1.6
				C236.3,117.7,236.2,117.4,236.2,117.3"/>
			<path id="Tracé_45815" class="st0" d="M226.2,100.8c-0.7,0.1-1.3,0.4-1.2,1.3c0.1,0.7,0.8,1.2,1.5,1.1c0.5,0,0.9-0.4,0.9-1
				c0,0,0,0,0-0.1C227.5,101.5,227,100.9,226.2,100.8C226.3,100.8,226.3,100.8,226.2,100.8"/>
			<path id="Tracé_45816" class="st0" d="M224,97.1c-0.4,0-0.8,0.3-0.8,0.7c0,0.1,0,0.2,0.1,0.3c0.1,0.3,0.3,0.6,0.6,0.7
				c0.5,0.1,1-0.2,1.1-0.6c0,0,0-0.1,0-0.1C225.1,97.4,224.6,97.2,224,97.1"/>
			<path id="Tracé_45817" class="st0" d="M235.8,164.4l0.2,0l-0.3-0.1L235.8,164.4"/>
			<path id="Tracé_45818" class="st0" d="M457.4,469.2l-0.1-1.2C456.4,468.5,456.2,468.9,457.4,469.2"/>
		</g>
	</g>
</g>
</svg>
