<?xml version="1.0" encoding="utf-8"?>
<!-- Generator: Adobe Illustrator 26.0.3, SVG Export Plug-In . SVG Version: 6.00 Build 0)  -->
<svg version="1.1" id="Calque_1" xmlns="http://www.w3.org/2000/svg" xmlns:xlink="http://www.w3.org/1999/xlink" x="0px" y="0px"
	 viewBox="0 0 53 53" style="enable-background:new 0 0 53 53;" xml:space="preserve">
<style type="text/css">
	.st0{fill:#E39077;}
	.st1{clip-path:url(#SVGID_00000124845694843168026180000003296313748300171951_);}
	.st2{fill:#FFFFFF;}
</style>
<g id="Groupe_4132" transform="translate(0 0.415)">
	<path id="Rectangle_339" class="st0" d="M26.5-0.4L26.5-0.4C41.1-0.4,53,11.4,53,26.1l0,0c0,14.6-11.9,26.5-26.5,26.5l0,0
		C11.9,52.6,0,40.7,0,26.1l0,0C0,11.4,11.9-0.4,26.5-0.4z"/>
	<g id="Groupe_4037" transform="translate(15 14)">
		<g>
			<defs>
				<rect id="SVGID_1_" y="0" width="26.6" height="26"/>
			</defs>
			<clipPath id="SVGID_00000126312281199851305770000000421584851882919055_">
				<use xlink:href="#SVGID_1_"  style="overflow:visible;"/>
			</clipPath>
			<g id="Groupe_4036" style="clip-path:url(#SVGID_00000126312281199851305770000000421584851882919055_);">
				<path id="Tracé_71876" class="st2" d="M20.3,11.6V4.1c0-1.3-1.1-2.4-2.4-2.4h-3V0.9C14.8,0.4,14.4,0,14,0
					c-0.5,0-0.8,0.4-0.8,0.8v0.8h-6V0.9C7.1,0.4,6.8,0,6.3,0C5.8,0,5.4,0.4,5.4,0.9v0.8h-3C1.1,1.7,0,2.8,0,4.1v13.1
					c0,1.3,1.1,2.4,2.4,2.4h9.8c0.5,3.9,4,6.8,8,6.3s6.8-4,6.3-8C26.2,14.6,23.6,12,20.3,11.6L20.3,11.6z M2.4,3.4h3v0.8
					c0,0.5,0.4,0.9,0.9,0.8c0.5,0,0.8-0.4,0.8-0.8V3.4h6v0.8c0,0.5,0.4,0.9,0.9,0.8c0.5,0,0.8-0.4,0.8-0.8V3.4h3
					c0.4,0,0.7,0.3,0.7,0.7c0,0,0,0,0,0v2.9H1.7V4.1C1.7,3.7,2,3.4,2.4,3.4L2.4,3.4z M1.7,17.2V8.8h16.8v2.9c-3.3,0.4-5.9,3-6.3,6.3
					H2.4C2,17.9,1.7,17.6,1.7,17.2L1.7,17.2z M19.4,24.3c-3,0-5.5-2.5-5.5-5.5c0-3,2.5-5.5,5.5-5.5c3,0,5.5,2.5,5.5,5.5
					C24.9,21.8,22.4,24.3,19.4,24.3"/>
				<path id="Tracé_71877" class="st2" d="M21.8,17.9h-1.5v-2.1c0-0.5-0.4-0.9-0.8-0.9c-0.5,0-0.9,0.4-0.9,0.8c0,0,0,0,0,0.1v2.9
					c0,0.5,0.4,0.9,0.9,0.9h2.4c0.5,0,0.9-0.4,0.9-0.8C22.7,18.3,22.3,17.9,21.8,17.9C21.8,17.9,21.8,17.9,21.8,17.9L21.8,17.9z"/>
			</g>
		</g>
	</g>
</g>
</svg>
