<svg xmlns="http://www.w3.org/2000/svg" xmlns:xlink="http://www.w3.org/1999/xlink" width="385.034" height="85.396" viewBox="0 0 385.034 85.396">
  <defs>
    <clipPath id="clip-path">
      <rect id="Rectangle_81" data-name="Rectangle 81" width="385.034" height="85.396" fill="#fff"/>
    </clipPath>
  </defs>
  <g id="Groupe_3825" data-name="Groupe 3825" transform="translate(0 -0.001)">
    <g id="Groupe_3824" data-name="Groupe 3824" transform="translate(0 0.001)" clip-path="url(#clip-path)">
      <path id="Tracé_16140" data-name="Tracé 16140" d="M8.908,1.962,9.234.65h14.8L23.7,1.962h-1.78a3.11,3.11,0,0,0-2.275.893,5.347,5.347,0,0,0-1.324,2.569L12.1,30.2q-.7,2.784-.076,3.936t3.36,1.155h1.682a12.138,12.138,0,0,0,6.691-1.679A12.874,12.874,0,0,0,28.1,28.517l.919-1.786h1.312l-3.52,10.656H0l.332-1.312H2.115a3.12,3.12,0,0,0,2.272-.893,5.338,5.338,0,0,0,1.33-2.572L12.55,5.424a3.729,3.729,0,0,0-.038-2.569,1.85,1.85,0,0,0-1.824-.893Z" transform="translate(0 1.239)" fill="#fff"/>
      <path id="Tracé_16141" data-name="Tracé 16141" d="M26.977,4.041a10.641,10.641,0,0,1,3.8.631,6.469,6.469,0,0,1,2.668,1.81,5.755,5.755,0,0,1,1.3,2.863,9.3,9.3,0,0,1-.25,3.828,6.12,6.12,0,0,1-.951,2.1,1.736,1.736,0,0,1-1.327.89H18.732a28.026,28.026,0,0,0-.724,4.253,12.582,12.582,0,0,0,.209,4.067,5.827,5.827,0,0,0,1.719,3.066,5.482,5.482,0,0,0,3.872,1.207,8.406,8.406,0,0,0,5.365-1.836,15.874,15.874,0,0,0,3.892-4.512h1.309A16.265,16.265,0,0,1,32.344,25.9a14.412,14.412,0,0,1-2.988,2.912,14.639,14.639,0,0,1-3.887,1.993,14.413,14.413,0,0,1-4.669.736,11.192,11.192,0,0,1-4.483-.867,7.683,7.683,0,0,1-3.258-2.6,9.145,9.145,0,0,1-1.551-4.355,17.175,17.175,0,0,1,.57-6.138,20.624,20.624,0,0,1,2.316-5.67A18.491,18.491,0,0,1,17.889,7.64,14.048,14.048,0,0,1,22.206,4.96a13.075,13.075,0,0,1,4.771-.919M19.285,14.38H28.42l.448-1.783a9.083,9.083,0,0,0,.157-4.908,2.43,2.43,0,0,0-2.5-1.862A5.209,5.209,0,0,0,22.34,8.085a19.98,19.98,0,0,0-3.055,6.3" transform="translate(21.816 7.714)" fill="#fff"/>
      <path id="Tracé_16142" data-name="Tracé 16142" d="M35.553.65h15.9a17.307,17.307,0,0,1,6.208,1.1,11.783,11.783,0,0,1,4.806,3.3A11.684,11.684,0,0,1,65.04,10.6a18.062,18.062,0,0,1-.477,7.843,26.532,26.532,0,0,1-3.244,7.686,25.92,25.92,0,0,1-5.1,5.984,23.345,23.345,0,0,1-6.246,3.884,17.462,17.462,0,0,1-6.758,1.394h-16.9l.329-1.315h1.783a3.113,3.113,0,0,0,2.272-.89,5.365,5.365,0,0,0,1.332-2.572L38.869,5.424a3.737,3.737,0,0,0-.038-2.572,1.848,1.848,0,0,0-1.824-.89H35.224Zm6.121,34.742h.838a12.05,12.05,0,0,0,4.759-.972,13.271,13.271,0,0,0,4.271-2.991,21.678,21.678,0,0,0,3.584-5.088,32.68,32.68,0,0,0,2.653-7.218,23.633,23.633,0,0,0,.838-7.3,12.278,12.278,0,0,0-1.359-5.141,7.331,7.331,0,0,0-3.037-3.046,9.055,9.055,0,0,0-4.262-1H48.385a4.223,4.223,0,0,0-2.371.657,3.232,3.232,0,0,0-1.347,2.019L38.456,30.036q-.707,2.788-.111,4.073t3.328,1.283" transform="translate(50.248 1.239)" fill="#fff"/>
      <path id="Tracé_16143" data-name="Tracé 16143" d="M56.605,4.041a10.442,10.442,0,0,1,4.611.969A7.574,7.574,0,0,1,64.35,7.794a9.848,9.848,0,0,1,1.394,4.358,16.579,16.579,0,0,1-.521,5.638,20.851,20.851,0,0,1-2.313,5.644,18.607,18.607,0,0,1-3.587,4.358A15.258,15.258,0,0,1,54.79,30.57a13.87,13.87,0,0,1-5.1.975,10.371,10.371,0,0,1-4.608-.975,7.55,7.55,0,0,1-3.136-2.778,9.861,9.861,0,0,1-1.4-4.358,16.564,16.564,0,0,1,.527-5.644,20.523,20.523,0,0,1,2.313-5.638,18.326,18.326,0,0,1,3.584-4.358A15.313,15.313,0,0,1,51.509,5.01a13.9,13.9,0,0,1,5.1-.969M47.375,17.79a32.761,32.761,0,0,0-.858,4.78,13.624,13.624,0,0,0,.093,3.8,4.7,4.7,0,0,0,1.187,2.5,3.133,3.133,0,0,0,2.345.89,4.92,4.92,0,0,0,2.8-.89,9.335,9.335,0,0,0,2.438-2.5,19.636,19.636,0,0,0,2-3.8,35.992,35.992,0,0,0,1.542-4.78,32.673,32.673,0,0,0,.87-4.8,13.7,13.7,0,0,0-.1-3.779,4.727,4.727,0,0,0-1.184-2.493,3.151,3.151,0,0,0-2.348-.89,4.942,4.942,0,0,0-2.8.89,9.444,9.444,0,0,0-2.435,2.493,19.637,19.637,0,0,0-2,3.779,35.785,35.785,0,0,0-1.551,4.8" transform="translate(77.305 7.714)" fill="#fff"/>
      <path id="Tracé_16144" data-name="Tracé 16144" d="M58.345,4.355A3.738,3.738,0,0,1,61.63,5.9q1.082,1.549.381,4.332l-.186.73a14.045,14.045,0,0,1,4.1-5.036,9.457,9.457,0,0,1,5.827-1.888q3.622,0,5.161,2.124t.6,5.853l-3.351,13.33q-.777,3.094.8,3.1a2.969,2.969,0,0,0,2.252-1.236,10.728,10.728,0,0,0,1.743-2.962h1.2a13.149,13.149,0,0,1-1.076,2.621A9.589,9.589,0,0,1,77.424,29.1a7.726,7.726,0,0,1-2.258,1.551,6.856,6.856,0,0,1-2.845.573,3.721,3.721,0,0,1-3.284-1.548,5.187,5.187,0,0,1-.381-4.326l3.113-12.387a7.616,7.616,0,0,0,.093-4.541,2.444,2.444,0,0,0-2.484-1.6,5.227,5.227,0,0,0-2.88.916,11.426,11.426,0,0,0-2.679,2.519,18.961,18.961,0,0,0-2.275,3.727,24.457,24.457,0,0,0-1.6,4.489l-1.728,6.874q-.781,3.094.8,3.1a2.96,2.96,0,0,0,2.252-1.236A10.873,10.873,0,0,0,63,24.245H64.21a13.335,13.335,0,0,1-1.079,2.621A9.518,9.518,0,0,1,61.467,29.1a7.637,7.637,0,0,1-2.255,1.551,6.86,6.86,0,0,1-2.848.573,3.732,3.732,0,0,1-3.284-1.548,5.177,5.177,0,0,1-.378-4.326l3.8-15.113q.781-3.1-.794-3.1a2.974,2.974,0,0,0-2.249,1.207,10.561,10.561,0,0,0-1.746,2.988H50.5A13.059,13.059,0,0,1,51.584,8.71a9.408,9.408,0,0,1,1.661-2.231A7.708,7.708,0,0,1,55.5,4.931a6.8,6.8,0,0,1,2.848-.576" transform="translate(96.424 7.714)" fill="#fff"/>
      <path id="Tracé_16145" data-name="Tracé 16145" d="M68.4,19.431a30.6,30.6,0,0,1,2.924-7.456,25.245,25.245,0,0,1,4.614-6.031A20.569,20.569,0,0,1,82.018,1.9,18.22,18.22,0,0,1,89.341.434a14.985,14.985,0,0,1,4.934.733,10.55,10.55,0,0,1,3.433,1.888,6.043,6.043,0,0,1,1.836,2.621,5.154,5.154,0,0,1,.125,2.941,4.671,4.671,0,0,1-1.961,2.994,5.412,5.412,0,0,1-2.9.89,2.473,2.473,0,0,1-.957-.16,2.691,2.691,0,0,1-.34-.1l.148-1.207a14.9,14.9,0,0,0,.067-3.3,7.737,7.737,0,0,0-.751-2.758A4.469,4.469,0,0,0,91.24,3.11a5.619,5.619,0,0,0-2.924-.687q-4.255,0-7.616,4.1t-5.251,11.6a27.226,27.226,0,0,0-.934,7.165,14,14,0,0,0,1.053,5.405,7.589,7.589,0,0,0,2.816,3.41,7.826,7.826,0,0,0,4.346,1.181,11.367,11.367,0,0,0,3.951-.681,12.252,12.252,0,0,0,3.43-1.943,18.061,18.061,0,0,0,2.927-2.988A25.661,25.661,0,0,0,95.5,25.831h1.315a20.164,20.164,0,0,1-2.8,5.277,19.317,19.317,0,0,1-3.933,3.962,17.153,17.153,0,0,1-10.185,3.357,14.057,14.057,0,0,1-6.624-1.42,9.85,9.85,0,0,1-4.1-3.936,13.68,13.68,0,0,1-1.612-6.007,25.514,25.514,0,0,1,.844-7.634" transform="translate(128.919 0.827)" fill="#fff"/>
      <path id="Tracé_16146" data-name="Tracé 16146" d="M92.871,4.041A5.569,5.569,0,0,1,97,5.667a6.912,6.912,0,0,1,1.83,4.515l.355-1.42a5.946,5.946,0,0,1,1.943-3.223,5.022,5.022,0,0,1,3.314-1.181,2.035,2.035,0,0,1,.957.157.811.811,0,0,1,.326.157l-5.2,20.679q-.772,3.094.8,3.1a2.974,2.974,0,0,0,2.255-1.236,10.873,10.873,0,0,0,1.743-2.962h1.2a13.149,13.149,0,0,1-1.076,2.621,9.529,9.529,0,0,1-1.667,2.231,7.7,7.7,0,0,1-2.249,1.551,6.9,6.9,0,0,1-2.848.573,3.777,3.777,0,0,1-3.29-1.519q-1.087-1.523-.39-4.306a13.372,13.372,0,0,1-4.1,4.515,8.817,8.817,0,0,1-4.951,1.629,6.471,6.471,0,0,1-3.913-1.132A6.745,6.745,0,0,1,79.733,27.4a12.04,12.04,0,0,1-.788-4.384A20.563,20.563,0,0,1,79.6,17.79a24.38,24.38,0,0,1,1.984-5.271,20.038,20.038,0,0,1,2.991-4.381A13.663,13.663,0,0,1,88.4,5.144a9.534,9.534,0,0,1,4.474-1.1M85.9,17.79a21.346,21.346,0,0,0-.8,8.111q.476,3.015,3.046,3.017a4.67,4.67,0,0,0,2.33-.71,10.2,10.2,0,0,0,2.42-2.019,15.353,15.353,0,0,0,2.191-3.177,18.184,18.184,0,0,0,1.571-4.172l.529-2.1a15.6,15.6,0,0,0,.529-4.172,9.206,9.206,0,0,0-.6-3.177,5,5,0,0,0-1.405-2.022,3.061,3.061,0,0,0-1.972-.707q-2.575,0-4.565,3.02A26.584,26.584,0,0,0,85.9,17.79" transform="translate(150.719 7.714)" fill="#fff"/>
      <path id="Tracé_16147" data-name="Tracé 16147" d="M89.722,11.334A13.058,13.058,0,0,1,90.8,8.713a9.487,9.487,0,0,1,1.661-2.231,7.666,7.666,0,0,1,2.255-1.548,6.775,6.775,0,0,1,2.845-.576,3.731,3.731,0,0,1,3.284,1.548q1.082,1.545.381,4.329l-.172.681a13.587,13.587,0,0,1,3.991-5.01,9.051,9.051,0,0,1,5.609-1.865,6.018,6.018,0,0,1,4.69,1.7,5.608,5.608,0,0,1,1.076,4.8A14.61,14.61,0,0,1,118.1,8.056a12.7,12.7,0,0,1,2.173-2.071,10.484,10.484,0,0,1,2.589-1.42,8.407,8.407,0,0,1,2.964-.524q3.46,0,5.027,2.022t.655,5.641L128.08,25.348q-.781,3.094.794,3.1a2.978,2.978,0,0,0,2.252-1.236,10.7,10.7,0,0,0,1.743-2.964h1.207A13.288,13.288,0,0,1,133,26.869a9.511,9.511,0,0,1-1.661,2.228,7.735,7.735,0,0,1-2.258,1.554,6.856,6.856,0,0,1-2.845.573,3.735,3.735,0,0,1-3.285-1.548,5.2,5.2,0,0,1-.381-4.329l3.168-12.594a7.284,7.284,0,0,0,.076-4.384,2.344,2.344,0,0,0-2.362-1.548,4.8,4.8,0,0,0-2.752.919,11.123,11.123,0,0,0-2.516,2.493,19.06,19.06,0,0,0-2.135,3.7,26.709,26.709,0,0,0-1.562,4.538l-1.728,6.874q-.781,3.094.794,3.1A2.97,2.97,0,0,0,115.8,27.21a10.769,10.769,0,0,0,1.74-2.964h1.21a13.124,13.124,0,0,1-1.082,2.624,9.353,9.353,0,0,1-1.661,2.228,7.684,7.684,0,0,1-2.255,1.554,6.86,6.86,0,0,1-2.848.573,3.738,3.738,0,0,1-3.284-1.548,5.2,5.2,0,0,1-.381-4.329l3.168-12.594a7.642,7.642,0,0,0,.131-4.384,2.254,2.254,0,0,0-2.313-1.548,4.911,4.911,0,0,0-2.775.919,10.748,10.748,0,0,0-2.551,2.519,21.2,21.2,0,0,0-2.17,3.724,25.987,25.987,0,0,0-1.574,4.489l-1.728,6.874q-.777,3.094.8,3.1a2.969,2.969,0,0,0,2.252-1.236,10.7,10.7,0,0,0,1.743-2.964h1.207a13.283,13.283,0,0,1-1.079,2.624,9.431,9.431,0,0,1-1.661,2.228,7.7,7.7,0,0,1-2.258,1.554,6.856,6.856,0,0,1-2.845.573A3.738,3.738,0,0,1,92.3,29.677a5.2,5.2,0,0,1-.381-4.329l3.8-15.113q.777-3.1-.8-3.1a2.96,2.96,0,0,0-2.246,1.207,10.5,10.5,0,0,0-1.748,2.988Z" transform="translate(171.297 7.714)" fill="#fff"/>
      <path id="Tracé_16148" data-name="Tracé 16148" d="M114.089,12.07a3.737,3.737,0,0,1,3.284,1.551,5.183,5.183,0,0,1,.378,4.329l-3.8,15.113q-.777,3.094.794,3.1A2.979,2.979,0,0,0,117,34.925a10.841,10.841,0,0,0,1.74-2.964h1.2a13.1,13.1,0,0,1-1.076,2.624,9.363,9.363,0,0,1-1.664,2.228,7.694,7.694,0,0,1-2.249,1.554,6.955,6.955,0,0,1-2.848.573,3.725,3.725,0,0,1-3.284-1.548,5.182,5.182,0,0,1-.387-4.329l3.8-15.113q.781-3.1-.8-3.1a2.967,2.967,0,0,0-2.243,1.21,10.5,10.5,0,0,0-1.748,2.988h-1.207a12.915,12.915,0,0,1,1.079-2.624,9.481,9.481,0,0,1,1.664-2.228,7.547,7.547,0,0,1,2.249-1.548,6.794,6.794,0,0,1,2.851-.579m-.16-8.553A4.5,4.5,0,0,1,115.593.972,4.4,4.4,0,0,1,118.334,0a2.786,2.786,0,0,1,2.272.972,2.752,2.752,0,0,1,.41,2.546,4.541,4.541,0,0,1-1.7,2.6,4.516,4.516,0,0,1-2.764.972,2.712,2.712,0,0,1-2.249-.972,2.855,2.855,0,0,1-.369-2.6" transform="translate(202.844 -0.001)" fill="#fff"/>
      <path id="Tracé_16149" data-name="Tracé 16149" d="M121.094.108a4.132,4.132,0,0,1,3.494,1.548,4.842,4.842,0,0,1,.5,4.277l-6.767,26.925q-.781,3.094.794,3.1a2.974,2.974,0,0,0,2.255-1.236,10.8,10.8,0,0,0,1.74-2.962h1.2a12.811,12.811,0,0,1-1.076,2.621,9.507,9.507,0,0,1-1.661,2.231,7.712,7.712,0,0,1-2.255,1.551,6.87,6.87,0,0,1-2.848.573,3.721,3.721,0,0,1-3.284-1.548,5.187,5.187,0,0,1-.381-4.326l6.7-26.66a4.008,4.008,0,0,0,.058-2.205,1.182,1.182,0,0,0-1.234-.841,3.29,3.29,0,0,0-2.42,1.181,7.813,7.813,0,0,0-1.69,2.863h-1.263a11.322,11.322,0,0,1,1.085-2.758,8.984,8.984,0,0,1,1.775-2.255A8.086,8.086,0,0,1,118.2.658a7.381,7.381,0,0,1,2.892-.55" transform="translate(214.851 0.205)" fill="#fff"/>
      <path id="Tracé_16150" data-name="Tracé 16150" d="M126.775.108a4.132,4.132,0,0,1,3.494,1.548,4.842,4.842,0,0,1,.5,4.277L124,32.857q-.781,3.094.794,3.1a2.974,2.974,0,0,0,2.255-1.236,10.794,10.794,0,0,0,1.74-2.962H130a12.812,12.812,0,0,1-1.076,2.621,9.507,9.507,0,0,1-1.661,2.231A7.713,7.713,0,0,1,125,38.157a6.87,6.87,0,0,1-2.848.573,3.721,3.721,0,0,1-3.284-1.548,5.187,5.187,0,0,1-.381-4.326l6.7-26.66a4.007,4.007,0,0,0,.058-2.205,1.182,1.182,0,0,0-1.234-.841,3.29,3.29,0,0,0-2.42,1.181,7.812,7.812,0,0,0-1.69,2.863h-1.263a11.324,11.324,0,0,1,1.085-2.758A8.985,8.985,0,0,1,121.5,2.182a8.087,8.087,0,0,1,2.38-1.524,7.381,7.381,0,0,1,2.892-.55" transform="translate(225.697 0.205)" fill="#fff"/>
      <path id="Tracé_16151" data-name="Tracé 16151" d="M139.764,4.041a10.442,10.442,0,0,1,4.611.969,7.574,7.574,0,0,1,3.133,2.784,9.847,9.847,0,0,1,1.393,4.358,16.577,16.577,0,0,1-.521,5.638,20.852,20.852,0,0,1-2.313,5.644,18.608,18.608,0,0,1-3.587,4.358,15.258,15.258,0,0,1-4.533,2.778,13.87,13.87,0,0,1-5.1.975,10.372,10.372,0,0,1-4.608-.975,7.551,7.551,0,0,1-3.136-2.778,9.861,9.861,0,0,1-1.4-4.358,16.564,16.564,0,0,1,.527-5.644,20.522,20.522,0,0,1,2.313-5.638,18.325,18.325,0,0,1,3.584-4.358,15.313,15.313,0,0,1,4.533-2.784,13.9,13.9,0,0,1,5.1-.969M130.534,17.79a32.76,32.76,0,0,0-.858,4.78,13.623,13.623,0,0,0,.093,3.8,4.7,4.7,0,0,0,1.187,2.5,3.133,3.133,0,0,0,2.345.89,4.92,4.92,0,0,0,2.8-.89,9.336,9.336,0,0,0,2.438-2.5,19.636,19.636,0,0,0,2-3.8,35.994,35.994,0,0,0,1.542-4.78,32.679,32.679,0,0,0,.87-4.8,13.7,13.7,0,0,0-.1-3.779,4.726,4.726,0,0,0-1.184-2.493,3.151,3.151,0,0,0-2.348-.89,4.942,4.942,0,0,0-2.8.89,9.444,9.444,0,0,0-2.435,2.493,19.635,19.635,0,0,0-2,3.779,35.782,35.782,0,0,0-1.551,4.8" transform="translate(236.071 7.714)" fill="#fff"/>
      <path id="Tracé_16152" data-name="Tracé 16152" d="M40.74,19.451h9.4A10.231,10.231,0,0,1,53.8,20.1a6.661,6.661,0,0,1,4.364,5.228,10.67,10.67,0,0,1-.282,4.634,15.728,15.728,0,0,1-1.917,4.544,15.34,15.34,0,0,1-3.017,3.535,13.652,13.652,0,0,1-3.692,2.3,10.277,10.277,0,0,1-3.991.82H35.282l.192-.771H36.53a1.829,1.829,0,0,0,1.341-.532,3.162,3.162,0,0,0,.788-1.516L42.7,22.273a2.249,2.249,0,0,0-.02-1.519,1.107,1.107,0,0,0-1.079-.529H40.542Zm3.613,20.53h.5a7.124,7.124,0,0,0,2.813-.573,7.729,7.729,0,0,0,2.519-1.769,12.67,12.67,0,0,0,2.124-3.005,19.478,19.478,0,0,0,1.565-4.268,13.912,13.912,0,0,0,.5-4.309,7.3,7.3,0,0,0-.8-3.04,4.334,4.334,0,0,0-1.8-1.8,5.326,5.326,0,0,0-2.516-.591h-.931a2.525,2.525,0,0,0-1.4.387,1.9,1.9,0,0,0-.8,1.2L42.453,36.819a3.808,3.808,0,0,0-.061,2.4q.349.764,1.961.762" transform="translate(67.36 37.134)" fill="#fff"/>
      <path id="Tracé_16153" data-name="Tracé 16153" d="M52.845,21.455a6.288,6.288,0,0,1,2.246.372,3.791,3.791,0,0,1,1.58,1.071,3.437,3.437,0,0,1,.768,1.693,5.6,5.6,0,0,1-.148,2.26,3.658,3.658,0,0,1-.564,1.242,1.021,1.021,0,0,1-.783.527H47.972a16.665,16.665,0,0,0-.431,2.514,7.638,7.638,0,0,0,.125,2.4,3.448,3.448,0,0,0,1.018,1.815,3.253,3.253,0,0,0,2.287.71,4.98,4.98,0,0,0,3.171-1.082,9.516,9.516,0,0,0,2.3-2.671h.771a9.538,9.538,0,0,1-1.2,2.066,8.45,8.45,0,0,1-4.061,2.9,8.464,8.464,0,0,1-2.761.433,6.664,6.664,0,0,1-2.65-.509,4.527,4.527,0,0,1-1.923-1.539,5.39,5.39,0,0,1-.919-2.572,10.171,10.171,0,0,1,.337-3.631,12.211,12.211,0,0,1,1.37-3.348,10.978,10.978,0,0,1,2.063-2.525A8.287,8.287,0,0,1,50.026,22a7.716,7.716,0,0,1,2.819-.544M48.3,27.564h5.4l.262-1.05a5.343,5.343,0,0,0,.1-2.9,1.434,1.434,0,0,0-1.475-1.1A3.086,3.086,0,0,0,50.1,23.846a11.77,11.77,0,0,0-1.8,3.718" transform="translate(83.343 40.96)" fill="#fff"/>
      <path id="Tracé_16154" data-name="Tracé 16154" d="M50.023,25.766a7.731,7.731,0,0,1,.637-1.551,5.569,5.569,0,0,1,.98-1.321,4.52,4.52,0,0,1,1.335-.913,4.046,4.046,0,0,1,1.682-.34,2.233,2.233,0,0,1,1.943.9,3,3,0,0,1,.23,2.543,7.888,7.888,0,0,1,2.42-2.665,5.2,5.2,0,0,1,2.927-.963,3.712,3.712,0,0,1,3.689,2.42,7.3,7.3,0,0,1,.465,2.589,12.3,12.3,0,0,1-.4,3.116,14.357,14.357,0,0,1-1.161,3.087A12.224,12.224,0,0,1,63,35.256a8.338,8.338,0,0,1-2.263,1.783,5.552,5.552,0,0,1-2.647.666,3.281,3.281,0,0,1-2.444-.96,4.079,4.079,0,0,1-1.079-2.668l-1.949,7.753a3.5,3.5,0,0,1-1.146,1.906,2.99,2.99,0,0,1-1.961.7,1.462,1.462,0,0,1-.567-.1.514.514,0,0,1-.192-.093l4.809-19.134c.308-1.222.151-1.83-.468-1.83A1.747,1.747,0,0,0,51.769,24a6.318,6.318,0,0,0-1.036,1.769ZM55.545,30.2a9.1,9.1,0,0,0-.308,2.467,5.287,5.287,0,0,0,.349,1.876,2.9,2.9,0,0,0,.829,1.193,1.785,1.785,0,0,0,1.167.419,3.3,3.3,0,0,0,2.7-1.78,15.814,15.814,0,0,0,1.932-4.794,12.635,12.635,0,0,0,.477-4.789c-.189-1.193-.785-1.786-1.8-1.786a2.765,2.765,0,0,0-1.379.419,6.083,6.083,0,0,0-1.431,1.193A9.268,9.268,0,0,0,56.787,26.5a10.835,10.835,0,0,0-.931,2.464Z" transform="translate(93.083 40.96)" fill="#fff"/>
      <path id="Tracé_16155" data-name="Tracé 16155" d="M60.251,21.519a2.216,2.216,0,0,1,1.943.913,3.069,3.069,0,0,1,.224,2.56l-1.842,7.322a4.49,4.49,0,0,0-.052,2.679,1.439,1.439,0,0,0,1.466.945,3.085,3.085,0,0,0,1.7-.541,6.858,6.858,0,0,0,1.586-1.49,11.422,11.422,0,0,0,1.341-2.2,14.545,14.545,0,0,0,.948-2.65l1.018-4.064c.308-1.222.151-1.83-.468-1.83a1.742,1.742,0,0,0-1.327.716,6.272,6.272,0,0,0-1.036,1.766h-.713a7.55,7.55,0,0,1,.64-1.548,5.435,5.435,0,0,1,.98-1.321A4.578,4.578,0,0,1,68,21.859a4.093,4.093,0,0,1,1.687-.34,2.217,2.217,0,0,1,1.94.913,3.07,3.07,0,0,1,.221,2.56L69.6,33.927c-.308,1.222-.148,1.83.471,1.83a1.759,1.759,0,0,0,1.332-.73,6.352,6.352,0,0,0,1.027-1.754h.713a7.5,7.5,0,0,1-.637,1.551,5.58,5.58,0,0,1-.983,1.321,4.54,4.54,0,0,1-1.33.916,4.089,4.089,0,0,1-1.684.34,2.2,2.2,0,0,1-1.94-.916,3.05,3.05,0,0,1-.224-2.557l.108-.436a8.309,8.309,0,0,1-2.42,2.979,5.6,5.6,0,0,1-3.447,1.114,3.507,3.507,0,0,1-3.049-1.254,4.035,4.035,0,0,1-.358-3.459l1.981-7.878c.305-1.222.151-1.83-.468-1.83a1.737,1.737,0,0,0-1.327.716,6.272,6.272,0,0,0-1.036,1.766h-.71a7.541,7.541,0,0,1,.637-1.548,5.522,5.522,0,0,1,.983-1.321,4.5,4.5,0,0,1,1.329-.916,4.076,4.076,0,0,1,1.682-.34" transform="translate(106.189 41.082)" fill="#fff"/>
      <path id="Tracé_16156" data-name="Tracé 16156" d="M67.036,26.2a2.212,2.212,0,0,1,1.94.916,3.069,3.069,0,0,1,.224,2.56l-2.243,8.931c-.308,1.222-.151,1.83.468,1.83a1.754,1.754,0,0,0,1.332-.73,6.387,6.387,0,0,0,1.03-1.754H70.5a7.878,7.878,0,0,1-.643,1.554,5.7,5.7,0,0,1-.983,1.321,4.586,4.586,0,0,1-1.33.913,4.079,4.079,0,0,1-1.684.34,2.206,2.206,0,0,1-1.94-.916,3.051,3.051,0,0,1-.221-2.557l2.243-8.931c.308-1.222.148-1.83-.471-1.83a1.751,1.751,0,0,0-1.327.713,6.127,6.127,0,0,0-1.03,1.766H62.4a7.789,7.789,0,0,1,.64-1.548,5.57,5.57,0,0,1,.98-1.321,4.584,4.584,0,0,1,1.335-.916,4.066,4.066,0,0,1,1.682-.34m-.093-5.053a2.654,2.654,0,0,1,.983-1.5,2.609,2.609,0,0,1,1.618-.576,1.648,1.648,0,0,1,1.341.576,1.607,1.607,0,0,1,.241,1.5,2.663,2.663,0,0,1-1,1.536,2.69,2.69,0,0,1-1.635.573,1.6,1.6,0,0,1-1.327-.573,1.688,1.688,0,0,1-.218-1.536" transform="translate(119.132 36.399)" fill="#fff"/>
      <path id="Tracé_16157" data-name="Tracé 16157" d="M68.385,31.876a1.768,1.768,0,0,1,.687.093.825.825,0,0,1,.256.09l-.175,1.088A3.338,3.338,0,0,0,69.6,35.69a2.6,2.6,0,0,0,2.269.963,3.491,3.491,0,0,0,1.088-.186,4,4,0,0,0,1.027-.515,3.656,3.656,0,0,0,.838-.806,2.9,2.9,0,0,0,.518-1.068,1.641,1.641,0,0,0-.291-1.565,4.467,4.467,0,0,0-1.455-1.056c-.62-.3-1.289-.6-2.01-.884A11.2,11.2,0,0,1,69.6,29.548a3.977,3.977,0,0,1-1.35-1.472,3.16,3.16,0,0,1-.116-2.249,4.813,4.813,0,0,1,.916-1.847A5.869,5.869,0,0,1,70.634,22.6a7.906,7.906,0,0,1,2.077-.849,9.244,9.244,0,0,1,2.356-.3,7.936,7.936,0,0,1,1.972.233,5.379,5.379,0,0,1,1.562.637,2.642,2.642,0,0,1,.948.977,1.658,1.658,0,0,1,.14,1.222,2.232,2.232,0,0,1-.928,1.35,2.667,2.667,0,0,1-1.519.48,2.082,2.082,0,0,1-.378-.029c-.108-.02-.209-.044-.308-.064a.781.781,0,0,1-.256-.093l.131-.9a2.484,2.484,0,0,0-.41-2,2.126,2.126,0,0,0-1.778-.759,3.689,3.689,0,0,0-2,.529,2.312,2.312,0,0,0-1.071,1.426,1.534,1.534,0,0,0,.314,1.519A4.841,4.841,0,0,0,72.97,27.02c.617.3,1.295.591,2.028.87a9.94,9.94,0,0,1,1.993,1.021,4.336,4.336,0,0,1,1.367,1.475,3.045,3.045,0,0,1,.137,2.234,5.829,5.829,0,0,1-1.071,2.217,6.972,6.972,0,0,1-1.763,1.583,8.286,8.286,0,0,1-2.194.963,9.344,9.344,0,0,1-4.829.012,5.011,5.011,0,0,1-1.754-.852,2.815,2.815,0,0,1-.94-1.254,2.592,2.592,0,0,1-.052-1.521,2.358,2.358,0,0,1,.925-1.4,2.657,2.657,0,0,1,1.568-.495" transform="translate(125.632 40.96)" fill="#fff"/>
      <path id="Tracé_16158" data-name="Tracé 16158" d="M78.144,22.89l1.085-.5c.893-.41,1.8-.879,2.74-1.394a24.5,24.5,0,0,0,2.624-1.676h.774L80.524,38.585a2.219,2.219,0,0,0,.023,1.516,1.089,1.089,0,0,0,1.076.532H82.68l-.195.771H73.894l.192-.771h1.056a1.836,1.836,0,0,0,1.344-.532,3.133,3.133,0,0,0,.783-1.516l3.517-13.99a2.8,2.8,0,0,0,.128-1.178c-.055-.224-.262-.34-.614-.34a4.092,4.092,0,0,0-1.382.311l-.611.215Z" transform="translate(141.078 36.89)" fill="#fff"/>
      <path id="Tracé_16159" data-name="Tracé 16159" d="M80.069,26.871a9.14,9.14,0,0,1,1.385-3.026,10.643,10.643,0,0,1,2.292-2.388,10.76,10.76,0,0,1,2.924-1.583,9.584,9.584,0,0,1,3.247-.573A6.326,6.326,0,0,1,93,20a4.756,4.756,0,0,1,1.972,2.034,7.667,7.667,0,0,1,.753,3.27,15.949,15.949,0,0,1-.55,4.419,21.954,21.954,0,0,1-1.786,4.759,17.236,17.236,0,0,1-2.676,3.861,12.289,12.289,0,0,1-3.366,2.592,8.285,8.285,0,0,1-3.852.945,8.5,8.5,0,0,1-2.362-.282,4.541,4.541,0,0,1-1.553-.727,2.227,2.227,0,0,1-.791-1.036,2.08,2.08,0,0,1-.047-1.245,2.238,2.238,0,0,1,.951-1.376,2.666,2.666,0,0,1,1.5-.48,1.832,1.832,0,0,1,.745.122l0,.742a3.946,3.946,0,0,0,.6,2.327,2.025,2.025,0,0,0,1.789.9,3.345,3.345,0,0,0,2.019-.745,8.322,8.322,0,0,0,1.9-2.156,20.752,20.752,0,0,0,1.74-3.459,36.909,36.909,0,0,0,1.481-4.649A9.124,9.124,0,0,1,88.7,32.36a7.3,7.3,0,0,1-3.84,1.018A5.9,5.9,0,0,1,82.4,32.9a4.2,4.2,0,0,1-1.693-1.35,4.561,4.561,0,0,1-.812-2.063,6.609,6.609,0,0,1,.172-2.618m6.6,4.838A3.994,3.994,0,0,0,88.18,31.4a6.313,6.313,0,0,0,1.455-.852,8.24,8.24,0,0,0,2.316-2.93q.641-3.666-.145-5.461a2.655,2.655,0,0,0-2.557-1.8,3.8,3.8,0,0,0-1.618.384,5.238,5.238,0,0,0-1.5,1.1,7.756,7.756,0,0,0-1.239,1.722,9.892,9.892,0,0,0-.87,2.278,8.423,8.423,0,0,0-.282,2.42,4.8,4.8,0,0,0,.422,1.844,2.846,2.846,0,0,0,1.007,1.178,2.684,2.684,0,0,0,1.507.422" transform="translate(150.19 36.848)" fill="#fff"/>
      <path id="Tracé_16160" data-name="Tracé 16160" d="M86.6,26.871a9.076,9.076,0,0,1,1.382-3.026,10.642,10.642,0,0,1,2.292-2.388A10.759,10.759,0,0,1,93.2,19.874,9.579,9.579,0,0,1,96.44,19.3a6.338,6.338,0,0,1,3.084.7,4.755,4.755,0,0,1,1.972,2.034,7.666,7.666,0,0,1,.753,3.27,15.838,15.838,0,0,1-.55,4.419,21.952,21.952,0,0,1-1.786,4.759,17.235,17.235,0,0,1-2.676,3.861,12.289,12.289,0,0,1-3.366,2.592,8.285,8.285,0,0,1-3.852.945,8.513,8.513,0,0,1-2.362-.282A4.516,4.516,0,0,1,86.1,40.87a2.254,2.254,0,0,1-.794-1.036,2.126,2.126,0,0,1-.047-1.245,2.254,2.254,0,0,1,.954-1.376,2.666,2.666,0,0,1,1.5-.48,1.832,1.832,0,0,1,.745.122l0,.742a3.967,3.967,0,0,0,.593,2.327,2.033,2.033,0,0,0,1.792.9,3.337,3.337,0,0,0,2.016-.745,8.28,8.28,0,0,0,1.908-2.156,20.748,20.748,0,0,0,1.74-3.459,36.944,36.944,0,0,0,1.475-4.649,9.046,9.046,0,0,1-2.764,2.543,7.3,7.3,0,0,1-3.837,1.018,5.889,5.889,0,0,1-2.455-.477,4.2,4.2,0,0,1-1.693-1.35,4.6,4.6,0,0,1-.812-2.063,6.613,6.613,0,0,1,.175-2.618m6.6,4.838a3.985,3.985,0,0,0,1.51-.311,6.177,6.177,0,0,0,1.452-.852,7.9,7.9,0,0,0,1.306-1.3,8.157,8.157,0,0,0,1.012-1.626q.641-3.666-.145-5.461a2.655,2.655,0,0,0-2.557-1.8,3.794,3.794,0,0,0-1.618.384,5.331,5.331,0,0,0-1.5,1.1,7.94,7.94,0,0,0-1.236,1.722,9.635,9.635,0,0,0-.87,2.278,8.322,8.322,0,0,0-.282,2.42,4.8,4.8,0,0,0,.422,1.844,2.84,2.84,0,0,0,1,1.178,2.7,2.7,0,0,0,1.507.422" transform="translate(162.647 36.848)" fill="#fff"/>
      <path id="Tracé_16161" data-name="Tracé 16161" d="M91.1,35.551l4.117-4.527a29.927,29.927,0,0,0,2.866-3.567,9.717,9.717,0,0,0,1.408-2.947,3.091,3.091,0,0,0-.113-2.324,2.03,2.03,0,0,0-1.4-1.024A3.79,3.79,0,0,1,99,19.873a2.379,2.379,0,0,1,1.539-.506,1.819,1.819,0,0,1,1.667.82,2.724,2.724,0,0,1,.183,2.185,10.6,10.6,0,0,1-.681,1.891,13.944,13.944,0,0,1-1.12,1.94,26,26,0,0,1-1.661,2.153c-.646.768-1.411,1.623-2.292,2.575l-3.011,3.226h7.942l2.674-10.639,3.462-3.907h.777l-3.657,14.546h2.668l-.564,2.231h-2.668l-.529,2.112a2.185,2.185,0,0,0,.023,1.516,1.086,1.086,0,0,0,1.076.532h1.053l-.192.771H96.162l.195-.771h1.362a2.853,2.853,0,0,0,1.839-.532,2.691,2.691,0,0,0,.911-1.516L101,36.389H91.353Z" transform="translate(173.922 36.974)" fill="#fff"/>
    </g>
  </g>
</svg>
