<svg xmlns="http://www.w3.org/2000/svg" xmlns:xlink="http://www.w3.org/1999/xlink" width="230" height="51.011" viewBox="0 0 230 51.011">
  <defs>
    <clipPath id="clip-path">
      <rect id="Rectangle_81" data-name="Rectangle 81" width="230" height="51.011" fill="#fff"/>
    </clipPath>
  </defs>
  <g id="Groupe_3829" data-name="Groupe 3829" transform="translate(0 -0.001)">
    <g id="Groupe_3824" data-name="Groupe 3824" transform="translate(0 0.001)" clip-path="url(#clip-path)">
      <g id="Groupe_3830" data-name="Groupe 3830">
        <path id="Tracé_16140" data-name="Tracé 16140" d="M5.321,1.434,5.516.65h8.84l-.2.784H13.1a1.858,1.858,0,0,0-1.359.534A3.194,3.194,0,0,0,10.946,3.5L7.226,18.3a3.511,3.511,0,0,0-.045,2.351q.375.691,2.007.69h1a7.251,7.251,0,0,0,4-1,7.69,7.69,0,0,0,2.6-3.041l.549-1.067h.784l-2.1,6.366H0l.2-.784H1.263a1.864,1.864,0,0,0,1.357-.534,3.188,3.188,0,0,0,.794-1.536L7.5,3.5a2.227,2.227,0,0,0-.023-1.534,1.105,1.105,0,0,0-1.09-.534Z" transform="translate(0 0.479)" fill="#5c6c32"/>
        <path id="Tracé_16141" data-name="Tracé 16141" d="M20.716,4.041a6.356,6.356,0,0,1,2.271.377A3.864,3.864,0,0,1,24.581,5.5a3.438,3.438,0,0,1,.777,1.71A5.553,5.553,0,0,1,25.208,9.5a3.656,3.656,0,0,1-.568,1.255,1.037,1.037,0,0,1-.792.532H15.791a16.741,16.741,0,0,0-.433,2.541,7.516,7.516,0,0,0,.125,2.429,3.481,3.481,0,0,0,1.027,1.832,3.275,3.275,0,0,0,2.313.721,5.021,5.021,0,0,0,3.2-1.1,9.483,9.483,0,0,0,2.325-2.7h.782A9.716,9.716,0,0,1,23.922,17.1a8.609,8.609,0,0,1-1.785,1.74,8.745,8.745,0,0,1-2.322,1.19,8.61,8.61,0,0,1-2.789.44,6.685,6.685,0,0,1-2.678-.518A4.589,4.589,0,0,1,12.4,18.4a5.463,5.463,0,0,1-.926-2.6,10.26,10.26,0,0,1,.341-3.667A12.32,12.32,0,0,1,13.2,8.743a11.045,11.045,0,0,1,2.087-2.553,8.392,8.392,0,0,1,2.579-1.6,7.811,7.811,0,0,1,2.85-.549m-4.595,6.176h5.457l.268-1.065a5.426,5.426,0,0,0,.094-2.932,1.452,1.452,0,0,0-1.493-1.112,3.111,3.111,0,0,0-2.5,1.349,11.935,11.935,0,0,0-1.825,3.761" transform="translate(8.431 2.981)" fill="#5c6c32"/>
        <path id="Tracé_16142" data-name="Tracé 16142" d="M31.835.65h9.5a10.338,10.338,0,0,1,3.708.659,7.039,7.039,0,0,1,2.871,1.974,6.979,6.979,0,0,1,1.536,3.309,10.789,10.789,0,0,1-.285,4.685,15.849,15.849,0,0,1-1.938,4.591,15.483,15.483,0,0,1-3.046,3.575,13.945,13.945,0,0,1-3.731,2.32,10.431,10.431,0,0,1-4.037.832H26.319l.2-.785h1.065a1.859,1.859,0,0,0,1.357-.532,3.2,3.2,0,0,0,.8-1.536L33.816,3.5a2.232,2.232,0,0,0-.023-1.536,1.1,1.1,0,0,0-1.09-.532H31.638ZM35.491,21.4h.5a7.2,7.2,0,0,0,2.843-.58,7.927,7.927,0,0,0,2.551-1.786A12.949,12.949,0,0,0,43.527,16a19.521,19.521,0,0,0,1.585-4.311,14.117,14.117,0,0,0,.5-4.358A7.334,7.334,0,0,0,44.8,4.256a4.379,4.379,0,0,0-1.814-1.819,5.409,5.409,0,0,0-2.546-.6H39.5a2.523,2.523,0,0,0-1.416.393,1.93,1.93,0,0,0-.8,1.206L33.569,18.2a3.9,3.9,0,0,0-.066,2.433q.357.766,1.988.766" transform="translate(19.418 0.479)" fill="#5c6c32"/>
        <path id="Tracé_16143" data-name="Tracé 16143" d="M50.117,4.041a6.237,6.237,0,0,1,2.754.579,4.524,4.524,0,0,1,1.872,1.663,5.882,5.882,0,0,1,.832,2.6,9.9,9.9,0,0,1-.311,3.368,12.455,12.455,0,0,1-1.382,3.371,11.115,11.115,0,0,1-2.143,2.6,9.114,9.114,0,0,1-2.707,1.66,8.285,8.285,0,0,1-3.045.582,6.2,6.2,0,0,1-2.753-.582,4.51,4.51,0,0,1-1.873-1.66,5.891,5.891,0,0,1-.834-2.6,9.894,9.894,0,0,1,.315-3.371,12.259,12.259,0,0,1,1.382-3.368,10.947,10.947,0,0,1,2.141-2.6A9.147,9.147,0,0,1,47.072,4.62a8.3,8.3,0,0,1,3.045-.579M44.6,12.254a19.57,19.57,0,0,0-.513,2.855,8.139,8.139,0,0,0,.056,2.27,2.805,2.805,0,0,0,.709,1.491,1.872,1.872,0,0,0,1.4.532,2.939,2.939,0,0,0,1.67-.532,5.576,5.576,0,0,0,1.456-1.491,11.73,11.73,0,0,0,1.2-2.27,21.5,21.5,0,0,0,.921-2.855,19.518,19.518,0,0,0,.52-2.867,8.184,8.184,0,0,0-.061-2.257,2.824,2.824,0,0,0-.707-1.489,1.882,1.882,0,0,0-1.4-.532,2.952,2.952,0,0,0-1.67.532,5.641,5.641,0,0,0-1.455,1.489,11.73,11.73,0,0,0-1.2,2.257,21.376,21.376,0,0,0-.926,2.867" transform="translate(29.874 2.981)" fill="#5c6c32"/>
        <path id="Tracé_16144" data-name="Tracé 16144" d="M55.188,4.229a2.233,2.233,0,0,1,1.962.925,3.1,3.1,0,0,1,.228,2.588l-.111.436a8.39,8.39,0,0,1,2.45-3.008A5.649,5.649,0,0,1,63.2,4.041,3.55,3.55,0,0,1,66.281,5.31a4.089,4.089,0,0,1,.36,3.5l-2,7.963q-.464,1.848.476,1.849a1.773,1.773,0,0,0,1.345-.739A6.408,6.408,0,0,0,67.5,16.11h.719a7.855,7.855,0,0,1-.643,1.566,5.728,5.728,0,0,1-.992,1.333,4.615,4.615,0,0,1-1.349.926,4.1,4.1,0,0,1-1.7.342,2.223,2.223,0,0,1-1.962-.925,3.1,3.1,0,0,1-.228-2.584l1.859-7.4a4.549,4.549,0,0,0,.056-2.713A1.46,1.46,0,0,0,61.778,5.7a3.122,3.122,0,0,0-1.72.547,6.825,6.825,0,0,0-1.6,1.5A11.326,11.326,0,0,0,57.1,9.981a14.609,14.609,0,0,0-.958,2.681l-1.032,4.106q-.467,1.848.476,1.849a1.768,1.768,0,0,0,1.345-.739,6.5,6.5,0,0,0,1.041-1.769h.721a7.965,7.965,0,0,1-.645,1.566,5.686,5.686,0,0,1-.994,1.333,4.562,4.562,0,0,1-1.347.926,4.1,4.1,0,0,1-1.7.342,2.229,2.229,0,0,1-1.962-.925,3.093,3.093,0,0,1-.226-2.584l2.27-9.028q.467-1.851-.474-1.851a1.776,1.776,0,0,0-1.343.721A6.309,6.309,0,0,0,51.226,8.4H50.5A7.8,7.8,0,0,1,51.15,6.83,5.62,5.62,0,0,1,52.142,5.5a4.6,4.6,0,0,1,1.345-.925,4.061,4.061,0,0,1,1.7-.344" transform="translate(37.263 2.981)" fill="#5c6c32"/>
        <path id="Tracé_16145" data-name="Tracé 16145" d="M68.048,11.782a18.281,18.281,0,0,1,1.747-4.454,15.08,15.08,0,0,1,2.756-3.6,12.287,12.287,0,0,1,3.632-2.414A10.884,10.884,0,0,1,80.557.434,8.951,8.951,0,0,1,83.5.872,6.3,6.3,0,0,1,85.555,2a3.61,3.61,0,0,1,1.1,1.566,3.079,3.079,0,0,1,.075,1.757,2.79,2.79,0,0,1-1.171,1.788,3.233,3.233,0,0,1-1.733.532,1.477,1.477,0,0,1-.572-.1,1.607,1.607,0,0,1-.2-.061l.089-.721a8.9,8.9,0,0,0,.04-1.974,4.622,4.622,0,0,0-.448-1.647,2.67,2.67,0,0,0-1.036-1.11,3.357,3.357,0,0,0-1.747-.41A5.823,5.823,0,0,0,75.4,4.069,17.606,17.606,0,0,0,72.259,11a16.264,16.264,0,0,0-.558,4.28,8.36,8.36,0,0,0,.629,3.229,4.533,4.533,0,0,0,1.682,2.037,4.675,4.675,0,0,0,2.6.706,6.79,6.79,0,0,0,2.36-.407,7.319,7.319,0,0,0,2.049-1.161A10.789,10.789,0,0,0,82.765,17.9a15.328,15.328,0,0,0,1.468-2.29h.785a12.045,12.045,0,0,1-1.672,3.152A11.539,11.539,0,0,1,81,21.124a10.246,10.246,0,0,1-6.084,2.005,8.4,8.4,0,0,1-3.957-.848,5.884,5.884,0,0,1-2.45-2.351,8.171,8.171,0,0,1-.963-3.589,15.241,15.241,0,0,1,.5-4.56" transform="translate(49.82 0.319)" fill="#5c6c32"/>
        <path id="Tracé_16146" data-name="Tracé 16146" d="M87.263,4.041a3.327,3.327,0,0,1,2.468.971,4.129,4.129,0,0,1,1.093,2.7l.212-.848A3.552,3.552,0,0,1,92.2,4.936a3,3,0,0,1,1.979-.706,1.215,1.215,0,0,1,.572.094.485.485,0,0,1,.195.094L91.837,16.77q-.461,1.848.476,1.849a1.777,1.777,0,0,0,1.347-.739A6.5,6.5,0,0,0,94.7,16.112h.719a7.855,7.855,0,0,1-.643,1.566,5.692,5.692,0,0,1-1,1.333,4.6,4.6,0,0,1-1.343.926,4.121,4.121,0,0,1-1.7.342,2.256,2.256,0,0,1-1.965-.907,3.05,3.05,0,0,1-.233-2.572,7.987,7.987,0,0,1-2.447,2.7,5.267,5.267,0,0,1-2.958.973,3.865,3.865,0,0,1-2.337-.676,4.029,4.029,0,0,1-1.382-1.8,7.192,7.192,0,0,1-.471-2.619,12.283,12.283,0,0,1,.393-3.119A14.563,14.563,0,0,1,80.522,9.1a11.97,11.97,0,0,1,1.786-2.617A8.161,8.161,0,0,1,84.59,4.7a5.7,5.7,0,0,1,2.673-.659M83.1,12.254a12.751,12.751,0,0,0-.48,4.845q.284,1.8,1.819,1.8a2.79,2.79,0,0,0,1.392-.424,6.1,6.1,0,0,0,1.446-1.206,9.171,9.171,0,0,0,1.309-1.9,10.862,10.862,0,0,0,.938-2.492l.316-1.253a9.316,9.316,0,0,0,.316-2.492,5.5,5.5,0,0,0-.358-1.9,2.987,2.987,0,0,0-.839-1.208,1.829,1.829,0,0,0-1.178-.422,3.328,3.328,0,0,0-2.727,1.8A15.88,15.88,0,0,0,83.1,12.254" transform="translate(58.245 2.981)" fill="#5c6c32"/>
        <path id="Tracé_16147" data-name="Tracé 16147" d="M89.722,8.4a7.8,7.8,0,0,1,.645-1.566A5.667,5.667,0,0,1,91.359,5.5a4.579,4.579,0,0,1,1.347-.925,4.047,4.047,0,0,1,1.7-.344,2.229,2.229,0,0,1,1.962.925A3.1,3.1,0,0,1,96.6,7.741l-.1.407a8.116,8.116,0,0,1,2.384-2.992,5.407,5.407,0,0,1,3.35-1.114,3.6,3.6,0,0,1,2.8,1.018,3.35,3.35,0,0,1,.643,2.869,8.727,8.727,0,0,1,1-1.489,7.588,7.588,0,0,1,1.3-1.237,6.263,6.263,0,0,1,1.547-.848,5.022,5.022,0,0,1,1.771-.313,3.569,3.569,0,0,1,3,1.208,3.8,3.8,0,0,1,.391,3.37l-2.047,8.15q-.467,1.848.474,1.851a1.779,1.779,0,0,0,1.345-.739A6.394,6.394,0,0,0,115.5,16.11h.721a7.937,7.937,0,0,1-.645,1.567,5.681,5.681,0,0,1-.992,1.331,4.621,4.621,0,0,1-1.349.928,4.1,4.1,0,0,1-1.7.342,2.231,2.231,0,0,1-1.962-.925,3.1,3.1,0,0,1-.228-2.586l1.892-7.523a4.351,4.351,0,0,0,.045-2.619,1.4,1.4,0,0,0-1.411-.925,2.867,2.867,0,0,0-1.644.549,6.644,6.644,0,0,0-1.5,1.489,11.385,11.385,0,0,0-1.276,2.21,15.955,15.955,0,0,0-.933,2.711l-1.032,4.106q-.467,1.848.474,1.851a1.774,1.774,0,0,0,1.347-.739,6.433,6.433,0,0,0,1.039-1.771h.723a7.84,7.84,0,0,1-.646,1.567,5.587,5.587,0,0,1-.992,1.331,4.59,4.59,0,0,1-1.347.928,4.1,4.1,0,0,1-1.7.342,2.233,2.233,0,0,1-1.962-.925,3.1,3.1,0,0,1-.228-2.586l1.892-7.523a4.565,4.565,0,0,0,.078-2.619,1.347,1.347,0,0,0-1.382-.925,2.934,2.934,0,0,0-1.658.549,6.42,6.42,0,0,0-1.524,1.5,12.661,12.661,0,0,0-1.3,2.224,15.523,15.523,0,0,0-.94,2.681l-1.032,4.106q-.464,1.848.476,1.851a1.773,1.773,0,0,0,1.345-.739,6.394,6.394,0,0,0,1.041-1.771h.721a7.935,7.935,0,0,1-.645,1.567,5.634,5.634,0,0,1-.992,1.331,4.6,4.6,0,0,1-1.349.928,4.1,4.1,0,0,1-1.7.342,2.233,2.233,0,0,1-1.962-.925,3.1,3.1,0,0,1-.228-2.586l2.271-9.028q.464-1.851-.476-1.849a1.768,1.768,0,0,0-1.342.721A6.271,6.271,0,0,0,90.443,8.4Z" transform="translate(66.197 2.981)" fill="#5c6c32"/>
        <path id="Tracé_16148" data-name="Tracé 16148" d="M110.931,7.21a2.232,2.232,0,0,1,1.962.926,3.1,3.1,0,0,1,.226,2.586l-2.27,9.028q-.464,1.848.474,1.851a1.78,1.78,0,0,0,1.349-.739,6.476,6.476,0,0,0,1.039-1.771h.719a7.828,7.828,0,0,1-.643,1.567,5.592,5.592,0,0,1-.994,1.331,4.6,4.6,0,0,1-1.343.928,4.155,4.155,0,0,1-1.7.342,2.225,2.225,0,0,1-1.962-.925,3.1,3.1,0,0,1-.231-2.586l2.271-9.028q.467-1.851-.476-1.851a1.773,1.773,0,0,0-1.34.723,6.27,6.27,0,0,0-1.044,1.785h-.721a7.715,7.715,0,0,1,.645-1.567,5.664,5.664,0,0,1,.994-1.331,4.508,4.508,0,0,1,1.343-.925,4.058,4.058,0,0,1,1.7-.346m-.1-5.109A2.691,2.691,0,0,1,111.83.58,2.63,2.63,0,0,1,113.467,0a1.664,1.664,0,0,1,1.357.58,1.644,1.644,0,0,1,.245,1.521,2.713,2.713,0,0,1-1.018,1.552,2.7,2.7,0,0,1-1.651.58,1.62,1.62,0,0,1-1.343-.58,1.705,1.705,0,0,1-.221-1.552" transform="translate(78.389 -0.001)" fill="#5c6c32"/>
        <path id="Tracé_16149" data-name="Tracé 16149" d="M117.648.108a2.468,2.468,0,0,1,2.087.925,2.892,2.892,0,0,1,.3,2.555L115.992,19.67q-.467,1.848.474,1.849a1.777,1.777,0,0,0,1.347-.739,6.448,6.448,0,0,0,1.039-1.769h.719a7.652,7.652,0,0,1-.643,1.566,5.679,5.679,0,0,1-.992,1.333,4.607,4.607,0,0,1-1.347.926,4.1,4.1,0,0,1-1.7.342,2.223,2.223,0,0,1-1.962-.925,3.1,3.1,0,0,1-.228-2.584l4-15.925a2.394,2.394,0,0,0,.035-1.317.706.706,0,0,0-.737-.5,1.965,1.965,0,0,0-1.446.706,4.667,4.667,0,0,0-1.01,1.71h-.754a6.763,6.763,0,0,1,.648-1.647,5.367,5.367,0,0,1,1.06-1.347A4.83,4.83,0,0,1,115.92.436a4.409,4.409,0,0,1,1.727-.328" transform="translate(83.029 0.079)" fill="#5c6c32"/>
        <path id="Tracé_16150" data-name="Tracé 16150" d="M123.329.108a2.468,2.468,0,0,1,2.087.925,2.892,2.892,0,0,1,.3,2.555L121.673,19.67q-.467,1.848.474,1.849a1.777,1.777,0,0,0,1.347-.739,6.448,6.448,0,0,0,1.039-1.769h.719a7.653,7.653,0,0,1-.643,1.566,5.679,5.679,0,0,1-.992,1.333,4.607,4.607,0,0,1-1.347.926,4.1,4.1,0,0,1-1.7.342,2.223,2.223,0,0,1-1.962-.925,3.1,3.1,0,0,1-.228-2.584l4-15.925a2.394,2.394,0,0,0,.035-1.317.706.706,0,0,0-.737-.5,1.965,1.965,0,0,0-1.446.706,4.667,4.667,0,0,0-1.01,1.71h-.754a6.765,6.765,0,0,1,.648-1.647,5.367,5.367,0,0,1,1.06-1.347A4.831,4.831,0,0,1,121.6.436a4.409,4.409,0,0,1,1.727-.328" transform="translate(87.22 0.079)" fill="#5c6c32"/>
        <path id="Tracé_16151" data-name="Tracé 16151" d="M133.276,4.041a6.237,6.237,0,0,1,2.754.579A4.524,4.524,0,0,1,137.9,6.283a5.882,5.882,0,0,1,.832,2.6,9.9,9.9,0,0,1-.311,3.368,12.456,12.456,0,0,1-1.382,3.371,11.115,11.115,0,0,1-2.143,2.6,9.114,9.114,0,0,1-2.707,1.66,8.285,8.285,0,0,1-3.045.582,6.2,6.2,0,0,1-2.753-.582,4.51,4.51,0,0,1-1.873-1.66,5.891,5.891,0,0,1-.834-2.6A9.9,9.9,0,0,1,124,12.254a12.259,12.259,0,0,1,1.382-3.368,10.947,10.947,0,0,1,2.141-2.6,9.147,9.147,0,0,1,2.708-1.663,8.3,8.3,0,0,1,3.045-.579m-5.514,8.213a19.568,19.568,0,0,0-.513,2.855,8.138,8.138,0,0,0,.056,2.27,2.805,2.805,0,0,0,.709,1.491,1.872,1.872,0,0,0,1.4.532,2.939,2.939,0,0,0,1.67-.532,5.577,5.577,0,0,0,1.456-1.491,11.731,11.731,0,0,0,1.2-2.27,21.5,21.5,0,0,0,.921-2.855,19.523,19.523,0,0,0,.52-2.867,8.183,8.183,0,0,0-.061-2.257,2.823,2.823,0,0,0-.707-1.489,1.882,1.882,0,0,0-1.4-.532,2.952,2.952,0,0,0-1.67.532,5.641,5.641,0,0,0-1.455,1.489,11.73,11.73,0,0,0-1.2,2.257,21.375,21.375,0,0,0-.926,2.867" transform="translate(91.229 2.981)" fill="#5c6c32"/>
      </g>
      <g id="Groupe_3831" data-name="Groupe 3831">
        <path id="Tracé_16152" data-name="Tracé 16152" d="M38.542,19.451h5.613a6.111,6.111,0,0,1,2.19.389,3.979,3.979,0,0,1,2.607,3.123,6.374,6.374,0,0,1-.169,2.768,9.4,9.4,0,0,1-1.145,2.714,9.163,9.163,0,0,1-1.8,2.111,8.155,8.155,0,0,1-2.205,1.371,6.139,6.139,0,0,1-2.384.49H35.282l.115-.461h.631a1.093,1.093,0,0,0,.8-.318,1.889,1.889,0,0,0,.471-.905l2.412-9.6a1.344,1.344,0,0,0-.012-.907.661.661,0,0,0-.645-.316h-.631ZM40.7,31.715H41a4.256,4.256,0,0,0,1.68-.342,4.617,4.617,0,0,0,1.5-1.057,7.568,7.568,0,0,0,1.269-1.8,11.635,11.635,0,0,0,.935-2.549,8.31,8.31,0,0,0,.3-2.574,4.362,4.362,0,0,0-.48-1.816,2.589,2.589,0,0,0-1.074-1.074,3.181,3.181,0,0,0-1.5-.353h-.556a1.508,1.508,0,0,0-.836.231,1.136,1.136,0,0,0-.476.714l-2.193,8.726a2.275,2.275,0,0,0-.036,1.434q.209.456,1.171.455" transform="translate(26.031 14.35)" fill="#e39077"/>
        <path id="Tracé_16153" data-name="Tracé 16153" d="M49.144,21.455a3.756,3.756,0,0,1,1.342.222,2.265,2.265,0,0,1,.944.64,2.053,2.053,0,0,1,.459,1.011,3.346,3.346,0,0,1-.089,1.35,2.185,2.185,0,0,1-.337.742.61.61,0,0,1-.467.315H46.233a9.955,9.955,0,0,0-.257,1.5,4.563,4.563,0,0,0,.075,1.435,2.06,2.06,0,0,0,.608,1.084,1.943,1.943,0,0,0,1.366.424,2.975,2.975,0,0,0,1.894-.646,5.684,5.684,0,0,0,1.375-1.6h.461a5.7,5.7,0,0,1-.716,1.234A5.048,5.048,0,0,1,48.612,30.9a5.056,5.056,0,0,1-1.649.259,3.981,3.981,0,0,1-1.583-.3,2.7,2.7,0,0,1-1.149-.919,3.22,3.22,0,0,1-.549-1.536,6.076,6.076,0,0,1,.2-2.169,7.294,7.294,0,0,1,.819-2,6.558,6.558,0,0,1,1.232-1.508,4.95,4.95,0,0,1,1.526-.945,4.609,4.609,0,0,1,1.684-.325M46.43,25.1h3.224l.156-.627a3.192,3.192,0,0,0,.057-1.734.857.857,0,0,0-.881-.657,1.843,1.843,0,0,0-1.481.8A7.031,7.031,0,0,0,46.43,25.1" transform="translate(32.208 15.829)" fill="#e39077"/>
        <path id="Tracé_16154" data-name="Tracé 16154" d="M49.513,24.03a4.618,4.618,0,0,1,.381-.926,3.327,3.327,0,0,1,.586-.789,2.7,2.7,0,0,1,.8-.546,2.417,2.417,0,0,1,1-.2,1.334,1.334,0,0,1,1.161.537,1.792,1.792,0,0,1,.137,1.519,4.712,4.712,0,0,1,1.446-1.592,3.105,3.105,0,0,1,1.748-.575,2.217,2.217,0,0,1,2.2,1.446,4.362,4.362,0,0,1,.278,1.547,7.35,7.35,0,0,1-.238,1.861,8.576,8.576,0,0,1-.693,1.844A7.3,7.3,0,0,1,57.267,29.7a4.981,4.981,0,0,1-1.352,1.065,3.317,3.317,0,0,1-1.581.4,1.96,1.96,0,0,1-1.46-.573A2.437,2.437,0,0,1,52.229,29l-1.164,4.631a2.088,2.088,0,0,1-.685,1.138,1.786,1.786,0,0,1-1.171.419.873.873,0,0,1-.339-.057.307.307,0,0,1-.115-.056l2.873-11.43c.184-.73.09-1.093-.28-1.093a1.044,1.044,0,0,0-.792.426,3.774,3.774,0,0,0-.619,1.057Zm3.3,2.648a5.436,5.436,0,0,0-.184,1.474,3.159,3.159,0,0,0,.209,1.121,1.733,1.733,0,0,0,.5.712,1.066,1.066,0,0,0,.7.25,1.969,1.969,0,0,0,1.613-1.064,9.447,9.447,0,0,0,1.154-2.864,7.548,7.548,0,0,0,.285-2.86c-.113-.713-.469-1.067-1.076-1.067a1.652,1.652,0,0,0-.824.25,3.634,3.634,0,0,0-.855.712,5.536,5.536,0,0,0-.772,1.123A6.472,6.472,0,0,0,53,25.939Z" transform="translate(35.972 15.829)" fill="#e39077"/>
        <path id="Tracé_16155" data-name="Tracé 16155" d="M58.387,21.519a1.323,1.323,0,0,1,1.161.546,1.834,1.834,0,0,1,.134,1.529l-1.1,4.374a2.682,2.682,0,0,0-.031,1.6.86.86,0,0,0,.876.565,1.843,1.843,0,0,0,1.018-.323,4.1,4.1,0,0,0,.947-.89,6.823,6.823,0,0,0,.8-1.316,8.688,8.688,0,0,0,.567-1.583l.608-2.428c.184-.73.09-1.093-.28-1.093a1.04,1.04,0,0,0-.792.427,3.747,3.747,0,0,0-.619,1.055H61.25a4.51,4.51,0,0,1,.382-.925,3.247,3.247,0,0,1,.586-.789,2.735,2.735,0,0,1,.794-.547,2.445,2.445,0,0,1,1.008-.2,1.324,1.324,0,0,1,1.159.546,1.834,1.834,0,0,1,.132,1.529l-1.34,5.337c-.184.73-.089,1.093.282,1.093a1.05,1.05,0,0,0,.8-.436,3.794,3.794,0,0,0,.613-1.048h.426a4.479,4.479,0,0,1-.381.926,3.333,3.333,0,0,1-.587.789,2.712,2.712,0,0,1-.794.547,2.443,2.443,0,0,1-1.006.2,1.313,1.313,0,0,1-1.159-.547,1.822,1.822,0,0,1-.134-1.528l.064-.261a4.964,4.964,0,0,1-1.446,1.78,3.342,3.342,0,0,1-2.059.666,2.1,2.1,0,0,1-1.821-.749,2.41,2.41,0,0,1-.214-2.066l1.183-4.706c.182-.73.09-1.093-.28-1.093a1.038,1.038,0,0,0-.792.427,3.747,3.747,0,0,0-.619,1.055H55.62A4.5,4.5,0,0,1,56,23.059a3.3,3.3,0,0,1,.587-.789,2.689,2.689,0,0,1,.794-.547,2.435,2.435,0,0,1,1-.2" transform="translate(41.037 15.876)" fill="#e39077"/>
        <path id="Tracé_16156" data-name="Tracé 16156" d="M65.169,23.327a1.322,1.322,0,0,1,1.159.547,1.834,1.834,0,0,1,.134,1.529l-1.34,5.335c-.184.73-.09,1.093.28,1.093a1.048,1.048,0,0,0,.8-.436,3.815,3.815,0,0,0,.615-1.048h.427a4.707,4.707,0,0,1-.384.928,3.405,3.405,0,0,1-.587.789,2.74,2.74,0,0,1-.794.546,2.437,2.437,0,0,1-1.006.2,1.317,1.317,0,0,1-1.159-.547,1.823,1.823,0,0,1-.132-1.528l1.34-5.335c.184-.73.089-1.093-.282-1.093a1.046,1.046,0,0,0-.792.426,3.66,3.66,0,0,0-.615,1.055H62.4a4.653,4.653,0,0,1,.382-.925,3.327,3.327,0,0,1,.586-.789,2.738,2.738,0,0,1,.8-.547,2.429,2.429,0,0,1,1-.2m-.056-3.019a1.585,1.585,0,0,1,.587-.9,1.558,1.558,0,0,1,.966-.344.984.984,0,0,1,.8.344.96.96,0,0,1,.144.9,1.591,1.591,0,0,1-.6.918,1.607,1.607,0,0,1-.977.342.956.956,0,0,1-.792-.342,1.008,1.008,0,0,1-.13-.918" transform="translate(46.038 14.066)" fill="#e39077"/>
        <path id="Tracé_16157" data-name="Tracé 16157" d="M67.346,27.68a1.056,1.056,0,0,1,.41.056.493.493,0,0,1,.153.054l-.1.65a1.994,1.994,0,0,0,.264,1.519,1.555,1.555,0,0,0,1.355.575,2.085,2.085,0,0,0,.65-.111,2.389,2.389,0,0,0,.613-.308,2.184,2.184,0,0,0,.5-.481A1.729,1.729,0,0,0,71.5,29a.98.98,0,0,0-.174-.935,2.668,2.668,0,0,0-.869-.631c-.37-.179-.77-.356-1.2-.528a6.693,6.693,0,0,1-1.182-.612,2.375,2.375,0,0,1-.806-.879,1.888,1.888,0,0,1-.069-1.343,2.875,2.875,0,0,1,.547-1.1,3.506,3.506,0,0,1,.945-.824,4.723,4.723,0,0,1,1.241-.507,5.522,5.522,0,0,1,1.408-.177,4.74,4.74,0,0,1,1.178.139,3.213,3.213,0,0,1,.933.381,1.578,1.578,0,0,1,.567.584.991.991,0,0,1,.083.73,1.333,1.333,0,0,1-.554.806,1.593,1.593,0,0,1-.907.287,1.244,1.244,0,0,1-.226-.017c-.064-.012-.125-.026-.184-.038a.467.467,0,0,1-.153-.056l.078-.537a1.484,1.484,0,0,0-.245-1.2,1.27,1.27,0,0,0-1.062-.454,2.2,2.2,0,0,0-1.192.316,1.381,1.381,0,0,0-.64.852.916.916,0,0,0,.188.907,2.892,2.892,0,0,0,.883.62c.368.181.773.353,1.211.52a5.938,5.938,0,0,1,1.19.61,2.59,2.59,0,0,1,.817.881,1.819,1.819,0,0,1,.082,1.335,3.482,3.482,0,0,1-.64,1.324,4.165,4.165,0,0,1-1.053.945,4.95,4.95,0,0,1-1.31.575,5.582,5.582,0,0,1-2.885.007,2.994,2.994,0,0,1-1.048-.509,1.681,1.681,0,0,1-.561-.749,1.548,1.548,0,0,1-.031-.909,1.409,1.409,0,0,1,.553-.834,1.587,1.587,0,0,1,.937-.3" transform="translate(48.55 15.829)" fill="#e39077"/>
        <path id="Tracé_16158" data-name="Tracé 16158" d="M76.433,21.454l.648-.3c.534-.245,1.077-.525,1.637-.832a14.636,14.636,0,0,0,1.567-1h.462L77.854,30.829a1.325,1.325,0,0,0,.014.905.65.65,0,0,0,.643.318h.631l-.116.461H73.894l.115-.461h.631a1.1,1.1,0,0,0,.8-.318,1.871,1.871,0,0,0,.467-.905l2.1-8.357a1.671,1.671,0,0,0,.076-.7c-.033-.134-.156-.2-.367-.2a2.444,2.444,0,0,0-.825.186l-.365.129Z" transform="translate(54.519 14.256)" fill="#e39077"/>
        <path id="Tracé_16159" data-name="Tracé 16159" d="M79.5,23.823a5.46,5.46,0,0,1,.827-1.807A6.358,6.358,0,0,1,81.7,20.589a6.428,6.428,0,0,1,1.746-.945,5.725,5.725,0,0,1,1.939-.342,3.779,3.779,0,0,1,1.84.417,2.841,2.841,0,0,1,1.178,1.215,4.58,4.58,0,0,1,.45,1.953,9.527,9.527,0,0,1-.328,2.64,13.115,13.115,0,0,1-1.067,2.843,10.3,10.3,0,0,1-1.6,2.306,7.341,7.341,0,0,1-2.011,1.548,4.949,4.949,0,0,1-2.3.565,5.077,5.077,0,0,1-1.411-.169,2.713,2.713,0,0,1-.928-.434,1.331,1.331,0,0,1-.473-.619,1.242,1.242,0,0,1-.028-.744A1.337,1.337,0,0,1,79.279,30a1.593,1.593,0,0,1,.9-.287,1.1,1.1,0,0,1,.445.073l0,.443a2.357,2.357,0,0,0,.356,1.39,1.21,1.21,0,0,0,1.069.539,2,2,0,0,0,1.206-.445,4.971,4.971,0,0,0,1.137-1.288,12.4,12.4,0,0,0,1.039-2.066,22.047,22.047,0,0,0,.885-2.777A5.45,5.45,0,0,1,84.657,27.1a4.362,4.362,0,0,1-2.294.608,3.526,3.526,0,0,1-1.465-.285,2.509,2.509,0,0,1-1.011-.806,2.725,2.725,0,0,1-.485-1.232,3.947,3.947,0,0,1,.1-1.564m3.945,2.89a2.386,2.386,0,0,0,.9-.186,3.771,3.771,0,0,0,.869-.509,4.922,4.922,0,0,0,1.383-1.75,5.985,5.985,0,0,0-.087-3.262,1.586,1.586,0,0,0-1.528-1.074,2.273,2.273,0,0,0-.966.229,3.129,3.129,0,0,0-.9.659,4.633,4.633,0,0,0-.74,1.029,5.909,5.909,0,0,0-.52,1.361,5.031,5.031,0,0,0-.169,1.446,2.867,2.867,0,0,0,.252,1.1,1.7,1.7,0,0,0,.6.7,1.6,1.6,0,0,0,.9.252" transform="translate(58.041 14.239)" fill="#e39077"/>
        <path id="Tracé_16160" data-name="Tracé 16160" d="M86.032,23.823a5.421,5.421,0,0,1,.825-1.807,6.357,6.357,0,0,1,1.369-1.427,6.427,6.427,0,0,1,1.746-.945,5.722,5.722,0,0,1,1.938-.342,3.786,3.786,0,0,1,1.842.417,2.841,2.841,0,0,1,1.178,1.215,4.579,4.579,0,0,1,.45,1.953,9.461,9.461,0,0,1-.328,2.64,13.113,13.113,0,0,1-1.067,2.843,10.3,10.3,0,0,1-1.6,2.306,7.341,7.341,0,0,1-2.011,1.548,4.949,4.949,0,0,1-2.3.565,5.086,5.086,0,0,1-1.411-.169,2.7,2.7,0,0,1-.928-.434,1.346,1.346,0,0,1-.474-.619,1.27,1.27,0,0,1-.028-.744A1.346,1.346,0,0,1,85.8,30a1.593,1.593,0,0,1,.9-.287,1.1,1.1,0,0,1,.445.073l0,.443a2.37,2.37,0,0,0,.354,1.39,1.215,1.215,0,0,0,1.071.539,1.993,1.993,0,0,0,1.2-.445,4.946,4.946,0,0,0,1.14-1.288,12.394,12.394,0,0,0,1.039-2.066,22.068,22.068,0,0,0,.881-2.777A5.4,5.4,0,0,1,91.182,27.1a4.36,4.36,0,0,1-2.292.608,3.517,3.517,0,0,1-1.467-.285,2.509,2.509,0,0,1-1.011-.806,2.745,2.745,0,0,1-.485-1.232,3.95,3.95,0,0,1,.1-1.564m3.941,2.89a2.381,2.381,0,0,0,.9-.186,3.689,3.689,0,0,0,.867-.509,4.72,4.72,0,0,0,.78-.779,4.872,4.872,0,0,0,.6-.971,5.985,5.985,0,0,0-.087-3.262,1.586,1.586,0,0,0-1.528-1.074,2.267,2.267,0,0,0-.966.229,3.184,3.184,0,0,0-.9.659,4.743,4.743,0,0,0-.739,1.029,5.755,5.755,0,0,0-.52,1.361,4.971,4.971,0,0,0-.169,1.446,2.867,2.867,0,0,0,.252,1.1,1.7,1.7,0,0,0,.6.7,1.615,1.615,0,0,0,.9.252" transform="translate(62.855 14.239)" fill="#e39077"/>
        <path id="Tracé_16161" data-name="Tracé 16161" d="M91.1,29.034l2.459-2.7A17.877,17.877,0,0,0,95.268,24.2a5.8,5.8,0,0,0,.841-1.76,1.846,1.846,0,0,0-.068-1.389,1.213,1.213,0,0,0-.838-.612,2.264,2.264,0,0,1,.612-.77,1.421,1.421,0,0,1,.919-.3,1.087,1.087,0,0,1,1,.49,1.627,1.627,0,0,1,.109,1.305,6.33,6.33,0,0,1-.407,1.13,8.33,8.33,0,0,1-.669,1.159,15.533,15.533,0,0,1-.992,1.286c-.386.459-.843.97-1.369,1.538L92.6,28.2h4.744l1.6-6.355,2.068-2.334h.464L99.292,28.2h1.594l-.337,1.333H98.955L98.639,30.8a1.3,1.3,0,0,0,.014.905.649.649,0,0,0,.643.318h.629l-.115.461H94.123l.116-.461h.813a1.7,1.7,0,0,0,1.1-.318,1.608,1.608,0,0,0,.544-.905l.316-1.262H91.25Z" transform="translate(67.212 14.288)" fill="#e39077"/>
      </g>
    </g>
  </g>
</svg>
