<svg xmlns="http://www.w3.org/2000/svg" xmlns:xlink="http://www.w3.org/1999/xlink" viewBox="0 0 274.337 60.845">
  <defs>
    <clipPath id="clip-path">
      <rect id="Rectangle_81" data-name="Rectangle 81" width="274.337" height="60.845" fill="#fff"/>
    </clipPath>
  </defs>
  <g id="Groupe_3871" data-name="Groupe 3871" transform="translate(0 -0.001)">
    <g id="Groupe_3824" data-name="Groupe 3824" transform="translate(0 0.001)" clip-path="url(#clip-path)">
      <g id="Groupe_3830" data-name="Groupe 3830" transform="translate(0 -0.001)">
        <path id="Tracé_16140" data-name="Tracé 16140" d="M6.347,1.585,6.579.65H17.123l-.234.935H15.621A2.216,2.216,0,0,0,14,2.221a3.81,3.81,0,0,0-.943,1.83L8.619,21.7a4.187,4.187,0,0,0-.054,2.8q.448.824,2.394.823h1.2a8.649,8.649,0,0,0,4.767-1.2,9.173,9.173,0,0,0,3.1-3.627l.655-1.273h.935l-2.508,7.593H0l.236-.935H1.507a2.223,2.223,0,0,0,1.619-.636,3.8,3.8,0,0,0,.947-1.832L8.942,4.051a2.657,2.657,0,0,0-.027-1.83,1.318,1.318,0,0,0-1.3-.636Z" transform="translate(0 0.697)" fill="#fff"/>
        <path id="Tracé_16141" data-name="Tracé 16141" d="M22.506,4.041a7.582,7.582,0,0,1,2.709.45,4.609,4.609,0,0,1,1.9,1.289,4.1,4.1,0,0,1,.927,2.04,6.624,6.624,0,0,1-.178,2.728,4.361,4.361,0,0,1-.678,1.5,1.237,1.237,0,0,1-.945.634h-9.61a19.969,19.969,0,0,0-.516,3.03,8.965,8.965,0,0,0,.149,2.9,4.152,4.152,0,0,0,1.225,2.185,3.906,3.906,0,0,0,2.759.86,5.989,5.989,0,0,0,3.822-1.308,11.311,11.311,0,0,0,2.773-3.215h.933a11.589,11.589,0,0,1-1.447,2.487A10.268,10.268,0,0,1,24.2,21.691a10.43,10.43,0,0,1-2.769,1.42,10.269,10.269,0,0,1-3.327.524,7.974,7.974,0,0,1-3.194-.618,5.474,5.474,0,0,1-2.322-1.851,6.516,6.516,0,0,1-1.1-3.1,12.237,12.237,0,0,1,.406-4.374,14.7,14.7,0,0,1,1.65-4.04,13.175,13.175,0,0,1,2.489-3.045A10.009,10.009,0,0,1,19.107,4.7a9.316,9.316,0,0,1,3.4-.655m-5.48,7.367h6.509l.319-1.271a6.472,6.472,0,0,0,.112-3.5,1.732,1.732,0,0,0-1.781-1.327A3.711,3.711,0,0,0,19.2,6.922a14.236,14.236,0,0,0-2.176,4.486" transform="translate(12.259 4.335)" fill="#fff"/>
        <path id="Tracé_16142" data-name="Tracé 16142" d="M32.9.65h11.33a12.331,12.331,0,0,1,4.423.786A8.4,8.4,0,0,1,52.076,3.79a8.325,8.325,0,0,1,1.832,3.947,12.869,12.869,0,0,1-.34,5.588A18.9,18.9,0,0,1,51.257,18.8a18.468,18.468,0,0,1-3.634,4.264,16.633,16.633,0,0,1-4.45,2.767,12.442,12.442,0,0,1-4.815.993H26.319l.234-.937h1.271a2.218,2.218,0,0,0,1.619-.634,3.822,3.822,0,0,0,.949-1.832l4.869-19.37a2.663,2.663,0,0,0-.027-1.832,1.317,1.317,0,0,0-1.3-.634H32.664ZM37.259,25.4h.6a8.586,8.586,0,0,0,3.391-.692A9.455,9.455,0,0,0,44.29,22.58a15.446,15.446,0,0,0,2.554-3.625,23.284,23.284,0,0,0,1.89-5.143,16.839,16.839,0,0,0,.6-5.2,8.748,8.748,0,0,0-.968-3.663A5.224,5.224,0,0,0,46.2,2.781a6.452,6.452,0,0,0-3.037-.711H42.041a3.009,3.009,0,0,0-1.689.468,2.3,2.3,0,0,0-.96,1.439L34.967,21.587a4.65,4.65,0,0,0-.079,2.9q.426.914,2.371.914" transform="translate(28.235 0.697)" fill="#fff"/>
        <path id="Tracé_16143" data-name="Tracé 16143" d="M51.972,4.041a7.44,7.44,0,0,1,3.285.69A5.4,5.4,0,0,1,57.49,6.715a7.016,7.016,0,0,1,.993,3.105,11.812,11.812,0,0,1-.371,4.017,14.856,14.856,0,0,1-1.648,4.021,13.258,13.258,0,0,1-2.556,3.105,10.871,10.871,0,0,1-3.229,1.98,9.882,9.882,0,0,1-3.632.694,7.39,7.39,0,0,1-3.283-.694,5.38,5.38,0,0,1-2.234-1.98,7.026,7.026,0,0,1-.995-3.105,11.8,11.8,0,0,1,.375-4.021A14.622,14.622,0,0,1,42.558,9.82a13.058,13.058,0,0,1,2.554-3.105,10.91,10.91,0,0,1,3.229-1.984,9.9,9.9,0,0,1,3.632-.69m-6.577,9.8a23.342,23.342,0,0,0-.611,3.406,9.707,9.707,0,0,0,.066,2.707,3.346,3.346,0,0,0,.846,1.778,2.233,2.233,0,0,0,1.671.634,3.505,3.505,0,0,0,1.992-.634A6.651,6.651,0,0,0,51.1,19.95a13.991,13.991,0,0,0,1.428-2.707,25.644,25.644,0,0,0,1.1-3.406,23.28,23.28,0,0,0,.62-3.42,9.761,9.761,0,0,0-.073-2.693,3.368,3.368,0,0,0-.844-1.776,2.245,2.245,0,0,0-1.673-.634,3.521,3.521,0,0,0-1.992.634,6.729,6.729,0,0,0-1.735,1.776A13.991,13.991,0,0,0,46.5,10.417a25.5,25.5,0,0,0-1.1,3.42" transform="translate(43.439 4.335)" fill="#fff"/>
        <path id="Tracé_16144" data-name="Tracé 16144" d="M56.091,4.265a2.664,2.664,0,0,1,2.34,1.1A3.7,3.7,0,0,1,58.7,8.454l-.133.52a10.007,10.007,0,0,1,2.923-3.588,6.738,6.738,0,0,1,4.152-1.345,4.234,4.234,0,0,1,3.677,1.513,4.877,4.877,0,0,1,.429,4.17l-2.388,9.5q-.553,2.2.568,2.205a2.115,2.115,0,0,0,1.6-.881,7.644,7.644,0,0,0,1.242-2.11h.858a9.369,9.369,0,0,1-.767,1.868,6.832,6.832,0,0,1-1.184,1.59A5.5,5.5,0,0,1,68.076,23a4.885,4.885,0,0,1-2.027.408,2.652,2.652,0,0,1-2.34-1.1,3.7,3.7,0,0,1-.272-3.082L65.655,10.4a5.426,5.426,0,0,0,.066-3.236,1.741,1.741,0,0,0-1.77-1.138,3.724,3.724,0,0,0-2.052.653,8.141,8.141,0,0,0-1.909,1.8,13.509,13.509,0,0,0-1.621,2.655,17.425,17.425,0,0,0-1.142,3.2L56,19.222q-.557,2.2.568,2.205a2.109,2.109,0,0,0,1.6-.881,7.747,7.747,0,0,0,1.242-2.11h.86A9.5,9.5,0,0,1,59.5,20.3a6.782,6.782,0,0,1-1.186,1.59A5.441,5.441,0,0,1,56.709,23a4.888,4.888,0,0,1-2.029.408,2.659,2.659,0,0,1-2.34-1.1,3.689,3.689,0,0,1-.269-3.082L54.777,8.454q.557-2.208-.566-2.208a2.119,2.119,0,0,0-1.6.86,7.525,7.525,0,0,0-1.244,2.129H50.5a9.3,9.3,0,0,1,.769-1.868,6.7,6.7,0,0,1,1.184-1.59,5.492,5.492,0,0,1,1.6-1.1,4.844,4.844,0,0,1,2.029-.41" transform="translate(54.182 4.335)" fill="#fff"/>
        <path id="Tracé_16145" data-name="Tracé 16145" d="M68.149,13.969a21.805,21.805,0,0,1,2.083-5.313,17.987,17.987,0,0,1,3.287-4.3,14.655,14.655,0,0,1,4.332-2.879A12.982,12.982,0,0,1,83.069.434a10.676,10.676,0,0,1,3.515.522A7.517,7.517,0,0,1,89.03,2.3a4.306,4.306,0,0,1,1.308,1.868,3.672,3.672,0,0,1,.089,2.1A3.328,3.328,0,0,1,89.03,8.4a3.856,3.856,0,0,1-2.067.634,1.762,1.762,0,0,1-.682-.114,1.917,1.917,0,0,1-.243-.073l.106-.86a10.613,10.613,0,0,0,.048-2.355,5.513,5.513,0,0,0-.535-1.965,3.184,3.184,0,0,0-1.235-1.325,4,4,0,0,0-2.083-.489A6.946,6.946,0,0,0,76.912,4.77a21,21,0,0,0-3.741,8.262,19.4,19.4,0,0,0-.665,5.105,9.971,9.971,0,0,0,.75,3.851,5.407,5.407,0,0,0,2.006,2.429,5.576,5.576,0,0,0,3.1.842,8.1,8.1,0,0,0,2.815-.485,8.73,8.73,0,0,0,2.444-1.385A12.868,12.868,0,0,0,85.7,21.262a18.283,18.283,0,0,0,1.752-2.732h.937A14.366,14.366,0,0,1,86.4,22.29a13.763,13.763,0,0,1-2.8,2.823A12.221,12.221,0,0,1,76.338,27.5a10.016,10.016,0,0,1-4.72-1.012,7.018,7.018,0,0,1-2.923-2.8,9.747,9.747,0,0,1-1.148-4.28,18.179,18.179,0,0,1,.6-5.439" transform="translate(72.441 0.466)" fill="#fff"/>
        <path id="Tracé_16146" data-name="Tracé 16146" d="M88.867,4.041A3.968,3.968,0,0,1,91.81,5.2a4.925,4.925,0,0,1,1.3,3.217l.253-1.012a4.237,4.237,0,0,1,1.385-2.3,3.579,3.579,0,0,1,2.361-.842,1.45,1.45,0,0,1,.682.112.578.578,0,0,1,.232.112l-3.7,14.733q-.55,2.2.568,2.205a2.119,2.119,0,0,0,1.606-.881,7.747,7.747,0,0,0,1.242-2.11H98.6a9.369,9.369,0,0,1-.767,1.868,6.79,6.79,0,0,1-1.188,1.59,5.488,5.488,0,0,1-1.6,1.1,4.915,4.915,0,0,1-2.029.408,2.691,2.691,0,0,1-2.344-1.082,3.638,3.638,0,0,1-.278-3.068,9.527,9.527,0,0,1-2.919,3.217,6.282,6.282,0,0,1-3.528,1.161,4.61,4.61,0,0,1-2.788-.806,4.806,4.806,0,0,1-1.648-2.149,8.579,8.579,0,0,1-.562-3.124,14.65,14.65,0,0,1,.468-3.721,17.37,17.37,0,0,1,1.414-3.756A14.277,14.277,0,0,1,82.957,6.96a9.735,9.735,0,0,1,2.722-2.133,6.793,6.793,0,0,1,3.188-.786m-4.969,9.8a15.209,15.209,0,0,0-.572,5.779q.339,2.148,2.17,2.149a3.328,3.328,0,0,0,1.66-.506,7.27,7.27,0,0,0,1.725-1.439,10.939,10.939,0,0,0,1.561-2.263,12.956,12.956,0,0,0,1.119-2.972l.377-1.494a11.112,11.112,0,0,0,.377-2.972,6.559,6.559,0,0,0-.427-2.263,3.562,3.562,0,0,0-1-1.441,2.181,2.181,0,0,0-1.405-.5A3.969,3.969,0,0,0,86.23,8.062,18.941,18.941,0,0,0,83.9,13.837" transform="translate(84.691 4.335)" fill="#fff"/>
        <path id="Tracé_16147" data-name="Tracé 16147" d="M89.722,9.238a9.3,9.3,0,0,1,.769-1.868,6.76,6.76,0,0,1,1.184-1.59,5.462,5.462,0,0,1,1.606-1.1,4.827,4.827,0,0,1,2.027-.41,2.659,2.659,0,0,1,2.34,1.1,3.692,3.692,0,0,1,.272,3.084l-.122.485a9.68,9.68,0,0,1,2.844-3.569,6.449,6.449,0,0,1,4-1.329,4.288,4.288,0,0,1,3.341,1.215,4,4,0,0,1,.767,3.422A10.409,10.409,0,0,1,109.94,6.9a9.051,9.051,0,0,1,1.548-1.476,7.47,7.47,0,0,1,1.845-1.012,5.99,5.99,0,0,1,2.112-.373,4.257,4.257,0,0,1,3.582,1.441,4.53,4.53,0,0,1,.466,4.019l-2.442,9.721q-.557,2.2.566,2.208a2.122,2.122,0,0,0,1.6-.881,7.626,7.626,0,0,0,1.242-2.112h.86a9.467,9.467,0,0,1-.769,1.87,6.777,6.777,0,0,1-1.184,1.588A5.512,5.512,0,0,1,117.763,23a4.885,4.885,0,0,1-2.027.408,2.661,2.661,0,0,1-2.34-1.1,3.7,3.7,0,0,1-.272-3.084l2.257-8.973a5.19,5.19,0,0,0,.054-3.124,1.67,1.67,0,0,0-1.683-1.1,3.42,3.42,0,0,0-1.961.655A7.925,7.925,0,0,0,110,8.454a13.58,13.58,0,0,0-1.521,2.637,19.03,19.03,0,0,0-1.113,3.234l-1.231,4.9q-.557,2.2.566,2.208a2.116,2.116,0,0,0,1.606-.881,7.673,7.673,0,0,0,1.24-2.112h.862a9.352,9.352,0,0,1-.771,1.87,6.664,6.664,0,0,1-1.184,1.588A5.475,5.475,0,0,1,106.845,23a4.888,4.888,0,0,1-2.029.408,2.664,2.664,0,0,1-2.34-1.1,3.7,3.7,0,0,1-.272-3.084l2.257-8.973a5.445,5.445,0,0,0,.093-3.124,1.606,1.606,0,0,0-1.648-1.1,3.5,3.5,0,0,0-1.977.655,7.658,7.658,0,0,0-1.818,1.8,15.1,15.1,0,0,0-1.546,2.653,18.516,18.516,0,0,0-1.121,3.2l-1.231,4.9q-.553,2.2.568,2.208a2.115,2.115,0,0,0,1.6-.881,7.626,7.626,0,0,0,1.242-2.112h.86a9.464,9.464,0,0,1-.769,1.87,6.719,6.719,0,0,1-1.184,1.588A5.484,5.484,0,0,1,95.926,23a4.885,4.885,0,0,1-2.027.408,2.664,2.664,0,0,1-2.34-1.1,3.7,3.7,0,0,1-.272-3.084L94,8.454q.553-2.208-.568-2.205a2.109,2.109,0,0,0-1.6.86,7.479,7.479,0,0,0-1.246,2.129Z" transform="translate(96.254 4.335)" fill="#fff"/>
        <path id="Tracé_16148" data-name="Tracé 16148" d="M111.834,8.6a2.663,2.663,0,0,1,2.34,1.1,3.693,3.693,0,0,1,.269,3.084l-2.707,10.768q-.553,2.2.566,2.208a2.123,2.123,0,0,0,1.608-.881,7.725,7.725,0,0,0,1.24-2.112h.858a9.337,9.337,0,0,1-.767,1.87,6.671,6.671,0,0,1-1.186,1.588,5.483,5.483,0,0,1-1.6,1.107,4.956,4.956,0,0,1-2.029.408,2.654,2.654,0,0,1-2.34-1.1,3.693,3.693,0,0,1-.276-3.084l2.709-10.768q.557-2.208-.568-2.208a2.114,2.114,0,0,0-1.6.862,7.479,7.479,0,0,0-1.246,2.129h-.86a9.2,9.2,0,0,1,.769-1.87,6.756,6.756,0,0,1,1.186-1.588,5.377,5.377,0,0,1,1.6-1.1,4.841,4.841,0,0,1,2.031-.412m-.114-6.094A3.21,3.21,0,0,1,112.906.692,3.138,3.138,0,0,1,114.858,0a1.985,1.985,0,0,1,1.619.692,1.961,1.961,0,0,1,.292,1.814,3.236,3.236,0,0,1-1.215,1.851,3.218,3.218,0,0,1-1.969.692,1.932,1.932,0,0,1-1.6-.692,2.034,2.034,0,0,1-.263-1.851" transform="translate(113.981)" fill="#fff"/>
        <path id="Tracé_16149" data-name="Tracé 16149" d="M118.633.108a2.944,2.944,0,0,1,2.489,1.1,3.45,3.45,0,0,1,.357,3.047l-4.821,19.184q-.557,2.2.566,2.205a2.119,2.119,0,0,0,1.606-.881,7.691,7.691,0,0,0,1.24-2.11h.858a9.127,9.127,0,0,1-.767,1.868,6.773,6.773,0,0,1-1.184,1.59,5.5,5.5,0,0,1-1.606,1.1,4.895,4.895,0,0,1-2.029.408,2.651,2.651,0,0,1-2.34-1.1,3.7,3.7,0,0,1-.272-3.082l4.776-19a2.856,2.856,0,0,0,.041-1.571.842.842,0,0,0-.879-.6,2.344,2.344,0,0,0-1.725.842,5.566,5.566,0,0,0-1.2,2.04h-.9a8.067,8.067,0,0,1,.773-1.965,6.4,6.4,0,0,1,1.264-1.606A5.761,5.761,0,0,1,116.573.5a5.259,5.259,0,0,1,2.06-.392" transform="translate(120.727 0.116)" fill="#fff"/>
        <path id="Tracé_16150" data-name="Tracé 16150" d="M124.314.108a2.944,2.944,0,0,1,2.489,1.1,3.45,3.45,0,0,1,.357,3.047l-4.821,19.184q-.557,2.2.566,2.205a2.119,2.119,0,0,0,1.606-.881,7.691,7.691,0,0,0,1.24-2.11h.858a9.128,9.128,0,0,1-.767,1.868,6.773,6.773,0,0,1-1.184,1.59,5.5,5.5,0,0,1-1.606,1.1,4.895,4.895,0,0,1-2.029.408,2.651,2.651,0,0,1-2.34-1.1,3.7,3.7,0,0,1-.272-3.082l4.776-19a2.855,2.855,0,0,0,.041-1.571.842.842,0,0,0-.879-.6,2.344,2.344,0,0,0-1.725.842,5.566,5.566,0,0,0-1.2,2.04h-.9a8.069,8.069,0,0,1,.773-1.965,6.4,6.4,0,0,1,1.264-1.606A5.762,5.762,0,0,1,122.254.5a5.259,5.259,0,0,1,2.06-.392" transform="translate(126.822 0.116)" fill="#fff"/>
        <path id="Tracé_16151" data-name="Tracé 16151" d="M135.132,4.041a7.44,7.44,0,0,1,3.285.69,5.4,5.4,0,0,1,2.232,1.984,7.016,7.016,0,0,1,.993,3.105,11.811,11.811,0,0,1-.371,4.017,14.857,14.857,0,0,1-1.648,4.021,13.258,13.258,0,0,1-2.556,3.105,10.871,10.871,0,0,1-3.229,1.98,9.882,9.882,0,0,1-3.632.694,7.39,7.39,0,0,1-3.283-.694,5.38,5.38,0,0,1-2.234-1.98,7.026,7.026,0,0,1-.995-3.105,11.8,11.8,0,0,1,.375-4.021,14.622,14.622,0,0,1,1.648-4.017,13.056,13.056,0,0,1,2.554-3.105A10.91,10.91,0,0,1,131.5,4.731a9.9,9.9,0,0,1,3.632-.69m-6.577,9.8a23.339,23.339,0,0,0-.611,3.406,9.707,9.707,0,0,0,.066,2.707,3.346,3.346,0,0,0,.846,1.778,2.232,2.232,0,0,0,1.671.634,3.505,3.505,0,0,0,1.992-.634,6.652,6.652,0,0,0,1.737-1.778,13.991,13.991,0,0,0,1.428-2.707,25.644,25.644,0,0,0,1.1-3.406,23.283,23.283,0,0,0,.62-3.42,9.76,9.76,0,0,0-.073-2.693,3.367,3.367,0,0,0-.844-1.776,2.245,2.245,0,0,0-1.673-.634,3.521,3.521,0,0,0-1.992.634,6.729,6.729,0,0,0-1.735,1.776,13.991,13.991,0,0,0-1.426,2.693,25.491,25.491,0,0,0-1.1,3.42" transform="translate(132.652 4.335)" fill="#fff"/>
      </g>
      <g id="Groupe_3831" data-name="Groupe 3831" transform="translate(73.133 39.519)">
        <path id="Tracé_16152" data-name="Tracé 16152" d="M39.171,19.451h6.7a7.289,7.289,0,0,1,2.612.464,4.746,4.746,0,0,1,3.109,3.725,7.6,7.6,0,0,1-.2,3.3A11.206,11.206,0,0,1,50.02,30.18,10.929,10.929,0,0,1,47.87,32.7a9.727,9.727,0,0,1-2.63,1.635,7.322,7.322,0,0,1-2.844.585H35.282l.137-.549h.752a1.3,1.3,0,0,0,.956-.379,2.253,2.253,0,0,0,.562-1.08l2.877-11.448a1.6,1.6,0,0,0-.015-1.082A.789.789,0,0,0,39.782,20H39.03Zm2.574,14.628H42.1a5.076,5.076,0,0,0,2-.408,5.507,5.507,0,0,0,1.8-1.26,9.027,9.027,0,0,0,1.513-2.141,13.878,13.878,0,0,0,1.115-3.041,9.912,9.912,0,0,0,.354-3.07,5.2,5.2,0,0,0-.572-2.166,3.088,3.088,0,0,0-1.281-1.281,3.8,3.8,0,0,0-1.793-.421h-.663a1.8,1.8,0,0,0-1,.276,1.355,1.355,0,0,0-.568.852L40.391,31.826a2.713,2.713,0,0,0-.044,1.71q.249.544,1.4.543" transform="translate(-35.282 -18.653)" fill="#e39077"/>
        <path id="Tracé_16153" data-name="Tracé 16153" d="M50.2,21.455a4.48,4.48,0,0,1,1.6.265,2.7,2.7,0,0,1,1.126.763,2.449,2.449,0,0,1,.547,1.206A3.991,3.991,0,0,1,53.37,25.3a2.607,2.607,0,0,1-.4.885.727.727,0,0,1-.558.375H46.731a11.874,11.874,0,0,0-.307,1.791,5.442,5.442,0,0,0,.089,1.712,2.457,2.457,0,0,0,.725,1.293,2.318,2.318,0,0,0,1.629.506,3.548,3.548,0,0,0,2.259-.771,6.78,6.78,0,0,0,1.64-1.9h.549a6.8,6.8,0,0,1-.854,1.472,6.021,6.021,0,0,1-2.894,2.065,6.031,6.031,0,0,1-1.967.309,4.748,4.748,0,0,1-1.888-.363,3.225,3.225,0,0,1-1.37-1.1,3.841,3.841,0,0,1-.655-1.832,7.247,7.247,0,0,1,.24-2.587,8.7,8.7,0,0,1,.976-2.386,7.822,7.822,0,0,1,1.47-1.8,5.9,5.9,0,0,1,1.82-1.128,5.5,5.5,0,0,1,2.009-.388m-3.238,4.353H50.81L51,25.06a3.807,3.807,0,0,0,.068-2.069,1.022,1.022,0,0,0-1.051-.784,2.2,2.2,0,0,0-1.766.951,8.386,8.386,0,0,0-1.283,2.649" transform="translate(-26.301 -16.503)" fill="#e39077"/>
        <path id="Tracé_16154" data-name="Tracé 16154" d="M49.659,24.527a5.508,5.508,0,0,1,.454-1.1,3.968,3.968,0,0,1,.7-.941,3.22,3.22,0,0,1,.951-.651,2.883,2.883,0,0,1,1.2-.243,1.591,1.591,0,0,1,1.385.64,2.137,2.137,0,0,1,.164,1.812,5.62,5.62,0,0,1,1.725-1.9,3.7,3.7,0,0,1,2.085-.686,2.645,2.645,0,0,1,2.628,1.725,5.2,5.2,0,0,1,.332,1.845,8.767,8.767,0,0,1-.284,2.22,10.229,10.229,0,0,1-.827,2.2,8.71,8.71,0,0,1-1.26,1.845,5.941,5.941,0,0,1-1.613,1.271,3.956,3.956,0,0,1-1.886.475,2.338,2.338,0,0,1-1.741-.684,2.906,2.906,0,0,1-.769-1.9L51.51,35.973a2.49,2.49,0,0,1-.817,1.358,2.13,2.13,0,0,1-1.4.5,1.041,1.041,0,0,1-.4-.068.366.366,0,0,1-.137-.066l3.426-13.633c.22-.871.108-1.3-.334-1.3a1.245,1.245,0,0,0-.945.508,4.5,4.5,0,0,0-.738,1.26Zm3.934,3.159a6.484,6.484,0,0,0-.22,1.758,3.767,3.767,0,0,0,.249,1.337,2.068,2.068,0,0,0,.591.85,1.272,1.272,0,0,0,.831.3,2.348,2.348,0,0,0,1.924-1.269,11.268,11.268,0,0,0,1.376-3.416,9,9,0,0,0,.34-3.412c-.135-.85-.56-1.273-1.283-1.273a1.97,1.97,0,0,0-.983.3,4.334,4.334,0,0,0-1.02.85,6.6,6.6,0,0,0-.92,1.339,7.72,7.72,0,0,0-.663,1.756Z" transform="translate(-20.828 -16.503)" fill="#e39077"/>
        <path id="Tracé_16155" data-name="Tracé 16155" d="M58.92,21.519a1.579,1.579,0,0,1,1.385.651,2.187,2.187,0,0,1,.16,1.824l-1.312,5.217a3.2,3.2,0,0,0-.037,1.909,1.025,1.025,0,0,0,1.045.674,2.2,2.2,0,0,0,1.215-.386,4.886,4.886,0,0,0,1.13-1.061,8.138,8.138,0,0,0,.956-1.569,10.362,10.362,0,0,0,.676-1.888l.725-2.9c.22-.871.108-1.3-.334-1.3a1.241,1.241,0,0,0-.945.51,4.469,4.469,0,0,0-.738,1.258h-.508a5.38,5.38,0,0,1,.456-1.1,3.872,3.872,0,0,1,.7-.941,3.262,3.262,0,0,1,.947-.653,2.917,2.917,0,0,1,1.2-.243,1.58,1.58,0,0,1,1.383.651,2.188,2.188,0,0,1,.158,1.824l-1.6,6.366c-.22.871-.106,1.3.336,1.3a1.253,1.253,0,0,0,.949-.52,4.526,4.526,0,0,0,.732-1.25h.508a5.342,5.342,0,0,1-.454,1.1,3.976,3.976,0,0,1-.7.941,3.235,3.235,0,0,1-.947.653,2.914,2.914,0,0,1-1.2.243,1.567,1.567,0,0,1-1.383-.653,2.173,2.173,0,0,1-.16-1.822l.077-.311a5.92,5.92,0,0,1-1.725,2.123,3.987,3.987,0,0,1-2.456.794,2.5,2.5,0,0,1-2.172-.893,2.875,2.875,0,0,1-.255-2.465l1.412-5.613c.218-.871.108-1.3-.334-1.3a1.238,1.238,0,0,0-.945.51,4.469,4.469,0,0,0-.738,1.258H55.62a5.373,5.373,0,0,1,.454-1.1,3.934,3.934,0,0,1,.7-.941,3.207,3.207,0,0,1,.947-.653,2.9,2.9,0,0,1,1.2-.243" transform="translate(-13.463 -16.434)" fill="#e39077"/>
        <path id="Tracé_16156" data-name="Tracé 16156" d="M65.7,24.149a1.576,1.576,0,0,1,1.383.653,2.187,2.187,0,0,1,.16,1.824l-1.6,6.364c-.22.871-.108,1.3.334,1.3a1.25,1.25,0,0,0,.949-.52,4.551,4.551,0,0,0,.734-1.25h.51a5.614,5.614,0,0,1-.458,1.107,4.062,4.062,0,0,1-.7.941,3.268,3.268,0,0,1-.947.651,2.907,2.907,0,0,1-1.2.243,1.571,1.571,0,0,1-1.383-.653,2.174,2.174,0,0,1-.158-1.822l1.6-6.364c.22-.871.106-1.3-.336-1.3a1.248,1.248,0,0,0-.945.508,4.366,4.366,0,0,0-.734,1.258H62.4a5.55,5.55,0,0,1,.456-1.1,3.968,3.968,0,0,1,.7-.941,3.266,3.266,0,0,1,.951-.653,2.9,2.9,0,0,1,1.2-.243m-.066-3.6a1.891,1.891,0,0,1,.7-1.072,1.859,1.859,0,0,1,1.152-.41,1.174,1.174,0,0,1,.956.41,1.145,1.145,0,0,1,.172,1.072,1.9,1.9,0,0,1-.715,1.094,1.917,1.917,0,0,1-1.165.408,1.141,1.141,0,0,1-.945-.408,1.2,1.2,0,0,1-.155-1.094" transform="translate(-6.191 -19.066)" fill="#e39077"/>
        <path id="Tracé_16157" data-name="Tracé 16157" d="M67.643,28.88a1.26,1.26,0,0,1,.489.066.588.588,0,0,1,.182.064l-.124.775a2.378,2.378,0,0,0,.315,1.812,1.855,1.855,0,0,0,1.617.686,2.487,2.487,0,0,0,.775-.133,2.849,2.849,0,0,0,.732-.367,2.6,2.6,0,0,0,.6-.574,2.062,2.062,0,0,0,.369-.761,1.169,1.169,0,0,0-.207-1.115,3.183,3.183,0,0,0-1.036-.752c-.442-.213-.918-.425-1.432-.63a7.983,7.983,0,0,1-1.41-.73,2.833,2.833,0,0,1-.962-1.049,2.252,2.252,0,0,1-.083-1.6,3.429,3.429,0,0,1,.653-1.316,4.182,4.182,0,0,1,1.128-.983,5.633,5.633,0,0,1,1.48-.605,6.586,6.586,0,0,1,1.679-.211,5.654,5.654,0,0,1,1.405.166,3.832,3.832,0,0,1,1.113.454,1.882,1.882,0,0,1,.676.7,1.182,1.182,0,0,1,.1.871,1.59,1.59,0,0,1-.661.962,1.9,1.9,0,0,1-1.082.342,1.484,1.484,0,0,1-.269-.021c-.077-.015-.149-.031-.22-.046a.557.557,0,0,1-.182-.066l.093-.64a1.77,1.77,0,0,0-.292-1.426,1.515,1.515,0,0,0-1.266-.541,2.629,2.629,0,0,0-1.422.377,1.647,1.647,0,0,0-.763,1.016,1.093,1.093,0,0,0,.224,1.082,3.449,3.449,0,0,0,1.053.74c.439.216.922.421,1.445.62a7.082,7.082,0,0,1,1.42.728,3.09,3.09,0,0,1,.974,1.051,2.169,2.169,0,0,1,.1,1.592,4.153,4.153,0,0,1-.763,1.579,4.968,4.968,0,0,1-1.256,1.128,5.9,5.9,0,0,1-1.563.686,6.658,6.658,0,0,1-3.441.008,3.57,3.57,0,0,1-1.25-.607,2.006,2.006,0,0,1-.67-.893,1.847,1.847,0,0,1-.037-1.084,1.68,1.68,0,0,1,.659-.995,1.893,1.893,0,0,1,1.117-.352" transform="translate(-2.539 -16.503)" fill="#e39077"/>
        <path id="Tracé_16158" data-name="Tracé 16158" d="M76.922,21.864l.773-.354c.636-.292,1.285-.626,1.953-.993a17.457,17.457,0,0,0,1.87-1.194h.551L78.618,33.047a1.581,1.581,0,0,0,.017,1.08.776.776,0,0,0,.767.379h.752l-.139.549H73.894l.137-.549h.752a1.308,1.308,0,0,0,.958-.379,2.232,2.232,0,0,0,.558-1.08L78.8,23.079a1.993,1.993,0,0,0,.091-.839c-.039-.16-.187-.243-.437-.243a2.916,2.916,0,0,0-.985.222l-.435.153Z" transform="translate(6.141 -18.79)" fill="#e39077"/>
        <path id="Tracé_16159" data-name="Tracé 16159" d="M79.666,24.694a6.512,6.512,0,0,1,.987-2.156,7.583,7.583,0,0,1,1.633-1.7,7.666,7.666,0,0,1,2.083-1.128,6.828,6.828,0,0,1,2.313-.408,4.508,4.508,0,0,1,2.2.5,3.389,3.389,0,0,1,1.405,1.449,5.463,5.463,0,0,1,.537,2.33,11.363,11.363,0,0,1-.392,3.149,15.643,15.643,0,0,1-1.273,3.391,12.281,12.281,0,0,1-1.907,2.751,8.756,8.756,0,0,1-2.4,1.847,5.9,5.9,0,0,1-2.744.674,6.055,6.055,0,0,1-1.683-.2,3.236,3.236,0,0,1-1.107-.518,1.587,1.587,0,0,1-.564-.738,1.482,1.482,0,0,1-.033-.887,1.6,1.6,0,0,1,.678-.98,1.9,1.9,0,0,1,1.07-.342,1.306,1.306,0,0,1,.531.087l0,.529A2.811,2.811,0,0,0,81.42,34a1.443,1.443,0,0,0,1.275.643,2.383,2.383,0,0,0,1.439-.531,5.93,5.93,0,0,0,1.356-1.536,14.786,14.786,0,0,0,1.24-2.465,26.3,26.3,0,0,0,1.055-3.312,6.5,6.5,0,0,1-1.971,1.812,5.2,5.2,0,0,1-2.736.725,4.206,4.206,0,0,1-1.747-.34,2.992,2.992,0,0,1-1.206-.962,3.25,3.25,0,0,1-.578-1.47,4.709,4.709,0,0,1,.122-1.866m4.705,3.447a2.846,2.846,0,0,0,1.074-.222,4.5,4.5,0,0,0,1.036-.607,5.871,5.871,0,0,0,1.65-2.087,7.138,7.138,0,0,0-.1-3.891,1.891,1.891,0,0,0-1.822-1.281,2.711,2.711,0,0,0-1.152.274,3.733,3.733,0,0,0-1.07.786A5.527,5.527,0,0,0,83.1,22.34a7.048,7.048,0,0,0-.62,1.623,6,6,0,0,0-.2,1.725,3.419,3.419,0,0,0,.3,1.314,2.028,2.028,0,0,0,.717.839,1.912,1.912,0,0,0,1.074.3" transform="translate(11.261 -18.814)" fill="#e39077"/>
        <path id="Tracé_16160" data-name="Tracé 16160" d="M86.194,24.694a6.467,6.467,0,0,1,.985-2.156,7.583,7.583,0,0,1,1.633-1.7,7.666,7.666,0,0,1,2.083-1.128,6.825,6.825,0,0,1,2.311-.408,4.516,4.516,0,0,1,2.2.5,3.388,3.388,0,0,1,1.405,1.449,5.462,5.462,0,0,1,.537,2.33,11.285,11.285,0,0,1-.392,3.149,15.641,15.641,0,0,1-1.273,3.391,12.28,12.28,0,0,1-1.907,2.751,8.756,8.756,0,0,1-2.4,1.847,5.9,5.9,0,0,1-2.744.674,6.066,6.066,0,0,1-1.683-.2,3.217,3.217,0,0,1-1.107-.518,1.606,1.606,0,0,1-.566-.738,1.515,1.515,0,0,1-.033-.887,1.606,1.606,0,0,1,.68-.98,1.9,1.9,0,0,1,1.07-.342,1.305,1.305,0,0,1,.531.087l0,.529A2.826,2.826,0,0,0,87.943,34a1.449,1.449,0,0,0,1.277.643,2.378,2.378,0,0,0,1.436-.531,5.9,5.9,0,0,0,1.36-1.536,14.783,14.783,0,0,0,1.24-2.465,26.322,26.322,0,0,0,1.051-3.312,6.445,6.445,0,0,1-1.969,1.812,5.2,5.2,0,0,1-2.734.725,4.2,4.2,0,0,1-1.749-.34,2.993,2.993,0,0,1-1.206-.962,3.274,3.274,0,0,1-.578-1.47,4.711,4.711,0,0,1,.124-1.866m4.7,3.447a2.84,2.84,0,0,0,1.076-.222A4.4,4.4,0,0,0,93,27.312a5.63,5.63,0,0,0,.931-.929,5.812,5.812,0,0,0,.721-1.159,7.138,7.138,0,0,0-.1-3.891,1.891,1.891,0,0,0-1.822-1.281,2.7,2.7,0,0,0-1.152.274,3.8,3.8,0,0,0-1.072.786,5.657,5.657,0,0,0-.881,1.227,6.865,6.865,0,0,0-.62,1.623,5.929,5.929,0,0,0-.2,1.725,3.419,3.419,0,0,0,.3,1.314,2.024,2.024,0,0,0,.715.839,1.927,1.927,0,0,0,1.074.3" transform="translate(18.261 -18.814)" fill="#e39077"/>
        <path id="Tracé_16161" data-name="Tracé 16161" d="M91.1,30.9l2.933-3.225a21.322,21.322,0,0,0,2.042-2.541,6.923,6.923,0,0,0,1-2.1,2.2,2.2,0,0,0-.081-1.656,1.446,1.446,0,0,0-1-.73,2.7,2.7,0,0,1,.73-.918,1.7,1.7,0,0,1,1.1-.361,1.3,1.3,0,0,1,1.188.585,1.941,1.941,0,0,1,.131,1.557,7.55,7.55,0,0,1-.485,1.347,9.935,9.935,0,0,1-.8,1.383,18.526,18.526,0,0,1-1.184,1.534c-.46.547-1.005,1.157-1.633,1.834l-2.145,2.3h5.659l1.9-7.58,2.467-2.784h.553l-2.606,10.364h1.9l-.4,1.59h-1.9l-.377,1.5a1.556,1.556,0,0,0,.017,1.08.774.774,0,0,0,.767.379h.75l-.137.549H94.706l.139-.549h.97a2.033,2.033,0,0,0,1.31-.379A1.917,1.917,0,0,0,97.773,33l.377-1.5H91.279Z" transform="translate(24.596 -18.743)" fill="#e39077"/>
      </g>
    </g>
  </g>
</svg>
